<?xml version="1.0" encoding="UTF-8"?>
<svg version="1.1" xmlns="http://www.w3.org/2000/svg" width="341" height="353">
<path d="M0 0 C5.1078684 2.62167782 10.11542683 5.9159398 13 11 C13.3984375 14.27734375 13.3984375 14.27734375 13.375 17.9375 C13.38273438 19.14277344 13.39046875 20.34804688 13.3984375 21.58984375 C12.88155862 26.01371886 11.3161373 28.52574302 8.38647461 31.80737305 C4.04626123 38.6711618 9.05007657 52.25990302 10.5625 59.75 C10.79646484 60.9359375 11.03042969 62.121875 11.27148438 63.34375 C11.84182643 66.23037916 12.41807186 69.1156884 13 72 C14.23492187 72.01417969 15.46984375 72.02835937 16.7421875 72.04296875 C28.86340168 72.32976157 39.50552654 74.21051423 51 78 C52.02996094 78.32871094 53.05992187 78.65742187 54.12109375 78.99609375 C56.08945789 79.63788487 58.04701226 80.31283765 60 81 C60.15855469 80.18402344 60.31710938 79.36804688 60.48046875 78.52734375 C62.82003828 66.6485349 65.40323859 54.82489634 68 43 C67.21520264 42.70504639 66.43040527 42.41009277 65.62182617 42.10620117 C61.23785898 40.25651728 58.69943914 36.82652455 56 33 C54.10146108 28.29492528 53.43837002 24.05466981 54 19 C57.80333984 13.69063969 62.20380121 9.08922573 68 6 C72.51259737 5.48040181 76.55885795 6.16500267 81 7 C82.10730469 7.144375 83.21460938 7.28875 84.35546875 7.4375 C93.46348519 8.68000651 93.46348519 8.68000651 97 12 C98.24204644 15.72613933 98.47745894 19.36130439 98.75 23.25 C98.81832031 23.98863281 98.88664063 24.72726563 98.95703125 25.48828125 C99.40654183 32.02347359 97.86185636 37.08306137 93.8125 42.375 C90.08548479 45.85354753 88.00044504 45.83049339 83 46 C82.90847656 47.01449219 82.81695312 48.02898437 82.72265625 49.07421875 C81.88621533 55.77017174 80.07285807 62.27669857 78.4375 68.8125 C77.78626233 71.42220423 77.13998112 74.03298806 76.49609375 76.64453125 C76.06574829 78.36700073 76.06574829 78.36700073 75.62670898 80.12426758 C74.8935338 82.99799518 74.8935338 82.99799518 75 86 C79.3217889 88.24499598 83.64514987 90.48692457 87.9699707 92.72607422 C89.43980385 93.48761058 90.90921041 94.24997091 92.37817383 95.01318359 C94.49447747 96.11254349 96.61231741 97.20889269 98.73046875 98.3046875 C99.38274948 98.6443454 100.03503021 98.9840033 100.70707703 99.33395386 C108.45611702 103.5571026 108.45611702 103.5571026 117 104 C119.90815363 101.09184637 121.75350756 98.42498696 123.8125 94.875 C127.10936438 90.54197825 130.87355486 88.53471487 136.23828125 87.6171875 C141.7306248 87.33261011 146.61031691 88.58931098 151 92 C155.09707878 98.11225433 153.45553555 106.79375984 152.2421875 113.64453125 C151.92171881 115.2442772 151.59102815 116.8420104 151.25 118.4375 C151.09321777 119.19434082 150.93643555 119.95118164 150.77490234 120.73095703 C149.88650325 124.57330438 149.08162402 126.88614856 146.734375 130.16015625 C144.65914062 132.86517004 144.65914062 132.86517004 145.46484375 135.86328125 C147.35699339 139.72942923 149.39386981 143.47033767 151.5625 147.1875 C152.37865604 148.59629516 153.19255391 150.00640159 154.00390625 151.41796875 C154.36299072 152.03438232 154.7220752 152.6507959 155.09204102 153.28588867 C157.40535599 157.65313374 157.2296934 162.01708795 157.30859375 166.828125 C157.32372009 167.71746735 157.33884644 168.60680969 157.35443115 169.52310181 C157.39459091 172.43209957 157.41950809 175.34078243 157.4375 178.25 C157.4436734 179.23631409 157.4498468 180.22262817 157.45620728 181.23883057 C157.51769885 204.60800322 155.81861484 227.32083534 142.67236328 247.26171875 C140.64105151 250.37173819 138.69988845 253.48272885 136.9375 256.75390625 C131.31003676 267.07787299 124.06424012 274.55366546 115 282 C114.00262817 282.8202063 114.00262817 282.8202063 112.98510742 283.65698242 C108.94171297 286.84572282 105.49096432 288.86677865 100.4375 290.1875 C97.08905598 291.08506333 94.02467562 291.98882849 90.86206055 293.4206543 C86.67462741 295.23769178 82.40550905 296.23785579 77.9609375 297.2265625 C77.11705475 297.41971039 76.273172 297.61285828 75.40371704 297.81185913 C72.72884793 298.42245769 70.0519923 299.02378652 67.375 299.625 C65.57017721 300.03586451 63.76548826 300.44731738 61.9609375 300.859375 C58.65361667 301.61239459 55.34593353 302.36368756 52.03662109 303.10791016 C51.37600677 303.25652496 50.71539246 303.40513977 50.03475952 303.55825806 C49.36328888 303.7040329 48.69181824 303.84980774 48 304 C47.27317017 304.17876678 46.54634033 304.35753357 45.79748535 304.54171753 C41.92758994 305.17568161 38.1194599 305.18933213 34.20361328 305.22460938 C33.32608902 305.23599945 32.44856476 305.24738953 31.54444885 305.25912476 C22.27584563 305.37075025 13.00643916 305.41740797 3.73730469 305.45996094 C-0.62476387 305.48198631 -4.98594288 305.52337485 -9.34765625 305.58300781 C-81.15601072 306.54083665 -81.15601072 306.54083665 -102.66552734 286.44384766 C-112.61692226 276.19437664 -112.61692226 276.19437664 -113.23046875 269.4765625 C-113.18283596 266.31547709 -113.11475972 263.15947847 -113 260 C-112.95875 258.77152344 -112.9175 257.54304688 -112.875 256.27734375 C-112.34709162 245.81815905 -112.34709162 245.81815905 -109 241 C-108.34 240.01 -107.68 239.02 -107 238 C-107.721875 237.30519531 -108.44375 236.61039063 -109.1875 235.89453125 C-112.05207692 233.02692837 -114.55094509 229.91201765 -117 226.6875 C-117.43497803 226.11789551 -117.86995605 225.54829102 -118.31811523 224.96142578 C-128.12182077 211.99636045 -128.12182077 211.99636045 -128.1328125 204.81640625 C-128.13506836 203.98069092 -128.13732422 203.14497559 -128.13964844 202.28393555 C-128.13481445 201.38586182 -128.12998047 200.48778809 -128.125 199.5625 C-128.12016602 198.63542236 -128.11533203 197.70834473 -128.11035156 196.75317383 C-128.08566654 193.83515774 -128.04578785 190.9177574 -128 188 C-127.98743164 187.0709082 -127.97486328 186.14181641 -127.96191406 185.18457031 C-127.9153253 182.51760116 -127.83829935 179.8533836 -127.75 177.1875 C-127.73598145 176.38320557 -127.72196289 175.57891113 -127.70751953 174.75024414 C-127.4103681 167.68883208 -125.3186414 162.58545427 -120.58984375 157.3125 C-104.43740418 143.22966609 -104.43740418 143.22966609 -99.13208008 141.33178711 C-91.59187688 138.48959196 -89.33539245 132.26980016 -86.0625 125.3125 C-85.48693359 124.16587891 -84.91136719 123.01925781 -84.31835938 121.83789062 C-78.60893739 110.08952761 -78.69042273 102.29495969 -81.23632812 89.72851562 C-82.35580416 83.2714534 -81.72567499 79.42647468 -78 74 C-75.08889383 70.04388136 -72.18867637 67.48427556 -67.625 65.625 C-61.07111809 66.30298778 -56.51202734 71.15128553 -52.1875 75.875 C-49.39258759 79.86773201 -46 84.96505834 -46 90 C-36.79197714 88.09898883 -28.0854875 85.02050546 -19.27514648 81.78125 C-14.95711219 80.22580743 -10.94066078 78.84991599 -6.359375 78.3828125 C-5.25078125 78.25648437 -4.1421875 78.13015625 -3 78 C-1.38660391 74.77320781 -2.72051899 71.55104251 -3.43359375 68.1484375 C-3.59038101 67.37440582 -3.74716827 66.60037415 -3.90870667 65.80288696 C-4.41201574 63.32559353 -4.92464293 60.85033258 -5.4375 58.375 C-5.77991127 56.698042 -6.12171597 55.02096002 -6.46289062 53.34375 C-7.30155622 49.22769388 -8.14858485 45.11343694 -9 41 C-9.836521 40.73590332 -10.67304199 40.47180664 -11.53491211 40.19970703 C-12.62553955 39.84763184 -13.71616699 39.49555664 -14.83984375 39.1328125 C-15.92386475 38.78621582 -17.00788574 38.43961914 -18.12475586 38.08251953 C-21.83026266 36.68740896 -23.2230259 35.55394821 -25 32 C-28.12649093 24.84097384 -28.3500099 19.42448181 -26 12 C-25.67 10.948125 -25.34 9.89625 -25 8.8125 C-18.60367516 -0.18233181 -10.60867244 -3.04772374 0 0 Z M117 227 C118 229 118 229 118 229 Z M-33.125 232 C-34.21167969 232.8353125 -34.21167969 232.8353125 -35.3203125 233.6875 C-35.87460938 234.120625 -36.42890625 234.55375 -37 235 C-36.67 235.66 -36.34 236.32 -36 237 C-31.41173718 235.06273348 -29.19471406 233.51135667 -27 229 C-29.81484045 229 -30.92209756 230.29452714 -33.125 232 Z " fill="#010101" transform="translate(153,21)"/>
<path d="M0 0 C1.5149707 0.77053711 1.5149707 0.77053711 3.06054688 1.55664062 C11.03343902 5.79306187 14.96102278 9.89666789 18.30078125 18.41015625 C19.88932165 22.04210545 21.92506416 25.44361408 23.8828125 28.88671875 C26.67049043 34.33687949 26.36525405 39.43618453 26.1875 45.4375 C26.16236328 46.76201172 26.16236328 46.76201172 26.13671875 48.11328125 C25.75420828 55.66513085 23.35857259 61.6368865 20.1875 68.4375 C19.92453125 69.1696875 19.6615625 69.901875 19.390625 70.65625 C16.76306219 77.41284009 10.57081476 82.26577268 4.1875 85.4375 C-3.70506192 88.196136 -12.05147897 89.59269596 -20.25 91.125 C-21.95639648 91.46241211 -21.95639648 91.46241211 -23.69726562 91.80664062 C-35.80583101 94.07915518 -45.69861068 94.98238539 -56.609375 88.75390625 C-61.91456243 84.91734997 -64.70961145 80.09954663 -67.8125 74.4375 C-68.89345991 72.72766388 -69.97664315 71.01923044 -71.0625 69.3125 C-73.47879427 65.24156943 -75.30661815 61.09807655 -76.953125 56.6640625 C-77.7511295 54.43125225 -77.7511295 54.43125225 -78.93359375 52.47265625 C-81.71112052 46.0411387 -78.59265431 36.41871705 -77.5 29.625 C-77.39469971 28.92028564 -77.28939941 28.21557129 -77.1809082 27.48950195 C-76.14910715 21.49714607 -74.2213858 16.67619278 -69.65625 12.43359375 C-59.43239886 5.63473274 -49.65637121 0.99654489 -37.7109375 -1.68359375 C-33.38012055 -2.65998034 -29.12135192 -3.8343064 -24.8515625 -5.046875 C-14.99397675 -6.71937027 -8.73229777 -4.76668694 0 0 Z " fill="#F3EEE9" transform="translate(251.8125,177.5625)"/>
<path d="M0 0 C1.52463867 0.0928125 1.52463867 0.0928125 3.08007812 0.1875 C6.11960417 0.38122378 9.15204616 0.62622861 12.1875 0.875 C13.70150391 0.96914185 13.70150391 0.96914185 15.24609375 1.06518555 C16.21289062 1.13261963 17.1796875 1.20005371 18.17578125 1.26953125 C19.46609253 1.35231323 19.46609253 1.35231323 20.7824707 1.43676758 C24.40995905 2.09775038 26.84599635 3.89756332 29.75 6.0859375 C32.56990751 8.15567731 35.52816712 9.82348375 38.5625 11.5625 C43.23046357 14.44226601 47.39172569 17.47703937 51.375 21.25 C52.25542969 22.08273438 53.13585937 22.91546875 54.04296875 23.7734375 C59.92312364 32.27770523 58.59196215 44.12488305 58.61303711 54.07226562 C58.62506797 56.76521336 58.67448611 59.45596233 58.72460938 62.1484375 C58.73406113 63.86717643 58.74130212 65.58592926 58.74609375 67.3046875 C58.76562607 68.10574921 58.78515839 68.90681091 58.80528259 69.73214722 C58.77342494 73.65414882 58.63807182 75.42502937 55.80883789 78.25048828 C54.94379639 78.78657715 54.07875488 79.32266602 53.1875 79.875 C51.95 81.1434375 51.95 81.1434375 50.6875 82.4375 C48.31135277 84.75424355 46.03397265 86.21455762 43.1875 87.875 C42.8575 88.535 42.5275 89.195 42.1875 89.875 C39.40110283 90.80379906 37.67724269 91.01083034 34.79541016 91.03613281 C33.91084137 91.04574036 33.02627258 91.0553479 32.11489868 91.06524658 C30.68517227 91.0716214 30.68517227 91.0716214 29.2265625 91.078125 C28.24384369 91.08382507 27.26112488 91.08952515 26.24862671 91.09539795 C24.16901729 91.10484519 22.08939293 91.11138083 20.00976562 91.11523438 C16.83176519 91.12494116 13.65441118 91.15596786 10.4765625 91.1875 C8.45573301 91.19403011 6.43489889 91.19928055 4.4140625 91.203125 C3.46496002 91.2154718 2.51585754 91.2278186 1.53799438 91.24053955 C-3.45295546 91.22372646 -6.71810189 91.04702818 -10.8125 87.875 C-12.13948801 87.23663834 -13.47249575 86.61056645 -14.8125 86 C-18.53567681 84.1558749 -21.04396353 82.01766301 -23.8125 78.875 C-24.27914062 78.35292969 -24.74578125 77.83085937 -25.2265625 77.29296875 C-28.8125 73.17615223 -28.8125 73.17615223 -28.8125 70.875 C-29.4725 70.875 -30.1325 70.875 -30.8125 70.875 C-34.8125 65.46323529 -34.8125 65.46323529 -34.8125 62.875 C-35.8025 62.545 -36.7925 62.215 -37.8125 61.875 C-37.93675623 56.46736899 -38.02714659 51.06058171 -38.0871582 45.65185547 C-38.11219289 43.81479401 -38.14623145 41.97783107 -38.18969727 40.14111328 C-38.25084037 37.48966073 -38.27881957 34.83953266 -38.30078125 32.1875 C-38.32658768 31.37571289 -38.3523941 30.56392578 -38.37898254 29.72753906 C-38.38193915 23.61941855 -36.65575206 19.61536641 -32.8125 14.875 C-30.82463349 12.94429094 -28.75304083 11.29758031 -26.5 9.6875 C-25.96955078 9.28853516 -25.43910156 8.88957031 -24.89257812 8.47851562 C-23.79671488 7.66613317 -22.68690512 6.872264 -21.56469727 6.09667969 C-20.35795628 5.25530699 -19.17939258 4.37253104 -18.02709961 3.45800781 C-12.13657797 -0.86935052 -7.09168788 -0.58689831 0 0 Z " fill="#F2EDE7" transform="translate(72.8125,169.125)"/>
<path d="M0 0 C6.10192281 3.68417981 9.24513701 9.40720359 12.3203125 15.703125 C13.62730175 18.26847134 14.99415703 20.68570487 16.48046875 23.14453125 C21.12180945 31.02230738 24.94634795 37.98453073 24.875 47.3125 C24.86762817 48.34177612 24.86762817 48.34177612 24.86010742 49.3918457 C24.57079624 54.22867348 22.99792972 57.26107255 20 61 C16.35595793 62.82202104 12.94502908 62.94466811 9 62 C4.40835379 58.85936558 -0.20592233 55.382233 -2 50 C-2.66 50 -3.32 50 -4 50 C-4.36351563 48.948125 -4.36351563 48.948125 -4.734375 47.875 C-6.30459089 43.43008116 -7.83648662 39.12964821 -10.125 35 C-12.62053413 30.28402999 -13.26870517 25.23453142 -14 20 C-14.66 20 -15.32 20 -16 20 C-16.10826289 17.5821288 -16.18739789 15.16912444 -16.25 12.75 C-16.28351563 12.06808594 -16.31703125 11.38617188 -16.3515625 10.68359375 C-16.41949729 7.18495207 -16.29299486 5.37532399 -14.109375 2.578125 C-9.67913008 -0.73635453 -5.39101237 -0.71437144 0 0 Z " fill="#060505" transform="translate(90,188)"/>
<path d="M0 0 C3.59684865 3.27033357 5.27177203 5.45635394 5.59375 10.34765625 C5.58848836 11.91957268 5.55670197 13.49159776 5.5 15.0625 C5.50386719 16.24682617 5.50386719 16.24682617 5.5078125 17.45507812 C5.43069044 22.05540882 5.03187674 25.30675799 2 29 C1.34 29 0.68 29 0 29 C-0.2475 29.721875 -0.495 30.44375 -0.75 31.1875 C-2.11136803 34.25057808 -3.88983277 36.41334339 -6 39 C-6.33 39.99 -6.66 40.98 -7 42 C-7.598125 42.556875 -8.19625 43.11375 -8.8125 43.6875 C-11.31071224 46.32846722 -12.47222439 48.8762452 -13.875 52.1953125 C-15.30504579 54.4893443 -16.46849712 55.10488296 -19 56 C-24.67637458 55.81979763 -27.90162132 55.22645301 -32 51 C-32 50.34 -32 49.68 -32 49 C-32.66 49 -33.32 49 -34 49 C-34.96308613 44.93962888 -35.16520857 41.10599699 -35.1875 36.9375 C-35.20167969 35.72964844 -35.21585938 34.52179688 -35.23046875 33.27734375 C-35.01494866 30.21257502 -34.61519102 28.56004585 -33 26 C-32.34 26 -31.68 26 -31 26 C-30.89945313 24.49179688 -30.89945313 24.49179688 -30.796875 22.953125 C-30.14050984 18.39528861 -27.9643864 15.3744119 -25.25 11.75 C-24.81945312 11.13898438 -24.38890625 10.52796875 -23.9453125 9.8984375 C-18.17604296 1.98728346 -9.71018655 -1.2529273 0 0 Z " fill="#070707" transform="translate(230,194)"/>
<path d="M0 0 C0.66 0.99 1.32 1.98 2 3 C0.68 4.32 -0.64 5.64 -2 7 C-2.33 6.01 -2.66 5.02 -3 4 C-1.5625 1.8125 -1.5625 1.8125 0 0 Z M-5 7 C-4.34 7.33 -3.68 7.66 -3 8 C-3.99 9.485 -3.99 9.485 -5 11 C-5.66 10.67 -6.32 10.34 -7 10 C-6.34 9.01 -5.68 8.02 -5 7 Z " fill="#CBC8C3" transform="translate(226,229)"/>
<path d="M0 0 C6.93 0.495 6.93 0.495 14 1 C14 1.33 14 1.66 14 2 C13.39671875 2.04898438 12.7934375 2.09796875 12.171875 2.1484375 C10.97304687 2.26058594 10.97304687 2.26058594 9.75 2.375 C8.56664063 2.47941406 8.56664063 2.47941406 7.359375 2.5859375 C4.914123 3.01507113 3.15163097 3.78600638 1 5 C0.67 3.35 0.34 1.7 0 0 Z " fill="#C8C4C0" transform="translate(75,186)"/>
<path d="M0 0 C0 1.65 0 3.3 0 5 C-2.97 4.01 -5.94 3.02 -9 2 C-9 1.67 -9 1.34 -9 1 C-2.25 0 -2.25 0 0 0 Z " fill="#DCD9D4" transform="translate(110,249)"/>
<path d="M0 0 C0.66 0.33 1.32 0.66 2 1 C0.37660195 2.70884005 -1.29319053 4.37446717 -3 6 C-3.66 6 -4.32 6 -5 6 C-4.67 6.99 -4.34 7.98 -4 9 C-4.99 9 -5.98 9 -7 9 C-5.64978174 4.58110387 -3.73884332 2.65654657 0 0 Z " fill="#BEBBB6" transform="translate(44,181)"/>
</svg>
