<?xml version="1.0" encoding="UTF-8"?>
<svg version="1.1" xmlns="http://www.w3.org/2000/svg" width="449" height="368">
<path d="M0 0 C1.91425781 0.00193359 1.91425781 0.00193359 3.8671875 0.00390625 C22.30239809 0.175308 22.30239809 0.175308 30 7.4375 C31.10924596 8.43908723 32.21994868 9.43906326 33.33203125 10.4375 C33.87939941 10.93507813 34.42676758 11.43265625 34.99072266 11.9453125 C38.2411643 14.78884197 41.78770079 17.28666779 45.28515625 19.81640625 C51.01503863 26.08197046 52.70445361 35.53923031 54.875 43.5625 C55.2771875 44.98079102 55.2771875 44.98079102 55.6875 46.42773438 C58.53181466 56.83995768 57.6957155 63.79556265 52.625 73.375 C50.52720624 76.314901 48.18028761 78.83070287 45.625 81.375 C45.05652344 82.00277344 44.48804688 82.63054687 43.90234375 83.27734375 C37.70025264 89.95977904 30.12827691 92.73653852 21.625 95.625 C20.46291016 96.0271875 20.46291016 96.0271875 19.27734375 96.4375 C17.39491049 97.08821767 15.51019275 97.73232065 13.625 98.375 C15.4833595 104.25176025 17.63447804 109.87396165 20.08837891 115.52612305 C29.96927222 138.3646736 35.4983444 161.69435513 40.47064209 185.98121643 C41.06271061 188.84798001 41.6981439 191.59443169 42.625 194.375 C42.7173893 195.79064808 42.75567757 197.21024818 42.7578125 198.62890625 C42.75998779 199.47493408 42.76216309 200.32096191 42.7644043 201.19262695 C42.75965088 202.09843506 42.75489746 203.00424316 42.75 203.9375 C42.74589111 204.86973389 42.74178223 205.80196777 42.73754883 206.76245117 C42.68907308 212.90740374 42.57764971 219.04791266 42.3125 225.1875 C42.27890381 226.25109741 42.27890381 226.25109741 42.24462891 227.33618164 C41.9754018 232.47159727 40.66862907 236.67506433 38.625 241.375 C38.35953369 241.99318604 38.09406738 242.61137207 37.82055664 243.24829102 C35.87061362 247.6784815 33.7524322 252.02800749 31.625 256.375 C31.20863281 257.25414062 30.79226563 258.13328125 30.36328125 259.0390625 C23.25518636 272.44802384 9.62440522 283.78893799 -3.875 290.1875 C-4.79627686 290.62690918 -5.71755371 291.06631836 -6.66674805 291.51904297 C-13.90328342 294.88147355 -21.23809964 297.4453719 -28.84106445 299.83349609 C-35.75180492 302.04788729 -41.99527152 304.96150683 -48.40625 308.328125 C-55.54298282 312.06880689 -62.97061828 315.20803357 -70.375 318.375 C-71.47199219 318.849375 -72.56898438 319.32375 -73.69921875 319.8125 C-97.59221254 329.60220296 -123.79115366 331.82922256 -149.375 332.375 C-150.51050293 332.40223145 -151.64600586 332.42946289 -152.81591797 332.45751953 C-172.37624126 332.87016268 -189.61375506 332.03643947 -208.05078125 325.43359375 C-211.74995209 324.25559692 -215.07945289 323.90565007 -218.92578125 323.6640625 C-230.47242826 322.30130033 -241.6163313 315.93685549 -251.21875 309.69921875 C-253.85273523 308.08160825 -256.5712456 306.67830211 -259.3125 305.25 C-261.67359644 303.96926764 -264.02709036 302.67932559 -266.375 301.375 C-267.00019531 301.03355957 -267.62539063 300.69211914 -268.26953125 300.34033203 C-286.91544414 289.94775784 -304.10871404 273.69248084 -313.375 254.375 C-313.90367676 253.5794873 -314.43235352 252.78397461 -314.97705078 251.96435547 C-320.3672674 243.68943572 -322.29820331 235.78896764 -323.94873047 226.2109375 C-324.37649636 223.7413612 -324.84360411 221.28162167 -325.31640625 218.8203125 C-326.63870442 211.69631483 -327.84554489 205.08198247 -326.69873047 197.85253906 C-325.81572961 191.09485228 -326.38607036 184.08126373 -326.50195312 177.27929688 C-326.51291016 176.07724609 -326.52386719 174.87519531 -326.53515625 173.63671875 C-326.55199463 172.55350342 -326.56883301 171.47028809 -326.58618164 170.35424805 C-326.368241 167.27964727 -325.59330685 165.1797932 -324.375 162.375 C-324.3061409 160.29270073 -324.29028451 158.20831905 -324.3125 156.125 C-323.82705904 147.2470317 -319.81313377 140.76684193 -315.4140625 133.21777344 C-314.12883572 130.93842858 -313.07018912 128.60107796 -312.0625 126.1875 C-310.52888538 122.59993724 -308.65201915 119.56282681 -306.375 116.375 C-305.12419724 114.58389367 -303.87425286 112.7921877 -302.625 111 C-301.54232521 109.45787078 -300.4592148 107.91604688 -299.375 106.375 C-300.87481406 102.43907176 -303.0838497 101.00512502 -306.5625 98.75 C-316.11381777 91.98292257 -320.43089345 83.16711572 -324.375 72.375 C-324.69597656 71.58738281 -325.01695312 70.79976563 -325.34765625 69.98828125 C-328.26730719 61.98979564 -327.7783498 53.74970622 -327.375 45.375 C-327.35179687 44.36953125 -327.32859375 43.3640625 -327.3046875 42.328125 C-326.38736726 32.32637525 -318.61971759 24.24317006 -311.46875 17.7265625 C-303.01921645 11.30406351 -294.12399614 6.34629774 -283.375 6.375 C-281.99267055 6.21798785 -280.61122086 6.05313908 -279.23046875 5.8828125 C-267.91435963 4.81622594 -259.5951471 7.3259518 -249.4375 12.375 C-247.75817383 13.20281982 -247.75817383 13.20281982 -246.04492188 14.04736328 C-239.52614197 17.51880273 -235.44826043 20.60216212 -232.375 27.375 C-231.92511719 28.25929688 -231.47523438 29.14359375 -231.01171875 30.0546875 C-230.69847656 30.77914062 -230.38523437 31.50359375 -230.0625 32.25 C-229.73636719 32.98992188 -229.41023438 33.72984375 -229.07421875 34.4921875 C-228.375 36.375 -228.375 36.375 -228.375 38.375 C-227.6015625 37.98828125 -226.828125 37.6015625 -226.03125 37.203125 C-222.8125 35.59375 -219.59375 33.984375 -216.375 32.375 C-215.78162842 32.05792084 -215.18825684 31.74084167 -214.5769043 31.41415405 C-209.90569129 28.96093084 -205.39687687 27.33508671 -200.28125 26.0859375 C-199.15656311 25.8018956 -199.15656311 25.8018956 -198.00915527 25.51211548 C-196.43043328 25.11608354 -194.85053063 24.7247309 -193.26953125 24.33789062 C-190.90512522 23.75739616 -188.54637176 23.15722539 -186.1875 22.5546875 C-167.02215821 17.74608174 -147.57450624 15.98872313 -127.82275391 16.33349609 C-126.13503836 16.36211285 -124.44717593 16.38279393 -122.75927734 16.39697266 C-97.3915972 16.66295686 -61.07733919 18.02852072 -41.375 36.375 C-40.64312976 34.79291454 -39.91472287 33.20922706 -39.1875 31.625 C-38.49140625 30.12066406 -38.49140625 30.12066406 -37.78125 28.5859375 C-36.35126517 25.42582676 -36.35126517 25.42582676 -35.28125 22.2890625 C-32.37913875 14.22533909 -28.33069013 9.37503233 -21.375 4.375 C-20.41078125 3.64023437 -19.4465625 2.90546875 -18.453125 2.1484375 C-12.84683497 -0.95317297 -6.20697483 -0.11840615 0 0 Z " fill="#010101" transform="translate(363.375,17.625)"/>
<path d="M0 0 C1.55859838 0.23575438 3.12161873 0.44382365 4.6875 0.625 C13.4371452 2.2377269 25.28023381 4.89678089 31.53857422 11.66357422 C35.12208876 16.87428969 37.44594408 22.60009983 37 29 C37.66 29 38.32 29 39 29 C43.83627136 63.11298551 43.83627136 63.11298551 38 77 C36.46098935 78.85251282 34.94732339 80.09341048 32.9765625 81.46875 C28.08771845 85.25615487 24.40961676 90.88557485 21 96 C19.02759297 97.33219854 16.95769075 98.37447884 14.8515625 99.484375 C12.8007427 100.57439977 10.77727426 101.71646399 8.7734375 102.890625 C-4.09204737 110.32632672 -18.98519534 115.90586329 -34 116 C-34.94617188 116.02578125 -35.89234375 116.0515625 -36.8671875 116.078125 C-39.91705884 116.12565546 -42.95097558 116.0816703 -46 116 C-47.423125 115.97486328 -47.423125 115.97486328 -48.875 115.94921875 C-64.13900541 115.2535935 -79.31842955 111.10591025 -93.43359375 105.41015625 C-96.81931152 104.07144418 -100.21129357 102.9520749 -103.6875 101.875 C-107.89082302 100.50410489 -110.7040181 99.01346916 -114 96 C-115.19960794 95.35841194 -116.40872323 94.73439747 -117.625 94.125 C-121.40327817 91.74608412 -122.29888383 90.02895935 -124 86 C-124.66 85.67 -125.32 85.34 -126 85 C-126 84.01 -126 83.02 -126 82 C-126.66 82 -127.32 82 -128 82 C-129.69140625 79.55078125 -129.69140625 79.55078125 -131.5625 76.3125 C-132.49255859 74.72888672 -132.49255859 74.72888672 -133.44140625 73.11328125 C-134.84706847 70.30547977 -135.58183023 68.08758226 -136 65 C-136.66 65 -137.32 65 -138 65 C-140.84589824 59.42678262 -141.44216255 55.21238388 -141 49 C-140.9175 47.80375 -140.835 46.6075 -140.75 45.375 C-139.9995189 41.99783504 -138.95953388 39.75501214 -137.1328125 36.87109375 C-135.88211364 34.87990018 -135.88211364 34.87990018 -134.66015625 32.140625 C-126.85121516 17.36794585 -111.71283086 11.78319402 -97 6 C-95.7358944 5.48511303 -94.47223222 4.96913628 -93.20898438 4.45214844 C-64.38985734 -7.22543354 -29.95181949 -10.72900997 0 0 Z " fill="#F4EFE9" transform="translate(259,222)"/>
<path d="M0 0 C1.299375 -0.04382813 2.59875 -0.08765625 3.9375 -0.1328125 C14.28555228 -0.10641441 21.80382713 4.80382713 29 12 C29.14115161 14.67058851 29.04247107 17.32432238 29 20 C28.34 20 27.68 20 27 20 C26.896875 20.886875 26.79375 21.77375 26.6875 22.6875 C25.63378261 27.76450198 24.27517153 30.13685707 19.94140625 33.0703125 C15.76466073 35.37811573 11.76244244 35.86337234 7.0625 36.25 C6.28326172 36.32734375 5.50402344 36.4046875 4.70117188 36.484375 C2.8021516 36.6707819 0.90121236 36.83746666 -1 37 C-0.71681868 39.5636947 -0.42377507 42.12561526 -0.125 44.6875 C-0.04636719 45.40873047 0.03226563 46.12996094 0.11328125 46.87304688 C0.48199338 49.97873748 0.83725307 52.60952881 2.046875 55.51171875 C3.61360077 59.60190038 3.35937875 63.95755222 3.390625 68.29296875 C3.43006357 70.64729261 3.43006357 70.64729261 4 74 C5.92338628 75.79624533 5.92338628 75.79624533 8 77 C8.42751128 80.42009021 8.60318593 82.83132725 7 85.9375 C3.68476331 87.69871949 0.71856563 87.23609941 -3 87 C-3.99 86.505 -3.99 86.505 -5 86 C-5 85.01 -5 84.02 -5 83 C-5.66 83 -6.32 83 -7 83 C-8.9539984 81.46800742 -9.87680538 80.48581558 -10.49243164 78.05810547 C-10.54778076 77.33510254 -10.60312988 76.61209961 -10.66015625 75.8671875 C-10.73169922 75.06023437 -10.80324219 74.25328125 -10.87695312 73.421875 C-10.93818359 72.58140625 -10.99941406 71.7409375 -11.0625 70.875 C-11.5187055 65.1475884 -12.22215994 59.71709317 -13.55200195 54.125 C-14.22091891 50.95211 -14.39604715 47.79593507 -14.5625 44.5625 C-14.65735308 40.11896063 -14.65735308 40.11896063 -16 36 C-17.216875 35.938125 -18.43375 35.87625 -19.6875 35.8125 C-28.57228671 35.04362423 -38.07659031 29.34808313 -45 24 C-46.27734375 21.5625 -46.27734375 21.5625 -46.9375 19 C-47.17339844 18.154375 -47.40929687 17.30875 -47.65234375 16.4375 C-48.23986384 12.31825801 -47.30497237 10.54908857 -45.27734375 6.8984375 C-41.09959344 2.14480682 -34.47839627 2.30057118 -28.5625 1.625 C-27.36689453 1.46128906 -26.17128906 1.29757813 -24.93945312 1.12890625 C-16.58605583 0.05714962 -8.41035053 -0.12281825 0 0 Z " fill="#060505" transform="translate(216,236)"/>
<path d="M0 0 C3.70144689 3.70144689 2.70688131 10.01698226 3 15 C7.95 15 12.9 15 18 15 C18.2475 13.1025 18.495 11.205 18.75 9.25 C19.21922258 5.65262689 19.60785471 3.52686478 21.78515625 0.6015625 C24.44637449 -1.3227752 25.49012879 -1.37178164 28.6875 -0.875 C29.86892578 -0.71644531 29.86892578 -0.71644531 31.07421875 -0.5546875 C31.70972656 -0.37164062 32.34523437 -0.18859375 33 0 C34.46107741 2.92215483 34.29357286 4.711984 34 8 C32.84721292 11.41465367 31.43471617 14.69596386 30 18 C29.68933594 18.85851562 29.37867188 19.71703125 29.05859375 20.6015625 C27.12970428 24.97181392 24.38981806 27.17700611 20 29 C12.17963616 30.19565908 3.3686906 29.92777864 -4 27 C-6.1796875 24.72265625 -6.1796875 24.72265625 -7.875 22.0625 C-8.44992188 21.18722656 -9.02484375 20.31195313 -9.6171875 19.41015625 C-11.82867304 15.5556744 -12.23528262 12.38497615 -12.375 8 C-12.42398438 6.948125 -12.47296875 5.89625 -12.5234375 4.8125 C-12 2 -12 2 -9.70703125 0.11328125 C-6.08993763 -1.37426807 -3.7534817 -0.92066532 0 0 Z " fill="#EDE9E3" transform="translate(123,172)"/>
<path d="M0 0 C4.76717033 1.30013736 4.76717033 1.30013736 6.4375 3.9375 C6.746875 5.071875 7.05625 6.20625 7.375 7.375 C8.50661392 11.16923489 9.25918924 12.64205334 12.4375 14.9375 C15.58231791 15.74065654 15.58231791 15.74065654 18.4375 15.9375 C18.705625 15.36 18.97375 14.7825 19.25 14.1875 C20.46679189 11.88199957 21.74083879 9.91693808 23.4375 7.9375 C24.0975 7.9375 24.7575 7.9375 25.4375 7.9375 C25.540625 7.339375 25.64375 6.74125 25.75 6.125 C26.57065798 3.51381553 27.18011495 2.49431728 29.4375 0.9375 C32.72988472 0.51719557 34.77707342 0.642046 37.8125 2 C39.4375 3.9375 39.4375 3.9375 40.0625 7.125 C39.19593041 12.41107448 36.85191951 14.94483202 33.4375 18.9375 C32.756875 19.91203125 32.07625 20.8865625 31.375 21.890625 C27.90796356 26.45867977 25.24772255 29.40079146 19.65625 31.05859375 C14.65606614 31.66259426 9.92020179 31.54550155 5.59423828 28.74365234 C1.73609515 25.53913928 -1.35785261 21.77457366 -4.5625 17.9375 C-5.5525 17.2775 -6.5425 16.6175 -7.5625 15.9375 C-7.99609375 13.2578125 -7.99609375 13.2578125 -8 10.0625 C-8.01933594 9.01320312 -8.03867187 7.96390625 -8.05859375 6.8828125 C-7.20686929 1.82611767 -5.08803542 -0.08926378 0 0 Z " fill="#EEEAE4" transform="translate(289.5625,165.0625)"/>
<path d="M0 0 C-1.32 0.33 -2.64 0.66 -4 1 C-4 1.99 -4 2.98 -4 4 C-5.32 4.33 -6.64 4.66 -8 5 C-7.67 8.96 -7.34 12.92 -7 17 C-7.66 16.67 -8.32 16.34 -9 16 C-9.10841951 14.08458862 -9.18578079 12.16740227 -9.25 10.25 C-9.29640625 9.18265625 -9.3428125 8.1153125 -9.390625 7.015625 C-9 4 -9 4 -7.15625 1.625 C-4.55842109 -0.3327841 -3.17871322 -0.35319036 0 0 Z " fill="#A7A5A1" transform="translate(291,165)"/>
<path d="M0 0 C0 1.98 0 3.96 0 6 C-0.7425 5.79375 -1.485 5.5875 -2.25 5.375 C-5.32330841 4.95591249 -6.42786866 5.38050989 -9 7 C-3.34042553 0 -3.34042553 0 0 0 Z " fill="#DFDBD6" transform="translate(142,238)"/>
<path d="M0 0 C0.33 1.32 0.66 2.64 1 4 C-0.65 5.32 -2.3 6.64 -4 8 C-4 7.34 -4 6.68 -4 6 C-5.65 6 -7.3 6 -9 6 C-9 5.67 -9 5.34 -9 5 C-7.02 5 -5.04 5 -3 5 C-2.690625 4.360625 -2.38125 3.72125 -2.0625 3.0625 C-1 1 -1 1 0 0 Z " fill="#BEBBB8" transform="translate(311,176)"/>
<path d="M0 0 C0.66 0.99 1.32 1.98 2 3 C0.35 4.65 -1.3 6.3 -3 8 C-3.66 7.67 -4.32 7.34 -5 7 C-4.67 6.34 -4.34 5.68 -4 5 C-3.34 5 -2.68 5 -2 5 C-1.7834375 4.0409375 -1.7834375 4.0409375 -1.5625 3.0625 C-1 1 -1 1 0 0 Z " fill="#C3C1BD" transform="translate(317,168)"/>
<path d="M0 0 C0.66 0.99 1.32 1.98 2 3 C-0.97 5.475 -0.97 5.475 -4 8 C-4.66 7.67 -5.32 7.34 -6 7 C-4.02 4.69 -2.04 2.38 0 0 Z " fill="#282523" transform="translate(288,307)"/>
<path d="M0 0 C1 3 1 3 0.1875 5.0625 C-1 7 -1 7 -3 9 C-3.26218749 5.85375007 -3.24754367 4.38162983 -1.5 1.6875 C-1.005 1.130625 -0.51 0.57375 0 0 Z " fill="#A4A19D" transform="translate(122,260)"/>
</svg>
