<?xml version="1.0" encoding="UTF-8"?>
<svg version="1.1" xmlns="http://www.w3.org/2000/svg" width="214" height="312">
<path d="M0 0 C9.6780063 5.65223252 12.73213886 17.91055975 15.53125 28.09765625 C24.19612809 61.95879389 24.89027711 97.10904627 10.9765625 129.6875 C8.72541413 135.01821934 6.82947819 140.51156544 5 146 C5.48726562 146.36609375 5.97453125 146.7321875 6.4765625 147.109375 C11.52975 150.96817273 16.41846046 154.99458722 21.25 159.125 C21.83990723 159.62741211 22.42981445 160.12982422 23.03759766 160.64746094 C34.00478642 170.07447089 40.20172377 180.85072855 41.84082031 195.515625 C44.31887513 234.19152348 44.31887513 234.19152348 34 246 C32.29195078 247.64160337 30.54185331 249.15405351 28.69140625 250.6328125 C26.78658722 252.12337339 26.78658722 252.12337339 24.4375 254.5625 C18.59441547 260.40558453 13.03559504 263.6785256 5.5 267 C4.59507812 267.4125 3.69015625 267.825 2.7578125 268.25 C-0.14230685 269.54977338 -3.06688863 270.77667277 -6 272 C-7.02569092 272.46543213 -8.05138184 272.93086426 -9.1081543 273.41040039 C-18.80964562 277.43998641 -27.68078349 277.67700637 -38.06665039 277.48706055 C-40.79816096 277.43775881 -43.52784996 277.42556684 -46.25976562 277.41992188 C-72.71361215 277.2519472 -98.16377367 273.3621748 -117.828125 254.09375 C-119.91787712 251.98584805 -119.91787712 251.98584805 -122.171875 250.40625 C-128.36150534 245.84546975 -130.30622693 240.26255445 -132.7734375 233.23046875 C-133.76009724 229.96652574 -133.76009724 229.96652574 -136 228 C-140.86000798 214.27205537 -136.04964602 193.20241311 -130.05078125 180.546875 C-124.39298148 169.96399626 -115.83348887 161.29637234 -105 156 C-105.18320801 155.46995361 -105.36641602 154.93990723 -105.55517578 154.39379883 C-108.53042472 145.64747833 -110.86730999 136.74652688 -113.23583984 127.82080078 C-113.92283748 125.2848357 -114.64974835 122.76554213 -115.39453125 120.24609375 C-123.77092307 90.92250383 -129.9762715 45.64324935 -118 17 C-117.6390625 16.00355469 -117.278125 15.00710937 -116.90625 13.98046875 C-114.89438102 9.07294549 -112.89103229 6.48344867 -108.1875 3.9375 C-101.67124262 1.21515247 -95.69785372 0.14891847 -88.80859375 2.23046875 C-82.77871147 4.79609901 -80.28843805 10.78008678 -77.4296875 16.28125 C-76.06299384 18.98192512 -76.06299384 18.98192512 -74.48046875 21.3359375 C-68.40774369 32.26363801 -67.12419764 46.00607405 -66.21044922 58.26611328 C-65.98379416 61.21052553 -65.71314749 64.1492644 -65.44140625 67.08984375 C-64.21912176 81.10924952 -63.79100589 95.06014867 -63.75 109.125 C-63.74482361 109.94328278 -63.73964722 110.76156555 -63.73431396 111.60464478 C-63.69092183 120.27118732 -63.82822053 128.55262402 -66 137 C-66.34085853 138.66514394 -66.67598349 140.33149702 -67 142 C-66.36578125 141.98839844 -65.7315625 141.97679687 -65.078125 141.96484375 C-55.03081267 141.86770123 -45.02880453 142.44504639 -35 143 C-35.68835938 141.59041016 -35.68835938 141.59041016 -36.390625 140.15234375 C-45.22209192 120.68559722 -47.45425625 97.39235199 -45.22216797 76.24365234 C-45.00532829 74.05380992 -44.86950015 71.87305753 -44.75390625 69.67578125 C-43.99273075 57.65156648 -41.52199342 45.95604527 -39.0625 34.1875 C-38.88741913 33.34213684 -38.71233826 32.49677368 -38.5319519 31.62579346 C-38.02166293 29.17938798 -37.49957179 26.73584183 -36.97265625 24.29296875 C-36.8194693 23.56135025 -36.66628235 22.82973175 -36.50845337 22.07594299 C-34.94631645 14.98996901 -32.76766006 7.11959769 -26.37133789 2.93432617 C-18.26530146 -1.40480584 -8.95050663 -2.1075823 0 0 Z " fill="#F4EFE9" transform="translate(153,20)"/>
<path d="M0 0 C9.6780063 5.65223252 12.73213886 17.91055975 15.53125 28.09765625 C24.19612809 61.95879389 24.89027711 97.10904627 10.9765625 129.6875 C8.72541413 135.01821934 6.82947819 140.51156544 5 146 C5.48726562 146.36609375 5.97453125 146.7321875 6.4765625 147.109375 C11.52975 150.96817273 16.41846046 154.99458722 21.25 159.125 C21.83990723 159.62741211 22.42981445 160.12982422 23.03759766 160.64746094 C34.00478642 170.07447089 40.20172377 180.85072855 41.84082031 195.515625 C44.31887513 234.19152348 44.31887513 234.19152348 34 246 C32.29195078 247.64160337 30.54185331 249.15405351 28.69140625 250.6328125 C26.78658722 252.12337339 26.78658722 252.12337339 24.4375 254.5625 C18.59441547 260.40558453 13.03559504 263.6785256 5.5 267 C4.59507812 267.4125 3.69015625 267.825 2.7578125 268.25 C-0.14230685 269.54977338 -3.06688863 270.77667277 -6 272 C-7.02569092 272.46543213 -8.05138184 272.93086426 -9.1081543 273.41040039 C-18.80964562 277.43998641 -27.68078349 277.67700637 -38.06665039 277.48706055 C-40.79816096 277.43775881 -43.52784996 277.42556684 -46.25976562 277.41992188 C-72.71361215 277.2519472 -98.16377367 273.3621748 -117.828125 254.09375 C-119.91787712 251.98584805 -119.91787712 251.98584805 -122.171875 250.40625 C-128.36150534 245.84546975 -130.30622693 240.26255445 -132.7734375 233.23046875 C-133.76009724 229.96652574 -133.76009724 229.96652574 -136 228 C-140.86000798 214.27205537 -136.04964602 193.20241311 -130.05078125 180.546875 C-124.39298148 169.96399626 -115.83348887 161.29637234 -105 156 C-105.18320801 155.46995361 -105.36641602 154.93990723 -105.55517578 154.39379883 C-108.53042472 145.64747833 -110.86730999 136.74652688 -113.23583984 127.82080078 C-113.92283748 125.2848357 -114.64974835 122.76554213 -115.39453125 120.24609375 C-123.77092307 90.92250383 -129.9762715 45.64324935 -118 17 C-117.6390625 16.00355469 -117.278125 15.00710937 -116.90625 13.98046875 C-114.89438102 9.07294549 -112.89103229 6.48344867 -108.1875 3.9375 C-101.67124262 1.21515247 -95.69785372 0.14891847 -88.80859375 2.23046875 C-82.77871147 4.79609901 -80.28843805 10.78008678 -77.4296875 16.28125 C-76.06299384 18.98192512 -76.06299384 18.98192512 -74.48046875 21.3359375 C-68.40774369 32.26363801 -67.12419764 46.00607405 -66.21044922 58.26611328 C-65.98379416 61.21052553 -65.71314749 64.1492644 -65.44140625 67.08984375 C-64.21912176 81.10924952 -63.79100589 95.06014867 -63.75 109.125 C-63.74482361 109.94328278 -63.73964722 110.76156555 -63.73431396 111.60464478 C-63.69092183 120.27118732 -63.82822053 128.55262402 -66 137 C-66.34085853 138.66514394 -66.67598349 140.33149702 -67 142 C-66.36578125 141.98839844 -65.7315625 141.97679687 -65.078125 141.96484375 C-55.03081267 141.86770123 -45.02880453 142.44504639 -35 143 C-35.68835938 141.59041016 -35.68835938 141.59041016 -36.390625 140.15234375 C-45.22209192 120.68559722 -47.45425625 97.39235199 -45.22216797 76.24365234 C-45.00532829 74.05380992 -44.86950015 71.87305753 -44.75390625 69.67578125 C-43.99273075 57.65156648 -41.52199342 45.95604527 -39.0625 34.1875 C-38.88741913 33.34213684 -38.71233826 32.49677368 -38.5319519 31.62579346 C-38.02166293 29.17938798 -37.49957179 26.73584183 -36.97265625 24.29296875 C-36.8194693 23.56135025 -36.66628235 22.82973175 -36.50845337 22.07594299 C-34.94631645 14.98996901 -32.76766006 7.11959769 -26.37133789 2.93432617 C-18.26530146 -1.40480584 -8.95050663 -2.1075823 0 0 Z M-25 12 C-28.42374547 18.86763062 -29.66343132 26.3935478 -30 34 C-30.66 34 -31.32 34 -32 34 C-34.90863255 48.89251918 -37.77642895 63.59301494 -37.96484375 78.80078125 C-38.0004213 81.0263547 -38.09081817 83.24506792 -38.1875 85.46875 C-38.50315282 94.92821763 -37.6741353 104.07400789 -36.3125 113.4375 C-36.16401611 114.50299072 -36.01553223 115.56848145 -35.86254883 116.66625977 C-34.47994777 125.36819531 -31.92111061 133.61833409 -27 141 C-26.8046875 143.48046875 -26.8046875 143.48046875 -26.875 146.1875 C-26.89304687 147.08855469 -26.91109375 147.98960937 -26.9296875 148.91796875 C-26.95289062 149.60503906 -26.97609375 150.29210937 -27 151 C-30.0237425 151.91674102 -32.36212185 152.02217452 -35.4921875 151.66015625 C-36.35593994 151.56637695 -37.21969238 151.47259766 -38.10961914 151.37597656 C-39.47848267 151.22080566 -39.47848267 151.22080566 -40.875 151.0625 C-55.83301858 148.79135038 -55.83301858 148.79135038 -70 152 C-73.25 152.125 -73.25 152.125 -76 152 C-78.00823721 147.98352558 -76.52470047 142.77815159 -75.296875 138.6171875 C-74.78986429 137.150833 -74.26562673 135.69023897 -73.71875 134.23828125 C-67.82752757 115.89224619 -72.28657456 91.77315501 -73.4375 72.875 C-73.5048938 71.76483521 -73.5722876 70.65467041 -73.64172363 69.51086426 C-73.83908296 66.2960316 -74.04119222 63.08154768 -74.24609375 59.8671875 C-74.33681404 58.42468124 -74.33681404 58.42468124 -74.42936707 56.95303345 C-75.52755473 40.21325622 -78.53063497 22.46936503 -91 10 C-96.71771614 9.59875676 -102.08797426 9.73623179 -107 13 C-110.60555742 17.64028839 -111.73105244 23.3803751 -113 29 C-113.34184326 29.94931396 -113.68368652 30.89862793 -114.03588867 31.87670898 C-115.6771653 37.19371378 -115.33699053 42.53628447 -115.3125 48.0625 C-115.30831055 49.35929687 -115.30412109 50.65609375 -115.29980469 51.9921875 C-115.20585629 62.8556398 -114.57276738 73.66980107 -113.75 84.5 C-113.6955069 85.27256134 -113.64101379 86.04512268 -113.58486938 86.84109497 C-112.9278096 95.93064386 -111.71663826 104.22107138 -108.91723633 112.93017578 C-107.97840276 116.07228206 -107.41300234 119.13313189 -106.9375 122.375 C-106.30802963 126.54386076 -105.38582303 130.19094166 -103.78125 134.08203125 C-102.93729467 136.15394159 -102.24643091 138.24514993 -101.5625 140.375 C-100.20857816 144.54479119 -98.54394692 148.53558056 -96.76953125 152.54296875 C-95.85758794 155.45470653 -95.87269761 157.96669141 -96 161 C-96.76183594 161.35191406 -97.52367188 161.70382813 -98.30859375 162.06640625 C-110.42983965 167.86220797 -118.36887737 173.44888744 -124 186 C-124.97259254 189.02502167 -125.74828913 192.00351211 -126.39453125 195.11328125 C-127 198 -127 198 -128.06640625 201.234375 C-129.22202953 205.89555006 -129.21943458 210.16128927 -129.125 214.9375 C-129.11597656 215.81212891 -129.10695312 216.68675781 -129.09765625 217.58789062 C-129.0742957 219.72538064 -129.03843247 221.86272786 -129 224 C-128.34 224 -127.68 224 -127 224 C-126.896875 224.804375 -126.79375 225.60875 -126.6875 226.4375 C-126.15037021 229.22080889 -125.55254012 231.85109327 -124.75 234.5625 C-124.53859375 235.28566406 -124.3271875 236.00882813 -124.109375 236.75390625 C-122.59344463 239.82313146 -120.50460011 241.67684109 -118 244 C-117.09765625 244.85078125 -116.1953125 245.7015625 -115.265625 246.578125 C-93.70592786 265.96603143 -69.78047645 269.50691304 -41.6875 269.875 C-40.72654419 269.88767914 -39.76558838 269.90035828 -38.7755127 269.91342163 C-20.70049858 270.01797635 -7.46592678 266.57610849 8 257 C8.78503906 256.52119385 9.57007813 256.0423877 10.37890625 255.54907227 C15.37719709 252.53508284 15.37719709 252.53508284 20 249 C20 248.34 20 247.68 20 247 C20.58394531 246.74992188 21.16789063 246.49984375 21.76953125 246.2421875 C24.29692051 244.83463972 25.79303954 243.30301311 27.6875 241.125 C28.28949219 240.44695312 28.89148438 239.76890625 29.51171875 239.0703125 C32.47321949 234.95063956 32.09537336 230.9594145 32 226 C32.66 226 33.32 226 34 226 C34.04998439 221.76824446 34.08599164 217.53665204 34.10986328 213.3046875 C34.11983031 211.86943564 34.13340887 210.43420358 34.15087891 208.99902344 C34.71195907 194.16107067 34.71195907 194.16107067 29 181 C28.566875 179.2365625 28.566875 179.2365625 28.125 177.4375 C25.90056518 171.11728043 19.77335445 167.29628852 14.67041016 163.30761719 C12.29422748 161.44751277 9.96511725 159.53016458 7.625 157.625 C3.83605599 154.6161327 -0.02851113 151.76277487 -4 149 C-3.31192143 144.95470291 -2.10164173 141.28589188 -0.6875 137.4375 C1.35537534 131.83872637 3.24533771 126.21638704 5.0078125 120.5234375 C6 118 6 118 7.484375 116.14453125 C9.61810373 113.12541509 10.30102314 109.85880758 11.125 106.3125 C11.29676758 105.5898999 11.46853516 104.8672998 11.64550781 104.12280273 C15.71021572 86.58733711 15.50114441 65.81341784 11.45703125 48.26953125 C10.98584498 45.92970883 10.82389687 43.6935997 10.6875 41.3125 C9.72654536 30.45028055 4.92267722 15.65258596 -3 8 C-6.04028359 7.51391692 -8.41713819 7.34206585 -11.4375 7.4375 C-12.18837891 7.42654297 -12.93925781 7.41558594 -13.71289062 7.40429688 C-18.67499954 7.46976005 -21.520644 8.17206288 -25 12 Z " fill="#2A2A29" transform="translate(153,20)"/>
<path d="M0 0 C1.73443359 0.00966797 1.73443359 0.00966797 3.50390625 0.01953125 C6.4375 0.1875 6.4375 0.1875 8.4375 1.1875 C8.64163361 6.92592251 8.70891454 11.79289047 6.4375 17.1875 C11.8825 18.6725 11.8825 18.6725 17.4375 20.1875 C17.7675 18.2075 18.0975 16.2275 18.4375 14.1875 C20.7475 14.5175 23.0575 14.8475 25.4375 15.1875 C25.4375 18.1575 25.4375 21.1275 25.4375 24.1875 C24.7775 24.1875 24.1175 24.1875 23.4375 24.1875 C22.7775 25.5075 22.1175 26.8275 21.4375 28.1875 C19.52154032 28.26883791 17.60458068 28.32684367 15.6875 28.375 C14.08648437 28.42720703 14.08648437 28.42720703 12.453125 28.48046875 C9.09639857 28.15436191 7.95108296 27.32263339 5.4375 25.1875 C2.37038436 25.46632869 1.07379294 26.42997137 -1.5625 28.1875 C-8.22922034 29.31834408 -12.85267363 27.5095808 -18.5625 24.1875 C-18.60504356 22.18795254 -18.60330783 20.18708364 -18.5625 18.1875 C-17.5625 17.1875 -17.5625 17.1875 -14.6875 17 C-11.5625 17.1875 -11.5625 17.1875 -8.5625 19.1875 C-5.42028033 18.87243373 -5.42028033 18.87243373 -2.5625 18.1875 C-2.75078772 15.74269921 -2.75078772 15.74269921 -3.5625 13.1875 C-5.53008273 11.82729849 -5.53008273 11.82729849 -7.5625 11.1875 C-7.5625 10.5275 -7.5625 9.8675 -7.5625 9.1875 C-8.2225 9.1875 -8.8825 9.1875 -9.5625 9.1875 C-9.75 5.8125 -9.75 5.8125 -9.5625 2.1875 C-5.96639031 -0.20990646 -4.26157673 -0.05237692 0 0 Z " fill="#0C0B0A" transform="translate(106.5625,250.8125)"/>
<path d="M0 0 C3.41734252 2.44095894 4.35117008 3.84120526 5.625 7.875 C6.32305585 13.59905799 6.83019259 18.2011214 3.375 23 C2.4675 23.61875 1.56 24.2375 0.625 24.875 C0.026875 25.308125 -0.57125 25.74125 -1.1875 26.1875 C-4.67999768 27.28514213 -7.81345064 27.63864752 -11.375 26.875 C-14.70982366 24.94552517 -17.65106026 22.59893974 -20.375 19.875 C-20.90519989 13.43861989 -21.03173711 6.34030928 -16.9375 1 C-12.06940607 -2.50502763 -5.38467498 -1.79489166 0 0 Z " fill="#060605" transform="translate(65.375,234.125)"/>
<path d="M0 0 C3.39536821 1.80721211 5.79419575 3.84372725 8 7 C9.2692868 11.247548 8.10305345 14.65076331 6.875 18.8125 C4.59005847 22.6969006 3.2814925 23.65212273 -1 25 C-5.03959265 25.72109304 -8.36696753 25.76268 -12.1328125 24.00390625 C-15.10881452 21.8773299 -16.76055653 20.24349633 -17.46484375 16.5859375 C-17.49991321 14.00638387 -17.30798353 11.55959284 -17 9 C-16.95875 7.865625 -16.9175 6.73125 -16.875 5.5625 C-16 3 -16 3 -13.5625 1.125 C-8.85115591 -0.36279287 -4.87892312 -1.03265551 0 0 Z " fill="#060605" transform="translate(160,231)"/>
<path d="M0 0 C0.79019531 0.10183594 1.58039062 0.20367188 2.39453125 0.30859375 C2.98621094 0.39238281 3.57789062 0.47617187 4.1875 0.5625 C4.1875 0.8925 4.1875 1.2225 4.1875 1.5625 C3.341875 1.67207031 2.49625 1.78164063 1.625 1.89453125 C-4.94550734 2.81290898 -10.69180816 4.02183546 -16.8125 6.5625 C-17.4725 6.5625 -18.1325 6.5625 -18.8125 6.5625 C-18.93625 7.47 -19.06 8.3775 -19.1875 9.3125 C-19.73359677 12.15220323 -20.38513803 14.08840591 -21.8125 16.5625 C-22.4725 16.5625 -23.1325 16.5625 -23.8125 16.5625 C-24.1425 17.2225 -24.4725 17.8825 -24.8125 18.5625 C-24.21474125 13.78043003 -22.77616305 9.38284691 -19.8125 5.5625 C-13.73917465 1.38708882 -7.37924712 -0.99124215 0 0 Z " fill="#DCDCD9" transform="translate(59.8125,21.4375)"/>
<path d="M0 0 C1.65 0.99 3.3 1.98 5 3 C4.67 4.65 4.34 6.3 4 8 C2.02 8.33 0.04 8.66 -2 9 C-2 5.20442119 -1.49821059 3.37097383 0 0 Z " fill="#E7E3DE" transform="translate(100,262)"/>
<path d="M0 0 C0.92683594 0.01353516 1.85367188 0.02707031 2.80859375 0.04101562 C5.08133998 0.07616119 7.35285847 0.12535868 9.625 0.1875 C10.285 1.5075 10.945 2.8275 11.625 4.1875 C10.635 3.5275 9.645 2.8675 8.625 2.1875 C6.64665052 1.88183044 6.64665052 1.88183044 4.5 1.921875 C3.71109375 1.91929688 2.9221875 1.91671875 2.109375 1.9140625 C1.28953125 1.92179687 0.4696875 1.92953125 -0.375 1.9375 C-1.19484375 1.92976563 -2.0146875 1.92203125 -2.859375 1.9140625 C-3.64828125 1.91664062 -4.4371875 1.91921875 -5.25 1.921875 C-6.32894531 1.92525879 -6.32894531 1.92525879 -7.4296875 1.92871094 C-9.69853438 2.0853156 -9.69853438 2.0853156 -12.375 4.1875 C-14.5625 3.8125 -14.5625 3.8125 -16.375 3.1875 C-10.88970259 -0.28409188 -6.26006464 -0.17413875 0 0 Z " fill="#B8B8B9" transform="translate(143.375,19.8125)"/>
<path d="M0 0 C-3.75 2 -3.75 2 -6 2 C-6.12375 2.9075 -6.2475 3.815 -6.375 4.75 C-6.92109677 7.58970323 -7.57263803 9.52590591 -9 12 C-9.66 12 -10.32 12 -11 12 C-11.33 12.66 -11.66 13.32 -12 14 C-11.40523781 9.24190251 -9.5093872 5.05289706 -7 1 C-4.53721199 -0.231394 -2.7204945 -0.07159196 0 0 Z " fill="#CBCBC7" transform="translate(47,26)"/>
<path d="M0 0 C0.66 0.66 1.32 1.32 2 2 C1.98252073 4.75589777 1.86136729 7.38786676 1.625 10.125 C1.56828125 10.87910156 1.5115625 11.63320312 1.453125 12.41015625 C1.3115535 14.27418096 1.15700041 16.13721137 1 18 C0.67 18 0.34 18 0 18 C0 13.05 0 8.1 0 3 C-0.66 3 -1.32 3 -2 3 C-2 2.34 -2 1.68 -2 1 C-1.34 0.67 -0.68 0.34 0 0 Z " fill="#BBB9B4" transform="translate(44,235)"/>
<path d="M0 0 C0.33 0 0.66 0 1 0 C1.12375 1.134375 1.2475 2.26875 1.375 3.4375 C1.58125 4.613125 1.7875 5.78875 2 7 C2.66 7.33 3.32 7.66 4 8 C3.67 10.64 3.34 13.28 3 16 C-0.38370684 12.61629316 -0.05529986 8.7667907 -0.0625 4.1875 C-0.04655989 2.79160221 -0.02736707 1.39572052 0 0 Z " fill="#B8B5B1" transform="translate(41,113)"/>
<path d="M0 0 C0.66 0.66 1.32 1.32 2 2 C4.89883083 2.24339551 4.89883083 2.24339551 8.125 2.125 C9.76855469 2.09792969 9.76855469 2.09792969 11.4453125 2.0703125 C12.28835937 2.04710937 13.13140625 2.02390625 14 2 C14 2.33 14 2.66 14 3 C13.25234375 3.06058594 12.5046875 3.12117187 11.734375 3.18359375 C10.74953125 3.26738281 9.7646875 3.35117188 8.75 3.4375 C7.77546875 3.51871094 6.8009375 3.59992188 5.796875 3.68359375 C3.43538247 3.95074584 1.28098935 4.35371968 -1 5 C-0.67 3.35 -0.34 1.7 0 0 Z " fill="#D3D2D3" transform="translate(84,160)"/>
<path d="M0 0 C0.33 0 0.66 0 1 0 C1.08153933 1.58246707 1.13943557 3.16616273 1.1875 4.75 C1.23970703 6.07257813 1.23970703 6.07257813 1.29296875 7.421875 C0.94923684 10.44671583 -0.00227459 11.75583602 -2 14 C-2.042721 12.33388095 -2.04063832 10.66617115 -2 9 C-1.67 8.67 -1.34 8.34 -1 8 C-0.76924918 6.65252916 -0.58846937 5.29622435 -0.4375 3.9375 C-0.293125 2.638125 -0.14875 1.33875 0 0 Z " fill="#989693" transform="translate(115,254)"/>
</svg>
