<?xml version="1.0" encoding="UTF-8"?>
<svg version="1.1" xmlns="http://www.w3.org/2000/svg" width="305" height="301">
<path d="M0 0 C10.92477769 -0.32688311 19.09181667 1.43925974 28.03222656 7.83496094 C30.25404755 9.39273473 32.51888398 10.87875389 34.78515625 12.37109375 C36.5803666 13.57542362 38.37462956 14.78116684 40.16796875 15.98828125 C41.45852173 16.83471191 41.45852173 16.83471191 42.77514648 17.69824219 C48.69025834 21.75728241 52.26813572 25.93554063 55.85546875 32.11328125 C56.46132812 33.0259375 57.0671875 33.93859375 57.69140625 34.87890625 C69.86893195 54.53602895 73.16664728 74.36267327 72.85546875 97.11328125 C73.48710937 97.07847656 74.11875 97.04367188 74.76953125 97.0078125 C82.84500259 96.76345386 90.04335055 98.17606571 97.85546875 100.11328125 C99.28754842 100.42285732 100.71984861 100.73141468 102.15234375 101.0390625 C118.10193385 104.70369759 133.05509689 113.53165633 143.35546875 126.42578125 C144.06703125 127.30878906 144.77859375 128.19179687 145.51171875 129.1015625 C146.671875 130.59236328 146.671875 130.59236328 147.85546875 132.11328125 C148.33185791 132.68401367 148.80824707 133.25474609 149.29907227 133.84277344 C153.73243474 139.34996808 156.27405508 145.16671537 158.79296875 151.73828125 C159.42984619 153.38981201 159.42984619 153.38981201 160.07958984 155.07470703 C160.94128494 157.33499206 161.79452489 159.5985191 162.63916016 161.86523438 C163.40564393 163.91206299 164.18714356 165.95339085 164.98974609 167.98632812 C171.07656762 183.44758043 171.71722019 197.59416898 170.85546875 214.11328125 C171.65138428 214.10748047 172.4472998 214.10167969 173.26733398 214.09570312 C184.97620982 214.04582127 194.32448327 214.19432181 203.81640625 221.8671875 C205.90732828 224.17040621 206.60158347 225.06104346 206.73046875 228.11328125 C206.50395841 229.79004608 206.19850792 231.45642539 205.85546875 233.11328125 C205.6491646 234.45374506 205.44775471 235.79496702 205.25 237.13671875 C203.28489403 249.47769543 203.28489403 249.47769543 199.85546875 252.11328125 C193.37763501 253.678542 186.30688185 253.18969876 179.68359375 253.078125 C177.78386092 253.07210273 175.88411729 253.06893051 173.984375 253.06835938 C171.03148272 253.06663427 168.08262724 253.05028828 165.13037109 252.98657227 C154.05793973 252.21355613 154.05793973 252.21355613 144.34277344 256.23706055 C142.82202512 258.82170983 141.82063366 261.28163334 140.85546875 264.11328125 C135.44419569 271.0884506 130.42155607 274.38145871 121.85546875 276.11328125 C120.74945313 276.36489014 120.74945313 276.36489014 119.62109375 276.62158203 C110.40542819 278.54715921 101.11168534 278.79115852 91.73046875 279.05078125 C90.84884064 279.07652222 89.96721252 279.10226318 89.05886841 279.12878418 C71.78406069 279.57459578 54.76276452 278.5323218 38.85546875 271.11328125 C38.85546875 270.45328125 38.85546875 269.79328125 38.85546875 269.11328125 C38.15035156 268.99082031 37.44523437 268.86835938 36.71875 268.7421875 C28.20404479 266.87197258 21.56035444 263.5573351 15.72265625 257.08984375 C13.36459818 254.59365676 10.75205966 252.73695712 7.91015625 250.828125 C-4.89796487 240.13845737 -10.22885804 222.09114997 -14.76953125 206.67578125 C-15.11226074 205.54052002 -15.45499023 204.40525879 -15.80810547 203.2355957 C-18.98065811 191.84264704 -18.64753009 180.76152224 -17.14453125 169.11328125 C-17.8509375 169.1596875 -18.55734375 169.20609375 -19.28515625 169.25390625 C-30.2754573 169.64049975 -43.22003735 168.94766087 -53.015625 163.5234375 C-56.18162544 160.51032239 -57.02885428 158.21420685 -57.484375 153.87890625 C-57.35568751 148.93283067 -56.95427761 145.30259621 -54.14453125 141.17578125 C-52.42952674 139.99671565 -50.7047067 138.8310409 -48.953125 137.70703125 C-47.77943359 136.9490625 -47.77943359 136.9490625 -46.58203125 136.17578125 C-45.80859375 135.67949219 -45.03515625 135.18320313 -44.23828125 134.671875 C-41.32349354 132.50209833 -39.87768832 130.27817677 -38.14453125 127.11328125 C-40.95965192 124.73802319 -43.76521035 122.73888661 -46.95703125 120.92578125 C-55.05642199 115.92634494 -64.83828459 105.083847 -67.83984375 96.01171875 C-69.21373816 87.45129971 -67.04859007 82.20413893 -62.14453125 75.11328125 C-55.58695968 67.4245668 -46.8084007 66.87935481 -37.26953125 65.98828125 C-36.43550781 65.90191406 -35.60148437 65.81554687 -34.7421875 65.7265625 C-28.86159544 65.15395462 -23.05071133 65.01408388 -17.14453125 65.11328125 C-17.71042969 63.98148438 -18.27632812 62.8496875 -18.859375 61.68359375 C-25.25424128 48.89386118 -29.61367127 37.27818799 -24.9453125 22.74609375 C-21.36588679 13.51170879 -21.36588679 13.51170879 -16.14453125 11.11328125 C-15.43461591 9.80246378 -14.76906464 8.46686178 -14.14453125 7.11328125 C-9.79909858 2.43947836 -6.37118755 0.33654725 0 0 Z " fill="#F5F0EA" transform="translate(79.14453125,8.88671875)"/>
<path d="M0 0 C10.92477769 -0.32688311 19.09181667 1.43925974 28.03222656 7.83496094 C30.25404755 9.39273473 32.51888398 10.87875389 34.78515625 12.37109375 C36.5803666 13.57542362 38.37462956 14.78116684 40.16796875 15.98828125 C41.45852173 16.83471191 41.45852173 16.83471191 42.77514648 17.69824219 C48.69025834 21.75728241 52.26813572 25.93554063 55.85546875 32.11328125 C56.46132812 33.0259375 57.0671875 33.93859375 57.69140625 34.87890625 C69.86893195 54.53602895 73.16664728 74.36267327 72.85546875 97.11328125 C73.48710937 97.07847656 74.11875 97.04367188 74.76953125 97.0078125 C82.84500259 96.76345386 90.04335055 98.17606571 97.85546875 100.11328125 C99.28754842 100.42285732 100.71984861 100.73141468 102.15234375 101.0390625 C118.10193385 104.70369759 133.05509689 113.53165633 143.35546875 126.42578125 C144.06703125 127.30878906 144.77859375 128.19179687 145.51171875 129.1015625 C146.671875 130.59236328 146.671875 130.59236328 147.85546875 132.11328125 C148.33185791 132.68401367 148.80824707 133.25474609 149.29907227 133.84277344 C153.73243474 139.34996808 156.27405508 145.16671537 158.79296875 151.73828125 C159.42984619 153.38981201 159.42984619 153.38981201 160.07958984 155.07470703 C160.94128494 157.33499206 161.79452489 159.5985191 162.63916016 161.86523438 C163.40564393 163.91206299 164.18714356 165.95339085 164.98974609 167.98632812 C171.07656762 183.44758043 171.71722019 197.59416898 170.85546875 214.11328125 C171.65138428 214.10748047 172.4472998 214.10167969 173.26733398 214.09570312 C184.97620982 214.04582127 194.32448327 214.19432181 203.81640625 221.8671875 C205.90732828 224.17040621 206.60158347 225.06104346 206.73046875 228.11328125 C206.50395841 229.79004608 206.19850792 231.45642539 205.85546875 233.11328125 C205.6491646 234.45374506 205.44775471 235.79496702 205.25 237.13671875 C203.28489403 249.47769543 203.28489403 249.47769543 199.85546875 252.11328125 C193.37763501 253.678542 186.30688185 253.18969876 179.68359375 253.078125 C177.78386092 253.07210273 175.88411729 253.06893051 173.984375 253.06835938 C171.03148272 253.06663427 168.08262724 253.05028828 165.13037109 252.98657227 C154.05793973 252.21355613 154.05793973 252.21355613 144.34277344 256.23706055 C142.82202512 258.82170983 141.82063366 261.28163334 140.85546875 264.11328125 C135.44419569 271.0884506 130.42155607 274.38145871 121.85546875 276.11328125 C120.74945313 276.36489014 120.74945313 276.36489014 119.62109375 276.62158203 C110.40542819 278.54715921 101.11168534 278.79115852 91.73046875 279.05078125 C90.84884064 279.07652222 89.96721252 279.10226318 89.05886841 279.12878418 C71.78406069 279.57459578 54.76276452 278.5323218 38.85546875 271.11328125 C38.85546875 270.45328125 38.85546875 269.79328125 38.85546875 269.11328125 C38.15035156 268.99082031 37.44523437 268.86835938 36.71875 268.7421875 C28.20404479 266.87197258 21.56035444 263.5573351 15.72265625 257.08984375 C13.36459818 254.59365676 10.75205966 252.73695712 7.91015625 250.828125 C-4.89796487 240.13845737 -10.22885804 222.09114997 -14.76953125 206.67578125 C-15.11226074 205.54052002 -15.45499023 204.40525879 -15.80810547 203.2355957 C-18.98065811 191.84264704 -18.64753009 180.76152224 -17.14453125 169.11328125 C-17.8509375 169.1596875 -18.55734375 169.20609375 -19.28515625 169.25390625 C-30.2754573 169.64049975 -43.22003735 168.94766087 -53.015625 163.5234375 C-56.18162544 160.51032239 -57.02885428 158.21420685 -57.484375 153.87890625 C-57.35568751 148.93283067 -56.95427761 145.30259621 -54.14453125 141.17578125 C-52.42952674 139.99671565 -50.7047067 138.8310409 -48.953125 137.70703125 C-47.77943359 136.9490625 -47.77943359 136.9490625 -46.58203125 136.17578125 C-45.80859375 135.67949219 -45.03515625 135.18320313 -44.23828125 134.671875 C-41.32349354 132.50209833 -39.87768832 130.27817677 -38.14453125 127.11328125 C-40.95965192 124.73802319 -43.76521035 122.73888661 -46.95703125 120.92578125 C-55.05642199 115.92634494 -64.83828459 105.083847 -67.83984375 96.01171875 C-69.21373816 87.45129971 -67.04859007 82.20413893 -62.14453125 75.11328125 C-55.58695968 67.4245668 -46.8084007 66.87935481 -37.26953125 65.98828125 C-36.43550781 65.90191406 -35.60148437 65.81554687 -34.7421875 65.7265625 C-28.86159544 65.15395462 -23.05071133 65.01408388 -17.14453125 65.11328125 C-17.71042969 63.98148438 -18.27632812 62.8496875 -18.859375 61.68359375 C-25.25424128 48.89386118 -29.61367127 37.27818799 -24.9453125 22.74609375 C-21.36588679 13.51170879 -21.36588679 13.51170879 -16.14453125 11.11328125 C-15.43461591 9.80246378 -14.76906464 8.46686178 -14.14453125 7.11328125 C-9.79909858 2.43947836 -6.37118755 0.33654725 0 0 Z M42.10644531 108.53662109 C39.90388227 109.10087857 37.69498062 109.5906849 35.47265625 110.0703125 C24.29020152 112.67320138 16.69439553 117.72467363 8.85546875 126.11328125 C8.52546875 127.10328125 8.19546875 128.09328125 7.85546875 129.11328125 C7.19546875 129.11328125 6.53546875 129.11328125 5.85546875 129.11328125 C2.14801296 133.57462081 -0.65247519 138.54047473 -2.43994141 144.04931641 C-3.08358419 145.93474817 -3.86187042 147.77282498 -4.65234375 149.6015625 C-6.6865458 155.01297741 -6.95817952 160.51063134 -7.33203125 166.23828125 C-7.41026123 167.34905029 -7.48849121 168.45981934 -7.5690918 169.60424805 C-7.78143062 172.77312138 -7.97043532 175.94209758 -8.14453125 179.11328125 C-8.20882324 180.26642822 -8.20882324 180.26642822 -8.27441406 181.44287109 C-8.73934189 191.0349426 -7.54415437 199.9870788 -3.58203125 208.80078125 C-2.374051 211.5843879 -1.76265479 213.74169904 -1.20703125 216.67578125 C-0.34517154 220.90672893 1.38203244 223.54862304 3.85546875 227.11328125 C4.50930542 228.74787293 5.13203141 230.39510462 5.73046875 232.05078125 C8.67854353 239.70886612 13.07725443 243.68669231 19.85546875 248.11328125 C20.86783882 249.22716268 21.86674646 250.35335692 22.85546875 251.48828125 C28.35209543 257.21906916 36.33856983 259.39531542 43.59765625 262.15625 C45.85546875 263.11328125 45.85546875 263.11328125 48.85546875 265.11328125 C60.99111371 268.99222542 73.61284768 269.69331836 86.23876953 269.21191406 C88.98448091 269.10841832 91.72964837 269.04365956 94.4765625 268.98046875 C114.08596142 269.17558788 114.08596142 269.17558788 130.98046875 261.05078125 C134.4286106 257.08867108 136.85231427 252.87037883 138.98046875 248.08203125 C139.85546875 246.11328125 139.85546875 246.11328125 140.85546875 245.11328125 C142.33231519 244.99607796 143.81457519 244.94604244 145.29589844 244.92382812 C146.24068054 244.9071106 147.18546265 244.89039307 148.15887451 244.87316895 C149.18796936 244.85959351 150.21706421 244.84601807 151.27734375 244.83203125 C152.32948059 244.81362183 153.38161743 244.7952124 154.46563721 244.77624512 C157.84552224 244.71728818 161.22545955 244.66459524 164.60546875 244.61328125 C169.0378659 244.54556759 173.47010415 244.47180187 177.90234375 244.39453125 C178.92334167 244.38095581 179.9443396 244.36738037 180.99627686 244.35339355 C181.9536676 244.33667603 182.91105835 244.3199585 183.89746094 244.30273438 C184.73605652 244.2902063 185.5746521 244.27767822 186.43865967 244.26477051 C188.98426488 244.10520811 191.36840881 243.66762468 193.85546875 243.11328125 C194.19498494 241.55211306 194.52679419 239.98926787 194.85546875 238.42578125 C195.04109375 237.55566406 195.22671875 236.68554688 195.41796875 235.7890625 C195.84518922 233.17615161 195.93163076 230.75515087 195.85546875 228.11328125 C189.21577967 223.20090978 182.47239379 223.2536017 174.41796875 222.86328125 C173.11408203 222.7859375 171.81019531 222.70859375 170.46679688 222.62890625 C167.26357181 222.44117145 164.06034462 222.26981842 160.85546875 222.11328125 C160.8711792 220.53244751 160.8711792 220.53244751 160.88720703 218.91967773 C160.92358419 214.9854679 160.94643334 211.05127276 160.96533203 207.11694336 C160.9753494 205.41867568 160.98896713 203.72042508 161.00634766 202.0222168 C161.03078454 199.57205983 161.04199465 197.1221322 161.05078125 194.671875 C161.06110382 193.92054794 161.07142639 193.16922089 161.08206177 192.39512634 C161.0830684 187.59579525 160.37390645 183.6712214 158.85546875 179.11328125 C158.19546875 179.11328125 157.53546875 179.11328125 156.85546875 179.11328125 C156.73429688 178.48421875 156.613125 177.85515625 156.48828125 177.20703125 C155.9594242 174.50579214 155.41019325 171.80931989 154.85546875 169.11328125 C154.72269531 168.43394531 154.58992187 167.75460938 154.453125 167.0546875 C153.13615023 161.02168881 150.5174316 155.65700206 147.85546875 150.11328125 C147.54738281 149.41074219 147.23929688 148.70820313 146.921875 147.984375 C144.1838956 141.96082031 140.07319275 137.16301721 135.85546875 132.11328125 C135.2315625 131.27152344 134.60765625 130.42976563 133.96484375 129.5625 C131.58470106 126.79888988 129.17007088 125.08224842 126.10546875 123.11328125 C125.120625 122.47390625 124.13578125 121.83453125 123.12109375 121.17578125 C122.0434375 120.49515625 120.96578125 119.81453125 119.85546875 119.11328125 C119.28094971 118.7061792 118.70643066 118.29907715 118.11450195 117.87963867 C112.3247877 113.919838 106.29114643 112.16876347 99.54296875 110.42578125 C97.82787109 109.97416626 97.82787109 109.97416626 96.078125 109.51342773 C86.35724623 107.05126723 76.85321858 105.66205993 66.85546875 105.11328125 C65.93507813 105.03207031 65.0146875 104.95085937 64.06640625 104.8671875 C56.56100123 104.45300963 49.29862605 106.62731651 42.10644531 108.53662109 Z " fill="#020202" transform="translate(79.14453125,8.88671875)"/>
<path d="M0 0 C4.71977663 2.52845177 8.0942408 6.0634816 10.5 10.875 C12.40103007 22.04680684 12.62122439 32.61730109 11.5 43.875 C4.38386624 46.37770806 -0.67569993 46.9634715 -7.625 43.9375 C-14.69632894 40.11898237 -17.63129874 34.09621351 -20.5 26.875 C-20.83 26.545 -21.16 26.215 -21.5 25.875 C-22.14904061 18.57329313 -20.93633493 10.50694373 -16.8125 4.359375 C-11.12374486 -2.2300997 -8.42465493 -2.7079248 0 0 Z " fill="#060606" transform="translate(139.5,210.125)"/>
<path d="M0 0 C2.97 0.495 2.97 0.495 6 1 C6 2.65 6 4.3 6 6 C2.42424104 6 0.94704065 4.91159393 -2 3 C-1.34 2.67 -0.68 2.34 0 2 C0 1.34 0 0.68 0 0 Z " fill="#E7E3DE" transform="translate(94,249)"/>
<path d="M0 0 C0.99 0.33 1.98 0.66 3 1 C0.68055212 4.47917182 -1.26369964 5.29429766 -5 7 C-3.70700306 4.11562221 -2.34058637 2.12780579 0 0 Z " fill="#D1CECA" transform="translate(92,131)"/>
</svg>
