<?xml version="1.0" encoding="UTF-8"?>
<svg version="1.1" xmlns="http://www.w3.org/2000/svg" width="251" height="278">
<path d="M0 0 C3.44998103 4.32397623 5.1667798 8.6527197 6.6875 13.875 C6.89955078 14.5246875 7.11160156 15.174375 7.33007812 15.84375 C11.28648381 29.17321775 10.27207534 44.50470206 10.3125 58.3125 C10.31578308 59.24911469 10.31906616 60.18572937 10.32244873 61.15072632 C10.34531533 82.06999944 9.26163567 102.9311083 8.125 123.8125 C8.08130405 124.62016941 8.03760811 125.42783882 7.99258804 126.25998306 C7.41865113 136.84415451 6.80263877 147.42509995 6.12697601 158.00327682 C6.00447977 159.92955467 5.88502512 161.8560252 5.76568604 163.78250122 C5.01505924 175.62386686 4.28013308 186.96110609 0.625 198.3125 C0.18800781 199.78106445 0.18800781 199.78106445 -0.2578125 201.27929688 C-1.13653239 204.19872809 -2.06086438 207.0994924 -3 210 C-3.33781494 211.07064697 -3.67562988 212.14129395 -4.02368164 213.24438477 C-4.36520264 214.30584717 -4.70672363 215.36730957 -5.05859375 216.4609375 C-5.36595459 217.41919434 -5.67331543 218.37745117 -5.98999023 219.36474609 C-10.08671438 230.05366086 -19.9552597 236.48049025 -30 241 C-72.91633855 258.61007122 -121.87088881 256.79944657 -165.23046875 240.10546875 C-179.15850031 234.2272032 -192.75237137 224.32470577 -198.8515625 210 C-200.8492701 204.53959923 -201.54612319 199.54534904 -201.5 193.75 C-201.49572998 192.92733643 -201.49145996 192.10467285 -201.48706055 191.25708008 C-201.21183679 181.28581077 -198.28932142 172.09749717 -191 165 C-187.73833498 162.82555666 -185.4159178 162.36007123 -181.64453125 161.66015625 C-178.78505824 161.01060155 -178.78505824 161.01060155 -175.34838867 159.53173828 C-171.17342101 157.95267328 -167.20425599 157.2854737 -162.78125 156.83203125 C-162.03790405 156.74749191 -161.29455811 156.66295258 -160.52868652 156.57585144 C-158.1867478 156.31172498 -155.84355095 156.06187043 -153.5 155.8125 C-151.89833189 155.63441084 -150.29676788 155.4553827 -148.6953125 155.27539062 C-144.79799265 154.83941131 -140.89947841 154.41621145 -137 154 C-134.98591469 141.3872403 -134.81432486 129.12027181 -135 116.375 C-135.15514938 105.6844691 -135.27698726 95.39934068 -133.49462891 84.82568359 C-132.85200828 79.85536514 -132.68904917 74.92045081 -132.54296875 69.9140625 C-132.51204132 68.91974213 -132.48111389 67.92542175 -132.44924927 66.90097046 C-132.32528308 62.77374932 -132.20910053 58.64672918 -132.12182617 54.51855469 C-131.4376681 23.9320955 -131.4376681 23.9320955 -123.43041992 15.19677734 C-122.62838135 14.47184082 -121.82634277 13.7469043 -121 13 C-119.50580835 11.17536213 -118.05808604 9.32590789 -116.625 7.453125 C-114.43109476 5.49126743 -112.92173126 5.20807582 -110 5 C-107.4296875 5.671875 -107.4296875 5.671875 -104.875 6.75 C-103.60269531 7.26820312 -103.60269531 7.26820312 -102.3046875 7.796875 C-98.6932992 9.68214211 -97.29397457 11.1180763 -96 15 C-95.69352108 17.62342283 -95.41949066 20.2427243 -95.1640625 22.87109375 C-94.45090712 29.7281328 -93.47758796 36.49757346 -92.2734375 43.28515625 C-92.11950027 44.1578566 -91.96556305 45.03055695 -91.80696106 45.92970276 C-91.49024502 47.72418162 -91.17341551 49.51864046 -90.85647583 51.31307983 C-87.92609597 68.04672455 -85.94055673 83.96482486 -87 101 C-86.25016846 100.97905273 -85.50033691 100.95810547 -84.7277832 100.93652344 C-57.56353096 100.27688279 -57.56353096 100.27688279 -47 105 C-40.74906966 107.66780777 -35.83773002 108.37831703 -29 108 C-29.24339111 106.69409912 -29.24339111 106.69409912 -29.49169922 105.36181641 C-29.96276772 102.24624808 -30.12916352 99.35688346 -30.1328125 96.2109375 C-30.13522949 95.11515381 -30.13764648 94.01937012 -30.14013672 92.89038086 C-30.1193182 88.05544822 -30.09157007 83.22091418 -30.03710938 78.38623047 C-30.01452528 76.32543205 -29.99845894 74.26453092 -29.99414062 72.20361328 C-29.91473392 51.77623766 -26.27260383 16.31258447 -11 1 C-7.0778834 -1.42983717 -4.45592384 -1.2731211 0 0 Z " fill="#010101" transform="translate(216,9)"/>
<path d="M0 0 C4.31828615 3.22714187 6.88138249 7.28993933 9.55078125 11.90625 C10.19015625 12.875625 10.82953125 13.845 11.48828125 14.84375 C13.11524026 19.5332201 13.21190245 24.00165319 12.55078125 28.90625 C10.12911752 33.11783909 6.02915668 33.96832774 1.57421875 35.29296875 C-0.49068842 35.85675525 -0.49068842 35.85675525 -2.44921875 36.90625 C-10.51685426 37.62300274 -18.52425708 36.28649131 -26.44921875 34.90625 C-27.35027344 34.80441406 -28.25132813 34.70257813 -29.1796875 34.59765625 C-36.12912674 33.34918783 -39.8852076 28.98613384 -44.01025391 23.59033203 C-47.38768332 18.70375853 -48.84813178 14.64618547 -48.1953125 8.6015625 C-46.6607953 3.0580187 -44.14242169 -0.38562849 -39.28125 -3.46875 C-26.90135836 -9.28507756 -11.49544182 -6.63386176 0 0 Z " fill="#F2EEE8" transform="translate(86.44921875,183.09375)"/>
<path d="M0 0 C1.1653125 0.01417969 2.330625 0.02835938 3.53125 0.04296875 C5.27921875 0.05263672 5.27921875 0.05263672 7.0625 0.0625 C10.03125 0.23046875 10.03125 0.23046875 12.03125 1.23046875 C13.60316049 7.94097499 13.40179757 14.96391699 13.49121094 21.82495117 C13.51787837 23.38548371 13.55887146 24.94583791 13.61425781 26.50561523 C14.06528356 39.3965289 14.06528356 39.3965289 11.55834961 43.84277344 C8.58013396 46.96179468 6.94283858 48.13102272 2.59375 48.60546875 C-2.62038547 46.59299541 -6.06716479 43.13205396 -9.96875 39.23046875 C-10.30969498 34.73862653 -10.29411666 30.23356635 -10.34375 25.73046875 C-10.38113281 24.47492188 -10.41851562 23.219375 -10.45703125 21.92578125 C-10.5307089 14.11595041 -9.81460703 8.51357768 -4.96875 2.23046875 C-2.96875 0.23046875 -2.96875 0.23046875 0 0 Z " fill="#F1EDE7" transform="translate(173.96875,144.76953125)"/>
<path d="M0 0 C0 0.66 0 1.32 0 2 C0.66 2 1.32 2 2 2 C5.37090754 10.50054945 6.14275625 17.76282882 6.0625 26.875 C6.05798828 27.84953125 6.05347656 28.8240625 6.04882812 29.828125 C6.03710906 32.21881434 6.02070219 34.6093744 6 37 C5.34 37 4.68 37 4 37 C3.67 38.65 3.34 40.3 3 42 C-0.99265994 43.37247685 -4.07569787 42.89158541 -7.9465332 41.24243164 C-12.11421677 38.72081214 -14.78846482 35.30643768 -17 31 C-17.81334929 26.26984344 -17.66881029 21.71876 -17.4375 16.9375 C-17.39012695 15.06674805 -17.39012695 15.06674805 -17.34179688 13.15820312 C-17.25985597 10.1029781 -17.14518732 7.05276293 -17 4 C-16.34 4 -15.68 4 -15 4 C-14.67 3.01 -14.34 2.02 -14 1 C-8.81640448 -2.45573035 -5.74221699 -2.27017881 0 0 Z " fill="#EEEAE5" transform="translate(121,144)"/>
<path d="M0 0 C2.50037734 2.17424117 3.43628586 3.73045798 4 7 C1.69 6.34 -0.62 5.68 -3 5 C-3 4.01 -3 3.02 -3 2 C-2.01 1.34 -1.02 0.68 0 0 Z " fill="#D5D1CC" transform="translate(94,194)"/>
<path d="M0 0 C0.33 0.99 0.66 1.98 1 3 C0.67 3.66 0.34 4.32 0 5 C-1.65 4.67 -3.3 4.34 -5 4 C-5 3.01 -5 2.02 -5 1 C-3.35 0.67 -1.7 0.34 0 0 Z " fill="#E4E1DD" transform="translate(54,210)"/>
<path d="M0 0 C2.0625 0.4375 2.0625 0.4375 4 1 C3.67 1.66 3.34 2.32 3 3 C2.34 3 1.68 3 1 3 C1 3.66 1 4.32 1 5 C0.01 5.33 -0.98 5.66 -2 6 C-1.125 1.125 -1.125 1.125 0 0 Z " fill="#E1DEDA" transform="translate(44,182)"/>
<path d="M0 0 C1.02196992 0.97753644 2.01979625 1.9805881 3 3 C3.99 3.66 4.98 4.32 6 5 C-0.52307692 4.38461538 -0.52307692 4.38461538 -2.9375 2.4375 C-3.288125 1.963125 -3.63875 1.48875 -4 1 C-2 0 -2 0 0 0 Z " fill="#C6C3BF" transform="translate(174,188)"/>
<path d="M0 0 C-0.33 2.64 -0.66 5.28 -1 8 C-3 5 -3 5 -3 3 C-3.66 2.67 -4.32 2.34 -5 2 C-2 0 -2 0 0 0 Z " fill="#DFDBD6" transform="translate(112,143)"/>
</svg>
