<?xml version="1.0" encoding="UTF-8"?>
<svg version="1.1" xmlns="http://www.w3.org/2000/svg" width="321" height="300">
<path d="M0 0 C10.26187165 6.72192368 17.84710798 18.10240613 25.22045898 27.74291992 C26.62126524 29.51963193 28.0682838 31.25991345 29.53149414 32.9855957 C36.78180136 41.64616063 41.47607322 50.42780652 45.8125 60.8125 C46.43247758 62.24360542 47.0542216 63.6739469 47.67773438 65.10351562 C53.25072852 78.00441006 58.66054608 91.22874632 61.375 105.0625 C61.53871094 105.84431641 61.70242187 106.62613281 61.87109375 107.43164062 C62.25781296 109.28561802 62.63066866 111.14248061 63 113 C64.01320312 113.17015625 65.02640625 113.3403125 66.0703125 113.515625 C67.42200801 113.75968113 68.77356338 114.00451432 70.125 114.25 C70.79015625 114.35957031 71.4553125 114.46914062 72.140625 114.58203125 C79.58119495 115.96801977 84.44223175 120.15895457 89.875 125.25 C90.39457275 125.73162598 90.91414551 126.21325195 91.44946289 126.70947266 C95.15938567 130.16625047 98.79060283 133.69428564 102.33984375 137.31640625 C103.68993031 138.68555285 105.08844758 140.00681401 106.5 141.3125 C113.26172157 148.58135069 118.90716199 155.84975632 119.6328125 165.95703125 C119.71660156 167.06884766 119.80039062 168.18066406 119.88671875 169.32617188 C119.96535156 170.47666016 120.04398438 171.62714844 120.125 172.8125 C120.21136719 173.98232422 120.29773438 175.15214844 120.38671875 176.35742188 C120.59834123 179.23783897 120.802508 182.1185853 121 185 C121.67546875 185.16653076 122.3509375 185.33306152 123.046875 185.50463867 C129.93853625 187.35515429 132.81915036 189.17082521 136.90625 195.05859375 C138.95584284 198.09787241 138.95584284 198.09787241 141.71875 200.78515625 C148.9440589 208.50104148 149.94011935 215.74240931 150 226.1875 C150.01224609 227.37520996 150.02449219 228.56291992 150.03710938 229.78662109 C149.71848134 241.00264024 145.2534387 249.87275177 137.2578125 257.70703125 C130.4920228 263.95946337 122.75871127 267.2229683 114.3125 270.6875 C113.21325195 271.14866211 113.21325195 271.14866211 112.09179688 271.61914062 C99.53587009 276.79322407 86.08190225 275.06161578 72.75 274.625 C71.66178955 274.59422363 70.5735791 274.56344727 69.45239258 274.53173828 C61.35396016 274.23559653 53.10855771 273.82602565 45.625 270.5 C42.15058729 269.06231198 39.57308645 268.62543129 35.875 268.1875 C31.04193421 267.53690887 27.37633288 266.39380293 23.0546875 264.15625 C16.34196814 260.95577766 9.60656854 259.25930505 2.36993408 257.75671387 C-10.79307848 254.99851833 -23.6149643 251.49033206 -36.375 247.25 C-37.44470032 246.90142441 -37.44470032 246.90142441 -38.53601074 246.54580688 C-40.55784601 245.88348659 -42.57264521 245.20342294 -44.5859375 244.515625 C-45.7311084 244.12665039 -46.8762793 243.73767578 -48.05615234 243.33691406 C-52.50378736 241.31707252 -55.00027078 238.685514 -56.88671875 234.21484375 C-57.18513672 233.51939453 -57.48355469 232.82394531 -57.79101562 232.10742188 C-58.08685547 231.39134766 -58.38269531 230.67527344 -58.6875 229.9375 C-58.99494141 229.21755859 -59.30238281 228.49761719 -59.61914062 227.75585938 C-69.52329803 204.41498952 -64.48391765 171.97970067 -55.5234375 149.01953125 C-53.7019877 144.63253021 -53.7019877 144.63253021 -53 140 C-54.72916525 137.68504203 -54.72916525 137.68504203 -57.3125 135.6875 C-58.23933594 134.90632812 -59.16617188 134.12515625 -60.12109375 133.3203125 C-61.07113281 132.55460938 -62.02117187 131.78890625 -63 131 C-63.81597656 130.33742187 -64.63195312 129.67484375 -65.47265625 128.9921875 C-68.9220145 126.22148348 -72.37786422 123.46931585 -75.91015625 120.8046875 C-81.55291782 116.392412 -86.1249188 111.98235054 -90.3125 106.19921875 C-90.78493637 105.54946075 -91.25737274 104.89970276 -91.74412537 104.23025513 C-96.89067912 96.98474718 -101.01346829 89.26986504 -105.0625 81.375 C-105.84003094 79.87378607 -106.61786656 78.37272992 -107.39599609 76.87182617 C-108.91867112 73.92705156 -110.43137456 70.97744428 -111.93701172 68.02392578 C-113.71265444 64.5458279 -115.5395044 61.09720575 -117.37890625 57.65234375 C-122.28807211 48.2510004 -126.99526905 38.81083155 -124 28 C-121.5198755 24.60181837 -120.09567123 23.20352163 -115.9296875 22.4296875 C-110.34879212 23.23963852 -105.37313051 25.10599048 -100.125 27.125 C-99.08730469 27.50398438 -98.04960938 27.88296875 -96.98046875 28.2734375 C-91.18448892 30.46611587 -86.12982007 32.9383906 -81.07861328 36.53100586 C-79.07699044 37.94558945 -77.03278166 39.19027738 -74.921875 40.43359375 C-70.5469565 43.15006762 -66.94423673 46.49625185 -63.25 50.0625 C-62.56188232 50.71718262 -61.87376465 51.37186523 -61.16479492 52.04638672 C-55.0072419 57.92914458 -48.98010018 63.93747884 -43 70 C-42.14277344 70.83402344 -41.28554687 71.66804688 -40.40234375 72.52734375 C-32.63024536 80.52691819 -26.93195288 90.59926705 -21 100 C-20.45730469 100.845625 -19.91460937 101.69125 -19.35546875 102.5625 C-17.57621085 105.35188414 -16.05068734 107.84793798 -15 111 C-9.39 111.33 -3.78 111.66 2 112 C1.45730469 109.9478125 0.91460937 107.895625 0.35546875 105.78125 C-0.182086 103.73260693 -0.7177127 101.68346851 -1.25317383 99.63427734 C-1.61868843 98.23954636 -1.98612002 96.84531598 -2.35571289 95.45166016 C-7.1962734 77.1856433 -9.90834094 59.03083671 -11.95458984 40.25170898 C-12.37777508 36.41232288 -12.82744682 32.57657047 -13.27734375 28.74023438 C-13.548507 26.28403379 -13.81809538 23.82765871 -14.0859375 21.37109375 C-14.22325287 20.23248398 -14.36056824 19.09387421 -14.50204468 17.92076111 C-15.15365574 11.62656827 -15.22120792 7.52524665 -12 2 C-8.67777109 -1.93745648 -4.58232134 -1.62220865 0 0 Z " fill="#020101" transform="translate(142,10)"/>
<path d="M0 0 C0.99 0.99 0.99 0.99 2 2 C4.24073962 2.44527518 6.49315243 2.83278451 8.75 3.1875 C14.38862098 4.33823898 17.49484941 5.26641642 20.765625 10.03125 C21.17296875 10.6809375 21.5803125 11.330625 22 12 C23.07679716 13.40088175 24.16020099 14.79670888 25.25 16.1875 C30.25477363 22.79326304 30.42432829 27.9524549 30.5 36.125 C30.54125 37.21554688 30.5825 38.30609375 30.625 39.4296875 C30.7211414 49.47646393 27.14427443 55.74463887 20.5 63.0625 C-0.86827422 80.13617009 -27.85434526 77.45273254 -53.49072266 75.30053711 C-58.31299139 74.72297213 -62.15183849 74.09526034 -66 71 C-71.24088063 64.07227723 -75.04184924 55.59713297 -74.4765625 46.8203125 C-74 45 -74 45 -72 43 C-71.84402344 42.37609375 -71.68804687 41.7521875 -71.52734375 41.109375 C-70.9296421 38.71856839 -69.99731327 37.24255968 -68.5625 35.25 C-68.13066406 34.63640625 -67.69882813 34.0228125 -67.25390625 33.390625 C-66.63322266 32.70226562 -66.63322266 32.70226562 -66 32 C-65.34 32 -64.68 32 -64 32 C-63.75894531 31.2471875 -63.51789063 30.494375 -63.26953125 29.71875 C-61.81515377 26.60414469 -60.46226637 25.47731251 -57.6875 23.5 C-55.08721805 21.62815017 -52.85292589 19.84712033 -50.625 17.53125 C-47.76326409 14.77171894 -44.79697473 12.84666462 -41.3125 11 C-40.34824097 10.48735596 -40.34824097 10.48735596 -39.36450195 9.96435547 C-31.6232641 6.04612234 -23.41731789 3.94421745 -15 2 C-13.4221875 1.63068359 -13.4221875 1.63068359 -11.8125 1.25390625 C-7.82141024 0.39273361 -4.10089294 -0.29146842 0 0 Z " fill="#F3EFE9" transform="translate(252,200)"/>
<path d="M0 0 C5.166288 0.03341713 9.50793858 1.01086935 14.41796875 2.53515625 C17.89728481 3.45393668 21.24810652 3.6124392 24.8359375 3.6484375 C28.2767086 4.55266745 29.79224295 6.6233523 32.125 9.25 C32.86363281 10.07113281 33.60226563 10.89226562 34.36328125 11.73828125 C42.18498577 22.38817272 40.93150275 33.56464229 40.125 46.25 C39.465 46.25 38.805 46.25 38.125 46.25 C37.8775 47.095625 37.63 47.94125 37.375 48.8125 C35.06023144 55.17811354 32.71991671 59.94202802 26.74609375 63.375 C20.82134554 65.35285931 12.45132389 65.64303055 6.671875 63.22265625 C6.16140625 62.90167969 5.6509375 62.58070313 5.125 62.25 C5.125 61.59 5.125 60.93 5.125 60.25 C4.54492188 60.07984375 3.96484375 59.9096875 3.3671875 59.734375 C-3.63856466 57.56097334 -8.89076608 55.48412942 -12.6875 48.875 C-15.61972827 42.45605159 -15.71386574 36.2080703 -15.875 29.25 C-16.00648437 28.00476563 -16.13796875 26.75953125 -16.2734375 25.4765625 C-16.9586802 16.49432712 -15.15840191 11.8724606 -9.52026367 5.19702148 C-4.98440974 0.08472085 -4.98440974 0.08472085 0 0 Z " fill="#EFEAE5" transform="translate(107.875,181.75)"/>
<path d="M0 0 C0.95003906 -0.00773438 1.90007812 -0.01546875 2.87890625 -0.0234375 C5.94187279 0.45354355 6.62609328 0.89790131 8.4375 3.375 C9.09184954 8.01198575 8.90057487 12.69712384 8.875 17.375 C8.9049707 19.32019531 8.9049707 19.32019531 8.93554688 21.3046875 C8.93490234 22.54476562 8.93425781 23.78484375 8.93359375 25.0625 C8.93637329 26.76986328 8.93637329 26.76986328 8.93920898 28.51171875 C8.4375 31.375 8.4375 31.375 6.61743164 33.24609375 C2.41226978 35.42379209 -1.36494393 34.75070387 -5.75 33.375 C-9.59203248 30.64288802 -11.17665172 27.84573089 -12.5625 23.375 C-13.64124854 16.74493873 -12.24531389 9.48140475 -9.5625 3.375 C-6.56546771 0.31815997 -4.20290752 -0.03430945 0 0 Z " fill="#0D0D0C" transform="translate(126.5625,199.625)"/>
<path d="M0 0 C3.6639136 1.12735803 5.66277262 3.10139659 8.4375 5.75 C9.82652887 8.52805774 9.34099314 10.54652179 9.0625 13.625 C8.97226562 14.67429688 8.88203125 15.72359375 8.7890625 16.8046875 C8.1959645 21.77353074 8.1959645 21.77353074 7.4375 23.75 C4.14318205 25.58721578 1.61514023 26.75 -2.1875 26.75 C-5.85127631 25.20735734 -7.30003541 24.11137596 -9.5625 20.75 C-10.56388747 15.41393532 -10.96915184 10.1597239 -8.16015625 5.34765625 C-5.64336951 2.65463936 -3.54917059 1.03878164 0 0 Z " fill="#121111" transform="translate(262.5625,226.25)"/>
<path d="M0 0 C3.1573184 3.1573184 3.06585881 6.70201122 3.1875 11 C3.11242564 15.42938744 2.40263861 18.54726716 -0.75 21.8125 C-3.73526029 23.38805404 -5.6654452 23.41681935 -9 23 C-11.14453125 21.90234375 -11.14453125 21.90234375 -13 20 C-14.07893811 14.67150199 -14.52924928 8.52830039 -11.63671875 3.74609375 C-8.06316643 0.45779173 -4.9252963 -0.91633419 0 0 Z " fill="#0B0B0A" transform="translate(227,238)"/>
<path d="M0 0 C-3.63 1.32 -7.26 2.64 -11 4 C-11.33 3.01 -11.66 2.02 -12 1 C-10.56496445 0.63597631 -9.12683494 0.28413409 -7.6875 -0.0625 C-6.88699219 -0.25972656 -6.08648437 -0.45695312 -5.26171875 -0.66015625 C-3 -1 -3 -1 0 0 Z " fill="#DFDCD7" transform="translate(267,267)"/>
</svg>
