<?xml version="1.0" encoding="UTF-8"?>
<svg version="1.1" xmlns="http://www.w3.org/2000/svg" width="392" height="369">
<path d="M0 0 C4.16071878 4.06825836 5.54680404 7.45023806 7 13 C7.55647217 12.96970703 8.11294434 12.93941406 8.6862793 12.90820312 C15.45553087 12.54832062 22.22622421 12.2597987 29 12 C30.49611816 11.9366748 30.49611816 11.9366748 32.02246094 11.87207031 C34.86914151 11.76138184 37.71440405 11.68773451 40.5625 11.625 C41.87190552 11.56795898 41.87190552 11.56795898 43.20776367 11.50976562 C47.55745364 11.45161583 49.38234147 11.52042577 52.91796875 14.265625 C54.63264862 16.51754978 56.28778266 18.70379596 57.75 21.125 C58.36101562 22.11886719 58.36101562 22.11886719 58.984375 23.1328125 C61.49736629 27.75285034 61.34880064 32.61221281 61.60546875 37.7265625 C61.50681691 41.15564977 61.50681691 41.15564977 63 44 C65.22764582 44.13277359 67.45739181 44.23093909 69.6875 44.3125 C77.30130436 44.81493379 80.20990164 45.90826939 85.3125 51.5625 C89.24534499 57.2432761 88.95392558 64.36723621 88 71 C86.09836514 74.01409126 83.93714391 76.00693806 81 78 C81.9178125 78.34289062 82.835625 78.68578125 83.78125 79.0390625 C93.28383929 82.94945444 97.48089174 87.47924313 101.83789062 96.78759766 C103.33925619 99.64586967 105.1101092 102.29165579 106.8671875 105 C111.34870482 112.06621057 114.06935029 119.48623084 116.75 127.375 C120.57354448 138.54572379 120.57354448 138.54572379 126 149 C126 149.66 126 150.32 126 151 C126.75925781 151.17015625 127.51851563 151.3403125 128.30078125 151.515625 C129.29464844 151.75796875 130.28851563 152.0003125 131.3125 152.25 C132.79169922 152.59804688 132.79169922 152.59804688 134.30078125 152.953125 C138.01770578 154.39471078 139.36021922 156.5538032 140.95141602 160.15063477 C141.34864868 161.28456665 141.34864868 161.28456665 141.75390625 162.44140625 C142.05103516 163.27220703 142.34816406 164.10300781 142.65429688 164.95898438 C142.95400391 165.81814453 143.25371094 166.67730469 143.5625 167.5625 C144.16432523 169.27342141 144.7696555 170.98311494 145.37890625 172.69140625 C145.6426001 173.44623291 145.90629395 174.20105957 146.17797852 174.97875977 C147.02465932 177.25406217 147.02465932 177.25406217 149 180 C149.18286133 182.58105469 149.18286133 182.58105469 149.08203125 185.671875 C149.04658203 186.80383301 149.01113281 187.93579102 148.97460938 189.10205078 C147.8147598 215.20215968 140.96632279 231.56116521 127.08984375 253.29150391 C123.2434253 259.32135074 119.77114827 265.38587352 116.625 271.8125 C111.53855011 282.13607811 106.52455783 292.12614458 97 299 C96.47470703 299.39364746 95.94941406 299.78729492 95.40820312 300.19287109 C73.15413786 316.7973546 51.02196311 325.74245389 23.046875 321.9765625 C22.22479553 321.87032562 21.40271606 321.76408875 20.5557251 321.65463257 C17.95308767 321.31675789 15.35158882 320.97084517 12.75 320.625 C11.02219905 320.40055129 9.29433479 320.17658938 7.56640625 319.953125 C3.42840719 319.4160484 -0.70575871 318.85386195 -4.83959961 318.28579712 C-6.71097728 318.03823452 -8.58671113 317.82403436 -10.46289062 317.6159668 C-20.44606922 316.39335935 -29.60246185 312.99553819 -39 309.5625 C-39.85906952 309.25275238 -40.71813904 308.94300476 -41.60324097 308.62387085 C-54.36018985 304.00966794 -66.44600469 298.89155102 -78.1887207 292.04199219 C-83.80938948 288.80853561 -89.78374644 286.22716951 -95.671875 283.52734375 C-97.6234881 282.6317091 -99.57262724 281.73058066 -101.515625 280.81640625 C-107.86433395 277.85708869 -114.32758794 275.2052883 -120.8125 272.5625 C-122.24783081 271.9744458 -122.24783081 271.9744458 -123.7121582 271.37451172 C-127.92768248 269.64917815 -132.14470665 267.93607889 -136.39453125 266.296875 C-137.63808302 265.80223965 -138.88157783 265.30746104 -140.125 264.8125 C-141.70667969 264.20341797 -141.70667969 264.20341797 -143.3203125 263.58203125 C-146.68753641 261.59409294 -147.93870757 259.28636074 -150 256 C-151.51950591 254.63795584 -153.08428076 253.32493834 -154.6875 252.0625 C-161.13576136 246.44411843 -165.11022452 239.52057381 -169 232 C-169.56589844 230.93136719 -170.13179687 229.86273438 -170.71484375 228.76171875 C-174.13764037 218.74301618 -174.09446494 204.42595223 -169.89477539 194.62207031 C-166.36924066 187.73837958 -161.83146617 183.41573308 -155 180 C-152.79733684 179.61212744 -150.58775432 179.26290505 -148.375 178.9375 C-146.59222656 178.67259766 -146.59222656 178.67259766 -144.7734375 178.40234375 C-143.85820312 178.26957031 -142.94296875 178.13679687 -142 178 C-139.71098632 172.06093747 -137.67933312 166.08449312 -135.8125 160 C-135.53986328 159.14921875 -135.26722656 158.2984375 -134.98632812 157.421875 C-133.58755726 152.85045343 -132.94169135 149.18124046 -133.12475586 144.3671875 C-132.84923771 139.13935201 -131.26294157 134.05808408 -129.91162109 129.01855469 C-129.37746648 127.00927793 -128.8737149 124.99392557 -128.37109375 122.9765625 C-126.44030196 115.5158728 -124.22973876 109.72531627 -119 104 C-118.2265625 103.02933594 -117.453125 102.05867188 -116.65625 101.05859375 C-115.15669669 99.23576717 -113.65384633 97.41564996 -112.1484375 95.59765625 C-110.90812842 94.09800982 -109.67795259 92.589596 -108.4765625 91.05859375 C-104.04771696 85.54173702 -98.53479991 81.35855423 -93 77 C-92.20207031 76.30261719 -91.40414062 75.60523437 -90.58203125 74.88671875 C-87.55904471 72.6777891 -84.81061077 71.65059038 -81.25 70.5 C-80.28404907 70.18373657 -80.28404907 70.18373657 -79.29858398 69.86108398 C-75.00120621 68.4976465 -70.68770785 67.46144608 -66.27856445 66.53100586 C-57.62851782 64.70226955 -51.07594755 62.61392133 -46 55 C-45.78950821 52.27178993 -45.78950821 52.27178993 -45.9296875 49.19140625 C-46.03846837 42.06428114 -45.65365377 35.04276444 -45.125 27.9375 C-45.04636719 26.74189453 -44.96773438 25.54628906 -44.88671875 24.31445312 C-44.76103516 22.59452148 -44.76103516 22.59452148 -44.6328125 20.83984375 C-44.55949707 19.81238037 -44.48618164 18.78491699 -44.41064453 17.72631836 C-43.81439642 13.76775555 -42.8717293 11.70619185 -39.7578125 9.18359375 C-38.88898438 8.60738281 -38.02015625 8.03117187 -37.125 7.4375 C-33.51559991 5.04089317 -33.51559991 5.04089317 -30.0703125 2.421875 C-21.31665963 -3.59006772 -9.27885889 -5.25218428 0 0 Z M-97 155 C-96 158 -96 158 -96 158 Z M-98 159 C-98.66 162.96 -99.32 166.92 -100 171 C-97.50494038 168.50494038 -97.64051624 167.32671112 -97.375 163.875 C-97.30023438 162.96492187 -97.22546875 162.05484375 -97.1484375 161.1171875 C-97.09945312 160.41851562 -97.05046875 159.71984375 -97 159 C-97.33 159 -97.66 159 -98 159 Z " fill="#F4EFE9" transform="translate(196,21)"/>
<path d="M0 0 C4.16071878 4.06825836 5.54680404 7.45023806 7 13 C7.55647217 12.96970703 8.11294434 12.93941406 8.6862793 12.90820312 C15.45553087 12.54832062 22.22622421 12.2597987 29 12 C30.49611816 11.9366748 30.49611816 11.9366748 32.02246094 11.87207031 C34.86914151 11.76138184 37.71440405 11.68773451 40.5625 11.625 C41.87190552 11.56795898 41.87190552 11.56795898 43.20776367 11.50976562 C47.55745364 11.45161583 49.38234147 11.52042577 52.91796875 14.265625 C54.63264862 16.51754978 56.28778266 18.70379596 57.75 21.125 C58.36101562 22.11886719 58.36101562 22.11886719 58.984375 23.1328125 C61.49736629 27.75285034 61.34880064 32.61221281 61.60546875 37.7265625 C61.50681691 41.15564977 61.50681691 41.15564977 63 44 C65.22764582 44.13277359 67.45739181 44.23093909 69.6875 44.3125 C77.30130436 44.81493379 80.20990164 45.90826939 85.3125 51.5625 C89.24534499 57.2432761 88.95392558 64.36723621 88 71 C86.09836514 74.01409126 83.93714391 76.00693806 81 78 C81.9178125 78.34289062 82.835625 78.68578125 83.78125 79.0390625 C93.28383929 82.94945444 97.48089174 87.47924313 101.83789062 96.78759766 C103.33925619 99.64586967 105.1101092 102.29165579 106.8671875 105 C111.34870482 112.06621057 114.06935029 119.48623084 116.75 127.375 C120.57354448 138.54572379 120.57354448 138.54572379 126 149 C126 149.66 126 150.32 126 151 C126.75925781 151.17015625 127.51851563 151.3403125 128.30078125 151.515625 C129.29464844 151.75796875 130.28851563 152.0003125 131.3125 152.25 C132.79169922 152.59804688 132.79169922 152.59804688 134.30078125 152.953125 C138.01770578 154.39471078 139.36021922 156.5538032 140.95141602 160.15063477 C141.34864868 161.28456665 141.34864868 161.28456665 141.75390625 162.44140625 C142.05103516 163.27220703 142.34816406 164.10300781 142.65429688 164.95898438 C142.95400391 165.81814453 143.25371094 166.67730469 143.5625 167.5625 C144.16432523 169.27342141 144.7696555 170.98311494 145.37890625 172.69140625 C145.6426001 173.44623291 145.90629395 174.20105957 146.17797852 174.97875977 C147.02465932 177.25406217 147.02465932 177.25406217 149 180 C149.18286133 182.58105469 149.18286133 182.58105469 149.08203125 185.671875 C149.04658203 186.80383301 149.01113281 187.93579102 148.97460938 189.10205078 C147.8147598 215.20215968 140.96632279 231.56116521 127.08984375 253.29150391 C123.2434253 259.32135074 119.77114827 265.38587352 116.625 271.8125 C111.53855011 282.13607811 106.52455783 292.12614458 97 299 C96.47470703 299.39364746 95.94941406 299.78729492 95.40820312 300.19287109 C73.15413786 316.7973546 51.02196311 325.74245389 23.046875 321.9765625 C22.22479553 321.87032562 21.40271606 321.76408875 20.5557251 321.65463257 C17.95308767 321.31675789 15.35158882 320.97084517 12.75 320.625 C11.02219905 320.40055129 9.29433479 320.17658938 7.56640625 319.953125 C3.42840719 319.4160484 -0.70575871 318.85386195 -4.83959961 318.28579712 C-6.71097728 318.03823452 -8.58671113 317.82403436 -10.46289062 317.6159668 C-20.44606922 316.39335935 -29.60246185 312.99553819 -39 309.5625 C-39.85906952 309.25275238 -40.71813904 308.94300476 -41.60324097 308.62387085 C-54.36018985 304.00966794 -66.44600469 298.89155102 -78.1887207 292.04199219 C-83.80938948 288.80853561 -89.78374644 286.22716951 -95.671875 283.52734375 C-97.6234881 282.6317091 -99.57262724 281.73058066 -101.515625 280.81640625 C-107.86433395 277.85708869 -114.32758794 275.2052883 -120.8125 272.5625 C-122.24783081 271.9744458 -122.24783081 271.9744458 -123.7121582 271.37451172 C-127.92768248 269.64917815 -132.14470665 267.93607889 -136.39453125 266.296875 C-137.63808302 265.80223965 -138.88157783 265.30746104 -140.125 264.8125 C-141.70667969 264.20341797 -141.70667969 264.20341797 -143.3203125 263.58203125 C-146.68753641 261.59409294 -147.93870757 259.28636074 -150 256 C-151.51950591 254.63795584 -153.08428076 253.32493834 -154.6875 252.0625 C-161.13576136 246.44411843 -165.11022452 239.52057381 -169 232 C-169.56589844 230.93136719 -170.13179687 229.86273438 -170.71484375 228.76171875 C-174.13764037 218.74301618 -174.09446494 204.42595223 -169.89477539 194.62207031 C-166.36924066 187.73837958 -161.83146617 183.41573308 -155 180 C-152.79733684 179.61212744 -150.58775432 179.26290505 -148.375 178.9375 C-146.59222656 178.67259766 -146.59222656 178.67259766 -144.7734375 178.40234375 C-143.85820312 178.26957031 -142.94296875 178.13679687 -142 178 C-139.71098632 172.06093747 -137.67933312 166.08449312 -135.8125 160 C-135.53986328 159.14921875 -135.26722656 158.2984375 -134.98632812 157.421875 C-133.58755726 152.85045343 -132.94169135 149.18124046 -133.12475586 144.3671875 C-132.84923771 139.13935201 -131.26294157 134.05808408 -129.91162109 129.01855469 C-129.37746648 127.00927793 -128.8737149 124.99392557 -128.37109375 122.9765625 C-126.44030196 115.5158728 -124.22973876 109.72531627 -119 104 C-118.2265625 103.02933594 -117.453125 102.05867188 -116.65625 101.05859375 C-115.15669669 99.23576717 -113.65384633 97.41564996 -112.1484375 95.59765625 C-110.90812842 94.09800982 -109.67795259 92.589596 -108.4765625 91.05859375 C-104.04771696 85.54173702 -98.53479991 81.35855423 -93 77 C-92.20207031 76.30261719 -91.40414062 75.60523437 -90.58203125 74.88671875 C-87.55904471 72.6777891 -84.81061077 71.65059038 -81.25 70.5 C-80.28404907 70.18373657 -80.28404907 70.18373657 -79.29858398 69.86108398 C-75.00120621 68.4976465 -70.68770785 67.46144608 -66.27856445 66.53100586 C-57.62851782 64.70226955 -51.07594755 62.61392133 -46 55 C-45.78950821 52.27178993 -45.78950821 52.27178993 -45.9296875 49.19140625 C-46.03846837 42.06428114 -45.65365377 35.04276444 -45.125 27.9375 C-45.04636719 26.74189453 -44.96773438 25.54628906 -44.88671875 24.31445312 C-44.76103516 22.59452148 -44.76103516 22.59452148 -44.6328125 20.83984375 C-44.55949707 19.81238037 -44.48618164 18.78491699 -44.41064453 17.72631836 C-43.81439642 13.76775555 -42.8717293 11.70619185 -39.7578125 9.18359375 C-38.88898438 8.60738281 -38.02015625 8.03117187 -37.125 7.4375 C-33.51559991 5.04089317 -33.51559991 5.04089317 -30.0703125 2.421875 C-21.31665963 -3.59006772 -9.27885889 -5.25218428 0 0 Z M40 118 C37.67303356 119.01472737 35.33936676 120.01419698 33 121 C30.54190747 122.30561413 28.145968 123.70920072 25.75 125.125 C18.45735908 129.41750383 13.48916865 130.19278667 5.125 130.1875 C4.09173584 130.18814453 3.05847168 130.18878906 1.99389648 130.18945312 C-5.51707707 130.13764925 -12.63977354 129.58223678 -20 128 C-20.495 126.515 -20.495 126.515 -21 125 C-23.08535029 123.85626558 -23.08535029 123.85626558 -25.625 123 C-28.53848263 121.92425257 -31.32325247 120.84302634 -34.12109375 119.484375 C-39.01821727 117.36886027 -44.18218622 116.89212837 -49.4375 116.25 C-50.43587891 116.11207031 -51.43425781 115.97414063 -52.46289062 115.83203125 C-62.55807679 114.54441382 -69.10204822 115.44730454 -77.8125 120.875 C-78.56208984 121.32230469 -79.31167969 121.76960938 -80.08398438 122.23046875 C-86.15070288 125.90628211 -88.75473836 128.11453096 -91 135 C-91.66 135.33 -92.32 135.66 -93 136 C-93 138.31 -93 140.62 -93 143 C-93.66 143 -94.32 143 -95 143 C-95.21148682 144.07314453 -95.21148682 144.07314453 -95.42724609 145.16796875 C-96.07442294 148.44572599 -96.72468752 151.7228635 -97.375 155 C-97.59671875 156.12535156 -97.8184375 157.25070313 -98.046875 158.41015625 C-98.99062086 163.15664276 -99.93294877 167.88122804 -101.1640625 172.5625 C-102.15753015 176.05817378 -102.15753015 176.05817378 -102 180 C-103.485 180.495 -103.485 180.495 -105 181 C-105.23492933 193.4566757 -105.03543826 205.82087652 -104.125 218.25 C-104.04652832 219.35448486 -103.96805664 220.45896973 -103.88720703 221.59692383 C-102.65875714 237.20012371 -100.71635765 253.01793082 -90 265 C-88.52003344 266.89520897 -87.04090044 268.79106909 -85.5625 270.6875 C-69.61387909 291.1150505 -31.04590129 303.21074455 -5.83496094 306.36083984 C-2.55894862 306.65977778 0.71475531 306.83013586 4 307 C6.06765549 307.29969672 8.13112322 307.63076852 10.1875 308 C14.67840086 308.78590765 19.17265542 309.48898023 23.6875 310.125 C24.86699219 310.29257812 26.04648438 310.46015625 27.26171875 310.6328125 C51.58722182 313.02215136 71.75729402 304.30321717 90.50390625 289.19140625 C91.32761719 288.46824219 92.15132812 287.74507812 93 287 C93.66128906 286.443125 94.32257813 285.88625 95.00390625 285.3125 C98.10262322 281.72259698 100.15139371 277.6088214 102.375 273.4375 C102.86250732 272.53725098 103.35001465 271.63700195 103.85229492 270.70947266 C105.24115025 268.14297362 106.62166158 265.57215819 108 263 C112.46723573 254.71996434 117.13935812 246.62845428 122.0859375 238.625 C122.44445801 238.04476074 122.80297852 237.46452148 123.17236328 236.86669922 C124.20113853 235.20397093 125.23329823 233.54333812 126.265625 231.8828125 C127.62720175 229.61965115 128.87120572 227.38428995 130 225 C128.71937515 223.2925002 127.38232443 221.62626404 126 220 C125.34 220 124.68 220 124 220 C123.77828125 219.41476563 123.5565625 218.82953125 123.328125 218.2265625 C121.58765003 215.3087074 119.62267261 214.18002156 116.75 212.375 C115.68523437 211.68792969 114.62046875 211.00085938 113.5234375 210.29296875 C112.95463867 209.92606934 112.38583984 209.55916992 111.79980469 209.18115234 C108.60866018 207.08690965 105.48961561 204.89334827 102.375 202.6875 C101.46959473 202.05690674 101.46959473 202.05690674 100.54589844 201.41357422 C97.74540226 199.42475812 95.92850373 197.8927556 94 195 C94.12629221 190.57977258 96.4434394 187.63620196 98.7890625 184.0703125 C100.51013208 181.1278387 101.24121824 178.31104769 102 175 C102.66 175 103.32 175 104 175 C104.05880804 171.83341337 104.09386406 168.66697007 104.125 165.5 C104.15013672 164.1696875 104.15013672 164.1696875 104.17578125 162.8125 C104.21719782 157.17984622 103.66910664 152.39059627 102 147 C101.67 146.67 101.34 146.34 101 146 C100.67701029 144.27640943 100.39164634 142.54570124 100.125 140.8125 C99.35238271 136.31727213 98.32219207 132.90550484 96 129 C95.34 129 94.68 129 94 129 C93.773125 128.01 93.54625 127.02 93.3125 126 C91.55849952 119.99498446 89.01666092 115.41366429 83.8515625 111.79296875 C79.76055807 109.60130198 76.13817903 109.38595815 71.5625 109.5 C70.78551758 109.51063477 70.00853516 109.52126953 69.20800781 109.53222656 C58.61340509 109.87176961 48.8217233 111.94949868 40 118 Z " fill="#020202" transform="translate(196,21)"/>
<path d="M0 0 C2.875 0.9375 2.875 0.9375 5.875 2.9375 C6.0625 5.5625 6.0625 5.5625 5.875 7.9375 C4.885 8.2675 3.895 8.5975 2.875 8.9375 C1.79899921 11.2777634 1.79899921 11.2777634 0.875 13.9375 C-5.00653051 24.20208191 -13.32695322 35.41014558 -25.125 38.9375 C-33.20518501 40.10566577 -41.48516516 39.69852187 -49.625 39.5625 C-64.82218913 39.35487579 -78.13098463 40.1145342 -92.75750732 44.30773926 C-98.94581369 45.95384885 -105.31368511 46.86299535 -111.63012695 47.87817383 C-113.98512836 48.25767517 -116.33723407 48.65247909 -118.68945312 49.04882812 C-120.2160007 49.30036159 -121.74268844 49.55104619 -123.26953125 49.80078125 C-124.3024102 49.97411736 -124.3024102 49.97411736 -125.3561554 50.1509552 C-131.95882651 51.19811528 -137.56686672 51.45134197 -143.875 49.125 C-148.81825164 47.35910885 -153.74074186 45.9534553 -158.84765625 44.74609375 C-161.38284064 43.84595109 -162.54250082 43.10516768 -164.125 40.9375 C-164.6999726 38.09082193 -164.40610629 35.88911603 -164.125 32.9375 C-159.97664542 30.17193028 -156.80245896 31.01228834 -152.125 31.9375 C-149.70521219 32.63509649 -147.28876885 33.3443539 -144.875 34.0625 C-137.54381387 36.11812482 -131.61859019 36.09492581 -124.125 34.9375 C-123.24553711 34.81310547 -122.36607422 34.68871094 -121.45996094 34.56054688 C-98.18129997 32.0147212 -98.18129997 32.0147212 -76.125 24.9375 C-74.62517802 24.84449732 -73.12135483 24.81236812 -71.61865234 24.81152344 C-70.68362885 24.80771667 -69.74860535 24.80390991 -68.7852478 24.79998779 C-67.2634642 24.79844696 -67.2634642 24.79844696 -65.7109375 24.796875 C-63.56639569 24.77853939 -61.42186416 24.75896839 -59.27734375 24.73828125 C-55.89354236 24.70936825 -52.51039758 24.6875015 -49.12646484 24.68701172 C-45.86236197 24.6836649 -42.59977585 24.64903084 -39.3359375 24.609375 C-38.33356049 24.6164447 -37.33118347 24.6235144 -36.2984314 24.63079834 C-28.73104479 24.50057822 -23.75954715 22.57481901 -18.38432312 17.19549561 C-16.83068191 15.49251325 -15.37767073 13.73723272 -13.9375 11.9375 C-4.08837797 -0.08176756 -4.08837797 -0.08176756 0 0 Z " fill="#070706" transform="translate(302.125,246.0625)"/>
<path d="M0 0 C0.66 0.33 1.32 0.66 2 1 C2 1.66 2 2.32 2 3 C2.73863281 3.07992187 3.47726563 3.15984375 4.23828125 3.2421875 C7.65202276 4.17891431 8.87039493 5.48072149 11.1875 8.125 C11.86167969 8.87007812 12.53585938 9.61515625 13.23046875 10.3828125 C17.17124731 16.21133708 17.36247454 22.22059342 17 29 C16.95875 29.79728516 16.9175 30.59457031 16.875 31.41601562 C16.52112283 35.88002865 16.06182862 39.02600214 13 42.5 C12.01 43.325 11.02 44.15 10 45 C9.67 45.66 9.34 46.32 9 47 C-2.79655424 47.77722539 -2.79655424 47.77722539 -7 45.0625 C-9.56256382 41.13857415 -11.89184774 37.18552858 -14 33 C-14.433125 32.175 -14.86625 31.35 -15.3125 30.5 C-16.37222181 26.64646615 -16.19387822 22.96804082 -16 19 C-15.98195312 18.22914063 -15.96390625 17.45828125 -15.9453125 16.6640625 C-15.54506989 9.76576342 -12.85568137 5.85568137 -8.0625 1.0625 C-5.25822057 -0.3821288 -3.10855059 -0.27030875 0 0 Z " fill="#050505" transform="translate(159,188)"/>
<path d="M0 0 C0.73089844 0.12503906 1.46179688 0.25007812 2.21484375 0.37890625 C4.375 0.8125 4.375 0.8125 8 2 C9.3125 4 9.3125 4 10 6 C10.99 6.66 11.98 7.32 13 8 C13.85093265 11.26082589 13.84349337 14.64181494 14 18 C14.07605469 19.04027344 14.15210938 20.08054688 14.23046875 21.15234375 C14.59543863 29.13236085 14.59543863 29.13236085 11.8125 33.1875 C9.06621245 34.95732976 7.23187393 35.72298223 4 36 C4 36.99 4 37.98 4 39 C-4.63025689 39.11939091 -4.63025689 39.11939091 -7.859375 36.48046875 C-9.375 34.625 -9.375 34.625 -10.6484375 32.7890625 C-11.9134816 30.87079054 -11.9134816 30.87079054 -14.0546875 29.82421875 C-17.17735209 26.8959369 -17.1907099 23.30321715 -17.75 19.1875 C-17.87503906 18.39279297 -18.00007812 17.59808594 -18.12890625 16.77929688 C-18.77199187 12.50737099 -19.30009456 8.32803046 -19 4 C-14.10047622 -1.48746663 -6.67776212 -1.33048391 0 0 Z " fill="#090808" transform="translate(256,184)"/>
<path d="M0 0 C1.7325 -0.04833984 1.7325 -0.04833984 3.5 -0.09765625 C10.28396899 -0.10540051 14.56282769 0.55719042 19.77050781 5.04150391 C22.77134508 8.25329112 24.04327956 10.97540366 23.9609375 15.421875 C22.39909974 20.26185576 17.50803972 23.22010715 13.25 25.625 C8.4831032 26.83827137 3.70198946 26.77593894 -1.1875 26.75 C-2.27514648 26.75580078 -2.27514648 26.75580078 -3.38476562 26.76171875 C-15.07643581 26.74070946 -15.07643581 26.74070946 -19.1875 24 C-21.44226841 20.57275201 -21.27517864 18.6951345 -20.75 14.625 C-16.99222219 2.18215408 -12.6914304 -0.06988673 0 0 Z " fill="#050505" transform="translate(220.75,234.375)"/>
<path d="M0 0 C0.66 0.33 1.32 0.66 2 1 C-0.33652415 3.72161357 -2.23645413 4.60013487 -5.68359375 5.5 C-6.6063208 5.74580811 -7.52904785 5.99161621 -8.47973633 6.24487305 C-9.45579834 6.49406494 -10.43186035 6.74325684 -11.4375 7 C-12.92189575 7.39409058 -12.92189575 7.39409058 -14.4362793 7.79614258 C-18.63985798 8.90553995 -22.84704685 9.98285651 -27.0859375 10.94921875 C-28.15070313 11.19285156 -29.21546875 11.43648437 -30.3125 11.6875 C-31.21613281 11.87699219 -32.11976562 12.06648438 -33.05078125 12.26171875 C-34.01564453 12.62716797 -34.01564453 12.62716797 -35 13 C-35.33 13.99 -35.66 14.98 -36 16 C-37.63264644 17.45961383 -39.32912023 18.84906752 -41.0625 20.1875 C-41.98160156 20.90292969 -42.90070313 21.61835937 -43.84765625 22.35546875 C-44.55792969 22.89816406 -45.26820312 23.44085938 -46 24 C-46.66 23.67 -47.32 23.34 -48 23 C-36.43683605 11.10348358 -25.08448181 7.19567231 -8.98266602 3.69775391 C-7.67060181 3.40843994 -7.67060181 3.40843994 -6.33203125 3.11328125 C-5.15217651 2.86251831 -5.15217651 2.86251831 -3.94848633 2.60668945 C-1.79041356 2.10036251 -1.79041356 2.10036251 0 0 Z " fill="#1E1E1E" transform="translate(142,83)"/>
<path d="M0 0 C9.68050151 -0.86091417 9.68050151 -0.86091417 13.5 2.3125 C16 5 16 5 18 8 C17.625 10.1875 17.625 10.1875 17 12 C16.62875 11.278125 16.2575 10.55625 15.875 9.8125 C13.23983843 5.85975765 10.52916283 2.62431587 5.83203125 1.46484375 C3.8970735 1.22168977 1.94757221 1.10073649 0 1 C0 0.67 0 0.34 0 0 Z " fill="#121212" transform="translate(183,19)"/>
<path d="M0 0 C-3.75 2 -3.75 2 -6 2 C-6.33 2.99 -6.66 3.98 -7 5 C-8.63264644 6.45961383 -10.32912023 7.84906752 -12.0625 9.1875 C-12.98160156 9.90292969 -13.90070313 10.61835937 -14.84765625 11.35546875 C-15.55792969 11.89816406 -16.26820312 12.44085938 -17 13 C-17.66 12.67 -18.32 12.34 -19 12 C-17.04417252 10.18472893 -15.08550123 8.37271109 -13.125 6.5625 C-12.56941406 6.04623047 -12.01382813 5.52996094 -11.44140625 4.99804688 C-7.32474122 1.20377128 -5.57369447 -0.14667617 0 0 Z " fill="#121212" transform="translate(113,94)"/>
<path d="M0 0 C2.62448412 3.93672618 3.17883628 6.66254676 2.87890625 11.328125 C2.83056641 12.12734375 2.78222656 12.9265625 2.73242188 13.75 C2.67634766 14.575 2.62027344 15.4 2.5625 16.25 C2.51029297 17.09046875 2.45808594 17.9309375 2.40429688 18.796875 C2.27504311 20.8649352 2.13825726 22.9325222 2 25 C1.67 25 1.34 25 1 25 C0.67 16.75 0.34 8.5 0 0 Z " fill="#494848" transform="translate(173,201)"/>
<path d="M0 0 C0.886875 0.103125 1.77375 0.20625 2.6875 0.3125 C2.6875 0.6425 2.6875 0.9725 2.6875 1.3125 C1.264375 1.68375 1.264375 1.68375 -0.1875 2.0625 C-3.79048453 3.50369381 -3.77046897 4.0228338 -5.3125 7.3125 C-7.9375 8.5625 -7.9375 8.5625 -10.3125 9.3125 C-8.30545061 4.38610604 -5.49180199 0.51809453 0 0 Z " fill="#363331" transform="translate(156.3125,187.6875)"/>
<path d="M0 0 C0.625 1.875 0.625 1.875 1 4 C-1.52623786 6.52623786 -4.24530578 8.72438303 -7 11 C-7 7.22089522 -6.00296038 6.53893899 -3.5 3.8125 C-2.8503125 3.09707031 -2.200625 2.38164062 -1.53125 1.64453125 C-1.0259375 1.10183594 -0.520625 0.55914062 0 0 Z " fill="#C2BFBB" transform="translate(300,264)"/>
<path d="M0 0 C-1.29299694 2.88437779 -2.65941363 4.87219421 -5 7 C-5.33 6.34 -5.66 5.68 -6 5 C-6.66 4.67 -7.32 4.34 -8 4 C-2.25 0 -2.25 0 0 0 Z " fill="#DDD9D4" transform="translate(117,144)"/>
<path d="M0 0 C-0.7425 0.4125 -1.485 0.825 -2.25 1.25 C-4.90171685 2.93745618 -6.86674014 4.70872089 -9 7 C-9.66 6.67 -10.32 6.34 -11 6 C-4.94863014 -1.48458904 -4.94863014 -1.48458904 0 0 Z " fill="#343230" transform="translate(303,247)"/>
<path d="M0 0 C0.66 0.33 1.32 0.66 2 1 C1.34 2.65 0.68 4.3 0 6 C-1.32 5.67 -2.64 5.34 -4 5 C-4 4.01 -4 3.02 -4 2 C-2.125 0.9375 -2.125 0.9375 0 0 Z " fill="#CAC6C1" transform="translate(127,137)"/>
<path d="M0 0 C0.66 1.32 1.32 2.64 2 4 C0.68 5.32 -0.64 6.64 -2 8 C-2.6875 5.6875 -2.6875 5.6875 -3 3 C-1.5625 1.1875 -1.5625 1.1875 0 0 Z " fill="#D0CCC6" transform="translate(173,227)"/>
<path d="M0 0 C0.33 0.99 0.66 1.98 1 3 C-3.75 7.875 -3.75 7.875 -6 9 C-4.47291037 5.56404834 -2.40072955 2.88087546 0 0 Z " fill="#121212" transform="translate(85,115)"/>
</svg>
