<?xml version="1.0" encoding="UTF-8"?>
<svg version="1.1" xmlns="http://www.w3.org/2000/svg" width="397" height="332">
<path d="M0 0 C7.11137982 0.75678535 12.95461651 4.38083042 19 8 C20.00804687 8.58910156 21.01609375 9.17820312 22.0546875 9.78515625 C28.5875507 13.83287174 33.22418547 18.12307038 37.859375 24.2421875 C39.9039262 26.87622609 42.08690487 29.141186 44.4375 31.5 C50.35696523 37.98666138 53.90627138 45.80701945 57.7890625 53.60351562 C59.95112096 57.88229905 62.26535166 62.08026944 64.57641602 66.2800293 C66.12515862 69.14554964 67.42215747 71.77833 68 75 C73.66370697 73.48079389 79.03780906 71.60082168 84.4375 69.3125 C106.03930854 60.58537009 125.05803308 56.61969683 148.375 58.3125 C149.61471558 58.38777924 150.85443115 58.46305847 152.13171387 58.5406189 C170.47209736 59.68050437 186.66260243 62.04594629 203.12695312 70.52197266 C206.45346812 72.23328484 209.83390188 73.79668968 213.234375 75.35546875 C214.33491211 75.86102295 215.43544922 76.36657715 216.56933594 76.88745117 C217.77251465 77.43816284 217.77251465 77.43816284 219 78 C222.88491699 74.11508301 223.80272105 68.2424861 224.765625 62.96484375 C227.71278386 47.06836532 232.85110134 34.86006163 246.4152832 25.38769531 C247.84286919 24.42596012 249.27608469 23.47253697 250.71435547 22.52685547 C253.1674927 20.88811158 255.55387523 19.17419403 257.94140625 17.44140625 C259.60579775 16.25124217 261.27114504 15.06241346 262.9375 13.875 C264.08968018 13.03932495 264.08968018 13.03932495 265.26513672 12.18676758 C270.40929078 8.61761514 274.82826147 6.92400316 281 6 C282.14726562 5.77957031 283.29453125 5.55914063 284.4765625 5.33203125 C293.67488779 3.81419345 300.15199707 3.65040739 308.2265625 8.71875 C314.39333866 13.79114053 322.51156224 21.89980674 324 30 C324.16957434 32.41295939 324.26599109 34.83153656 324.3125 37.25 C324.34988281 38.51328125 324.38726562 39.7765625 324.42578125 41.078125 C323.44406861 50.12068915 317.20307138 57.63743232 312.3125 65.0625 C311.64283203 66.11244141 310.97316406 67.16238281 310.28320312 68.24414062 C305.89578886 74.90278557 301.48232534 79.42664655 295 84 C293.16463813 85.62029949 291.3485019 87.26294907 289.5625 88.9375 C283.33260694 94.67740147 276.79089202 99.94163624 270 105 C270.99 105.85722656 271.98 106.71445313 273 107.59765625 C274.33334241 108.75259369 275.66667523 109.9075422 277 111.0625 C277.64839844 111.62388672 278.29679687 112.18527344 278.96484375 112.76367188 C280.29995504 113.9203277 281.63165445 115.0809316 282.96020508 116.24511719 C284.29956383 117.39739854 285.66124536 118.5243244 287.0456543 119.62207031 C292.6856766 124.20250965 296.15807376 129.39020828 299.8125 135.625 C300.37130859 136.553125 300.93011719 137.48125 301.50585938 138.4375 C303.0165437 140.95110585 304.50958905 143.47434438 306 146 C306.53882813 146.87446777 307.07765625 147.74893555 307.6328125 148.64990234 C314.82590536 161.01431519 310.71508723 178.82203095 308.33886719 192.08178711 C307.87935309 194.66304711 307.44645059 197.24780129 307.015625 199.83398438 C305.54721947 208.36314281 303.72145152 216.66452404 301.05859375 224.90625 C300.71264664 226.00334541 300.71264664 226.00334541 300.35971069 227.12260437 C298.28935871 233.17687184 295.16643728 236.89825309 290.55859375 241.35546875 C287.77072809 244.23697264 285.85828704 247.22111757 283.75 250.625 C278.93242589 257.96342259 272.5224796 261.88086544 265 266 C264.17209961 266.4626123 263.34419922 266.92522461 262.49121094 267.40185547 C257.83031903 270.00507627 253.14870303 272.56318368 248.4375 275.07421875 C245.14732153 276.82856113 241.89806975 278.62368678 238.6875 280.51953125 C218.74571075 292.11953277 197.75875238 295.06391488 175.0234375 294.71875 C172.62888696 294.70818363 170.23432141 294.70064055 167.8397522 294.69592285 C161.61460196 294.67515253 155.390624 294.61160422 149.16589355 294.53894043 C144.09841488 294.48688679 139.03101483 294.46505549 133.96332359 294.44481659 C76.51366272 294.21390882 76.51366272 294.21390882 66.6875 289.6875 C65.50583252 289.1618042 65.50583252 289.1618042 64.30029297 288.62548828 C49.6318961 281.82423479 37.70465823 272.84571062 27.29101562 260.52001953 C25.59952654 258.52848946 23.82569232 256.61551247 22.0625 254.6875 C19.35713291 251.53343788 16.95014193 248.28190037 14.74609375 244.7578125 C13.38048582 242.60094628 11.96459754 240.5587984 10.47265625 238.4921875 C2.19454012 226.47797002 1.22758188 215.33513002 1 201 C0.94740147 199.54549587 0.89294343 198.09105681 0.8359375 196.63671875 C0.76136814 193.20991767 0.8048777 189.83349188 0.93457031 186.41113281 C0.9817079 184.67407754 0.99221112 182.93589037 0.97949219 181.19824219 C0.85479437 160.70185934 7.05771097 144.90609382 15.38574219 126.56201172 C16.78718865 123.46958825 18.17985284 120.3785508 19.5078125 117.25390625 C19.82637207 116.51599854 20.14493164 115.77809082 20.47314453 115.01782227 C21.10603472 112.59389391 20.90865644 111.32026485 20 109 C17.78113575 106.82132094 17.78113575 106.82132094 15 104.75 C13.50533203 103.56470703 13.50533203 103.56470703 11.98046875 102.35546875 C10.99691406 101.57816406 10.01335938 100.80085938 9 100 C3.36300181 95.36992972 -1.36989376 90.56712597 -5.8203125 84.78515625 C-8.80828673 80.96718918 -11.96884415 77.30472392 -15.14404297 73.6418457 C-20.48758925 67.40770837 -23.92082721 61.3875523 -26.75 53.75 C-27.22373047 52.55697266 -27.22373047 52.55697266 -27.70703125 51.33984375 C-29.93386269 45.37270669 -30.25994963 40.31814424 -30 34 C-30.06703125 32.948125 -30.1340625 31.89625 -30.203125 30.8125 C-30.39514736 19.29115855 -22.8127057 9.6920026 -15.51196289 1.28686523 C-11.78037912 -1.88916868 -4.61344501 -0.28319138 0 0 Z " fill="#F5F0EA" transform="translate(43,18)"/>
<path d="M0 0 C7.11137982 0.75678535 12.95461651 4.38083042 19 8 C20.00804687 8.58910156 21.01609375 9.17820312 22.0546875 9.78515625 C28.5875507 13.83287174 33.22418547 18.12307038 37.859375 24.2421875 C39.9039262 26.87622609 42.08690487 29.141186 44.4375 31.5 C50.35696523 37.98666138 53.90627138 45.80701945 57.7890625 53.60351562 C59.95112096 57.88229905 62.26535166 62.08026944 64.57641602 66.2800293 C66.12515862 69.14554964 67.42215747 71.77833 68 75 C73.66370697 73.48079389 79.03780906 71.60082168 84.4375 69.3125 C106.03930854 60.58537009 125.05803308 56.61969683 148.375 58.3125 C149.61471558 58.38777924 150.85443115 58.46305847 152.13171387 58.5406189 C170.47209736 59.68050437 186.66260243 62.04594629 203.12695312 70.52197266 C206.45346812 72.23328484 209.83390188 73.79668968 213.234375 75.35546875 C214.33491211 75.86102295 215.43544922 76.36657715 216.56933594 76.88745117 C217.77251465 77.43816284 217.77251465 77.43816284 219 78 C222.88491699 74.11508301 223.80272105 68.2424861 224.765625 62.96484375 C227.71278386 47.06836532 232.85110134 34.86006163 246.4152832 25.38769531 C247.84286919 24.42596012 249.27608469 23.47253697 250.71435547 22.52685547 C253.1674927 20.88811158 255.55387523 19.17419403 257.94140625 17.44140625 C259.60579775 16.25124217 261.27114504 15.06241346 262.9375 13.875 C264.08968018 13.03932495 264.08968018 13.03932495 265.26513672 12.18676758 C270.40929078 8.61761514 274.82826147 6.92400316 281 6 C282.14726562 5.77957031 283.29453125 5.55914063 284.4765625 5.33203125 C293.67488779 3.81419345 300.15199707 3.65040739 308.2265625 8.71875 C314.39333866 13.79114053 322.51156224 21.89980674 324 30 C324.16957434 32.41295939 324.26599109 34.83153656 324.3125 37.25 C324.34988281 38.51328125 324.38726562 39.7765625 324.42578125 41.078125 C323.44406861 50.12068915 317.20307138 57.63743232 312.3125 65.0625 C311.64283203 66.11244141 310.97316406 67.16238281 310.28320312 68.24414062 C305.89578886 74.90278557 301.48232534 79.42664655 295 84 C293.16463813 85.62029949 291.3485019 87.26294907 289.5625 88.9375 C283.33260694 94.67740147 276.79089202 99.94163624 270 105 C270.99 105.85722656 271.98 106.71445313 273 107.59765625 C274.33334241 108.75259369 275.66667523 109.9075422 277 111.0625 C277.64839844 111.62388672 278.29679687 112.18527344 278.96484375 112.76367188 C280.29995504 113.9203277 281.63165445 115.0809316 282.96020508 116.24511719 C284.29956383 117.39739854 285.66124536 118.5243244 287.0456543 119.62207031 C292.6856766 124.20250965 296.15807376 129.39020828 299.8125 135.625 C300.37130859 136.553125 300.93011719 137.48125 301.50585938 138.4375 C303.0165437 140.95110585 304.50958905 143.47434438 306 146 C306.53882813 146.87446777 307.07765625 147.74893555 307.6328125 148.64990234 C314.82590536 161.01431519 310.71508723 178.82203095 308.33886719 192.08178711 C307.87935309 194.66304711 307.44645059 197.24780129 307.015625 199.83398438 C305.54721947 208.36314281 303.72145152 216.66452404 301.05859375 224.90625 C300.71264664 226.00334541 300.71264664 226.00334541 300.35971069 227.12260437 C298.28935871 233.17687184 295.16643728 236.89825309 290.55859375 241.35546875 C287.77072809 244.23697264 285.85828704 247.22111757 283.75 250.625 C278.93242589 257.96342259 272.5224796 261.88086544 265 266 C264.17209961 266.4626123 263.34419922 266.92522461 262.49121094 267.40185547 C257.83031903 270.00507627 253.14870303 272.56318368 248.4375 275.07421875 C245.14732153 276.82856113 241.89806975 278.62368678 238.6875 280.51953125 C218.74571075 292.11953277 197.75875238 295.06391488 175.0234375 294.71875 C172.62888696 294.70818363 170.23432141 294.70064055 167.8397522 294.69592285 C161.61460196 294.67515253 155.390624 294.61160422 149.16589355 294.53894043 C144.09841488 294.48688679 139.03101483 294.46505549 133.96332359 294.44481659 C76.51366272 294.21390882 76.51366272 294.21390882 66.6875 289.6875 C65.50583252 289.1618042 65.50583252 289.1618042 64.30029297 288.62548828 C49.6318961 281.82423479 37.70465823 272.84571062 27.29101562 260.52001953 C25.59952654 258.52848946 23.82569232 256.61551247 22.0625 254.6875 C19.35713291 251.53343788 16.95014193 248.28190037 14.74609375 244.7578125 C13.38048582 242.60094628 11.96459754 240.5587984 10.47265625 238.4921875 C2.19454012 226.47797002 1.22758188 215.33513002 1 201 C0.94740147 199.54549587 0.89294343 198.09105681 0.8359375 196.63671875 C0.76136814 193.20991767 0.8048777 189.83349188 0.93457031 186.41113281 C0.9817079 184.67407754 0.99221112 182.93589037 0.97949219 181.19824219 C0.85479437 160.70185934 7.05771097 144.90609382 15.38574219 126.56201172 C16.78718865 123.46958825 18.17985284 120.3785508 19.5078125 117.25390625 C19.82637207 116.51599854 20.14493164 115.77809082 20.47314453 115.01782227 C21.10603472 112.59389391 20.90865644 111.32026485 20 109 C17.78113575 106.82132094 17.78113575 106.82132094 15 104.75 C13.50533203 103.56470703 13.50533203 103.56470703 11.98046875 102.35546875 C10.99691406 101.57816406 10.01335938 100.80085938 9 100 C3.36300181 95.36992972 -1.36989376 90.56712597 -5.8203125 84.78515625 C-8.80828673 80.96718918 -11.96884415 77.30472392 -15.14404297 73.6418457 C-20.48758925 67.40770837 -23.92082721 61.3875523 -26.75 53.75 C-27.22373047 52.55697266 -27.22373047 52.55697266 -27.70703125 51.33984375 C-29.93386269 45.37270669 -30.25994963 40.31814424 -30 34 C-30.06703125 32.948125 -30.1340625 31.89625 -30.203125 30.8125 C-30.39514736 19.29115855 -22.8127057 9.6920026 -15.51196289 1.28686523 C-11.78037912 -1.88916868 -4.61344501 -0.28319138 0 0 Z M-17.40625 20.64453125 C-20.43284378 27.80780173 -20.44518605 36.41960736 -19 44 C-17.61270204 47.20767648 -17.61270204 47.20767648 -16 50 C-15.25623829 52.49798757 -14.63990835 54.99958676 -14.0390625 57.53515625 C-12.65366989 60.82155751 -10.58770628 62.55483686 -8 65 C-5.99299923 67.20839173 -4.06037945 69.47878713 -2.125 71.75 C-1.32848022 72.67752075 -1.32848022 72.67752075 -0.51586914 73.6237793 C2.31094668 76.93605593 4.99741596 80.29094394 7.5625 83.8125 C10.89111317 88.18586037 14.89932641 91.40435066 19.20703125 94.78515625 C22.67970755 97.53901284 25.94817504 100.4844127 29.22265625 103.46875 C30.93262428 105.06839039 30.93262428 105.06839039 33 106 C33.40729228 108.32156597 33.74438677 110.6568787 34 113 C33.34 113 32.68 113 32 113 C31.61908203 114.21236328 31.61908203 114.21236328 31.23046875 115.44921875 C30.88628906 116.51785156 30.54210937 117.58648437 30.1875 118.6875 C29.85105469 119.74324219 29.51460937 120.79898438 29.16796875 121.88671875 C28.04802277 124.87199283 26.67293161 127.29859065 25 130 C24.33753471 131.50489161 23.71229006 133.02671049 23.125 134.5625 C21.22119539 139.4611357 19.2012839 144.30270672 17.1484375 149.140625 C16.76945312 150.08421875 16.39046875 151.0278125 16 152 C15.64421875 152.84949219 15.2884375 153.69898438 14.921875 154.57421875 C13.50584696 159.83632295 13.25198485 165.13948024 12.875 170.5625 C12.78863281 171.66658203 12.70226562 172.77066406 12.61328125 173.90820312 C12.04597936 181.6208074 11.90234517 189.26938513 12 197 C11.9987915 198.56004761 11.9987915 198.56004761 11.99755859 200.15161133 C12.13403997 223.85326287 20.8016215 237.53528045 37 254 C38.67592659 255.84580115 40.34315428 257.69955231 42 259.5625 C46.54526767 264.65086031 50.78340712 268.3317355 56.5625 271.9375 C57.27615723 272.38407959 57.98981445 272.83065918 58.72509766 273.29077148 C63.95822462 276.50192789 69.18198671 279.01488388 75 281 C75.66 281.33 76.32 281.66 77 282 C79.99904635 282.62389963 83.03425113 283.04179306 86.0625 283.5 C87.26616211 283.69529297 87.26616211 283.69529297 88.49414062 283.89453125 C104.05209358 286.2623058 119.8031786 286.16987891 135.5 286.125 C136.4643396 286.1234491 137.4286792 286.12189819 138.42224121 286.12030029 C153.29597692 286.09227615 168.15423749 286.00403201 183 285 C183.71752441 284.95681641 184.43504883 284.91363281 185.17431641 284.86914062 C213.87366126 282.96642163 253.11289265 267.52212121 273 246 C274.2751213 244.45793258 275.52568919 242.89520948 276.75 241.3125 C279.56966646 237.67957111 282.54257791 234.47738651 285.8125 231.25 C291.0974081 225.4838202 291.87833952 219.52413124 293 212 C293.29111257 210.67752205 293.59278152 209.35734384 293.90234375 208.0390625 C295.29625596 201.91272427 296.28400206 195.71562963 297.28710938 189.51586914 C297.62504978 187.43719379 297.97254545 185.36025406 298.3203125 183.28320312 C301.58661044 163.4199172 298.25464058 150.40573676 286.60205078 134.08935547 C282.97888084 129.3641058 278.68815048 125.65904428 274 122 C272.12395089 120.45961016 270.24894828 118.9179449 268.375 117.375 C265.68504081 115.18117161 262.99229808 112.99388701 260.2734375 110.8359375 C259.44070313 110.14757812 258.60796875 109.45921875 257.75 108.75 C257.00234375 108.14671875 256.2546875 107.5434375 255.484375 106.921875 C254 105 254 105 253.90625 102.4921875 C255.43940179 98.99879164 257.41690758 98.15535912 260.75 96.375 C261.79671875 95.80523437 262.8434375 95.23546875 263.921875 94.6484375 C264.93765625 94.10445313 265.9534375 93.56046875 267 93 C270.64798538 90.96238655 273.57077706 88.72492709 276.625 85.875 C281.09491066 81.77257078 285.71470864 77.92327524 290.45703125 74.140625 C295.20057649 70.1475946 299.40205707 65.59288246 303.625 61.0625 C304.10195313 60.56298828 304.57890625 60.06347656 305.0703125 59.54882812 C308.12006172 56.26611195 310.14259329 53.0638166 312 49 C312.33 48.67 312.66 48.34 313 48 C313.18098107 45.06870011 313.27823019 42.18349593 313.3125 39.25 C313.35600586 38.03183594 313.35600586 38.03183594 313.40039062 36.7890625 C313.45660403 31.47905737 312.84117501 28.95240595 309 25 C308.773125 24.154375 308.54625 23.30875 308.3125 22.4375 C306.47192345 19.0192864 304.30560229 18.12899785 300.75390625 16.7265625 C290.69622789 14.07304736 279.03612424 15.87243485 270 21 C268.86174725 22.17173077 267.72447954 23.34444512 266.59375 24.5234375 C264.64304266 26.33071048 262.56073858 27.79770016 260.375 29.3125 C259.51003906 29.91449219 258.64507812 30.51648438 257.75390625 31.13671875 C255.9106856 32.383834 254.04259929 33.59492801 252.15234375 34.76953125 C240.57684029 42.33261811 237.14830661 52.11931362 234.375 65.0625 C234.17817627 66.01568115 233.98135254 66.9688623 233.77856445 67.95092773 C232.05069282 76.25692524 229.75495653 83.8675652 225 91 C218.54584928 90.53396459 213.62023543 88.17862856 207.875 85.3125 C206.00413941 84.40056318 204.13304604 83.48910375 202.26171875 82.578125 C201.3598584 82.13533203 200.45799805 81.69253906 199.52880859 81.23632812 C194.39636877 78.72709128 189.21385099 76.33537075 184 74 C183.01 73.52626953 183.01 73.52626953 182 73.04296875 C164.2197194 65.26409599 139.00218118 67.61725464 120 68 C118.95328125 67.97035156 117.9065625 67.94070312 116.828125 67.91015625 C104.44505982 68.0138422 93.29285489 73.37759106 82 78 C80.88987549 78.42200684 80.88987549 78.42200684 79.75732422 78.85253906 C77.65622563 79.64195313 77.65622563 79.64195313 75 81 C74.505 82.485 74.505 82.485 74 84 C72.125 85.0625 72.125 85.0625 70 86 C69.01 86.66 68.02 87.32 67 88 C65.34450469 88.38499891 63.6777567 88.72793135 62 89 C61.84144531 88.41734375 61.68289062 87.8346875 61.51953125 87.234375 C56.74660047 70.46319281 48.6744073 55.72423795 38 42 C37.51869629 41.37270996 37.03739258 40.74541992 36.54150391 40.09912109 C30.65994704 32.46669091 25.00056201 25.26516111 17.12109375 19.578125 C15 18 15 18 12.97265625 15.90625 C9.74439067 12.7866587 6.31194634 11.95607143 2 11 C0.5459375 10.66548828 0.5459375 10.66548828 -0.9375 10.32421875 C-9.66002513 9.22277744 -13.62920674 13.33485226 -17.40625 20.64453125 Z " fill="#090908" transform="translate(43,18)"/>
<path d="M0 0 C1.01473389 -0.02215576 2.02946777 -0.04431152 3.07495117 -0.06713867 C9.4059808 -0.04866855 16.68661362 0.68661362 21.4375 5.4375 C23.48095165 16.91975214 23.48095165 16.91975214 20.375 21.4375 C19.405625 22.0975 18.43625 22.7575 17.4375 23.4375 C16.07625 24.79875 16.07625 24.79875 14.6875 26.1875 C10.58935017 29.02468065 7.32265631 29.31808507 2.4375 29.4375 C2.57027344 30.38109375 2.70304687 31.3246875 2.83984375 32.296875 C3.94542274 40.33451497 4.86453163 48.34055223 5.4375 56.4375 C6.45328125 56.09976563 7.4690625 55.76203125 8.515625 55.4140625 C14.95732797 53.31422445 21.20425565 51.31592774 27.9375 50.375 C34.70951869 49.34921165 39.270536 47.05234235 44.7578125 43.0234375 C45.36254395 42.58064453 45.96727539 42.13785156 46.59033203 41.68164062 C47.79207277 40.79089755 48.98387298 39.88653 50.16357422 38.96679688 C55.59578562 34.88140194 60.54853447 33.4375 67.4375 33.4375 C67.4375 35.4175 67.4375 37.3975 67.4375 39.4375 C66.7775 39.4375 66.1175 39.4375 65.4375 39.4375 C65.210625 40.159375 64.98375 40.88125 64.75 41.625 C60.82485906 50.0360163 49.55268159 56.92369799 41.14501953 60.37988281 C35.04913864 62.51452762 28.92951728 64.4375 22.4375 64.4375 C22.4375 65.0975 22.4375 65.7575 22.4375 66.4375 C14.87840484 68.75150872 7.63748464 69.59406797 -0.25 69.60546875 C-1.07016602 69.60879715 -1.89033203 69.61212555 -2.73535156 69.61555481 C-4.46662846 69.62059547 -6.19791499 69.62296402 -7.92919922 69.62280273 C-10.52718968 69.62497054 -13.12474175 69.64310506 -15.72265625 69.66210938 C-29.81993468 69.7123037 -43.24401097 68.72130017 -56.75 64.3125 C-57.68690674 64.01118164 -58.62381348 63.70986328 -59.58911133 63.39941406 C-68.09886136 60.51735296 -76.66639739 56.48636626 -82.5625 49.4375 C-82.875 46.375 -82.875 46.375 -82.5625 43.4375 C-81.9025 42.7775 -81.2425 42.1175 -80.5625 41.4375 C-77.01150866 41.83728048 -74.01330955 43.62956566 -70.875 45.25 C-66.40170836 47.52771031 -61.90884185 49.67727469 -57.3046875 51.67578125 C-56.04144044 52.22809779 -54.79565747 52.82092126 -53.5625 53.4375 C-49.93293213 54.00063295 -46.29463494 54.46418703 -42.65234375 54.9375 C-39.5625 55.4375 -39.5625 55.4375 -38.5625 56.4375 C-36.34562006 56.59623955 -34.12394702 56.68883837 -31.90234375 56.75390625 C-31.23787735 56.77468735 -30.57341095 56.79546844 -29.8888092 56.81687927 C-27.75931457 56.88243658 -25.62969332 56.94128785 -23.5 57 C-22.05923153 57.04317939 -20.61847601 57.08679349 -19.17773438 57.13085938 C-15.63945097 57.23894527 -12.10107603 57.33797093 -8.5625 57.4375 C-9.2225 48.8575 -9.8825 40.2775 -10.5625 31.4375 C-12.83125 31.210625 -15.1 30.98375 -17.4375 30.75 C-25.19172385 29.82306605 -33.41770334 27.80337182 -38.5625 21.4375 C-38.5625 20.4475 -38.5625 19.4575 -38.5625 18.4375 C-39.2225 18.4375 -39.8825 18.4375 -40.5625 18.4375 C-42.93438193 14.28670663 -44.31088855 11.24856927 -43.5625 6.4375 C-40.66353062 3.68487183 -38.28053061 2.96210007 -34.36328125 2.48828125 C-32.81435181 2.29890991 -32.81435181 2.29890991 -31.23413086 2.10571289 C-30.12561768 1.98832764 -29.01710449 1.87094238 -27.875 1.75 C-26.72974854 1.6255249 -25.58449707 1.5010498 -24.40454102 1.37280273 C-16.27345065 0.55897054 -8.1707961 0.09540289 0 0 Z " fill="#050505" transform="translate(205.5625,162.5625)"/>
<path d="M0 0 C1.73797838 1.00065422 3.42920203 2.0812039 5.1171875 3.1640625 C5.931875 3.45667969 6.7465625 3.74929687 7.5859375 4.05078125 C12.6196262 6.26467211 15.07170985 10.18178175 17.1171875 15.1640625 C17.6616708 18.48498415 17.79042507 21.73974833 17.8046875 25.1015625 C17.81153564 25.94259521 17.81838379 26.78362793 17.82543945 27.65014648 C17.64996597 33.57731724 17.64996597 33.57731724 15.3046875 36.16015625 C12.33084534 37.52493738 9.27556145 38.32977504 6.1171875 39.1640625 C5.7871875 39.4940625 5.4571875 39.8240625 5.1171875 40.1640625 C-4.46948754 40.94038458 -12.0887356 38.74838708 -19.66015625 32.7578125 C-24.17609286 28.08248989 -24.50400246 23.19553635 -24.6328125 16.9765625 C-24.66044678 16.19200684 -24.68808105 15.40745117 -24.71655273 14.59912109 C-24.62812803 9.10507784 -24.62812803 9.10507784 -22.63037109 6.58276367 C-21.078125 5.2578125 -21.078125 5.2578125 -17.8828125 3.1640625 C-17.20476562 2.71417969 -16.52671875 2.26429687 -15.828125 1.80078125 C-10.63243192 -0.90856085 -5.70683577 -2.53374036 0 0 Z " fill="#070707" transform="translate(264.8828125,123.8359375)"/>
<path d="M0 0 C1.9941707 1.4860774 3.69194741 3.04137427 5.4140625 4.83203125 C6.3215625 5.59515625 7.2290625 6.35828125 8.1640625 7.14453125 C13.84409335 13.92901254 14.86280266 20.28630291 14.9453125 29.01171875 C14.4140625 31.83203125 14.4140625 31.83203125 12.5078125 33.71484375 C10.4140625 34.83203125 10.4140625 34.83203125 8.4140625 34.83203125 C7.7540625 36.48203125 7.0940625 38.13203125 6.4140625 39.83203125 C-3.21167247 40.18853995 -9.9926091 39.70507614 -17.4609375 33.08203125 C-22.15995751 28.61590727 -26.23462702 24.69908205 -27.046875 18.0703125 C-27.01851563 16.77480469 -26.99015625 15.47929687 -26.9609375 14.14453125 C-26.94804688 12.84128906 -26.93515625 11.53804687 -26.921875 10.1953125 C-26.5859375 6.83203125 -26.5859375 6.83203125 -24.5859375 3.83203125 C-23.9259375 3.83203125 -23.2659375 3.83203125 -22.5859375 3.83203125 C-22.2559375 2.84203125 -21.9259375 1.85203125 -21.5859375 0.83203125 C-16.19850961 -3.03854801 -5.87575983 -2.65385527 0 0 Z " fill="#060605" transform="translate(132.5859375,127.16796875)"/>
<path d="M0 0 C3.93739898 1.53567489 5.85296408 3.971178 8.4375 7.25 C9.54931641 8.64992188 9.54931641 8.64992188 10.68359375 10.078125 C11.44800781 11.04234375 12.21242188 12.0065625 13 13 C13.81984375 13.928125 14.6396875 14.85625 15.484375 15.8125 C18.53621627 19.4588558 20.64221711 23.53943453 22.8125 27.75 C23.21919922 28.51699219 23.62589844 29.28398438 24.04492188 30.07421875 C27 35.72611607 27 35.72611607 27 38 C26.34 38 25.68 38 25 38 C24.70343506 37.43079834 24.40687012 36.86159668 24.10131836 36.27514648 C22.72665534 33.65538516 21.33229811 31.04659294 19.9375 28.4375 C19.23850586 27.09461914 19.23850586 27.09461914 18.52539062 25.72460938 C15.74572337 20.56237019 12.89276483 16.49311249 8.59936523 12.49487305 C6.52614745 10.55710591 4.79511627 8.43086484 3.0625 6.1875 C2.18271484 5.06408203 2.18271484 5.06408203 1.28515625 3.91796875 C0 2 0 2 0 0 Z " fill="#111111" transform="translate(75,38)"/>
<path d="M0 0 C10.85289949 1.37839745 19.51237039 8.53167105 28 15 C27.01 15.33 26.02 15.66 25 16 C22.54181633 14.51317133 20.26079539 12.98798938 17.9375 11.3125 C12.20601536 7.31566234 6.71421276 4.11695179 0 2 C0 1.34 0 0.68 0 0 Z " fill="#151515" transform="translate(45,19)"/>
<path d="M0 0 C1.125 3.75 1.125 3.75 0 6 C0.66 6 1.32 6 2 6 C2 6.99 2 7.98 2 9 C1.34 9 0.68 9 0 9 C-0.0825 9.7425 -0.165 10.485 -0.25 11.25 C-1.14719707 14.5397226 -2.54970779 15.70285105 -5 18 C-5.33 18.99 -5.66 19.98 -6 21 C-6.66 21 -7.32 21 -8 21 C-5.72564796 13.81783567 -2.96415819 6.9241798 0 0 Z " fill="#CCC9C5" transform="translate(69,146)"/>
<path d="M0 0 C0.66 0 1.32 0 2 0 C3.23681641 1.65234375 3.23681641 1.65234375 4.6015625 3.9375 C5.09140625 4.74960938 5.58125 5.56171875 6.0859375 6.3984375 C6.59382813 7.25695312 7.10171875 8.11546875 7.625 9 C8.140625 9.85851562 8.65625 10.71703125 9.1875 11.6015625 C10.4648999 13.73056234 11.73534697 15.86341196 13 18 C12.01 18.33 11.02 18.66 10 19 C8.32626249 16.21251481 6.66223733 13.41935573 5 10.625 C4.28457031 9.43390625 4.28457031 9.43390625 3.5546875 8.21875 C3.10351562 7.45820313 2.65234375 6.69765625 2.1875 5.9140625 C1.76855469 5.2123291 1.34960938 4.5105957 0.91796875 3.78759766 C0 2 0 2 0 0 Z " fill="#0E0E0F" transform="translate(47,243)"/>
<path d="M0 0 C4.01182676 1.55861775 6.11384411 4.15464397 8.8125 7.4375 C9.62332031 8.40558594 10.43414062 9.37367187 11.26953125 10.37109375 C12.12611328 11.67240234 12.12611328 11.67240234 13 13 C12.67 13.99 12.34 14.98 12 16 C10.56041153 14.41856529 9.12341355 12.83477221 7.6875 11.25 C6.88699219 10.36828125 6.08648437 9.4865625 5.26171875 8.578125 C0 2.58031088 0 2.58031088 0 0 Z " fill="#171816" transform="translate(75,38)"/>
<path d="M0 0 C0.66 0.33 1.32 0.66 2 1 C1.50628906 1.89203125 1.01257813 2.7840625 0.50390625 3.703125 C-0.14346768 4.88528608 -0.79058989 6.06758504 -1.4375 7.25 C-1.76298828 7.83652344 -2.08847656 8.42304687 -2.42382812 9.02734375 C-4.02882617 11.9725979 -5.4163488 14.67894245 -6 18 C-6.66 18 -7.32 18 -8 18 C-7.47729735 13.09690194 -5.9987369 9.81611493 -3.4375 5.625 C-2.79683594 4.56539062 -2.15617187 3.50578125 -1.49609375 2.4140625 C-1.00238281 1.61742187 -0.50867188 0.82078125 0 0 Z " fill="#171716" transform="translate(279,53)"/>
<path d="M0 0 C0.99 0.33 1.98 0.66 3 1 C2.360625 1.825 1.72125 2.65 1.0625 3.5 C-0.72441672 6.12708107 -1.32363156 8.15666063 -1.625 11.3125 C-1.74875 12.529375 -1.8725 13.74625 -2 15 C-2.99 15.495 -2.99 15.495 -4 16 C-4.47617251 9.30713088 -4.39973696 5.22468764 0 0 Z " fill="#141414" transform="translate(18,33)"/>
<path d="M0 0 C0.99 0 1.98 0 3 0 C4.0098473 1.91149668 5.00754495 3.82941569 6 5.75 C6.8353125 7.35101563 6.8353125 7.35101563 7.6875 8.984375 C9 12 9 12 9 16 C8.34 16 7.68 16 7 16 C6.74605469 15.34773438 6.49210937 14.69546875 6.23046875 14.0234375 C4.34261472 9.22956098 2.39996262 4.55992898 0 0 Z " fill="#0D0D0E" transform="translate(101,77)"/>
<path d="M0 0 C0.33 0.99 0.66 1.98 1 3 C-1.77813618 5.93247707 -4.89514356 8.42362976 -8 11 C-8.66 11.66 -9.32 12.32 -10 13 C-10.66 12.34 -11.32 11.68 -12 11 C-10.54712339 9.66072279 -9.08752741 8.32873153 -7.625 7 C-6.81289063 6.2575 -6.00078125 5.515 -5.1640625 4.75 C-3 3 -3 3 -1 3 C-0.67 2.01 -0.34 1.02 0 0 Z " fill="#33322F" transform="translate(341,84)"/>
<path d="M0 0 C0.66 0 1.32 0 2 0 C2.268125 0.804375 2.53625 1.60875 2.8125 2.4375 C3.204375 3.283125 3.59625 4.12875 4 5 C4.99 5.33 5.98 5.66 7 6 C8.6875 8.5625 8.6875 8.5625 10 11 C7 11 7 11 5.17578125 9.35546875 C4.56089844 8.64003906 3.94601563 7.92460938 3.3125 7.1875 C2.37857422 6.12595703 2.37857422 6.12595703 1.42578125 5.04296875 C0 3 0 3 0 0 Z " fill="#0E0E0E" transform="translate(29,90)"/>
<path d="M0 0 C1.20898633 4.38257546 1.2184264 6.97910216 -1 11 C-1.66 11 -2.32 11 -3 11 C-3.33 11.99 -3.66 12.98 -4 14 C-4.66 13.67 -5.32 13.34 -6 13 C-5.566875 12.525625 -5.13375 12.05125 -4.6875 11.5625 C-2.31953016 7.96669395 -1.23528236 4.10008613 0 0 Z " fill="#BAB7B1" transform="translate(274,96)"/>
<path d="M0 0 C0 0.66 0 1.32 0 2 C-2.046875 3.69140625 -2.046875 3.69140625 -4.75 5.5625 C-5.63171875 6.18253906 -6.5134375 6.80257812 -7.421875 7.44140625 C-9.71323511 8.82663759 -11.38943105 9.55473941 -14 10 C-4.57142857 0 -4.57142857 0 0 0 Z " fill="#101010" transform="translate(312,29)"/>
<path d="M0 0 C3.17462943 2.40242227 5.85751741 4.61713276 8 8 C8 8.66 8 9.32 8 10 C6.0625 9.25 6.0625 9.25 4 8 C3.63837971 6.67405895 3.30271961 5.34061543 3 4 C2.01 3.67 1.02 3.34 0 3 C0 2.01 0 1.02 0 0 Z " fill="#0F0F0F" transform="translate(355,32)"/>
<path d="M0 0 C3.86107457 2.57404971 3.94319692 4.61020259 5 9 C4.01 9.33 3.02 9.66 2 10 C1.855625 8.906875 1.71125 7.81375 1.5625 6.6875 C1.11711896 3.06877013 1.11711896 3.06877013 0 0 Z " fill="#C5C2BC" transform="translate(348,37)"/>
<path d="M0 0 C0.33 0.66 0.66 1.32 1 2 C-1 5 -1 5 -3.625 5.6875 C-4.800625 5.8421875 -4.800625 5.8421875 -6 6 C-4.75453595 2.26360784 -3.36595047 1.81243487 0 0 Z " fill="#D5D3CE" transform="translate(255,217)"/>
<path d="M0 0 C0 1.32 0 2.64 0 4 C-0.66 4 -1.32 4 -2 4 C-2 4.66 -2 5.32 -2 6 C-2.66 6 -3.32 6 -4 6 C-4.33 4.68 -4.66 3.36 -5 2 C-2 0 -2 0 0 0 Z " fill="#E0DDDA" transform="translate(225,185)"/>
</svg>
