<?xml version="1.0" encoding="UTF-8"?>
<svg version="1.1" xmlns="http://www.w3.org/2000/svg" width="346" height="340">
<path d="M0 0 C6.29560116 3.245336 10.66105556 6.45459833 14.8515625 12.265625 C15.62113281 13.32007812 16.39070312 14.37453125 17.18359375 15.4609375 C19.97396626 19.49082285 20.36515305 22.55761044 20.71484375 27.34765625 C20.76921097 28.08724579 20.82357819 28.82683533 20.8795929 29.58883667 C23.28279675 64.15925649 21.26291514 102.60032763 8.0390625 135.140625 C7.66313184 137.1330575 7.31926705 139.1324924 7.0390625 141.140625 C8.24433594 141.16640625 9.44960937 141.1921875 10.69140625 141.21875 C37.11095761 141.99031275 62.78668232 145.14125071 88.0390625 153.140625 C89.09754395 153.47408936 90.15602539 153.80755371 91.24658203 154.15112305 C108.64304109 159.77313324 123.18608658 171.66211075 131.79101562 187.98632812 C134.06697195 193.73854952 134.05639648 199.39359888 133.9765625 205.515625 C133.97142639 206.17938141 133.96629028 206.84313782 133.96099854 207.52700806 C133.75537821 223.19028809 131.56782666 243.14746502 120.81640625 255.23046875 C118.06093813 257.83966721 115.07651326 259.93076824 111.86523438 261.93994141 C109.96758145 263.18762283 108.27961964 264.55140605 106.5546875 266.02734375 C105.97549561 266.5176709 105.39630371 267.00799805 104.79956055 267.51318359 C104.23922119 267.98836426 103.67888184 268.46354492 103.1015625 268.953125 C91.85185399 278.31578563 77.51774031 282.59765618 63.7265625 286.765625 C62.16937679 287.24287618 60.6123303 287.72058186 59.05541992 288.19873047 C56.04410219 289.12064594 53.03056769 290.0346615 50.01464844 290.94140625 C46.77919425 291.91427438 43.55267176 292.91337478 40.328125 293.921875 C38.83658973 294.37195877 37.34448318 294.82015813 35.8515625 295.265625 C34.09779297 295.79542969 34.09779297 295.79542969 32.30859375 296.3359375 C19.4297943 299.24585357 5.15093793 298.38644573 -7.98510742 298.64331055 C-10.99473591 298.70255996 -14.0041872 298.76787156 -17.01367188 298.83398438 C-38.19769063 299.28238517 -59.29336931 299.2690599 -80.4609375 298.265625 C-81.4348645 298.22083008 -82.4087915 298.17603516 -83.41223145 298.12988281 C-94.52203065 297.61642956 -105.62767815 297.08068898 -116.7109375 296.140625 C-117.55849609 296.0698877 -118.40605469 295.99915039 -119.27929688 295.92626953 C-127.17744517 295.1774202 -134.27827115 294.00956228 -141.1484375 289.828125 C-142.11136719 289.25449219 -143.07429688 288.68085938 -144.06640625 288.08984375 C-150.17399901 283.97690342 -153.67263107 280.88063828 -156.3984375 273.953125 C-156.82768776 272.91739098 -156.82768776 272.91739098 -157.26560974 271.86073303 C-158.18323102 269.62794363 -159.07362636 267.38561505 -159.9609375 265.140625 C-160.27008087 264.37297821 -160.57922424 263.60533142 -160.8977356 262.81442261 C-165.38041707 251.68298919 -169.38694049 240.5688816 -172.27050781 228.90625 C-173.09059277 225.62127035 -173.95861012 222.35036156 -174.828125 219.078125 C-176.07693651 214.35295119 -177.32248207 209.62710915 -178.54296875 204.89453125 C-178.91772339 203.44542358 -178.91772339 203.44542358 -179.30004883 201.96704102 C-181.26182664 193.57712534 -181.55992126 185.07165672 -182.01171875 176.5 C-182.07845511 175.23793354 -182.07845511 175.23793354 -182.14653969 173.95037079 C-183.3099048 151.22606368 -183.22597723 128.49799598 -183.15655518 105.75042725 C-183.14563134 101.22919217 -183.14609027 96.70798688 -183.14669323 92.18674088 C-183.14641931 87.75617652 -183.14090605 83.32563097 -183.13369179 78.89507294 C-183.1305616 76.81746308 -183.12855134 74.73985115 -183.12779808 72.66223907 C-183.12014168 62.61742688 -183.02539734 52.58849323 -182.54663086 42.55371094 C-182.51255977 41.77766132 -182.47848867 41.00161171 -182.44338512 40.20204544 C-182.13650042 34.56269101 -181.23112295 29.99033352 -178.3359375 25.140625 C-177.94623779 24.4489624 -177.55653809 23.7572998 -177.1550293 23.04467773 C-172.794014 15.92724204 -166.77192313 11.76992303 -159.81054688 7.41992188 C-157.9909842 6.16140704 -156.54783299 4.83227071 -155.0078125 3.25 C-146.73431523 -4.81776444 -137.19837455 -5.06684047 -126.14312744 -4.96469116 C-112.51573392 -4.64442685 -98.54030802 -2.16889808 -88.5859375 7.953125 C-87.18359375 9.98046875 -87.18359375 9.98046875 -85.9609375 12.140625 C-85.21650391 13.28724609 -85.21650391 13.28724609 -84.45703125 14.45703125 C-81.44141849 19.83911942 -80.61031504 24.82520774 -80.6796875 30.92578125 C-80.6845668 31.69615219 -80.68944611 32.46652313 -80.69447327 33.26023865 C-80.88374975 44.454169 -82.2153795 55.58043373 -83.3984375 66.703125 C-85.43802963 86.20344254 -87.14523542 105.46039687 -87.0859375 125.078125 C-87.08951521 126.42903737 -87.09342091 127.77994891 -87.09765625 129.13085938 C-87.09636719 130.40123047 -87.09507813 131.67160156 -87.09375 132.98046875 C-87.09205811 134.68771118 -87.09205811 134.68771118 -87.09033203 136.42944336 C-87.14548076 139.10826015 -87.14548076 139.10826015 -85.9609375 141.140625 C-84.3109375 141.140625 -82.6609375 141.140625 -80.9609375 141.140625 C-80.96537872 140.5410347 -80.96981995 139.9414444 -80.97439575 139.32368469 C-81.70189979 36.32356603 -81.70189979 36.32356603 -58.40625 10.28515625 C-55.72283819 7.65350164 -52.96693027 5.39511957 -49.9609375 3.140625 C-49.42404297 2.71604004 -48.88714844 2.29145508 -48.33398438 1.85400391 C-32.9347309 -10.08439553 -16.88638732 -8.02677135 0 0 Z " fill="#F4F0EA" transform="translate(194.9609375,20.859375)"/>
<path d="M0 0 C6.29560116 3.245336 10.66105556 6.45459833 14.8515625 12.265625 C15.62113281 13.32007812 16.39070312 14.37453125 17.18359375 15.4609375 C19.97396626 19.49082285 20.36515305 22.55761044 20.71484375 27.34765625 C20.76921097 28.08724579 20.82357819 28.82683533 20.8795929 29.58883667 C23.28279675 64.15925649 21.26291514 102.60032763 8.0390625 135.140625 C7.66313184 137.1330575 7.31926705 139.1324924 7.0390625 141.140625 C8.24433594 141.16640625 9.44960937 141.1921875 10.69140625 141.21875 C37.11095761 141.99031275 62.78668232 145.14125071 88.0390625 153.140625 C89.09754395 153.47408936 90.15602539 153.80755371 91.24658203 154.15112305 C108.64304109 159.77313324 123.18608658 171.66211075 131.79101562 187.98632812 C134.06697195 193.73854952 134.05639648 199.39359888 133.9765625 205.515625 C133.97142639 206.17938141 133.96629028 206.84313782 133.96099854 207.52700806 C133.75537821 223.19028809 131.56782666 243.14746502 120.81640625 255.23046875 C118.06093813 257.83966721 115.07651326 259.93076824 111.86523438 261.93994141 C109.96758145 263.18762283 108.27961964 264.55140605 106.5546875 266.02734375 C105.97549561 266.5176709 105.39630371 267.00799805 104.79956055 267.51318359 C104.23922119 267.98836426 103.67888184 268.46354492 103.1015625 268.953125 C91.85185399 278.31578563 77.51774031 282.59765618 63.7265625 286.765625 C62.16937679 287.24287618 60.6123303 287.72058186 59.05541992 288.19873047 C56.04410219 289.12064594 53.03056769 290.0346615 50.01464844 290.94140625 C46.77919425 291.91427438 43.55267176 292.91337478 40.328125 293.921875 C38.83658973 294.37195877 37.34448318 294.82015813 35.8515625 295.265625 C34.09779297 295.79542969 34.09779297 295.79542969 32.30859375 296.3359375 C19.4297943 299.24585357 5.15093793 298.38644573 -7.98510742 298.64331055 C-10.99473591 298.70255996 -14.0041872 298.76787156 -17.01367188 298.83398438 C-38.19769063 299.28238517 -59.29336931 299.2690599 -80.4609375 298.265625 C-81.4348645 298.22083008 -82.4087915 298.17603516 -83.41223145 298.12988281 C-94.52203065 297.61642956 -105.62767815 297.08068898 -116.7109375 296.140625 C-117.55849609 296.0698877 -118.40605469 295.99915039 -119.27929688 295.92626953 C-127.17744517 295.1774202 -134.27827115 294.00956228 -141.1484375 289.828125 C-142.11136719 289.25449219 -143.07429688 288.68085938 -144.06640625 288.08984375 C-150.17399901 283.97690342 -153.67263107 280.88063828 -156.3984375 273.953125 C-156.82768776 272.91739098 -156.82768776 272.91739098 -157.26560974 271.86073303 C-158.18323102 269.62794363 -159.07362636 267.38561505 -159.9609375 265.140625 C-160.27008087 264.37297821 -160.57922424 263.60533142 -160.8977356 262.81442261 C-165.38041707 251.68298919 -169.38694049 240.5688816 -172.27050781 228.90625 C-173.09059277 225.62127035 -173.95861012 222.35036156 -174.828125 219.078125 C-176.07693651 214.35295119 -177.32248207 209.62710915 -178.54296875 204.89453125 C-178.91772339 203.44542358 -178.91772339 203.44542358 -179.30004883 201.96704102 C-181.26182664 193.57712534 -181.55992126 185.07165672 -182.01171875 176.5 C-182.07845511 175.23793354 -182.07845511 175.23793354 -182.14653969 173.95037079 C-183.3099048 151.22606368 -183.22597723 128.49799598 -183.15655518 105.75042725 C-183.14563134 101.22919217 -183.14609027 96.70798688 -183.14669323 92.18674088 C-183.14641931 87.75617652 -183.14090605 83.32563097 -183.13369179 78.89507294 C-183.1305616 76.81746308 -183.12855134 74.73985115 -183.12779808 72.66223907 C-183.12014168 62.61742688 -183.02539734 52.58849323 -182.54663086 42.55371094 C-182.51255977 41.77766132 -182.47848867 41.00161171 -182.44338512 40.20204544 C-182.13650042 34.56269101 -181.23112295 29.99033352 -178.3359375 25.140625 C-177.94623779 24.4489624 -177.55653809 23.7572998 -177.1550293 23.04467773 C-172.794014 15.92724204 -166.77192313 11.76992303 -159.81054688 7.41992188 C-157.9909842 6.16140704 -156.54783299 4.83227071 -155.0078125 3.25 C-146.73431523 -4.81776444 -137.19837455 -5.06684047 -126.14312744 -4.96469116 C-112.51573392 -4.64442685 -98.54030802 -2.16889808 -88.5859375 7.953125 C-87.18359375 9.98046875 -87.18359375 9.98046875 -85.9609375 12.140625 C-85.21650391 13.28724609 -85.21650391 13.28724609 -84.45703125 14.45703125 C-81.44141849 19.83911942 -80.61031504 24.82520774 -80.6796875 30.92578125 C-80.6845668 31.69615219 -80.68944611 32.46652313 -80.69447327 33.26023865 C-80.88374975 44.454169 -82.2153795 55.58043373 -83.3984375 66.703125 C-85.43802963 86.20344254 -87.14523542 105.46039687 -87.0859375 125.078125 C-87.08951521 126.42903737 -87.09342091 127.77994891 -87.09765625 129.13085938 C-87.09636719 130.40123047 -87.09507813 131.67160156 -87.09375 132.98046875 C-87.09205811 134.68771118 -87.09205811 134.68771118 -87.09033203 136.42944336 C-87.14548076 139.10826015 -87.14548076 139.10826015 -85.9609375 141.140625 C-84.3109375 141.140625 -82.6609375 141.140625 -80.9609375 141.140625 C-80.96537872 140.5410347 -80.96981995 139.9414444 -80.97439575 139.32368469 C-81.70189979 36.32356603 -81.70189979 36.32356603 -58.40625 10.28515625 C-55.72283819 7.65350164 -52.96693027 5.39511957 -49.9609375 3.140625 C-49.42404297 2.71604004 -48.88714844 2.29145508 -48.33398438 1.85400391 C-32.9347309 -10.08439553 -16.88638732 -8.02677135 0 0 Z M-42.9609375 12.140625 C-43.89808594 12.89085937 -44.83523437 13.64109375 -45.80078125 14.4140625 C-56.23798061 23.2961892 -60.55703623 32.40796459 -63.7734375 45.578125 C-64.36303203 47.88938651 -64.95286431 50.20058738 -65.54296875 52.51171875 C-65.79280518 53.52161865 -66.0426416 54.53151855 -66.30004883 55.57202148 C-66.78271016 57.44792834 -67.34840273 59.30302068 -67.9609375 61.140625 C-68.95776366 71.42545885 -69.11173154 81.74973686 -69.16016769 92.07471657 C-69.17223034 94.41664355 -69.19172854 96.75840754 -69.21328735 99.1002655 C-69.27410719 105.74395432 -69.32926638 112.38760309 -69.36230469 119.03149414 C-69.38320313 123.12847477 -69.41842059 127.22511736 -69.46306229 131.32190514 C-69.47720952 132.87402077 -69.48594185 134.42619571 -69.48911667 135.97837257 C-69.49400658 138.13414076 -69.51709739 140.28899651 -69.54443359 142.44458008 C-69.55252045 143.66873123 -69.5606073 144.89288239 -69.56893921 146.15412903 C-69.9609375 149.140625 -69.9609375 149.140625 -71.35391235 151.03288269 C-74.70809534 153.34496251 -79.03130129 152.6516944 -82.9609375 152.640625 C-83.87617187 152.66898438 -84.79140625 152.69734375 -85.734375 152.7265625 C-88.24065832 152.7339123 -90.50792931 152.65533938 -92.9609375 152.140625 C-94.9609375 150.046875 -94.9609375 150.046875 -95.9609375 147.140625 C-96.34894531 146.08359375 -96.73695312 145.0265625 -97.13671875 143.9375 C-98.13616423 139.3334194 -98.21755397 135.0845721 -98.1484375 130.390625 C-98.14054199 129.44106934 -98.13264648 128.49151367 -98.12451172 127.51318359 C-97.86622171 105.00557354 -97.43523618 82.15011753 -93.8359375 59.890625 C-92.78012482 52.49148971 -92.70657978 45.10761851 -92.6484375 37.640625 C-92.62209229 35.81289551 -92.62209229 35.81289551 -92.59521484 33.94824219 C-92.60037561 26.49403731 -92.68890298 20.61096464 -98.0234375 14.953125 C-101.46485166 12.82969924 -104.9601738 11.44674916 -108.75390625 10.0703125 C-110.9609375 9.140625 -110.9609375 9.140625 -112.9609375 7.140625 C-117.43727163 6.54008054 -121.94923891 6.58412245 -126.4609375 6.515625 C-127.70359375 6.45761719 -128.94625 6.39960938 -130.2265625 6.33984375 C-139.81429722 6.20836638 -144.14066324 8.65259265 -150.9609375 15.140625 C-152.15180737 15.99786833 -153.36442436 16.82653019 -154.60546875 17.609375 C-160.89973206 21.64515419 -165.78080285 25.1682171 -168.9609375 32.140625 C-169.29546936 32.70804413 -169.63000122 33.27546326 -169.97467041 33.8600769 C-174.76983591 44.94795124 -172.14303701 62.27622401 -172.1640625 74.1328125 C-172.16688988 75.22630131 -172.16971725 76.31979012 -172.17263031 77.44641495 C-172.18755444 83.25789878 -172.19682104 89.06935832 -172.20117188 94.88085938 C-172.20551552 99.59090089 -172.21925581 104.300755 -172.2421875 109.01074219 C-172.35383626 132.46530164 -172.32368876 155.86536803 -170.6953125 179.2734375 C-170.6411039 180.11151821 -170.58689529 180.94959892 -170.53104401 181.81307602 C-169.95403485 190.42950186 -169.04660076 198.41164556 -165.87872314 206.53952026 C-164.52007343 210.3900819 -164.04860524 214.30618698 -163.45703125 218.33203125 C-162.86366931 221.69130082 -161.83555794 224.73634608 -160.671875 227.93359375 C-159.90716274 230.30756314 -159.49139328 232.61861492 -159.0859375 235.078125 C-158.05465076 240.65920619 -155.60980599 245.17293872 -152.9609375 250.140625 C-151.92991803 252.46041881 -150.93157233 254.79492415 -149.9609375 257.140625 C-149.55746094 258.10484375 -149.15398437 259.0690625 -148.73828125 260.0625 C-145.09379754 268.77525989 -145.09379754 268.77525989 -143.9765625 271.84765625 C-142.4739256 275.24014802 -139.89770819 277.04097119 -136.9609375 279.140625 C-135.506875 280.2234375 -135.506875 280.2234375 -134.0234375 281.328125 C-121.18657953 288.14038512 -101.35326165 286.0009071 -87.28302002 286.66864014 C-83.95979266 286.82902308 -80.63719116 287.00169845 -77.31445312 287.171875 C-63.18431128 287.87716494 -49.10778263 288.37800442 -34.9609375 288.140625 C-34.10321747 288.12745239 -33.24549744 288.11427979 -32.36178589 288.10070801 C-26.91203981 288.01341414 -21.46326702 287.89921562 -16.0144043 287.76831055 C-13.26423498 287.70290615 -10.51397937 287.64325929 -7.76367188 287.58398438 C-3.31694215 287.48488882 1.12827194 287.35676652 5.57376099 287.21279907 C7.88188059 287.14522665 10.18902381 287.10543294 12.49780273 287.0690918 C23.51883672 286.78981158 33.26855947 284.17455647 43.7265625 280.828125 C45.31258888 280.33477765 46.89917806 279.84323592 48.48632812 279.35351562 C50.81566781 278.63405744 53.14407981 277.91232265 55.46951294 277.18032837 C60.20151337 275.69156799 64.94913977 274.31012965 69.73046875 272.98828125 C80.14523646 270.04326026 89.29357188 265.42805746 97.47265625 258.24609375 C100.0390625 256.140625 100.0390625 256.140625 103.26171875 254.25390625 C114.69967448 247.37335105 117.10114714 236.83237908 120.39746094 224.41210938 C121.0390625 222.140625 121.0390625 222.140625 122.0390625 220.140625 C122.36492761 215.93902753 122.36374845 211.7282829 122.4140625 207.515625 C122.45144531 206.35160156 122.48882812 205.18757812 122.52734375 203.98828125 C122.60318412 196.54749863 121.84314814 191.88467641 117.0390625 186.140625 C116.41281982 185.33069092 116.41281982 185.33069092 115.77392578 184.50439453 C109.82638174 177.04250529 103.76105053 172.10278748 95.0390625 168.140625 C94.100625 167.63660156 93.1621875 167.13257813 92.1953125 166.61328125 C88.66003201 164.96377538 85.13366094 164.00804505 81.3515625 163.140625 C80.03481601 162.82956176 78.7184164 162.51702698 77.40234375 162.203125 C76.36134521 161.95743774 76.36134521 161.95743774 75.29931641 161.70678711 C72.7913627 161.07857965 70.31640893 160.36011311 67.83203125 159.64453125 C61.63168007 157.9432708 55.40153263 156.96007386 49.0390625 156.078125 C47.83588379 155.90821045 46.63270508 155.7382959 45.39306641 155.56323242 C34.60236187 154.1008357 23.80157736 153.22591148 12.9375 152.53515625 C5.19643647 152.02756617 5.19643647 152.02756617 1.390625 151.71484375 C0.59736816 151.65256592 -0.19588867 151.59028809 -1.01318359 151.52612305 C-2.9609375 151.140625 -2.9609375 151.140625 -4.9609375 149.140625 C-6.06382336 141.1482833 -4.08222445 133.77725802 -1.9609375 126.140625 C-1.26127894 123.14693442 -0.61196814 120.1453818 0.0390625 117.140625 C0.6990625 117.140625 1.3590625 117.140625 2.0390625 117.140625 C2.23242188 115.91085938 2.42578125 114.68109375 2.625 113.4140625 C2.88775824 111.78120772 3.15079375 110.14839754 3.4140625 108.515625 C3.54039062 107.70738281 3.66671875 106.89914063 3.796875 106.06640625 C4.36224086 102.58940621 4.95726679 99.37765345 6.109375 96.0390625 C7.24758265 92.49053278 7.41789267 89.08274107 7.5390625 85.390625 C7.71251114 80.96768477 8.03399051 76.98801151 9.05859375 72.6875 C10.47815465 65.98408933 10.30170028 59.22549604 10.24487305 52.40917969 C10.22659836 50.14506726 10.22436423 47.88136618 10.22460938 45.6171875 C10.80351177 29.37701009 10.80351177 29.37701009 3.83984375 15.41015625 C-1.64018489 10.96957516 -8.30838697 9.20337236 -14.9609375 7.140625 C-15.9509375 6.645625 -15.9509375 6.645625 -16.9609375 6.140625 C-27.15512627 5.19980618 -34.77316899 5.36919206 -42.9609375 12.140625 Z " fill="#131212" transform="translate(194.9609375,20.859375)"/>
<path d="M0 0 C7.77982326 -0.43721321 17.94715047 1.12112755 24.578125 5.41015625 C27.38950008 9.94237301 26.43514129 16.13838059 25.67578125 21.1796875 C23.42483009 26.12709057 20.51716387 30.33830488 16.67578125 34.1796875 C12.57732877 34.60107669 8.47288356 34.55128249 4.35449219 34.55029297 C2.31490017 34.55465729 0.27748881 34.59094228 -1.76171875 34.62890625 C-3.04820312 34.63277344 -4.3346875 34.63664062 -5.66015625 34.640625 C-6.8414209 34.64884277 -8.02268555 34.65706055 -9.23974609 34.66552734 C-12.93706868 34.0831566 -14.00955025 33.04242617 -16.32421875 30.1796875 C-16.88625 29.55191406 -17.44828125 28.92414063 -18.02734375 28.27734375 C-22.16064077 22.83934439 -23.49668762 18.06155456 -23.16015625 11.21875 C-21.85982398 6.49137379 -19.33254848 4.71876995 -15.17578125 2.34765625 C-10.02308051 0.2371665 -5.43151572 0.4199155 0 0 Z " fill="#050505" transform="translate(265.32421875,200.8203125)"/>
<path d="M0 0 C1.69140625 1.05078125 1.69140625 1.05078125 3 3 C3.30349256 5.6213426 3.42835807 7.94644728 3.375 10.5625 C3.36267334 11.2848584 3.35034668 12.0072168 3.33764648 12.75146484 C3.00240543 23.49119445 -0.56914166 33.26518476 -7.49853516 41.60644531 C-11.90439432 45.69565574 -18.30949041 46.17493678 -24 47 C-25.85583739 47.409161 -27.71029014 47.82471919 -29.5625 48.25 C-38.01341954 49.99742721 -42.47773497 47.95933565 -49.52734375 43.35546875 C-50.68665355 42.57291015 -51.84420115 41.78773485 -53 41 C-53.57250488 40.61537598 -54.14500977 40.23075195 -54.73486328 39.83447266 C-65.38172998 32.60557003 -65.38172998 32.60557003 -67 26 C-67.66 26 -68.32 26 -69 26 C-69.35915493 19.65492958 -69.35915493 19.65492958 -67.9375 17.0625 C-64.79665674 15.34010208 -62.50181214 15.50851759 -59 16 C-56.5625 18.375 -56.5625 18.375 -55 21 C-55 21.66 -55 22.32 -55 23 C-54.01 23.309375 -54.01 23.309375 -53 23.625 C-50.29288732 24.86575998 -48.34827184 26.14516373 -46 27.9375 C-45.30777344 28.4634375 -44.61554688 28.989375 -43.90234375 29.53125 C-42.44672272 30.65509704 -41.0021 31.79320257 -39.5625 32.9375 C-35.56149399 34.59645371 -32.17371934 33.74093715 -28 33 C-27.22914062 32.93167969 -26.45828125 32.86335938 -25.6640625 32.79296875 C-21.12482106 32.21200782 -18.20617902 30.86682736 -15 27.5625 C-11.06069324 22.07271095 -11.25503654 16.08960088 -11.34960938 9.56469727 C-11.38405608 3.43748997 -11.38405608 3.43748997 -9.203125 0.953125 C-5.98200806 -0.44040786 -3.46262456 -0.37774086 0 0 Z " fill="#090908" transform="translate(122,202)"/>
<path d="M0 0 C2.15234375 1.03515625 2.15234375 1.03515625 4 3 C4.47495058 5.77876929 4.66578212 8.03256972 4.625 10.8125 C4.61879639 11.56354004 4.61259277 12.31458008 4.60620117 13.08837891 C4.31952158 20.7423202 2.20867166 27.55461563 -2 34 C-5.60558687 36.7150131 -9.65218535 38.14899094 -13.875 39.6875 C-15.04804688 40.12449219 -16.22109375 40.56148437 -17.4296875 41.01171875 C-24.91835772 43.084622 -31.26292844 41.49312721 -38.5625 39.5 C-39.94211914 39.17128906 -39.94211914 39.17128906 -41.34960938 38.8359375 C-48.40938677 36.90731391 -51.12432231 34.03523991 -55 28 C-56.27335127 26.73134744 -57.5609492 25.47644742 -58.875 24.25 C-62.66431504 20.01537742 -62.72974148 16.25849417 -62.63671875 10.734375 C-61.85521074 7.37820565 -60.67383708 6.11926346 -58 4 C-54.60316213 3.30321274 -53.27266653 3.84507584 -50.25 5.5625 C-47.37340151 8.67881503 -47.44422926 10.85386028 -47 15 C-45.62831762 17.19038423 -45.62831762 17.19038423 -44 19 C-43.76539063 19.65097656 -43.53078125 20.30195313 -43.2890625 20.97265625 C-40.49994457 25.35917808 -33.79253006 25.8780992 -29 27 C-23.36847428 27.65701133 -17.99363614 26.75648715 -13 24 C-9.17802403 18.6253463 -9.57211151 12.55033018 -9.40625 6.109375 C-9 3 -9 3 -7.65234375 1.1015625 C-5.04286567 -0.63808955 -3.05147105 -0.37364952 0 0 Z " fill="#080807" transform="translate(207,189)"/>
<path d="M0 0 C0.66 0.33 1.32 0.66 2 1 C-1.00517424 4.86379545 -3.45081065 7.90983192 -8 10 C-8.66 9.67 -9.32 9.34 -10 9 C-6.7 6.03 -3.4 3.06 0 0 Z " fill="#C2BFBA" transform="translate(153,32)"/>
<path d="M0 0 C0.99 0.99 1.98 1.98 3 3 C1.02 4.32 -0.96 5.64 -3 7 C-3.33 6.34 -3.66 5.68 -4 5 C-2.52830189 1.26415094 -2.52830189 1.26415094 0 0 Z " fill="#E8E6E1" transform="translate(283,281)"/>
<path d="M0 0 C0.33 1.32 0.66 2.64 1 4 C-0.3125 6.0625 -0.3125 6.0625 -2 8 C-2.99 9.485 -2.99 9.485 -4 11 C-4.66 10.67 -5.32 10.34 -6 10 C-4.02 6.7 -2.04 3.4 0 0 Z " fill="#BAB6B2" transform="translate(119,234)"/>
<path d="M0 0 C2.02045442 0.60183749 4.02111039 1.27306096 6 2 C6.33 2.66 6.66 3.32 7 4 C4.625 4.625 4.625 4.625 2 5 C1.34 4.34 0.68 3.68 0 3 C0 2.01 0 1.02 0 0 Z " fill="#EBE9E4" transform="translate(295,193)"/>
</svg>
