<?xml version="1.0" encoding="UTF-8"?>
<svg version="1.1" xmlns="http://www.w3.org/2000/svg" width="358" height="345">
<path d="M0 0 C1.10674072 0.49209961 1.10674072 0.49209961 2.23583984 0.99414062 C7.1302594 3.22134821 9.52488022 5.16081561 11.7421875 10.1328125 C12.4848887 12.11861641 13.19528906 14.11676314 13.875 16.125 C14.23851562 17.10726562 14.60203125 18.08953125 14.9765625 19.1015625 C17.06333259 24.84774101 18.74298985 30.63998846 20.28833008 36.55126953 C21.00166175 39.21078891 21.00166175 39.21078891 22.51953125 42.421875 C24.64212086 47.55193326 25.60709023 52.81857443 26.6875 58.25 C27.02491211 59.88195312 27.02491211 59.88195312 27.36914062 61.546875 C29 69.55741831 29 69.55741831 29 73 C41.21 73 53.42 73 66 73 C66.51949219 70.03515625 67.03898438 67.0703125 67.57421875 64.015625 C68.09394434 61.10567571 68.61840495 58.19661648 69.14331055 55.28759766 C69.50209697 53.28489658 69.85605201 51.28132309 70.20483398 49.27685547 C72.12492048 38.26176698 74.03641244 28.09593056 79 18 C79.58710049 16.56403446 80.1711671 15.12681807 80.75 13.6875 C84.15663281 7.33637449 89.26104844 3.7566618 96.0625 1.60546875 C106.14836332 -1.15981483 114.75795011 -1.39661818 125 1 C125.83096191 1.18667236 126.66192383 1.37334473 127.51806641 1.56567383 C134.48851563 3.26984842 140.32796241 5.93672235 146.5 9.5625 C147.41128662 10.09480225 148.32257324 10.62710449 149.26147461 11.17553711 C160.96567761 18.18175808 167.52431646 23.94414384 172 37 C172.32017593 37.93043625 172.64035187 38.8608725 172.9702301 39.81950378 C178.84620456 57.55570288 179.93837933 74.40730369 179.53894043 92.88494873 C179.48640727 95.65397317 179.46495007 98.42286033 179.44481659 101.19228268 C179.20592059 133.90056969 179.20592059 133.90056969 176.0625 141.8125 C173.70244395 148.42065695 172.5890025 155.01722035 172 162 C171.90178955 162.65266846 171.8035791 163.30533691 171.70239258 163.9777832 C170.97787121 171.81562503 175.17556592 177.38220937 179.1875 183.8125 C184.20934437 192.00603555 188.60252362 199.99689153 192 209 C192.42116089 210.0969519 192.42116089 210.0969519 192.85083008 211.21606445 C193.53618702 213.04925124 194.17605657 214.89926293 194.8125 216.75 C195.23144531 217.94109375 195.65039062 219.1321875 196.08203125 220.359375 C198.5959094 230.32930878 195.5384501 236.24585163 191 245.1875 C190.44699219 246.34958984 189.89398438 247.51167969 189.32421875 248.70898438 C185.78245186 255.78844715 183.01164862 259.50763375 176 263 C174.06094678 264.20434585 172.13340276 265.42732985 170.21484375 266.6640625 C168.12245271 267.98446514 166.03000367 269.30477587 163.9375 270.625 C162.88755859 271.29273438 161.83761719 271.96046875 160.75585938 272.6484375 C159.73169922 273.29296875 158.70753906 273.9375 157.65234375 274.6015625 C156.73445068 275.18244629 155.81655762 275.76333008 154.87084961 276.36181641 C147.68183676 280.46405947 142.26066175 281.50854753 134.046875 281.84375 C132.99203918 281.89897827 131.93720337 281.95420654 130.85040283 282.0111084 C127.4840878 282.18645734 124.11730535 282.34492037 120.75 282.5 C107.77130587 283.10926599 95.01243985 283.78294186 82.19976807 286.01420593 C76.52970247 286.98336839 71.24405068 287.23455808 65.5 286.8125 C59.63290292 286.3832621 53.76913557 285.98043191 47.89355469 285.68530273 C31.69220061 284.79380857 16.46414888 282.22695407 0.75 278.25 C-0.39045776 277.96843048 -1.53091553 277.68686096 -2.70593262 277.39675903 C-20.87255423 272.88047512 -37.63372289 267.07625848 -54.22485352 258.41943359 C-56.77736657 257.11387268 -59.34557818 255.94390688 -61.98046875 254.81640625 C-65.31169646 253.36822755 -68.15072088 251.69756915 -71.0625 249.5 C-74.12184055 247.24599987 -76.92873537 245.50841949 -80.4375 244.0625 C-83.52662496 242.56302071 -83.90823992 242.21843772 -85.32421875 238.84765625 C-85.56696533 238.12280029 -85.80971191 237.39794434 -86.05981445 236.65112305 C-86.75508785 234.69060012 -87.54021102 232.76142757 -88.37182617 230.85473633 C-108.44231546 184.83352682 -106.50940005 127.1736139 -105.08398438 77.74121094 C-105.00932584 74.41543371 -105.03202338 71.11407698 -105.109375 67.7890625 C-105.32613971 49.68187467 -99.06116746 29.64845266 -86.41088867 16.40136719 C-85.42284507 15.409326 -84.4278514 14.42414753 -83.42529297 13.44677734 C-81.07536901 11.06143144 -79.0717789 8.44219637 -77 5.8125 C-61.09289682 -14.2822686 -19.61159252 -13.34613125 0 0 Z M46 180 C46.49756092 182.75641416 46.49756092 182.75641416 48 185 C50.33297433 185.04092937 52.66705225 185.04241723 55 185 C54.67 183.68 54.34 182.36 54 181 C51.36 180.67 48.72 180.34 46 180 Z " fill="#020202" transform="translate(130,34)"/>
<path d="M0 0 C1.07701172 0.01353516 1.07701172 0.01353516 2.17578125 0.02734375 C3.90900579 0.05045341 5.64205349 0.08629896 7.375 0.125 C9.56156235 6.35094858 9.71738424 12.18365803 9.7890625 18.74609375 C9.80842865 19.84599136 9.8277948 20.94588898 9.8477478 22.07911682 C9.90726908 25.57350033 9.95381927 29.06791726 10 32.5625 C10.03820501 34.93946706 10.0772582 37.31642065 10.1171875 39.69335938 C10.21294799 45.50378619 10.29807508 51.31429492 10.375 57.125 C5.72568851 59.5649769 1.62999399 59.68029822 -3.5625 59.9375 C-4.45646484 60.00130859 -5.35042969 60.06511719 -6.27148438 60.13085938 C-7.13966797 60.17662109 -8.00785156 60.22238281 -8.90234375 60.26953125 C-10.08171509 60.33684448 -10.08171509 60.33684448 -11.28491211 60.40551758 C-14.41848138 60.02988158 -16.11819012 59.03384495 -18.625 57.125 C-19.22627258 54.67622375 -19.22627258 54.67622375 -19.19262695 51.7355957 C-19.1922493 50.63468094 -19.19187164 49.53376617 -19.19148254 48.39949036 C-19.16567612 47.21191635 -19.13986969 46.02434235 -19.11328125 44.80078125 C-19.10620651 43.58424362 -19.09913177 42.36770599 -19.09184265 41.11430359 C-19.06381132 37.22141523 -19.00105127 33.32995505 -18.9375 29.4375 C-18.91242868 26.80145303 -18.88961349 24.16538357 -18.86914062 21.52929688 C-18.81395565 15.06070905 -18.73024026 8.59295653 -18.625 2.125 C-17.05250054 1.79143807 -15.47886634 1.46322321 -13.90478516 1.13720703 C-13.02859528 0.95384796 -12.1524054 0.77048889 -11.24966431 0.58157349 C-7.47658413 -0.07477269 -3.81720804 -0.09416263 0 0 Z " fill="#F2EDE8" transform="translate(214.625,241.875)"/>
<path d="M0 0 C1.32 0.66 2.64 1.32 4 2 C4 2.66 4 3.32 4 4 C5.051875 3.87625 6.10375 3.7525 7.1875 3.625 C12 4 12 4 25 10 C24.67 27.82 24.34 45.64 24 64 C17.25 66.25 17.25 66.25 13.0390625 66.1953125 C12.15605469 66.18886719 11.27304688 66.18242187 10.36328125 66.17578125 C9.45964844 66.15902344 8.55601562 66.14226562 7.625 66.125 C6.69816406 66.11597656 5.77132812 66.10695313 4.81640625 66.09765625 C2.54399923 66.07422937 0.2721382 66.04142748 -2 66 C-2.37657066 43.93585613 -1.28267636 22.01870893 0 0 Z " fill="#EDE9E3" transform="translate(152,233)"/>
<path d="M0 0 C2.05753095 0.30961194 4.11476525 0.62119558 6.171875 0.93359375 C7.89035645 1.19354126 7.89035645 1.19354126 9.64355469 1.45874023 C21.34585032 3.34585032 21.34585032 3.34585032 23 5 C23.09409479 7.02494231 23.11743122 9.0531987 23.11352539 11.08032227 C23.11344986 12.38159561 23.11337433 13.68286896 23.11329651 15.02357483 C23.10818909 16.45451902 23.10297308 17.88546282 23.09765625 19.31640625 C23.09579203 20.7722926 23.09436815 22.22817957 23.09336853 23.68406677 C23.08954365 27.52279379 23.07971364 31.36148319 23.06866455 35.20019531 C23.05844978 39.11457816 23.05387077 43.02896706 23.04882812 46.94335938 C23.03809134 54.62892343 23.02101529 62.31445645 23 70 C19.125 68.125 19.125 68.125 18 67 C14.63713988 66.58622527 11.2768287 66.22823948 7.90234375 65.92578125 C2.5104727 65.34632698 2.5104727 65.34632698 0.28068542 63.83354187 C-1.57813762 61.17228734 -1.32071042 59.19183996 -1.2487793 55.96801758 C-1.22853195 54.72695755 -1.20828461 53.48589752 -1.18742371 52.20722961 C-1.1500141 50.8529878 -1.11227126 49.49875515 -1.07421875 48.14453125 C-1.04618167 46.75878988 -1.01949168 45.37302066 -0.99409485 43.98722839 C-0.92367116 40.34214986 -0.83494925 36.69773738 -0.74243164 33.05316162 C-0.65123367 29.3331962 -0.57731734 25.61289204 -0.50195312 21.89257812 C-0.35156292 14.59461007 -0.18184339 7.29725926 0 0 Z " fill="#EEEAE4" transform="translate(105,225)"/>
<path d="M0 0 C0.19916016 1.80597656 0.19916016 1.80597656 0.40234375 3.6484375 C0.5805302 5.22398085 0.7589265 6.79950047 0.9375 8.375 C1.02451172 9.1690625 1.11152344 9.963125 1.20117188 10.78125 C1.6038935 15.02255001 1.6038935 15.02255001 3 19 C3.88814923 24.64113536 4.45643166 30.31646646 5 36 C5.13317627 37.37454346 5.13317627 37.37454346 5.26904297 38.77685547 C5.52539985 41.59968878 5.73775323 44.42264383 5.9375 47.25 C6.0602832 48.58865112 6.0602832 48.58865112 6.18554688 49.9543457 C6.45389611 54.40885811 6.5311142 56.29277951 3.7734375 59.96484375 C-2.50368494 64.57101388 -8.17910693 66.8232519 -16 66 C-18.50441811 63.49558189 -18.29260536 62.59977761 -18.4140625 59.12890625 C-18.45289551 58.09556152 -18.49172852 57.0622168 -18.53173828 55.99755859 C-18.56251465 54.86398926 -18.59329102 53.73041992 -18.625 52.5625 C-18.66222168 51.39283691 -18.69944336 50.22317383 -18.73779297 49.01806641 C-19.03057506 38.63846918 -19.10444261 28.25821636 -19.125 17.875 C-19.12901825 16.69721481 -19.12901825 16.69721481 -19.13311768 15.49563599 C-19.13890332 13.26527131 -19.13728489 11.03505259 -19.1328125 8.8046875 C-19.13168457 7.51546387 -19.13055664 6.22624023 -19.12939453 4.89794922 C-19 2 -19 2 -18 1 C-15.73384646 0.7625376 -13.46128016 0.58502642 -11.1875 0.4375 C-9.32158203 0.31181641 -9.32158203 0.31181641 -7.41796875 0.18359375 C-4.94811577 0.05092736 -2.47341345 0 0 0 Z " fill="#F2EDE7" transform="translate(258,231)"/>
<path d="M0 0 C3.78574075 2.33677361 5.2629704 5.56835488 6.61328125 9.7109375 C7.95668535 15.72740984 8.71050146 21.34444594 6.09765625 27.1015625 C3.61365889 30.53907474 1.66097449 32.30258365 -2.5703125 33.08203125 C-5.68159527 33.1257961 -8.65827837 32.89926233 -11.75 32.5625 C-12.52601563 32.54832031 -13.30203125 32.53414062 -14.1015625 32.51953125 C-20.98329333 32.25677425 -26.98683138 29.17684288 -32.75 25.5625 C-35.69592094 21.14361859 -34.61535261 17.64018886 -33.75 12.5625 C-31.90666965 3.5365376 -31.90666965 3.5365376 -28.375 0.5625 C-27.50875 0.2325 -26.6425 -0.0975 -25.75 -0.4375 C-25.03199219 -0.79070312 -24.31398437 -1.14390625 -23.57421875 -1.5078125 C-16.79449022 -3.73959036 -6.56612468 -2.61900247 0 0 Z M-19.75 12.5625 C-19.25243908 15.31891416 -19.25243908 15.31891416 -17.75 17.5625 C-15.41702567 17.60342937 -13.08294775 17.60491723 -10.75 17.5625 C-11.08 16.2425 -11.41 14.9225 -11.75 13.5625 C-14.39 13.2325 -17.03 12.9025 -19.75 12.5625 Z " fill="#F3EEE8" transform="translate(195.75,201.4375)"/>
<path d="M0 0 C3.05231912 2.6063446 5.01394317 5.41019433 7 8.875 C8.61393934 11.67307962 10.17910773 14.23009696 12.16796875 16.78515625 C14.52464281 20.92064186 14.49554812 23.90494218 14.3125 28.5625 C14.30283203 29.30435547 14.29316406 30.04621094 14.28320312 30.81054688 C14.20456227 34.65027227 13.91297083 38.25162384 13 42 C12.34 42 11.68 42 11 42 C10.34 44.31 9.68 46.62 9 49 C8.38125 49.0825 7.7625 49.165 7.125 49.25 C4.81562433 49.81258459 4.81562433 49.81258459 3.75 52.0625 C3.5025 52.701875 3.255 53.34125 3 54 C-2.75 54.125 -2.75 54.125 -5 53 C-5 52.34 -5 51.68 -5 51 C-5.66 51 -6.32 51 -7 51 C-7.04487549 50.24904053 -7.08975098 49.49808105 -7.13598633 48.72436523 C-7.34838846 45.29445442 -7.58026794 41.86612293 -7.8125 38.4375 C-7.88275391 37.25607422 -7.95300781 36.07464844 -8.02539062 34.85742188 C-8.46520895 28.57681626 -9.0707004 23.59371573 -12 18 C-13.4232082 13.21284514 -13.71493317 7.93802677 -13 3 C-9.5736857 -1.60410984 -5.16377538 -1.97106337 0 0 Z " fill="#EDE9E3" transform="translate(285,226)"/>
<path d="M0 0 C3.4165052 -0.08724706 6.83272313 -0.14047325 10.25 -0.1875 C11.70212891 -0.22520508 11.70212891 -0.22520508 13.18359375 -0.26367188 C14.58544922 -0.27817383 14.58544922 -0.27817383 16.015625 -0.29296875 C16.87446289 -0.3086792 17.73330078 -0.32438965 18.61816406 -0.34057617 C21.5329672 0.07620841 22.8846659 0.98047615 25 3 C25.49609375 5.55859375 25.49609375 5.55859375 25.4375 8.4375 C25.43621094 9.38496094 25.43492187 10.33242187 25.43359375 11.30859375 C24.94194846 14.36033795 24.13536847 15.79153824 22 18 C21.34 18 20.68 18 20 18 C19.67 18.99 19.34 19.98 19 21 C13.03325384 22.32594359 7.07416385 22.0884587 1 22 C0.18565857 19.14839609 -0.11881242 16.63373869 -0.09765625 13.671875 C-0.09282227 12.47304687 -0.09282227 12.47304687 -0.08789062 11.25 C-0.07951172 10.425 -0.07113281 9.6 -0.0625 8.75 C-0.05798828 7.90953125 -0.05347656 7.0690625 -0.04882812 6.203125 C-0.03707961 4.13538599 -0.01914522 2.06768376 0 0 Z " fill="#EAE5E0" transform="translate(121,174)"/>
<path d="M0 0 C0.66 0 1.32 0 2 0 C2.48828125 1.98567708 2.9765625 3.97135417 3.46484375 5.95703125 C3.91010705 7.65683202 4.44433985 9.33301954 5 11 C5.08481773 13.58630224 5.11598229 16.14478056 5.09765625 18.73046875 C5.0962413 19.48088943 5.09482635 20.23131012 5.09336853 21.00447083 C5.0877756 23.3988546 5.07522444 25.79314453 5.0625 28.1875 C5.05748408 29.81184761 5.05292134 31.43619668 5.04882812 33.06054688 C5.03780848 37.04040069 5.02054873 41.02018444 5 45 C-0.4447663 44.29179963 -3.1381609 43.04145952 -7 39 C-8.19297217 34.23512881 -8.11982417 29.50196404 -8.0625 24.625 C-8.05798828 23.88894531 -8.05347656 23.15289062 -8.04882812 22.39453125 C-8.03715142 20.59631842 -8.01922011 18.79814803 -8 17 C-7.34 17 -6.68 17 -6 17 C-6.05800781 16.26394531 -6.11601563 15.52789062 -6.17578125 14.76953125 C-6.54871614 6.70348224 -6.54871614 6.70348224 -3.5625 2.875 C-2.716875 2.25625 -1.87125 1.6375 -1 1 C-0.67 0.67 -0.34 0.34 0 0 Z " fill="#ECE8E3" transform="translate(78,232)"/>
<path d="M0 0 C0 6.93 0 13.86 0 21 C-11.47522702 20.88290585 -11.47522702 20.88290585 -15.19921875 18.7265625 C-18.49263647 15.32947788 -19.35708856 12.38316168 -19.5 7.6875 C-19.34022258 3.34022258 -19.34022258 3.34022258 -17 1 C-11.19297863 -0.01877568 -5.98028904 0 0 0 Z " fill="#EDE9E4" transform="translate(233,171)"/>
<path d="M0 0 C4.87535396 0.23590422 9.32402505 0.63652505 12.875 4.1875 C13.02007695 6.93235593 13.06152423 9.57230543 13 12.3125 C12.99097656 13.06660156 12.98195313 13.82070312 12.97265625 14.59765625 C12.9490687 16.46107254 12.91319719 18.32432593 12.875 20.1875 C8.255 20.1875 3.635 20.1875 -1.125 20.1875 C-4.52203898 13.95959521 -4.70113026 8.21185735 -4.125 1.1875 C-3.125 0.1875 -3.125 0.1875 0 0 Z " fill="#ECE7E2" transform="translate(254.125,173.8125)"/>
<path d="M0 0 C6.93 0.495 6.93 0.495 14 1 C14.02690844 3.62506802 14.04679404 6.24986173 14.0625 8.875 C14.07087891 9.62136719 14.07925781 10.36773437 14.08789062 11.13671875 C14.11328125 16.7734375 14.11328125 16.7734375 13 19 C6.75410144 18.44233049 0.25445665 17.66603926 -4.75 13.56640625 C-5.1625 13.04949219 -5.575 12.53257812 -6 12 C-5.6875 9.3125 -5.6875 9.3125 -5 7 C-4.34 7 -3.68 7 -3 7 C-2.690625 6.21625 -2.38125 5.4325 -2.0625 4.625 C-1 2 -1 2 0 0 Z " fill="#EAE6E0" transform="translate(91,178)"/>
<path d="M0 0 C0.99 0.66 1.98 1.32 3 2 C1.81703502 5.36690034 0.8754647 7.81970259 -2 10 C-4.6015625 10.328125 -4.6015625 10.328125 -7.625 10.25 C-9.21441406 10.21132812 -9.21441406 10.21132812 -10.8359375 10.171875 C-14.92559919 9.94972054 -18.94039856 9.54128019 -23 9 C-23 8.67 -23 8.34 -23 8 C-17.06 8 -11.12 8 -5 8 C-4.01 6.02 -3.02 4.04 -2 2 C-1.34 2 -0.68 2 0 2 C0 1.34 0 0.68 0 0 Z " fill="#D8D4D0" transform="translate(198,224)"/>
<path d="M0 0 C3 2 3 2 3.6875 4.125 C3.790625 4.74375 3.89375 5.3625 4 6 C-1.75 6.125 -1.75 6.125 -4 5 C-3.67 4.01 -3.34 3.02 -3 2 C-2.01 2 -1.02 2 0 2 C0 1.34 0 0.68 0 0 Z " fill="#E4E0DB" transform="translate(284,274)"/>
<path d="M0 0 C2.64 0.33 5.28 0.66 8 1 C7.67 2.65 7.34 4.3 7 6 C6.01 5.67 5.02 5.34 4 5 C3.67 5.66 3.34 6.32 3 7 C2.814375 5.824375 2.814375 5.824375 2.625 4.625 C2.20882007 1.85942178 2.20882007 1.85942178 0 0 Z " fill="#DFDBD6" transform="translate(277,225)"/>
<path d="M0 0 C0.33 0.66 0.66 1.32 1 2 C1.66 2 2.32 2 3 2 C3 2.66 3 3.32 3 4 C0.69 4 -1.62 4 -4 4 C-4 3.34 -4 2.68 -4 2 C-2.68 1.34 -1.36 0.68 0 0 Z " fill="#D7D3CD" transform="translate(224,187)"/>
<path d="M0 0 C0.66 0 1.32 0 2 0 C2 0.99 2 1.98 2 3 C3.32 3.33 4.64 3.66 6 4 C3.36 4 0.72 4 -2 4 C-2.33 3.34 -2.66 2.68 -3 2 C-2.01 2 -1.02 2 0 2 C0 1.34 0 0.68 0 0 Z " fill="#DDDBD6" transform="translate(244,293)"/>
</svg>
