<?xml version="1.0" encoding="UTF-8"?>
<svg version="1.1" xmlns="http://www.w3.org/2000/svg" width="313" height="298">
<path d="M0 0 C3.92571822 0.02752074 7.84137502 -0.05610058 11.76539612 -0.16383362 C36.23201425 -0.77265977 54.10602946 2.27788821 75.63354492 14.01367188 C77.21283675 14.80821482 78.7956717 15.59579545 80.38354492 16.37304688 C83.88837753 18.1121601 87.25991514 20.03020276 90.63354492 22.01367188 C91.68928711 22.5628125 92.7450293 23.11195312 93.83276367 23.67773438 C102.71256862 28.73599215 106.80818507 35.69283719 111.32714844 44.54541016 C112.27702786 46.34008048 113.29209958 48.10070529 114.34423828 49.83740234 C119.25365159 58.17315662 121.45880207 65.98704306 123.15234375 75.44140625 C123.5691362 77.75308541 124.02531789 80.05434855 124.48706055 82.35742188 C126.99679956 95.3687564 128.85341461 109.54567784 124.38354492 122.32617188 C124.12758545 123.09832031 123.87162598 123.87046875 123.60791016 124.66601562 C119.60740313 135.85259779 112.81707374 145.74724679 106.26635742 155.57617188 C105.6244043 156.54554688 104.98245117 157.51492187 104.32104492 158.51367188 C103.4915332 159.70476562 103.4915332 159.70476562 102.64526367 160.91992188 C101.46388749 162.9151213 101.46388749 162.9151213 101.78491211 164.92553711 C102.9655678 167.83064301 104.61424267 168.76855829 107.19995117 170.51757812 C108.15369629 171.17089111 109.10744141 171.8242041 110.09008789 172.49731445 C111.11505371 173.1833374 112.14001953 173.86936035 113.19604492 174.57617188 C114.23132324 175.28346436 115.26660156 175.99075684 116.33325195 176.71948242 C120.30051846 179.42683643 124.2847887 182.10834578 128.27270508 184.78515625 C129.82426376 185.82685874 131.37427997 186.8708643 132.92236328 187.91772461 C134.28364568 188.83676945 135.65015622 189.74813106 137.02246094 190.65063477 C141.52201255 193.67907477 141.52201255 193.67907477 142.63354492 197.01367188 C142.28111155 219.13564347 142.28111155 219.13564347 138.13745117 225.20507812 C134.46041722 227.86103245 130.81526551 228.18324622 126.38354492 228.76367188 C125.56241211 228.88871094 124.7412793 229.01375 123.89526367 229.14257812 C116.28920019 230.23949061 109.51292396 230.63776826 102.07104492 228.26367188 C101.01788086 227.93882812 99.9647168 227.61398438 98.87963867 227.27929688 C95.18926641 225.84045137 92.0267077 224.05042532 88.63354492 222.01367188 C88.6189624 222.75939453 88.60437988 223.50511719 88.58935547 224.2734375 C88.51439154 227.68734228 88.41789054 231.10032056 88.32104492 234.51367188 C88.28720703 236.27324219 88.28720703 236.27324219 88.25268555 238.06835938 C87.80284028 252.62698803 87.80284028 252.62698803 82.46948242 258.32617188 C81.25131836 259.16148437 81.25131836 259.16148437 80.00854492 260.01367188 C79.2119043 260.59117187 78.41526367 261.16867187 77.59448242 261.76367188 C73.4289388 263.52221272 70.07951404 263.97009305 65.63354492 263.01367188 C62.07911996 261.17659388 59.0593142 258.82527576 55.94604492 256.32617188 C55.13071289 255.70033203 54.31538086 255.07449219 53.4753418 254.4296875 C51.88466044 253.2016352 50.30573927 251.95817263 48.73999023 250.69848633 C47.01401311 249.31798469 45.2381414 248.00007815 43.44995117 246.70117188 C39.45690032 242.89088202 36.98589782 238.4656217 34.25854492 233.70117188 C33.71327148 232.76982422 33.16799805 231.83847656 32.60620117 230.87890625 C31.27170229 228.59621079 29.9479479 226.30797791 28.63354492 224.01367188 C28.57932373 224.5723999 28.52510254 225.13112793 28.46923828 225.70678711 C26.34890984 246.10784204 26.34890984 246.10784204 18.63354492 253.01367188 C18.12436523 253.5525 17.61518555 254.09132813 17.09057617 254.64648438 C14.56644608 257.12324473 12.96703737 257.99011212 9.42651367 258.24023438 C5.41233255 258.00045837 1.84058958 257.32245074 -2.05395508 256.32617188 C-2.70428711 256.17728516 -3.35461914 256.02839844 -4.0246582 255.875 C-8.75378569 254.6457161 -10.79383062 253.11892367 -13.36645508 249.01367188 C-15.04647389 246.00271491 -16.5682858 242.93702138 -18.05395508 239.82617188 C-18.45678711 239.02630859 -18.85961914 238.22644531 -19.2746582 237.40234375 C-22.05503505 231.60407042 -23.13260726 226.43130629 -23.36645508 220.01367188 C-23.86274414 221.08746094 -24.3590332 222.16125 -24.87036133 223.26757812 C-28.51696845 230.96918345 -31.72867176 237.46489988 -38.36645508 243.01367188 C-38.94395508 243.77679688 -39.52145508 244.53992188 -40.11645508 245.32617188 C-43.9965549 248.23624674 -48.64366262 248.44058449 -53.36645508 249.01367188 C-54.91333008 249.23023438 -54.91333008 249.23023438 -56.49145508 249.45117188 C-64.38421678 248.25009944 -69.37754761 243.4435317 -74.05395508 237.29492188 C-77.04725964 232.09227346 -76.24797759 227.39363269 -75.42895508 221.70117188 C-75.32905273 220.96060547 -75.22915039 220.22003906 -75.1262207 219.45703125 C-74.88025573 217.6415755 -74.62435133 215.82747116 -74.36645508 214.01367188 C-75.19330811 214.42262695 -75.19330811 214.42262695 -76.03686523 214.83984375 C-89.58621403 221.37570773 -103.17440752 226.4617478 -118.36645508 223.01367188 C-124.7481583 220.57352874 -130.5536826 216.73283059 -134.36645508 211.01367188 C-134.6810567 202.44452287 -132.06955063 195.38771984 -126.36645508 189.01367188 C-124.74305703 187.30483182 -123.07326455 185.63920471 -121.36645508 184.01367188 C-120.52083008 183.18867188 -119.67520508 182.36367187 -118.80395508 181.51367188 C-113.67911643 177.2830108 -106.84028676 175.16180268 -100.60083008 173.09960938 C-98.30393049 172.20857025 -98.30393049 172.20857025 -97.22973633 170.37695312 C-95.22181134 162.90063669 -98.04225216 156.37352135 -101.37524414 149.72314453 C-103.30381382 146.39707435 -105.9989285 143.83281335 -108.66723633 141.10351562 C-111.6496277 137.43551704 -111.97561605 133.6109988 -112.36645508 129.01367188 C-112.47344727 128.0365625 -112.58043945 127.05945313 -112.69067383 126.05273438 C-114.04278492 111.82922812 -113.74985973 98.25629957 -110.80395508 84.26367188 C-110.66006348 83.56510071 -110.51617187 82.86652954 -110.36791992 82.14678955 C-106.56152129 64.23107649 -98.54916463 44.15478406 -84.36645508 32.01367188 C-83.75721191 31.48032227 -83.14796875 30.94697266 -82.52026367 30.39746094 C-58.87038244 10.42221499 -30.84547646 -0.26548592 0 0 Z M53.63354492 46.01367188 C57.22197463 49.70862269 60.96526363 53.06125405 64.94604492 56.32617188 C65.49583008 56.78056641 66.04561523 57.23496094 66.61206055 57.703125 C67.95066708 58.8089304 69.29183723 59.91163127 70.63354492 61.01367188 C70.96354492 60.35367188 71.29354492 59.69367188 71.63354492 59.01367188 C67.08536572 53.12005059 62.55131874 48.94421557 55.63354492 46.01367188 C54.97354492 46.01367188 54.31354492 46.01367188 53.63354492 46.01367188 Z M71.63354492 61.01367188 C72.29354492 62.33367187 72.95354492 63.65367188 73.63354492 65.01367188 C73.63354492 64.02367188 73.63354492 63.03367188 73.63354492 62.01367188 C72.97354492 61.68367188 72.31354492 61.35367188 71.63354492 61.01367188 Z M-58.36645508 65.01367188 C-58.69645508 65.67367187 -59.02645508 66.33367187 -59.36645508 67.01367188 C-58.37645508 66.68367188 -57.38645508 66.35367188 -56.36645508 66.01367188 C-57.02645508 65.68367188 -57.68645508 65.35367188 -58.36645508 65.01367188 Z M74.63354492 65.01367188 C75.29354492 66.33367187 75.95354492 67.65367188 76.63354492 69.01367188 C76.96354492 68.35367188 77.29354492 67.69367188 77.63354492 67.01367188 C77.30354492 66.35367188 76.97354492 65.69367188 76.63354492 65.01367188 C75.97354492 65.01367188 75.31354492 65.01367188 74.63354492 65.01367188 Z M78.63354492 70.01367188 C79.63354492 72.01367188 79.63354492 72.01367188 79.63354492 72.01367188 Z M-77.36645508 134.01367188 C-76.36645508 136.01367188 -76.36645508 136.01367188 -76.36645508 136.01367188 Z M-76.36645508 137.01367188 C-76.03645508 139.32367188 -75.70645508 141.63367188 -75.36645508 144.01367188 C-74.37645508 144.01367188 -73.38645508 144.01367188 -72.36645508 144.01367188 C-73.35645508 141.70367187 -74.34645508 139.39367187 -75.36645508 137.01367188 C-75.69645508 137.01367188 -76.02645508 137.01367188 -76.36645508 137.01367188 Z M-23.36645508 163.01367188 C-21.38645508 164.00367188 -21.38645508 164.00367188 -19.36645508 165.01367188 C-19.03645508 164.35367188 -18.70645508 163.69367188 -18.36645508 163.01367188 C-20.01645508 163.01367188 -21.66645508 163.01367188 -23.36645508 163.01367188 Z " fill="#010101" transform="translate(149.366455078125,21.986328125)"/>
<path d="M0 0 C1.21695557 0.07395996 1.21695557 0.07395996 2.45849609 0.14941406 C24.44504992 1.62107095 36.39266928 10.27958963 51.16796875 26.359375 C55.88284587 31.94062219 57.7515654 35.84987454 59 43 C59.99 43.33 60.98 43.66 62 44 C65.10366831 49.63246294 64.3720317 56.15590613 64.37060547 62.40209961 C64.37499466 64.55987577 64.41139949 66.71562987 64.44921875 68.87304688 C64.45508487 70.24999305 64.45905563 71.62694887 64.4609375 73.00390625 C64.46915527 74.24986572 64.47737305 75.4958252 64.48583984 76.77954102 C63.9070888 80.61587518 62.9106015 81.55398746 60 84 C59.11283948 85.18816427 58.2605323 86.40333891 57.44921875 87.64453125 C57.00223633 88.31806641 56.55525391 88.99160156 56.09472656 89.68554688 C55.6303418 90.38744141 55.16595703 91.08933594 54.6875 91.8125 C46.92212239 103.2085099 39.40754519 109.08827376 27 115 C26.09459473 115.43344727 25.18918945 115.86689453 24.25634766 116.31347656 C21.28727124 117.71646308 18.30373717 119.08245985 15.3125 120.4375 C14.37535156 120.87489502 13.43820313 121.31229004 12.47265625 121.76293945 C5.58835251 124.79825878 -0.50751475 125.8051346 -8 126 C-9.02520752 126.03730225 -10.05041504 126.07460449 -11.10668945 126.11303711 C-31.88836773 126.70496604 -52.15494329 125.51825666 -72 119 C-75.15332766 118.08629068 -78.30933431 117.18846241 -81.4765625 116.32421875 C-86.56755195 114.8154346 -89.50843179 113.17048425 -93 109 C-94.299375 107.6696875 -94.299375 107.6696875 -95.625 106.3125 C-99.00932734 102.2235493 -101 96.31140849 -101 91 C-101.66 91 -102.32 91 -103 91 C-103.58326552 86.47077263 -104.15206555 81.94001325 -104.70898438 77.4074707 C-104.89927545 75.87412694 -105.09313881 74.34122118 -105.29101562 72.80883789 C-109.36331262 41.19659361 -109.36331262 41.19659361 -103.95483398 33.93505859 C-103.51598877 33.44086426 -103.07714355 32.94666992 -102.625 32.4375 C-102.16875244 31.86854004 -101.71250488 31.29958008 -101.24243164 30.71337891 C-97.06350745 25.67622498 -92.32860988 21.77472764 -87 18 C-85.73729578 16.97837919 -84.47847936 15.95194265 -83.22265625 14.921875 C-73.78366048 7.40235361 -66.89189464 4.64338718 -54.97216797 4.19238281 C-51.35589731 3.95830845 -47.78111716 3.50490842 -44.19140625 3.0234375 C-43.4938623 2.93017181 -42.79631836 2.83690613 -42.07763672 2.74081421 C-41.36897461 2.6460379 -40.6603125 2.5512616 -39.93017578 2.45361328 C-26.61615922 0.67395602 -13.44942025 -0.87002719 0 0 Z M-82 26 C-82.33 26.66 -82.66 27.32 -83 28 C-82.01 27.67 -81.02 27.34 -80 27 C-80.66 26.67 -81.32 26.34 -82 26 Z " fill="#F3EEE9" transform="translate(173,61)"/>
<path d="M0 0 C1.5 0.83333333 3 1.66666667 4.5 2.5 C5.5725 2.9125 6.645 3.325 7.75 3.75 C12.41271047 6.71717939 15.05838275 11.61676551 17.5 16.5 C18.81904617 35.15508152 16.35139317 56.63888353 4.25 71.765625 C0.48950195 75.49254717 -3.66309356 77.36490922 -8.9609375 77.6171875 C-11.84986428 77.41765202 -14.64159296 76.96400412 -17.5 76.5 C-18.77746094 76.40332031 -20.05492187 76.30664062 -21.37109375 76.20703125 C-28.51142627 75.51561982 -33.46969163 74.3684212 -38.38867188 68.88574219 C-40.58520783 66.16944978 -42.56903862 63.41585758 -44.5 60.5 C-45.056875 59.68273437 -45.61375 58.86546875 -46.1875 58.0234375 C-50.72424161 49.30101167 -50.7912156 38.07185978 -50.875 28.4375 C-50.88877686 27.55771484 -50.90255371 26.67792969 -50.91674805 25.77148438 C-50.87699944 20.22151946 -49.97220501 16.46318626 -47.5 11.5 C-46.9740625 9.7675 -46.9740625 9.7675 -46.4375 8 C-43.83148252 1.87792719 -36.60503462 -1.62529407 -30.875 -4.4375 C-20.93798123 -7.56582073 -9.09983149 -4.54991575 0 0 Z " fill="#020202" transform="translate(169.5,85.5)"/>
<path d="M0 0 C0.66 0.33 1.32 0.66 2 1 C-0.03938827 3.10137575 -2.16172101 4.97261632 -4.4375 6.8125 C-7.70316657 9.57309526 -9.81921541 12.33628188 -12 16 C-13 14 -13 14 -12.1875 10.8125 C-9.85668017 5.52930839 -4.74151054 2.92674853 0 0 Z " fill="#403F3C" transform="translate(135,83)"/>
<path d="M0 0 C2.475 0.495 2.475 0.495 5 1 C5.33 1.99 5.66 2.98 6 4 C5.67 4.66 5.34 5.32 5 6 C3.68 5.67 2.36 5.34 1 5 C0.67 3.35 0.34 1.7 0 0 Z " fill="#E5E1DC" transform="translate(89,153)"/>
<path d="M0 0 C1.98 0.495 1.98 0.495 4 1 C4 2.32 4 3.64 4 5 C2.35 4.67 0.7 4.34 -1 4 C-0.67 2.68 -0.34 1.36 0 0 Z " fill="#E6E1DC" transform="translate(108,163)"/>
<path d="M0 0 C1 4 1 4 1 8 C-0.32 8.33 -1.64 8.66 -3 9 C-2.01 6.03 -1.02 3.06 0 0 Z " fill="#BAB9B4" transform="translate(180,144)"/>
<path d="M0 0 C1.32 0 2.64 0 4 0 C3.625 1.9375 3.625 1.9375 3 4 C2.01 4.495 2.01 4.495 1 5 C0.67 4.67 0.34 4.34 0 4 C-0.99 4.495 -0.99 4.495 -2 5 C-1.125 1.125 -1.125 1.125 0 0 Z " fill="#E9E1DA" transform="translate(91,85)"/>
</svg>
