<?xml version="1.0" encoding="UTF-8"?>
<svg version="1.1" xmlns="http://www.w3.org/2000/svg" width="336" height="303">
<path d="M0 0 C5.38702305 5.38702305 3.09939283 20.29268184 3.125 27.6875 C3.10952282 35.12523675 2.96867796 42.54294906 2.63287544 49.97302818 C1.90894597 66.14836313 1.90733633 82.29506064 1.98596573 98.48127365 C2.00954515 103.39111822 2.02247538 108.3009595 2.03366089 113.21084595 C2.06669769 127.14696623 2.10918849 141.08302062 2.17138672 155.01904297 C2.20589255 162.77025811 2.22970184 170.52142961 2.24159515 178.2727133 C2.24966655 183.15121382 2.27083282 188.02942197 2.30180001 192.90782809 C2.31779787 195.92795601 2.32121982 198.94800012 2.32102966 201.96816635 C2.32345043 203.36580794 2.33102379 204.76345166 2.34415817 206.16103363 C2.36134676 208.06922576 2.35819054 209.97756872 2.35403442 211.88583374 C2.35809862 212.95230825 2.36216282 214.01878277 2.36635017 215.11757469 C1.94294804 218.44888207 0.97979476 220.30973307 -1 223 C-3.41674805 224.52978516 -3.41674805 224.52978516 -6.26171875 225.7890625 C-7.81729492 226.48902344 -7.81729492 226.48902344 -9.40429688 227.203125 C-10.48775391 227.67234375 -11.57121094 228.1415625 -12.6875 228.625 C-13.75162109 229.10195313 -14.81574219 229.57890625 -15.91210938 230.0703125 C-17.99969327 230.99870064 -20.09457426 231.91087176 -22.19677734 232.80566406 C-23.81932307 233.49696294 -25.43446366 234.20754567 -27.02587891 234.96777344 C-40.818361 241.12013771 -60.91227551 238.31381783 -75.62109375 238.53515625 C-78.32879081 238.57796825 -81.03647228 238.62173638 -83.74415588 238.66539001 C-89.41850897 238.75626105 -95.09290353 238.8440364 -100.76733398 238.92993164 C-106.50274194 239.01678316 -112.23808632 239.1068733 -117.97338867 239.20043945 C-135.475933 239.48558574 -152.97847991 239.74380812 -170.48207855 239.95639801 C-173.81745788 239.99773753 -177.15277376 240.04254783 -180.48809814 240.08807373 C-185.20855282 240.15063874 -189.92884432 240.19659754 -194.64961433 240.22689629 C-196.28255067 240.23938293 -197.91545903 240.25687075 -199.5482769 240.28016853 C-213.51138845 240.4717552 -226.39742524 240.05477506 -237 230 C-238.0505531 229.03868962 -239.10275845 228.07918301 -240.15625 227.12109375 C-242.41965488 225.05430788 -244.66437676 222.96953636 -246.8984375 220.87109375 C-249.42366996 218.50994747 -252.02803339 216.27227498 -254.6875 214.0625 C-258.42646981 210.80369263 -259.6552504 208.2869528 -260.39453125 203.3828125 C-259.81286632 198.39546769 -257.16622256 195.37133775 -254.1875 191.4375 C-253.09624468 189.95807141 -252.00636265 188.47762871 -250.91796875 186.99609375 C-250.40363281 186.30459229 -249.88929688 185.61309082 -249.359375 184.90063477 C-247.87242175 182.88466926 -247.87242175 182.88466926 -246.32421875 180.1171875 C-243.8225129 176.11741001 -239.94206172 174.52104095 -235.4375 173.3125 C-230.18706534 174.79339183 -227.01996993 180.73962498 -224.4375 185.26953125 C-223.61731486 186.77970557 -222.80496433 188.29415795 -222 189.8125 C-221.13523636 191.40425578 -220.26935724 192.99540607 -219.40234375 194.5859375 C-218.99097168 195.34487305 -218.57959961 196.10380859 -218.15576172 196.88574219 C-216.67264688 199.59883354 -215.1365187 202.27619158 -213.5625 204.9375 C-212.91474609 206.03384766 -212.91474609 206.03384766 -212.25390625 207.15234375 C-210.42845578 209.86260144 -210.42845578 209.86260144 -208 212 C-205.50856538 212.34273876 -205.50856538 212.34273876 -203 211 C-201.02112011 208.71607845 -199.56607378 206.17579835 -198.0625 203.5625 C-197.62647461 202.83691895 -197.19044922 202.11133789 -196.74121094 201.36376953 C-194.86865373 198.23797525 -193.04819431 195.0837283 -191.23046875 191.92578125 C-184.49050545 180.31312681 -184.49050545 180.31312681 -178.96484375 178.234375 C-177 178 -177 178 -174.6875 179.8125 C-171.030461 183.87833188 -168.06600684 188.4861566 -165 193 C-164.04795526 194.37965232 -163.09474958 195.75850397 -162.140625 197.13671875 C-161.13525626 198.59103495 -160.13004807 200.04546216 -159.125 201.5 C-158.63628418 202.20680908 -158.14756836 202.91361816 -157.64404297 203.6418457 C-157.18658691 204.30659912 -156.72913086 204.97135254 -156.2578125 205.65625 C-155.8467627 206.25244141 -155.43571289 206.84863281 -155.01220703 207.46289062 C-154 209 -154 209 -153 211 C-149.43850131 211.2769218 -149.43850131 211.2769218 -146.2265625 209.91796875 C-141.05884011 204.33430773 -138.8420371 197.98662204 -136.48486328 190.87963867 C-133.72728227 182.63601917 -129.93005098 176.14018726 -122 172 C-119.4375 172.25 -119.4375 172.25 -117 174 C-115.9275 174.7425 -114.855 175.485 -113.75 176.25 C-108.81957258 180.64798385 -105.67179929 186.44013007 -102.24414062 192.01220703 C-100.0508705 195.51644671 -97.74115575 198.94273788 -95.4375 202.375 C-94.99559326 203.03556396 -94.55368652 203.69612793 -94.09838867 204.37670898 C-93.06672335 205.91856328 -92.03353905 207.45940108 -91 209 C-81.95805734 205.07985492 -78.5901335 195.31282947 -75.13354492 186.76538086 C-73.55635174 182.99613259 -73.55635174 182.99613259 -73 179 C-76.62388217 184.85300556 -79.94346635 190.71227055 -82.82421875 196.96875 C-84 199 -84 199 -87 201 C-89.86328125 201.015625 -89.86328125 201.015625 -93 200 C-94.99027077 197.93513137 -96.54794354 196.06277618 -98.1875 193.75 C-99.13824451 192.47348398 -100.09143732 191.19878837 -101.046875 189.92578125 C-101.53091797 189.27432129 -102.01496094 188.62286133 -102.51367188 187.95166016 C-104.87543151 184.85049286 -107.39857287 181.89405069 -109.9375 178.9375 C-113.02089975 175.33918413 -116.06009617 171.7175118 -119 168 C-124.33881607 168.32356461 -127.51209457 171.21394755 -131 175 C-133.35619949 178.59400083 -135.30639043 182.35788784 -137.25 186.1875 C-138.27137199 188.16257808 -139.29723045 190.13534424 -140.328125 192.10546875 C-140.7705957 192.97324951 -141.21306641 193.84103027 -141.66894531 194.73510742 C-142.9442097 196.90506848 -144.02730014 198.44339169 -146 200 C-148.9140625 200.0234375 -148.9140625 200.0234375 -152 199 C-154.2734375 196.6640625 -154.2734375 196.6640625 -156.375 193.625 C-156.75293701 193.08842773 -157.13087402 192.55185547 -157.52026367 191.99902344 C-158.30386224 190.886271 -159.08110353 189.76901568 -159.85205078 188.64746094 C-161.60503574 186.13169265 -163.46960768 183.7003261 -165.3125 181.25 C-167.69462853 178.02712022 -169.46826203 175.09442225 -170.9375 171.375 C-172.5758141 167.86557574 -172.5758141 167.86557574 -175.23828125 167.2890625 C-177.52491873 167.0259036 -179.7014661 166.92141764 -182 167 C-186.53324636 172.97790729 -189.61154392 179.25939218 -192.46313477 186.15039062 C-197.55543393 198.37311284 -197.55543393 198.37311284 -202.3125 200.4375 C-206.38696739 199.95408861 -206.79293243 199.65557488 -209.375 196.75 C-210.59856069 195.17840427 -211.8057578 193.59398854 -213 192 C-214.41177351 190.28762072 -215.82873343 188.57950831 -217.25 186.875 C-218.83752765 184.92006526 -220.42046615 182.96139917 -222 181 C-222.48678223 180.39687988 -222.97356445 179.79375977 -223.47509766 179.17236328 C-225.01023167 177.26545796 -226.5374316 175.35246145 -228.0625 173.4375 C-228.55202148 172.8295459 -229.04154297 172.2215918 -229.54589844 171.59521484 C-233 167.229992 -233 167.229992 -233 165 C-239.93120029 168.17680013 -243.56851845 172.96033265 -248 179 C-248.55768066 179.75522949 -249.11536133 180.51045898 -249.68994141 181.28857422 C-252.21788073 184.71200504 -254.7449078 188.13586653 -257.25219727 191.57446289 C-257.83670654 192.37489014 -258.42121582 193.17531738 -259.0234375 194 C-259.54856934 194.721875 -260.07370117 195.44375 -260.61474609 196.1875 C-262 198 -262 198 -264 200 C-266.4375 200.3125 -266.4375 200.3125 -269 200 C-277.3780382 193.29811233 -278.5785708 178.77610432 -280.36791992 168.8359375 C-280.81360037 166.36890901 -281.28317267 163.90729375 -281.75585938 161.4453125 C-285.0295281 144.02482408 -285.0295281 144.02482408 -284 138 C-280.85262715 133.42200313 -277.27031173 132.03922792 -272 131 C-268.19172742 130.57616704 -264.38086626 130.37515233 -260.5546875 130.18359375 C-259.46664825 130.12220718 -258.37860901 130.06082062 -257.25759888 129.99757385 C-253.79709901 129.80336482 -250.33614705 129.61977969 -246.875 129.4375 C-243.40682385 129.25011553 -239.93880658 129.06042298 -236.47097778 128.86671448 C-234.31761371 128.74690566 -232.16402944 128.63097574 -230.01022339 128.51939392 C-229.03215729 128.46586258 -228.05409119 128.41233124 -227.04638672 128.35717773 C-226.19035858 128.31213608 -225.33433044 128.26709442 -224.45236206 128.22068787 C-221.89450561 127.99050657 -219.48736844 127.64390641 -217 127 C-215.85317361 125.31690446 -215.85317361 125.31690446 -215.359375 123.109375 C-215.10220703 122.26882568 -214.84503906 121.42827637 -214.58007812 120.56225586 C-214.30615234 119.63421143 -214.03222656 118.70616699 -213.75 117.75 C-210.46656811 107.71253528 -205.90368645 98.94677088 -200.5 89.9375 C-199.96191711 89.03868103 -199.96191711 89.03868103 -199.41296387 88.1217041 C-196.31493159 82.96632679 -193.14936515 77.85356833 -189.97973633 72.74194336 C-185.81244467 66.00694202 -181.77295222 59.21404016 -177.81079102 52.35766602 C-171.35948895 41.19475358 -164.82313998 30.19099687 -157.23974609 19.74853516 C-155.91944815 17.88638985 -154.67026538 15.98776014 -153.42578125 14.07421875 C-145.79931012 2.51763962 -145.79931012 2.51763962 -139.02734375 0.3515625 C-134.26981478 -0.47344252 -131.86059692 0.46001762 -127.8125 3 C-121.9984343 8.29658341 -121.56647745 16.5929013 -121 24 C-120.87040579 28.5227676 -120.88323827 33.04209715 -120.90234375 37.56640625 C-120.90446617 39.47836037 -120.90446617 39.47836037 -120.90663147 41.42893982 C-120.91125493 44.78751567 -120.92021075 48.14602117 -120.93133545 51.50457764 C-120.94163772 54.94380084 -120.94614782 58.38303137 -120.95117188 61.82226562 C-120.96215811 68.54819622 -120.97886397 75.27409405 -121 82 C-116.73161194 82.02491426 -112.46326361 82.04296047 -108.19482422 82.05493164 C-106.74592348 82.05992785 -105.29702769 82.06672709 -103.84814453 82.07543945 C-92.8685341 82.27345881 -92.8685341 82.27345881 -82 81 C-79.56759818 78.56759818 -79.27452378 76.41286856 -78.50561523 73.13574219 C-74.74409335 57.33961333 -66.13833637 46.67503219 -55.53173828 34.7421875 C-52.53552472 31.33431693 -49.64338535 27.83695681 -46.74072266 24.34936523 C-34.36313751 9.61493918 -20.05908273 -4.09369035 0 0 Z M-63 164 C-65.64 167.63 -68.28 171.26 -71 175 C-70.67 175.66 -70.34 176.32 -70 177 C-69.484375 176.649375 -68.96875 176.29875 -68.4375 175.9375 C-64.9492992 174.59588431 -62.57474656 175.07321385 -59 176 C-58.28612045 177.30866276 -57.6248109 178.64654754 -57 180 C-55.42979779 181.8428901 -55.42979779 181.8428901 -53.59375 183.6015625 C-52.93246094 184.25640625 -52.27117187 184.91125 -51.58984375 185.5859375 C-50.90019531 186.25882813 -50.21054688 186.93171875 -49.5 187.625 C-48.81035156 188.305625 -48.12070313 188.98625 -47.41015625 189.6875 C-46.13311529 190.94711545 -44.85403183 192.20466586 -43.57226562 193.45947266 C-42.37476335 194.63280175 -41.1854773 195.8145227 -40 197 C-40 190.65808718 -42.57155736 187.56370029 -46.60546875 182.83203125 C-49.73230138 179.1339013 -52.61539471 175.26862548 -55.49780273 171.37841797 C-57.84356525 168.27765917 -59.81882767 166.38587925 -63 164 Z M-33 204 C-32 206 -32 206 -32 206 Z " fill="#010101" transform="translate(295,30)"/>
<path d="M0 0 C0.66 7.92 1.32 15.84 2 24 C-5.03586785 26.34528928 -12.82078911 24.89633431 -20.0625 24.0625 C-21.2064624 23.93234497 -21.2064624 23.93234497 -22.37353516 23.79956055 C-27.87313761 23.12686239 -27.87313761 23.12686239 -29 22 C-29.12535652 20.39951798 -29.17574787 18.79284072 -29.1875 17.1875 C-29.20167969 16.31480469 -29.21585938 15.44210938 -29.23046875 14.54296875 C-28.98592619 11.84471102 -28.50215754 10.24559821 -27 8 C-24.375 7.25 -24.375 7.25 -22 7 C-22 6.34 -22 5.68 -22 5 C-21.20335937 4.80664062 -20.40671875 4.61328125 -19.5859375 4.4140625 C-12.98919777 2.80148804 -12.98919777 2.80148804 -6.5 0.8125 C-4 0 -4 0 0 0 Z " fill="#EEE9E4" transform="translate(220,150)"/>
<path d="M0 0 C6.70644278 0.01321467 13.26637025 0.04938825 19.90234375 1.1328125 C22.01217031 6.80297137 22.87718323 10.6084021 20.46484375 16.2578125 C18.3940849 19.49528208 16.43742536 20.44104239 12.8203125 21.3125 C3.40404175 23.1328125 3.40404175 23.1328125 -1.09765625 23.1328125 C-1.42765625 18.5128125 -1.75765625 13.8928125 -2.09765625 9.1328125 C-2.75765625 9.1328125 -3.41765625 9.1328125 -4.09765625 9.1328125 C-4.1953125 2.98046875 -4.1953125 2.98046875 -4.09765625 1.1328125 C-3.09765625 0.1328125 -3.09765625 0.1328125 0 0 Z " fill="#ECE8E2" transform="translate(238.09765625,144.8671875)"/>
<path d="M0 0 C0.99 0 1.98 0 3 0 C3 0.66 3 1.32 3 2 C3.53625 2.20625 4.0725 2.4125 4.625 2.625 C10.24372422 5.8779456 13.04077558 9.23773725 14.875 15.375 C15.26940435 16.91181694 15.65128098 18.45217696 16 20 C15.34 20 14.68 20 14 20 C14 20.99 14 21.98 14 23 C7.07 23 0.14 23 -7 23 C-6 17 -6 17 -5 14 C-4.34 14 -3.68 14 -3 14 C-2.814375 12.205625 -2.814375 12.205625 -2.625 10.375 C-2.17674946 6.72403187 -1.29553163 3.45475101 0 0 Z " fill="#E6E2DC" transform="translate(136,150)"/>
<path d="M0 0 C-0.66 3.63 -1.32 7.26 -2 11 C-2.66 11 -3.32 11 -4 11 C-4.33 14.63 -4.66 18.26 -5 22 C-10 21 -10 21 -13 20 C-13 19.34 -13 18.68 -13 18 C-13.5775 17.87625 -14.155 17.7525 -14.75 17.625 C-17.05099641 16.98583433 -18.94109615 16.20694364 -21 15 C-22.61027254 11.77945493 -22.48128098 9.54944721 -22 6 C-15.79366173 -0.70079929 -8.52097545 -0.10144018 0 0 Z " fill="#EEEBE5" transform="translate(122,145)"/>
<path d="M0 0 C0.99 0 1.98 0 3 0 C3 0.66 3 1.32 3 2 C3.598125 2.2475 4.19625 2.495 4.8125 2.75 C7.28647521 4.16370012 8.43370255 5.65055383 10 8 C9.278125 7.773125 8.55625 7.54625 7.8125 7.3125 C4.20947803 6.91216423 2.85220155 7.86084883 0 10 C-0.33 10.66 -0.66 11.32 -1 12 C-1.66 12 -2.32 12 -3 12 C-2.01 8.04 -1.02 4.08 0 0 Z " fill="#D5D2CE" transform="translate(136,150)"/>
<path d="M0 0 C1.32 0 2.64 0 4 0 C4.66 7.92 5.32 15.84 6 24 C4.02 24.33 2.04 24.66 0 25 C0.66 23.02 1.32 21.04 2 19 C2.33 19 2.66 19 3 19 C3 13.06 3 7.12 3 1 C2.01 0.67 1.02 0.34 0 0 Z " fill="#B3B1AD" transform="translate(216,150)"/>
<path d="M0 0 C-0.33 0.99 -0.66 1.98 -1 3 C-1.66386719 2.98839844 -2.32773438 2.97679687 -3.01171875 2.96484375 C-7.51533319 2.91882141 -11.58547421 3.03432248 -16 4 C-16.66 3.67 -17.32 3.34 -18 3 C-11.92122066 -0.24201565 -6.81598387 -0.33278764 0 0 Z " fill="#C3C0BC" transform="translate(122,145)"/>
<path d="M0 0 C0 1.32 0 2.64 0 4 C-3.37462715 3.45276317 -5.08235 2.9451 -8 1 C-5.10765685 0.17361624 -3.11257569 0 0 0 Z " fill="#C9C6C2" transform="translate(117,163)"/>
<path d="M0 0 C2.0625 0.4375 2.0625 0.4375 4 1 C3.01 1.66 2.02 2.32 1 3 C0.63702064 4.97747122 0.63702064 4.97747122 0.8125 7.125 C0.9053125 9.043125 0.9053125 9.043125 1 11 C0.34 11 -0.32 11 -1 11 C-1.02688151 9.35425434 -1.04634123 7.70838587 -1.0625 6.0625 C-1.07410156 5.14597656 -1.08570312 4.22945312 -1.09765625 3.28515625 C-1 1 -1 1 0 0 Z " fill="#2E2E2A" transform="translate(100,148)"/>
</svg>
