<?xml version="1.0" encoding="utf-8"?>
<!-- Svg Vector Icons : http://www.onlinewebfonts.com/icon -->
<!DOCTYPE svg PUBLIC "-//W3C//DTD SVG 1.1//EN" "http://www.w3.org/Graphics/SVG/1.1/DTD/svg11.dtd">
<svg version="1.1" xmlns="http://www.w3.org/2000/svg" xmlns:xlink="http://www.w3.org/1999/xlink" x="0px" y="0px" viewBox="0 0 256 256" enable-background="new 0 0 256 256" xml:space="preserve">
<metadata> Svg Vector Icons : http://www.onlinewebfonts.com/icon </metadata>
<g><g><g><path fill="#000000" d="M116.5,10.5c-40.5,3.9-77,29.4-94.9,66.4C0,121.7,9.1,175.8,44.4,211.2c33.9,34.1,85.4,44.2,129.7,25.4c26.1-11,47.5-31.4,60-56.9c19.3-39.6,14.9-87.2-11.5-122.3C197.8,24.4,157.6,6.6,116.5,10.5z M166.6,57.9c12.5,4,22.3,14.4,25.6,27.3c1.9,7.7,1.3,15.1-2.1,22.3c-1.9,4-3,5.2-43.9,46.1c-45.7,45.8-43.7,44-51.7,45.5c-9.9,1.8-21.7-3.7-27.7-13.1c-3.3-5-4.5-9.8-4.2-16c0.2-4.6,0.4-5.7,2.2-9.3c1.9-3.9,4.2-6.2,42.4-44.3c38.2-38.2,40.5-40.4,43.3-41.2c8.8-2.8,18.3,1.5,22.6,10.1c2.1,4.2,2.2,10.7,0.3,14.5c-0.9,1.8-10.5,11.8-33.4,34.6l-32.1,32.1l-4.3-4.3l-4.3-4.3l31.8-31.8L163,94.3l-0.3-2.2c-0.5-3-3.5-5.7-6.3-5.7c-2,0-3.3,1.2-41,38.9c-31.2,31.2-39.1,39.4-39.9,41.3c-1.1,2.9-0.8,7.9,0.6,10.8c3.9,8.1,13.7,12.1,20.3,8.1c1.4-0.8,19.5-18.6,42.2-41.3c32.1-32.2,39.9-40.3,40.9-42.5c3.6-7.8,1.2-18.4-5.7-25.4c-5.2-5.3-10.9-7.8-17.8-7.8c-8.3-0.1-6.3-1.7-43.9,35.8l-33.4,33.3l-4.3-4.3l-4.3-4.3l32.9-33c18.1-18.1,34-33.8,35.4-34.7c3-2.1,8.1-4.2,11.9-4.9C154.5,55.7,161.8,56.4,166.6,57.9z"/></g></g></g>
</svg>