<?xml version="1.0" encoding="utf-8"?>
<!-- Svg Vector Icons : http://www.onlinewebfonts.com/icon -->
<!DOCTYPE svg PUBLIC "-//W3C//DTD SVG 1.1//EN" "http://www.w3.org/Graphics/SVG/1.1/DTD/svg11.dtd">
<svg version="1.1" xmlns="http://www.w3.org/2000/svg" xmlns:xlink="http://www.w3.org/1999/xlink" x="0px" y="0px" viewBox="0 0 256 256" enable-background="new 0 0 256 256" xml:space="preserve">
<metadata> Svg Vector Icons : http://www.onlinewebfonts.com/icon </metadata>
<g><g><g><path fill="#000000" d="M115.8,10.6C94.1,12.8,71.7,22,54,36c-24.2,19.2-40.5,49.3-43.5,80.6c-3.4,35,9.2,70.2,34,94.9c40.1,39.8,102,45.9,149,14.6c26.3-17.5,44.8-45.6,50.5-76.6c7-38.1-5.2-77.4-32.6-104.8C186.4,19.6,151.2,7,115.8,10.6z M99.8,56.5c7.2,2.4,12.5,7.4,16.3,15.2c1.3,2.8,2.4,5.3,2.4,5.6c0,0.3-1.9,1.6-4.3,2.7c-3.4,1.7-5.4,3.2-9.3,7.2c-4.2,4.2-5.4,5.9-7.6,10.3c-3,6.1-4.3,10.5-4.9,17.4c-1.2,12.7,3,26.4,10.8,35.1c1.4,1.6,2.6,3,2.6,3.2s-2.8,1.7-6.2,3.3c-8,3.8-13.6,7.6-18.2,12.2l-3.5,3.7H60H42.1v-2.8c0-8.4,3.9-18.3,9.5-24.2c4.5-4.7,7.7-6.8,18.6-12.3c8.9-4.5,11.8-6.7,11.8-8.9c0-0.6,0.1-1.3,0.3-1.8c0.2-0.4-0.5-1.2-1.7-1.8c-3.4-1.8-8.9-8.1-11.3-13.1c-3.2-6.4-4.1-11.3-3.8-19.6c0.4-9.9,3.2-17.4,9.2-24.2C80.8,56.7,91.4,53.7,99.8,56.5z M171.8,57c7.1,2.8,13.9,10.6,16.8,19.5c2,6,2.6,15.7,1.2,22.2c-1.8,8.4-7.9,18-14,21.7c-1.8,1.1-1.9,1.3-1.6,3.5c0.2,1.2,0.9,2.8,1.6,3.5c0.7,0.7,5.2,3.3,10.1,5.8c10.9,5.5,14,7.6,18.5,12.3c5.7,6,8.6,13.2,9.4,22.5l0.3,4.4h-17.9h-17.8l-4.8-4.6c-5.2-4.8-10.7-8.4-18.8-12.1l-5-2.3l2.7-3c7.3-8,11.2-18.8,11.2-31.2c0-13.2-4-23.4-12.8-32.2c-3.7-3.7-5.8-5.3-9-6.9c-2.4-1.2-4.3-2.4-4.3-2.8c0-1.4,4.4-9.6,6.8-12.5c3-3.7,7.6-6.9,12-8.3C160.4,55.1,167.6,55.3,171.8,57z M132.5,85.4c7.7,1.7,14.7,7.5,18.7,15.6c3.3,6.6,4.2,10.6,4.2,18.2c0,7.5-1.1,12.4-3.9,18.2c-2.2,4.5-7.8,10.9-10.9,12.6c-1.2,0.7-1.9,1.4-1.7,1.8c0.2,0.4,0.3,1.3,0.3,2.1c0,2.5,2.6,4.5,11.3,8.9c10.6,5.2,14.2,7.6,18.8,12.5c5.7,6,8.9,14.1,9.4,23.6l0.2,3.3H128H77.3l0.2-3.6c0.3-5.5,1.6-10.8,3.7-15.1c4.1-8.5,9.8-13.3,23.4-20.1c5.2-2.6,10.1-5.4,10.9-6.3c0.8-0.8,1.6-2.4,1.8-3.7c0.3-2.1,0.3-2.3-1.7-3.3c-5.4-2.9-11.7-12.1-13.9-20.3c-1.3-4.9-1.4-15.6-0.1-20.5C105.9,92.7,119.1,82.6,132.5,85.4z"/></g></g></g>
</svg>