<?xml version="1.0" encoding="utf-8"?>
<!-- Svg Vector Icons : http://www.onlinewebfonts.com/icon -->
<!DOCTYPE svg PUBLIC "-//W3C//DTD SVG 1.1//EN" "http://www.w3.org/Graphics/SVG/1.1/DTD/svg11.dtd">
<svg version="1.1" xmlns="http://www.w3.org/2000/svg" xmlns:xlink="http://www.w3.org/1999/xlink" x="0px" y="0px" viewBox="0 0 256 256" enable-background="new 0 0 256 256" xml:space="preserve">
<metadata> Svg Vector Icons : http://www.onlinewebfonts.com/icon </metadata>
<g><g><g><path fill="#000000" d="M115.8,10.5C94.1,12.8,71.7,22,54,36c-24.2,19.2-40.5,49.3-43.5,80.6c-3.4,35,9.2,70.2,34,94.9c36.4,36.1,91.2,44.8,136.8,21.7c11.5-5.9,21.1-12.7,30-21.8c46.1-46,46.1-120.8,0-166.9C186.4,19.5,151.2,7,115.8,10.5z M88.7,92.3c1.6,0.8,3.3,3.6,3.3,5.5c0,1.7-1.7,4.4-3.3,5.4c-5.9,3.5-12.5-3.6-8.6-9.3C81.8,91.4,85.7,90.7,88.7,92.3z M174.5,92.3c1.7,1.2,2.9,4.2,2.5,6.3c-0.2,0.9-1.1,2.3-2,3.2l-1.6,1.6h-34.9h-35l-1.6-1.8c-1.3-1.4-1.6-2.3-1.6-4.3c0-2.2,0.3-2.8,1.7-4.2l1.7-1.6h34.8C169.7,91.4,173.4,91.5,174.5,92.3z M88.6,122.2c1.6,0.8,3.4,3.8,3.4,5.5c0,1.9-1.7,4.7-3.3,5.5c-5.5,2.9-11.6-2.1-9.3-7.6C81,121.8,85.1,120.3,88.6,122.2z M174.4,122.8c0.8,0.7,1.9,2.1,2.3,3.2c0.7,1.8,0.6,2.2-0.3,4.1c-2.1,4.2-0.8,4-37.8,4c-35.3,0-35.5,0-37.5-2.8c-0.5-0.7-0.9-2.3-0.9-3.7c0-2.9,1.7-5,4.4-5.7c1.1-0.3,16.9-0.4,35-0.4C172.5,121.6,172.9,121.6,174.4,122.8z M88.7,152.2c3.7,2.2,4.1,7.3,0.9,10.3c-4.8,4.5-12.7-0.9-10.3-6.9C81.1,151.7,85.2,150.2,88.7,152.2z M175,153.7c2.1,1.9,2.6,4.3,1.6,6.7c-1.6,3.9,0.4,3.7-38.2,3.7h-34.9l-1.6-1.6c-1.3-1.3-1.6-2.1-1.6-3.9c0-2.9,0.7-4.2,2.9-5.6c1.7-1.1,2.9-1.1,36-0.9l34.2,0.2L175,153.7z"/></g></g></g>
</svg>