<?xml version="1.0" encoding="utf-8"?>
<!-- Svg Vector Icons : http://www.onlinewebfonts.com/icon -->
<!DOCTYPE svg PUBLIC "-//W3C//DTD SVG 1.1//EN" "http://www.w3.org/Graphics/SVG/1.1/DTD/svg11.dtd">
<svg version="1.1" xmlns="http://www.w3.org/2000/svg" xmlns:xlink="http://www.w3.org/1999/xlink" x="0px" y="0px" viewBox="0 0 256 256" enable-background="new 0 0 256 256" xml:space="preserve">
<metadata> Svg Vector Icons : http://www.onlinewebfonts.com/icon </metadata>
<g><g><g><path fill="#000000" d="M115.8,10.6c-13.1,1.3-27.6,5.5-39.8,11.6C52,34.1,34.1,51.9,22.2,76c-28.7,57.7-5.2,128,52.4,157.2c58.1,29.5,129,6.3,158.5-51.9c23.2-45.5,14.4-100.6-21.8-136.7C186.4,19.6,151.2,7,115.8,10.6z M135.8,62.1c21.8,2.1,41.7,12.1,53.9,27c9.6,11.7,14.2,24.3,14.2,38.9c0,11.5-2.7,21.1-8.5,30.7c-11,18.1-29.9,30.3-53.3,34.4c-7.3,1.3-20.8,1.3-28,0.1c-6.8-1.2-14-3.3-19.8-5.8l-4.6-1.9l-3.2,2.1c-6.9,4.6-16.2,7.4-21.8,6.6c-5.4-0.8-5.3-0.6-2.6-4.1c1.3-1.7,3-4.4,3.8-5.9c1.3-2.6,3.2-9.9,3.2-12.4c0-0.7-1.6-3.2-3.5-5.5C56.5,154.6,52,142.1,52,128c0.1-14.6,4.7-27.2,14.2-38.9C81.8,70.2,109.3,59.5,135.8,62.1z"/></g></g></g>
</svg>