<?xml version="1.0" encoding="utf-8"?>
<!-- Svg Vector Icons : http://www.onlinewebfonts.com/icon -->
<!DOCTYPE svg PUBLIC "-//W3C//DTD SVG 1.1//EN" "http://www.w3.org/Graphics/SVG/1.1/DTD/svg11.dtd">
<svg version="1.1" xmlns="http://www.w3.org/2000/svg" xmlns:xlink="http://www.w3.org/1999/xlink" x="0px" y="0px" viewBox="0 0 256 256" enable-background="new 0 0 256 256" xml:space="preserve">
<metadata> Svg Vector Icons : http://www.onlinewebfonts.com/icon </metadata>
<g><g><g><path fill="#000000" d="M115.8,10.5C94.1,12.8,71.7,22,54,36c-24.2,19.2-40.5,49.3-43.5,80.6c-3.4,35,9.2,70.2,34,94.9c36.4,36.1,91.2,44.8,136.8,21.7c11.5-5.9,21.1-12.7,30-21.8c46.1-46,46.1-120.8,0-166.9C186.4,19.5,151.2,7,115.8,10.5z M150.2,75.1v14.1h15.2h15.2v31.6v31.6h-44.6H91.4v3.9v3.9l35.6,0.1l35.6,0.2l0.2,4.8l0.2,4.9h-35.8H91.4v4.2v4.2h26.3h26.3v8.3v8.3h-28.9h-29l-2.8-1.3c-3.3-1.6-5.4-3.7-6.9-7c-1.1-2.4-1.2-3.3-1.2-58.8c0-55.4,0.1-56.3,1.2-58.8c1.5-3.3,3.5-5.4,6.9-7l2.8-1.3h32h32L150.2,75.1L150.2,75.1z M180.1,82.9c0,0.1-5.4,0.2-11.9,0.2h-11.9V72V60.9l11.9,10.9C174.8,77.7,180.1,82.8,180.1,82.9z M183.9,169.7l0.1,9.3h9.1h9.1v6.4v6.4h-9.1H184v9.1v9.1h-6.4h-6.4l-0.1-9l-0.2-9l-9.3-0.2l-9.3-0.1v-6.4V179l9.3-0.1l9.3-0.2l0.2-9.3l0.1-9.3l6.3,0.2l6.2,0.2L183.9,169.7z"/><path fill="#000000" d="M91.4,102v3.9H128h36.6V102v-3.9H128H91.4V102z"/><path fill="#000000" d="M91.4,120v4.2H128h36.6V120v-4.2H128H91.4V120z"/><path fill="#000000" d="M91.4,138.3v4.2H128h36.6v-4.2v-4.2H128H91.4V138.3z"/></g></g></g>
</svg>