<svg viewBox="0 0 64 64" xmlns="http://www.w3.org/2000/svg">
  <style type="text/css">
    .st0{fill:#C75C5C;}
    .st3{fill:#FFFFFF;}
  </style>
  <circle class="st0" cx="32" cy="32" r="32"/>
  <path class="st3" d="M44.8,41.17l-9.58-9.17l9.58-9.17c1-0.96,1-2.54,0-3.5c-0.96-0.96-2.54-0.96-3.5,0L32,28.5L22.7,19.33
    c-0.96-0.96-2.54-0.96-3.5,0c-0.96,0.96-0.96,2.54,0,3.5l9.58,9.17l-9.58,9.17c-0.96,0.96-0.96,2.54,0,3.5
    c0.48,0.48,1.12,0.72,1.75,0.72s1.27-0.24,1.75-0.72L32,35.5l9.3,9.17c0.48,0.48,1.12,0.72,1.75,0.72s1.27-0.24,1.75-0.72
    C45.76,43.71,45.76,42.13,44.8,41.17z"/>
</svg>
