<?xml version="1.0" encoding="utf-8"?>
<!-- Svg Vector Icons : http://www.onlinewebfonts.com/icon -->
<!DOCTYPE svg PUBLIC "-//W3C//DTD SVG 1.1//EN" "http://www.w3.org/Graphics/SVG/1.1/DTD/svg11.dtd">
<svg version="1.1" xmlns="http://www.w3.org/2000/svg" xmlns:xlink="http://www.w3.org/1999/xlink" x="0px" y="0px" viewBox="0 0 256 256" enable-background="new 0 0 256 256" xml:space="preserve">
<metadata> Svg Vector Icons : http://www.onlinewebfonts.com/icon </metadata>
<g><g><g><path fill="#000000" d="M113.9,10.8c-45.2,5.5-83.5,36.7-97.8,79.9c-18.5,55.6,6.3,116,58.5,142.5c33.7,17.1,73,17.1,106.7,0c22.7-11.5,40.3-29.1,51.8-51.8c27.3-53.7,9.9-118.9-40.6-152.2c-10.7-7-26.3-13.6-39-16.5C141.4,10,126.2,9.3,113.9,10.8z M138.8,68.4c4.9,1.3,11.7,4.8,15.5,7.9c9.3,7.5,14.1,18,14.3,30.9c0.2,12.5-3.4,19.9-15.7,32.7c-6.4,6.7-8,8.7-8.6,11l-0.4,1.5h-16.8h-16.8l-1.4-2.9c-0.9-1.8-4.2-5.8-8.8-10.8c-9.5-10-12.9-15.6-14.4-23.8c-0.8-4.1-0.3-14.4,0.9-18.7c3.9-14.4,15.2-24.6,31.3-28.3C122.1,66.8,134.4,67.2,138.8,68.4z M145,165.3c-0.4,4.1-2.3,7.9-5.7,11.3c-7.9,7.9-20.7,6.6-27.1-2.8c-1.9-2.8-3.7-7.6-3.7-10.1v-1.3h18.3h18.4L145,165.3z"/></g></g></g>
</svg>