<?xml version="1.0" encoding="utf-8"?>
<!-- Svg Vector Icons : http://www.onlinewebfonts.com/icon -->
<!DOCTYPE svg PUBLIC "-//W3C//DTD SVG 1.1//EN" "http://www.w3.org/Graphics/SVG/1.1/DTD/svg11.dtd">
<svg version="1.1" xmlns="http://www.w3.org/2000/svg" xmlns:xlink="http://www.w3.org/1999/xlink" x="0px" y="0px" viewBox="0 0 256 256" enable-background="new 0 0 256 256" xml:space="preserve">
<metadata> Svg Vector Icons : http://www.onlinewebfonts.com/icon </metadata>
<g><g><g><path fill="#000000" d="M115.8,10.6c-13.1,1.3-27.6,5.5-39.8,11.6C52,34.1,34.1,51.9,22.2,76c-28.7,57.7-5.2,128,52.4,157.2c58.1,29.5,129,6.3,158.5-51.9c23.2-45.5,14.4-100.6-21.8-136.7C186.4,19.6,151.2,7,115.8,10.6z M129.6,71.3c16.2,3.3,29.9,15.5,35.4,31.4c3.9,11.6,3,25.7-2.5,36.7l-2.1,4.1l13.8,13.8c7.6,7.5,14.3,14.7,14.9,15.8c4,7.6-3.9,16.2-12.1,13.1c-0.8-0.3-7.9-6.9-15.8-14.7L147,157.2l-3.3,1.9c-14.3,8.6-32.8,8.7-47.8,0.3c-5.7-3.2-14-11.4-17.4-17.3c-4.1-7-6-13.6-6.3-21.9c-0.4-11.1,1.8-19.5,7.7-28.5c6.6-10.1,17.8-17.9,29.6-20.4C114.7,70.2,124.2,70.2,129.6,71.3z"/><path fill="#000000" d="M111.4,86.8c-11,2.9-20.1,12.1-23,23.2c-1.1,4.2-1.1,11.9,0,16c4.3,16.5,21.3,27,38.1,23.6c11.5-2.4,21.8-12.4,24.5-23.8c4-17.2-6.3-34.6-23.3-39C123.6,85.7,115.5,85.7,111.4,86.8z"/></g></g></g>
</svg>