<?xml version="1.0" encoding="utf-8"?>
<!-- Svg Vector Icons : http://www.onlinewebfonts.com/icon -->
<!DOCTYPE svg PUBLIC "-//W3C//DTD SVG 1.1//EN" "http://www.w3.org/Graphics/SVG/1.1/DTD/svg11.dtd">
<svg version="1.1" xmlns="http://www.w3.org/2000/svg" xmlns:xlink="http://www.w3.org/1999/xlink" x="0px" y="0px" viewBox="0 0 256 256" enable-background="new 0 0 256 256" xml:space="preserve">
<metadata> Svg Vector Icons : http://www.onlinewebfonts.com/icon </metadata>
<g><g><g><path fill="#000000" d="M116.1,10.6c-39.7,4-75.2,28.4-93.3,64.1c-20.9,41.3-15.9,90.5,13,127.2c1.7,2.2,5.9,6.7,9.3,10c34.4,34.1,86.1,43.6,130.6,24.1c25.2-11,45.7-30.9,58.1-56c22.3-45.5,13.4-99.5-22.5-135.3C186.3,19.5,151.2,7,116.1,10.6z M171.8,69.6c2.3,1,4.7,3,10.3,8.6c8.6,8.8,9.9,10.9,9.9,17c0,7-0.4,7.5-19.3,26.4c-15.5,15.6-16.9,16.8-20,18c-5.8,2.1-13.6,0.6-17.1-3.3c-1.3-1.4-1.9-1.4-3.4,0l-1.2,1.2l1.9,2.5c2.9,3.9,3.7,6,3.8,10.7c0.1,6.9-0.3,7.4-19,26.2c-18.7,18.8-19,19-26.4,19c-6.3,0-8.3-1.2-17.3-10.4c-8.6-8.7-9.9-10.8-9.8-16.8c0-6.9,0.4-7.4,19.2-26.2c18.6-18.6,19.3-19.1,25.9-19.1c4-0.1,7.8,1.3,11.1,4l2,1.6l1.5-1.6l1.4-1.5l-1.4-1.3c-0.8-0.7-2.1-2.7-2.9-4.4c-1.2-2.5-1.5-3.9-1.5-7c0.1-6.9,0.4-7.4,19.3-26.2c9.2-9.1,17.6-17.1,18.6-17.6C161.7,67.3,166.7,67.3,171.8,69.6z"/><path fill="#000000" d="M146.9,96c-15.4,15.4-15.7,15.8-15.4,17.6c0.2,1,0.8,2.3,1.3,2.8c0.9,1,1.1,0.9,5.3-3.3l4.3-4.3l4.3,4.3l4.3,4.3l-4.4,4.4l-4.3,4.3l1.5,1.2c3.2,2.4,3.2,2.4,20.3-14.8c12-12,16-16.2,16-17.2c0-0.9-1.9-3.3-6.8-8.2c-6.2-6.2-6.9-6.8-8.8-6.8C162.7,80.3,161.6,81.3,146.9,96z"/><path fill="#000000" d="M91.7,151.2c-14.5,14.5-15.5,15.6-15.5,17.5c0,1.8,0.6,2.6,6.4,8.4c6.4,6.4,7.7,7.3,10,6.6c1.4-0.4,27.9-26.4,30.4-29.9c1.9-2.7,2-3.7,0.3-5.7l-1.4-1.6l-2.8,2.8l-2.8,2.8l-4.3-4.3l-4.3-4.3l2.8-2.8c2.7-2.7,2.7-2.8,1.7-3.9c-0.7-0.7-1.7-1.1-3-1.1C107.3,135.7,106.3,136.6,91.7,151.2z"/></g></g></g>
</svg>