<?xml version="1.0" encoding="utf-8"?>
<!-- Svg Vector Icons : http://www.onlinewebfonts.com/icon -->
<!DOCTYPE svg PUBLIC "-//W3C//DTD SVG 1.1//EN" "http://www.w3.org/Graphics/SVG/1.1/DTD/svg11.dtd">
<svg version="1.1" xmlns="http://www.w3.org/2000/svg" xmlns:xlink="http://www.w3.org/1999/xlink" x="0px" y="0px" viewBox="0 0 256 256" enable-background="new 0 0 256 256" xml:space="preserve">
<metadata> Svg Vector Icons : http://www.onlinewebfonts.com/icon </metadata>
<g><g><g><path fill="#000000" d="M115.8,10.6c-13.1,1.3-27.6,5.5-39.8,11.6C52,34.1,34.1,51.9,22.2,76c-28.7,57.7-5.2,128,52.4,157.2c58.1,29.5,129,6.3,158.5-51.9c23.2-45.5,14.4-100.6-21.8-136.7C186.4,19.6,151.2,7,115.8,10.6z M135.9,64c18.1,3.2,33.4,16,39.2,33.1c7.9,23.2-1.7,49.2-28.6,76.8c-8.1,8.3-17.4,16.7-18.6,16.7c-1.1,0-10.4-8.3-18.3-16.4c-15.9-16.3-25.2-30.9-29.8-46.8c-1.9-6.6-2.3-16.8-1.1-23.3c2-9.8,6.3-18,13-25.1C103.6,66.9,120,61.2,135.9,64z"/><path fill="#000000" d="M122.6,84c-7.5,1.7-14.2,7.1-17.7,14.4c-3.8,7.8-3.2,17.5,1.4,24.5c5.5,8.4,14.1,12.9,23.9,12.1c15.6-1.1,26.8-15.7,23.6-30.8c-2.2-10.4-10.5-18.7-20.8-20.6C129.2,83,126.9,83,122.6,84z"/></g></g></g>
</svg>