<?xml version="1.0" encoding="utf-8"?>
<!-- Svg Vector Icons : http://www.onlinewebfonts.com/icon -->
<!DOCTYPE svg PUBLIC "-//W3C//DTD SVG 1.1//EN" "http://www.w3.org/Graphics/SVG/1.1/DTD/svg11.dtd">
<svg version="1.1" xmlns="http://www.w3.org/2000/svg" xmlns:xlink="http://www.w3.org/1999/xlink" x="0px" y="0px" viewBox="0 0 256 256" enable-background="new 0 0 256 256" xml:space="preserve">
<metadata> Svg Vector Icons : http://www.onlinewebfonts.com/icon </metadata>
<g><g><g><path fill="#000000" d="M113.9,10.8c-45.2,5.5-83.5,36.7-97.8,79.9c-18.5,55.6,6.3,116,58.5,142.5c58.1,29.5,129,6.3,158.6-51.9c27.3-53.6,9.9-118.8-40.6-152.1c-10.7-7-26.3-13.6-39-16.5C141.4,10,126.2,9.3,113.9,10.8z M107.9,83.1c3.5,1.2,8.4,4.2,11.7,7.1l1.9,1.7l-8.6,19.8c-4.7,11-8.8,20.6-8.9,21.3c-0.4,1.9,0.9,4.6,2.9,5.9c1.3,0.9,3.3,1.1,14.4,1.3l12.9,0.3l-7.6,17.6c-4.2,9.7-7.8,17.8-8,18c-0.7,0.7-28.2-23.2-39-33.9c-7.9-7.9-10.4-11.5-12.7-18.2c-6-17.8,3.5-36.1,21.6-41.5C93.1,81,103,81.4,107.9,83.1z M167,82.3c7.6,1.9,15.8,8,19.5,14.3c7,12,5.9,26.3-2.8,37.9c-4.4,5.9-20.8,20.9-43.1,39.5c-5.5,4.7-10.5,8.8-11.1,9.3c-1.2,1.1-2.4,4.1,10.4-25.5c5.4-12.4,9.8-23.2,9.8-23.9c0-2.1-1.1-4.1-2.7-5.2c-1.3-0.9-3.1-1-14.3-1.2c-7.1-0.1-12.9-0.3-12.9-0.6c0-0.4,14.5-33.8,15.3-35.1c1.7-2.9,10-8.1,15.5-9.6C154.3,81.2,162.8,81.3,167,82.3z"/></g></g></g>
</svg>