<?xml version="1.0" encoding="UTF-8"?>
<svg version="1.1" xmlns="http://www.w3.org/2000/svg" width="278" height="246">
<path d="M0 0 C3.18530827 1.49026923 5.48582246 3.5657963 8 6 C9.11181641 7.04994141 9.11181641 7.04994141 10.24609375 8.12109375 C12.55310422 10.36585773 14.78545296 12.66421863 17 15 C17.56203125 15.58007812 18.1240625 16.16015625 18.703125 16.7578125 C24.6238708 23.16716354 29.40813499 30.51424604 34.37548828 37.6640625 C37.11150716 41.59827179 39.86733531 45.51844796 42.625 49.4375 C43.38816528 50.52889282 43.38816528 50.52889282 44.16674805 51.64233398 C44.64023682 52.31594971 45.11372559 52.98956543 45.6015625 53.68359375 C46.01744629 54.27712646 46.43333008 54.87065918 46.86181641 55.48217773 C48.0592302 57.15356206 48.0592302 57.15356206 50 59 C53.85215678 59.19587238 57.2234599 59.12815102 61.02978516 58.5 C65.64435342 57.83345167 70.23156758 57.83786057 74.88671875 57.83203125 C75.82498001 57.82870285 76.76324127 57.82537445 77.72993469 57.82194519 C79.70919305 57.81690138 81.68845984 57.81453607 83.66772461 57.81469727 C86.66079109 57.81251943 89.65348337 57.79436018 92.64648438 57.77539062 C101.51785756 57.75031783 110.11495186 57.72920224 118.8359375 59.59350586 C122.34149775 60.25198485 123.99995744 59.95351608 127 58 C129.60923196 54.83952185 131.80013877 51.45344069 134 48 C141.98637509 35.62617328 152.56103188 23.95404666 164.125 14.8125 C164.97320312 14.13832031 165.82140625 13.46414062 166.6953125 12.76953125 C170.59808149 9.77299845 172.96889944 8.47201702 178.0078125 8.62890625 C181.54041687 9.2869404 182.90009135 11.2001218 185 14 C188.17950967 19.20492192 189.60184136 23.59692812 189.375 29.75 C189.36210937 30.52150391 189.34921875 31.29300781 189.3359375 32.08789062 C189.0800474 42.79529187 188.37258527 53.50525953 187.71240234 64.19433594 C187.27175575 71.41099582 186.87977139 78.58344832 187.0625 85.81835938 C186.99934846 88.02274283 186.61758061 89.88912877 186 92 C187.155 92.04125 188.31 92.0825 189.5 92.125 C194.84431379 92.78595754 198.00768349 95.59333323 202 99 C202.58265625 99.43957031 203.1653125 99.87914063 203.765625 100.33203125 C207.1053154 102.88543532 208.99734833 104.88912817 210 109 C210.40684624 112.80956022 210.31057331 114.51823923 208.20703125 117.78125 C207.41683594 118.6784375 206.62664062 119.575625 205.8125 120.5 C204.58660156 121.91732422 204.58660156 121.91732422 203.3359375 123.36328125 C202.56507813 124.23339844 201.79421875 125.10351562 201 126 C199.97412418 127.22496131 198.95199658 128.45309809 197.9375 129.6875 C197.298125 130.450625 196.65875 131.21375 196 132 C197.13364246 134.88563534 197.94678032 135.96365486 200.5625 137.75 C203.35782485 140.33029987 203.89021375 142.13120205 204.13671875 145.90625 C203.86063033 150.1343469 202.39852234 153.65741855 199.33984375 156.59375 C196.23334121 158.46076321 193.29908246 158.99740063 189.75 159.6875 C187.85507812 160.06455078 187.85507812 160.06455078 185.921875 160.44921875 C184.47554688 160.72185547 184.47554688 160.72185547 183 161 C183.02094727 161.77190674 183.04189453 162.54381348 183.06347656 163.33911133 C183.14652672 166.83010885 183.19862594 170.3208988 183.25 173.8125 C183.28351563 175.02744141 183.31703125 176.24238281 183.3515625 177.49414062 C183.36445313 178.65751953 183.37734375 179.82089844 183.390625 181.01953125 C183.41157227 182.09307861 183.43251953 183.16662598 183.45410156 184.27270508 C183 187 183 187 181.19677734 188.828125 C178.05160684 190.50592211 174.86753189 190.83413028 171.375 191.1875 C170.66077881 191.26572998 169.94655762 191.34395996 169.21069336 191.42456055 C154.79170506 192.91910246 154.79170506 192.91910246 148.94140625 190.21484375 C142.72073238 188.0588475 138.09698258 190.64977614 132.375 193.25 C130.38573813 194.11612565 128.39360534 194.97569218 126.3984375 195.828125 C125.52880371 196.2190332 124.65916992 196.60994141 123.76318359 197.01269531 C95.28915992 207.18666172 50.9563743 201.89259284 24.0625 189.375 C20.16129618 187.46334384 16.72543216 185.65866071 13.49609375 182.7265625 C9.16696822 179.73208131 4.96632585 180.67880862 0.03466797 181.484375 C-3.34050233 182.11579646 -6.70136578 182.79778675 -10.0625 183.5 C-23.79839767 186.36003497 -23.79839767 186.36003497 -30 186 C-31.69283493 183.06266462 -32.22729354 181.11814155 -32.01171875 177.7421875 C-31.96466797 176.95199219 -31.91761719 176.16179687 -31.86914062 175.34765625 C-31.80919922 174.53167969 -31.74925781 173.71570313 -31.6875 172.875 C-31.63916016 172.05128906 -31.59082031 171.22757813 -31.54101562 170.37890625 C-31.14773261 164.29546523 -31.14773261 164.29546523 -30 162 C-30.92941406 161.89042969 -31.85882812 161.78085938 -32.81640625 161.66796875 C-48.83096633 159.61396365 -48.83096633 159.61396365 -53.4375 154.0625 C-56.19720592 148.42362038 -56.04341918 141.64270603 -54.33984375 135.6953125 C-51.53846561 129.46194297 -46.62093722 124.74729148 -41 121 C-39.94900611 118.01422191 -39.70724502 115.14578528 -40 112 C-41.00564741 110.24421743 -41.00564741 110.24421743 -42.4375 108.8125 C-45 106 -45 106 -45.75 103.0625 C-44.56139649 98.20903568 -42.14652209 95.72413167 -38 93 C-34.15158364 91.32124531 -30.15842991 90.11892192 -26.1328125 88.9453125 C-23.15999443 88.3175577 -23.15999443 88.3175577 -22 87 C-21.88283196 85.58791737 -21.83276442 84.1701791 -21.81054688 82.75341797 C-21.78547058 81.39336136 -21.78547058 81.39336136 -21.7598877 80.00582886 C-21.74631226 79.01132721 -21.73273682 78.01682556 -21.71875 76.9921875 C-21.70034058 75.96054474 -21.68193115 74.92890198 -21.66296387 73.86599731 C-21.60402709 70.53572509 -21.55151088 67.20539477 -21.5 63.875 C-21.36175071 55.24927769 -21.20161229 46.62448918 -21 38 C-20.97647461 36.932052 -20.95294922 35.864104 -20.92871094 34.76379395 C-20.85372396 31.65693622 -20.7582678 28.55138788 -20.65625 25.4453125 C-20.63566528 24.52378387 -20.61508057 23.60225525 -20.59387207 22.65280151 C-20.28769263 14.51009614 -18.84239887 7.03086335 -13 1 C-8.98288992 -1.00855504 -4.35739311 -0.60387785 0 0 Z " fill="#F4EFE9" transform="translate(59,25)"/>
<path d="M0 0 C3.18530827 1.49026923 5.48582246 3.5657963 8 6 C9.11181641 7.04994141 9.11181641 7.04994141 10.24609375 8.12109375 C12.55310422 10.36585773 14.78545296 12.66421863 17 15 C17.56203125 15.58007812 18.1240625 16.16015625 18.703125 16.7578125 C24.6238708 23.16716354 29.40813499 30.51424604 34.37548828 37.6640625 C37.11150716 41.59827179 39.86733531 45.51844796 42.625 49.4375 C43.38816528 50.52889282 43.38816528 50.52889282 44.16674805 51.64233398 C44.64023682 52.31594971 45.11372559 52.98956543 45.6015625 53.68359375 C46.01744629 54.27712646 46.43333008 54.87065918 46.86181641 55.48217773 C48.0592302 57.15356206 48.0592302 57.15356206 50 59 C53.85215678 59.19587238 57.2234599 59.12815102 61.02978516 58.5 C65.64435342 57.83345167 70.23156758 57.83786057 74.88671875 57.83203125 C75.82498001 57.82870285 76.76324127 57.82537445 77.72993469 57.82194519 C79.70919305 57.81690138 81.68845984 57.81453607 83.66772461 57.81469727 C86.66079109 57.81251943 89.65348337 57.79436018 92.64648438 57.77539062 C101.51785756 57.75031783 110.11495186 57.72920224 118.8359375 59.59350586 C122.34149775 60.25198485 123.99995744 59.95351608 127 58 C129.60923196 54.83952185 131.80013877 51.45344069 134 48 C141.98637509 35.62617328 152.56103188 23.95404666 164.125 14.8125 C164.97320312 14.13832031 165.82140625 13.46414062 166.6953125 12.76953125 C170.59808149 9.77299845 172.96889944 8.47201702 178.0078125 8.62890625 C181.54041687 9.2869404 182.90009135 11.2001218 185 14 C188.17950967 19.20492192 189.60184136 23.59692812 189.375 29.75 C189.36210937 30.52150391 189.34921875 31.29300781 189.3359375 32.08789062 C189.0800474 42.79529187 188.37258527 53.50525953 187.71240234 64.19433594 C187.27175575 71.41099582 186.87977139 78.58344832 187.0625 85.81835938 C186.99934846 88.02274283 186.61758061 89.88912877 186 92 C187.155 92.04125 188.31 92.0825 189.5 92.125 C194.84431379 92.78595754 198.00768349 95.59333323 202 99 C202.58265625 99.43957031 203.1653125 99.87914063 203.765625 100.33203125 C207.1053154 102.88543532 208.99734833 104.88912817 210 109 C210.40684624 112.80956022 210.31057331 114.51823923 208.20703125 117.78125 C207.41683594 118.6784375 206.62664062 119.575625 205.8125 120.5 C204.58660156 121.91732422 204.58660156 121.91732422 203.3359375 123.36328125 C202.56507813 124.23339844 201.79421875 125.10351562 201 126 C199.97412418 127.22496131 198.95199658 128.45309809 197.9375 129.6875 C197.298125 130.450625 196.65875 131.21375 196 132 C197.13364246 134.88563534 197.94678032 135.96365486 200.5625 137.75 C203.35782485 140.33029987 203.89021375 142.13120205 204.13671875 145.90625 C203.86063033 150.1343469 202.39852234 153.65741855 199.33984375 156.59375 C196.23334121 158.46076321 193.29908246 158.99740063 189.75 159.6875 C187.85507812 160.06455078 187.85507812 160.06455078 185.921875 160.44921875 C184.47554688 160.72185547 184.47554688 160.72185547 183 161 C183.02094727 161.77190674 183.04189453 162.54381348 183.06347656 163.33911133 C183.14652672 166.83010885 183.19862594 170.3208988 183.25 173.8125 C183.28351563 175.02744141 183.31703125 176.24238281 183.3515625 177.49414062 C183.36445313 178.65751953 183.37734375 179.82089844 183.390625 181.01953125 C183.41157227 182.09307861 183.43251953 183.16662598 183.45410156 184.27270508 C183 187 183 187 181.19677734 188.828125 C178.05160684 190.50592211 174.86753189 190.83413028 171.375 191.1875 C170.66077881 191.26572998 169.94655762 191.34395996 169.21069336 191.42456055 C154.79170506 192.91910246 154.79170506 192.91910246 148.94140625 190.21484375 C142.72073238 188.0588475 138.09698258 190.64977614 132.375 193.25 C130.38573813 194.11612565 128.39360534 194.97569218 126.3984375 195.828125 C125.52880371 196.2190332 124.65916992 196.60994141 123.76318359 197.01269531 C95.28915992 207.18666172 50.9563743 201.89259284 24.0625 189.375 C20.16129618 187.46334384 16.72543216 185.65866071 13.49609375 182.7265625 C9.16696822 179.73208131 4.96632585 180.67880862 0.03466797 181.484375 C-3.34050233 182.11579646 -6.70136578 182.79778675 -10.0625 183.5 C-23.79839767 186.36003497 -23.79839767 186.36003497 -30 186 C-31.69283493 183.06266462 -32.22729354 181.11814155 -32.01171875 177.7421875 C-31.96466797 176.95199219 -31.91761719 176.16179687 -31.86914062 175.34765625 C-31.80919922 174.53167969 -31.74925781 173.71570313 -31.6875 172.875 C-31.63916016 172.05128906 -31.59082031 171.22757813 -31.54101562 170.37890625 C-31.14773261 164.29546523 -31.14773261 164.29546523 -30 162 C-30.92941406 161.89042969 -31.85882812 161.78085938 -32.81640625 161.66796875 C-48.83096633 159.61396365 -48.83096633 159.61396365 -53.4375 154.0625 C-56.19720592 148.42362038 -56.04341918 141.64270603 -54.33984375 135.6953125 C-51.53846561 129.46194297 -46.62093722 124.74729148 -41 121 C-39.94900611 118.01422191 -39.70724502 115.14578528 -40 112 C-41.00564741 110.24421743 -41.00564741 110.24421743 -42.4375 108.8125 C-45 106 -45 106 -45.75 103.0625 C-44.56139649 98.20903568 -42.14652209 95.72413167 -38 93 C-34.15158364 91.32124531 -30.15842991 90.11892192 -26.1328125 88.9453125 C-23.15999443 88.3175577 -23.15999443 88.3175577 -22 87 C-21.88283196 85.58791737 -21.83276442 84.1701791 -21.81054688 82.75341797 C-21.78547058 81.39336136 -21.78547058 81.39336136 -21.7598877 80.00582886 C-21.74631226 79.01132721 -21.73273682 78.01682556 -21.71875 76.9921875 C-21.70034058 75.96054474 -21.68193115 74.92890198 -21.66296387 73.86599731 C-21.60402709 70.53572509 -21.55151088 67.20539477 -21.5 63.875 C-21.36175071 55.24927769 -21.20161229 46.62448918 -21 38 C-20.97647461 36.932052 -20.95294922 35.864104 -20.92871094 34.76379395 C-20.85372396 31.65693622 -20.7582678 28.55138788 -20.65625 25.4453125 C-20.63566528 24.52378387 -20.61508057 23.60225525 -20.59387207 22.65280151 C-20.28769263 14.51009614 -18.84239887 7.03086335 -13 1 C-8.98288992 -1.00855504 -4.35739311 -0.60387785 0 0 Z M-10.65332031 11.09521484 C-12.25940082 14.559527 -12.54262558 17.58530903 -12.65234375 21.3359375 C-12.68464584 22.09860931 -12.71694794 22.86128113 -12.75022888 23.64706421 C-13.23249117 36.26118736 -13.35411075 48.89167874 -13.53222656 61.51324463 C-13.58327203 65.07397456 -13.63851578 68.6346394 -13.69335938 72.1953125 C-13.79957854 79.13015156 -13.90130124 86.06504992 -14 93 C-17.64731707 94.85877713 -21.04501822 96.43519721 -25 97.5 C-28.92384886 98.62025292 -32.41313232 100.01778365 -36 102 C-35.00188842 104.22655661 -34.29399424 105.76254312 -32.375 107.3125 C-30.07594879 110.13406285 -30.66230845 112.45423873 -31 116 C-31.90865587 122.64184171 -33.76092531 126.28475086 -39.0625 130.5 C-40.70232938 131.67509066 -42.34715327 132.8432908 -44 134 C-46.31443714 135.88093282 -46.31443714 135.88093282 -46.23046875 138.96875 C-46.21628906 140.1340625 -46.20210937 141.299375 -46.1875 142.5 C-46.18105469 143.6653125 -46.17460938 144.830625 -46.16796875 146.03125 C-46.20057939 148.92882002 -46.20057939 148.92882002 -45 151 C-42.78099288 151.75180669 -42.78099288 151.75180669 -40.08984375 152.2890625 C-39.10048828 152.50820312 -38.11113281 152.72734375 -37.09179688 152.953125 C-36.05087891 153.17484375 -35.00996094 153.3965625 -33.9375 153.625 C-32.89271484 153.85445312 -31.84792969 154.08390625 -30.77148438 154.3203125 C-28.18262742 154.8877332 -25.59151117 155.44482753 -23 156 C-22.67 162.93 -22.34 169.86 -22 177 C-14.9555343 176.07496915 -8.08290084 175.09477491 -1.1875 173.375 C9.68970538 170.84050554 9.68970538 170.84050554 14 172 C15.66015625 173.2890625 15.66015625 173.2890625 17.375 175 C21.38833155 178.91022224 25.6653307 180.99602936 30.75 183.1875 C31.45688965 183.50783203 32.1637793 183.82816406 32.89208984 184.15820312 C49.79840451 191.18288731 67.61044691 191.56459789 85.625 191.3125 C87.76170994 191.3009669 89.89843013 191.29119424 92.03515625 191.28320312 C94.0989691 191.26979473 96.16277281 191.25487613 98.2265625 191.23828125 C99.6299437 191.22720085 99.6299437 191.22720085 101.06167603 191.21589661 C113.08181253 191.18617136 113.08181253 191.18617136 124.5078125 187.93359375 C125.89419922 187.3293457 125.89419922 187.3293457 127.30859375 186.71289062 C129.19414888 185.85902967 131.07956444 185.00486041 132.96484375 184.15039062 C138.6307683 181.68194937 142.80452957 180.33396958 149 181 C149.886875 181.515625 150.77375 182.03125 151.6875 182.5625 C158.52084349 185.52791321 166.84595284 183.24980342 174 182 C174.01458252 181.29391602 174.02916504 180.58783203 174.04418945 179.86035156 C174.11873167 176.65635326 174.21537205 173.45338984 174.3125 170.25 C174.34633789 168.58324219 174.34633789 168.58324219 174.38085938 166.8828125 C174.41630859 165.81289062 174.45175781 164.74296875 174.48828125 163.640625 C174.51446533 162.65610352 174.54064941 161.67158203 174.56762695 160.65722656 C175.0691885 157.57478956 175.80571146 156.20426258 178 154 C179.90112305 153.17871094 179.90112305 153.17871094 182.01171875 152.734375 C182.76904297 152.56679687 183.52636719 152.39921875 184.30664062 152.2265625 C185.09232422 152.06929687 185.87800781 151.91203125 186.6875 151.75 C187.88342773 151.49089844 187.88342773 151.49089844 189.10351562 151.2265625 C191.06600361 150.8035112 193.03265366 150.39984985 195 150 C195.41813721 147.17111357 195.41813721 147.17111357 195 144 C192.83425105 141.729282 192.83425105 141.729282 190 139.9375 C185.17754355 136.66224833 185.17754355 136.66224833 184.36328125 133.625 C185.27101759 129.88267593 187.54534461 127.71143884 190.1875 125.0625 C192.13312756 123.04933396 194.06909632 121.02728605 196 119 C196.49967285 118.49194824 196.9993457 117.98389648 197.51416016 117.46044922 C199.72656304 115.06744202 200.98719417 113.66984329 201.05078125 110.34375 C197.33499346 102.05574748 186.49700577 99.12375241 179 96 C178.67 83.79 178.34 71.58 178 59 C178.66 59 179.32 59 180 59 C180.53327381 38.29651581 180.53327381 38.29651581 177 18 C164.20595862 20.10794275 152.53188964 37.52247168 145 47 C143.98132265 48.26370964 142.96174304 49.52669233 141.94140625 50.7890625 C140.87732613 52.10915093 139.81352184 53.42946175 138.75 54.75 C138.25459717 55.36375488 137.75919434 55.97750977 137.2487793 56.60986328 C134.81929994 59.64191234 132.52331626 62.68865861 130.35546875 65.9140625 C128 69 128 69 124.5625 69.625 C120.90704971 69.31661752 117.46213623 68.36813064 113.91015625 67.48046875 C105.70664018 65.70638977 97.73578017 65.57896753 89.36767578 65.66381836 C86.87109228 65.68753713 84.37557516 65.68433673 81.87890625 65.67773438 C73.03628009 65.69405939 64.69740599 66.26479665 56 68 C52.49190419 68.53856198 49.4557355 68.77533739 46.203125 67.04296875 C41.67112616 63.56375725 38.95016165 59.05094964 36.03125 54.21484375 C33.18579964 49.71137135 30.0116074 45.47671581 26.81933594 41.21508789 C24.82434043 38.53952655 22.97102084 35.94988467 21.296875 33.0546875 C20.86890625 32.37664063 20.4409375 31.69859375 20 31 C19.34 31 18.68 31 18 31 C17.75016357 30.42926758 17.50032715 29.85853516 17.24291992 29.27050781 C14.78782936 24.78566354 10.87055906 21.37316277 7.3125 17.75 C6.52166016 16.90953125 5.73082031 16.0690625 4.91601562 15.203125 C0.25329492 10.41118111 0.25329492 10.41118111 -5.89453125 8.140625 C-9.09604643 8.69705436 -9.09604643 8.69705436 -10.65332031 11.09521484 Z " fill="#0A0909" transform="translate(59,25)"/>
<path d="M0 0 C3.09797537 0.0134988 5.99756507 0.20584059 9 1 C10.19173222 2.44940405 11.37914083 3.90593225 12.46875 5.43359375 C17.71605211 10.80136963 26.94373183 11.4701459 34.0625 11.6875 C43.22230874 11.68967211 48.89245671 7.58317606 55.5703125 1.7578125 C58 0 58 0 61.6875 0.125 C65 1 65 1 67 3 C67.42525402 6.75641054 67.46525233 9.15408667 65.625 12.5 C61.76247459 16.17859562 57.48771038 19.13017662 53 22 C51.96617187 22.72316406 50.93234375 23.44632813 49.8671875 24.19140625 C45.12135538 26.86218462 40.24803003 26.50998337 34.9375 26.375 C33.97005859 26.37371094 33.00261719 26.37242187 32.00585938 26.37109375 C26.91866105 26.3084178 22.77548225 25.89786023 18 24 C16.40671875 23.59201172 16.40671875 23.59201172 14.78125 23.17578125 C8.32035052 21.47594936 3.91437234 20.03748542 -0.14453125 14.5859375 C-1 13 -1 13 -1 11 C-1.66 11 -2.32 11 -3 11 C-3 8.36 -3 5.72 -3 3 C-2.01 2.67 -1.02 2.34 0 2 C0 1.34 0 0.68 0 0 Z " fill="#0A0A09" transform="translate(150,125)"/>
<path d="M0 0 C3.1875 2.375 3.1875 2.375 6 5 C10.68923668 7.88147881 15.53083237 7.32991906 20.875 7.3125 C21.85597656 7.32861328 22.83695313 7.34472656 23.84765625 7.36132812 C30.71014978 7.36595869 35.2366396 6.55079422 40.4375 1.75 C43 0 43 0 46.625 0.0625 C51.48283753 1.41189931 51.48283753 1.41189931 53 4 C53.5 6.875 53.5 6.875 53 10 C47.66203185 16.63202103 40.49136312 21.39023988 31.95483398 22.33813477 C3.15206307 23.26513561 3.15206307 23.26513561 -8.78125 12.48828125 C-11 10 -11 10 -11.5625 6.375 C-11 3 -11 3 -9.4375 1.0625 C-5.98822861 -0.44102856 -3.73337117 -0.51494775 0 0 Z " fill="#090908" transform="translate(78,127)"/>
<path d="M0 0 C1.55074219 -0.02900391 1.55074219 -0.02900391 3.1328125 -0.05859375 C5.875 0.4375 5.875 0.4375 7.72265625 2.21875 C9.43788526 5.52129263 9.39239404 8.82918049 8.875 12.4375 C8.25178496 14.12089694 7.59314076 15.79235682 6.875 17.4375 C15.70430766 18.31257802 15.70430766 18.31257802 24.03125 16.32421875 C25.35614852 15.07331722 26.62001782 13.75853387 27.875 12.4375 C30.6875 12.0625 30.6875 12.0625 32.875 12.4375 C33.875 13.4375 33.875 13.4375 34.1875 15.6875 C33.76165925 19.43489859 32.56539753 20.81608702 29.875 23.4375 C24.37048892 26.33975172 19.91932897 26.90457954 13.75 26.8125 C12.57244141 26.82990234 12.57244141 26.82990234 11.37109375 26.84765625 C5.49016293 26.81790449 5.49016293 26.81790449 2.3671875 24.88671875 C-1.38523979 22.70466464 -4.66575108 23.44291471 -8.875 23.875 C-18.80810124 24.64964069 -25.61529081 23.86922927 -34.125 18.4375 C-34.16754356 16.43795254 -34.16580783 14.43708364 -34.125 12.4375 C-33.795 12.1075 -33.465 11.7775 -33.125 11.4375 C-29.62765772 11.82609359 -26.46711739 12.32346087 -23.125 13.4375 C-21.25186336 13.53088218 -19.37545638 13.56744843 -17.5 13.5625 C-16.51773438 13.56507813 -15.53546875 13.56765625 -14.5234375 13.5703125 C-12.17274989 13.70755965 -12.17274989 13.70755965 -11.125 12.4375 C-11.21523056 10.17271296 -11.38685664 7.92250048 -11.578125 5.6640625 C-11.125 3.4375 -11.125 3.4375 -8.9921875 1.67578125 C-5.78554103 0.29089442 -3.48274927 0.00436435 0 0 Z " fill="#0D0D0C" transform="translate(138.125,147.5625)"/>
<path d="M0 0 C1.32 0.66 2.64 1.32 4 2 C4 3.98 4 5.96 4 8 C2.08654673 8.53251766 0.1690705 9.05059483 -1.75 9.5625 C-2.81734375 9.85253906 -3.8846875 10.14257812 -4.984375 10.44140625 C-7.84335927 10.97098494 -9.31597383 10.98370862 -12 10 C-11.38511719 9.86464844 -10.77023438 9.72929687 -10.13671875 9.58984375 C-5.30217235 8.4338402 -5.30217235 8.4338402 -1.734375 5.2421875 C-0.81325491 3.11697937 -0.81325491 3.11697937 0 0 Z " fill="#D6D3CE" transform="translate(250,167)"/>
<path d="M0 0 C3.25 -0.3125 3.25 -0.3125 7 0 C9.4375 2.5 9.4375 2.5 11 5 C10.01 5 9.02 5 8 5 C8 4.34 8 3.68 8 3 C7.401875 3.33 6.80375 3.66 6.1875 4 C3.66368532 5.15374385 1.73104914 5 -1 5 C-1 7.31 -1 9.62 -1 12 C-1.33 12 -1.66 12 -2 12 C-2.28571429 3.42857143 -2.28571429 3.42857143 0 0 Z " fill="#DCD9D4" transform="translate(50,34)"/>
<path d="M0 0 C0.20367187 0.64453125 0.40734375 1.2890625 0.6171875 1.953125 C1.8667935 4.31153872 1.8667935 4.31153872 4.8203125 4.609375 C5.91085938 4.65578125 7.00140625 4.7021875 8.125 4.75 C9.76855469 4.83507812 9.76855469 4.83507812 11.4453125 4.921875 C12.28835937 4.94765625 13.13140625 4.9734375 14 5 C14 5.33 14 5.66 14 6 C9.05 6 4.1 6 -1 6 C-1 2 -1 2 0 0 Z " fill="#D0CCC7" transform="translate(146,160)"/>
<path d="M0 0 C-0.99 0.495 -0.99 0.495 -2 1 C-2.65555119 3.52733235 -2.65555119 3.52733235 -3 6 C-4.32 5.01 -5.64 4.02 -7 3 C-6.67 2.01 -6.34 1.02 -6 0 C-3 -1 -3 -1 0 0 Z " fill="#DDDAD6" transform="translate(30,126)"/>
<path d="M0 0 C0 3.77910478 -0.99703962 4.46106101 -3.5 7.1875 C-4.1496875 7.90292969 -4.799375 8.61835937 -5.46875 9.35546875 C-5.9740625 9.89816406 -6.479375 10.44085938 -7 11 C-7.66 10.67 -8.32 10.34 -9 10 C-6.03 6.7 -3.06 3.4 0 0 Z " fill="#C5C2BD" transform="translate(218,56)"/>
<path d="M0 0 C0.33 0.66 0.66 1.32 1 2 C0.21654285 3.17219543 -0.57702836 4.33763668 -1.375 5.5 C-1.81585938 6.1496875 -2.25671875 6.799375 -2.7109375 7.46875 C-3.13632813 7.9740625 -3.56171875 8.479375 -4 9 C-4.66 9 -5.32 9 -6 9 C-4.47291037 5.56404834 -2.40072955 2.88087546 0 0 Z " fill="#B9B7B2" transform="translate(198,80)"/>
</svg>
