<svg id="svg" version="1.1" xmlns="http://www.w3.org/2000/svg" xmlns:xlink="http://www.w3.org/1999/xlink" width="400" height="352.63157894736844" viewBox="0, 0, 400,352.63157894736844"><g id="svgg"><path id="path0" d="M0.000 5.964 C 0.000 12.714,0.504 13.273,5.794 12.382 C 13.151 11.142,19.098 8.708,22.324 5.618 C 27.926 0.250,27.502 0.000,12.782 0.000 L 0.000 0.000 0.000 5.964 M37.556 2.461 C 39.298 10.187,44.977 12.212,48.015 6.191 C 51.219 -0.161,51.331 0.000,43.739 0.000 L 37.000 0.000 37.556 2.461 M96.742 0.501 C 95.689 1.554,96.310 4.312,97.932 5.790 C 101.922 9.424,106.761 10.267,106.775 7.331 C 106.780 6.400,106.993 4.370,107.250 2.820 L 107.716 0.000 102.479 0.000 C 99.599 0.000,97.018 0.226,96.742 0.501 M142.857 1.523 C 146.471 4.386,149.581 4.395,151.105 1.546 C 151.905 0.051,151.752 0.001,146.455 0.017 L 140.977 0.033 142.857 1.523 M194.497 6.417 C 201.209 13.743,204.889 16.464,206.249 15.104 C 206.916 14.438,206.500 13.741,204.510 12.189 C 201.406 9.769,200.569 8.889,196.617 3.883 C 194.107 0.706,193.196 0.069,191.113 0.037 L 188.618 0.000 194.497 6.417 M208.763 1.160 C 210.211 4.933,222.895 8.181,239.515 9.033 C 260.258 10.097,263.917 12.171,263.902 22.856 C 263.897 26.957,263.461 29.128,262.023 32.218 C 258.769 39.206,260.092 41.557,265.810 38.951 C 272.237 36.023,272.570 18.050,266.326 11.138 C 259.572 3.663,253.823 2.406,228.898 2.952 C 218.659 3.177,217.224 3.047,213.953 1.600 C 209.635 -0.310,208.151 -0.436,208.763 1.160 M314.143 0.394 C 313.417 1.120,314.473 4.630,315.541 5.040 C 316.816 5.529,319.253 3.468,319.779 1.455 C 320.146 0.054,315.380 -0.843,314.143 0.394 M341.353 0.789 C 341.353 7.964,356.343 10.394,359.767 3.774 C 361.689 0.058,361.556 0.000,351.128 0.000 C 344.804 0.000,341.353 0.279,341.353 0.789 M389.790 5.055 L 389.850 10.110 386.466 10.693 C 378.133 12.129,377.079 12.456,376.842 13.683 C 376.296 16.522,389.493 16.651,393.797 13.849 C 397.027 11.746,395.272 -0.000,391.728 -0.000 C 389.758 -0.000,389.731 0.069,389.790 5.055 M300.708 3.113 C 299.939 4.969,299.910 6.523,300.572 10.388 C 301.633 16.578,301.357 17.056,294.615 20.706 C 284.411 26.230,276.868 37.269,280.688 41.089 C 281.741 42.142,282.707 40.196,282.707 37.024 C 282.707 32.453,287.792 27.287,294.311 25.237 C 303.869 22.230,306.591 17.808,303.860 9.721 C 302.929 6.964,302.490 4.277,302.756 2.951 C 303.344 0.010,301.948 0.120,300.708 3.113 M63.308 3.158 C 60.323 6.143,64.930 9.891,76.478 13.874 C 87.551 17.693,96.492 22.369,95.799 23.977 C 94.602 26.750,94.702 29.314,96.244 35.352 C 99.679 48.807,95.774 57.666,81.734 68.265 C 59.878 84.765,48.974 116.112,59.453 132.324 C 65.192 141.203,68.064 138.758,63.496 128.883 C 59.918 121.149,59.862 114.890,63.266 103.146 C 67.200 89.574,69.022 86.709,81.977 73.728 C 109.629 46.022,111.172 21.752,85.947 11.272 C 82.718 9.930,78.045 7.888,75.564 6.734 C 65.598 2.098,64.646 1.820,63.308 3.158 M282.700 4.154 C 280.397 10.210,280.172 23.866,282.325 26.811 C 283.066 27.825,283.331 26.081,283.721 17.602 C 283.985 11.850,284.411 6.043,284.667 4.699 C 285.232 1.735,283.773 1.330,282.700 4.154 M160.644 5.345 C 157.427 7.257,155.986 15.118,158.597 16.515 C 161.083 17.845,166.003 17.455,167.662 15.797 C 171.323 12.136,165.018 2.746,160.644 5.345 M121.177 7.279 C 116.385 12.070,116.682 32.285,121.570 34.161 C 123.134 34.761,136.579 30.857,139.277 29.020 C 147.458 23.448,147.081 11.239,138.601 7.095 C 133.330 4.520,123.836 4.620,121.177 7.279 M330.451 7.482 C 325.075 9.697,313.521 25.922,313.539 31.231 C 313.551 34.934,319.491 39.763,331.471 45.810 C 338.991 49.606,341.892 52.910,342.511 58.384 C 343.132 63.867,343.877 65.447,345.211 64.112 C 345.917 63.407,345.924 62.758,345.243 61.263 C 344.758 60.199,344.361 58.166,344.361 56.747 C 344.361 49.946,340.262 45.343,329.321 39.858 C 320.629 35.500,318.797 34.111,318.797 31.879 C 318.797 27.178,330.046 11.586,331.941 13.660 C 334.365 16.313,336.466 23.730,336.466 29.635 C 336.466 36.533,337.122 37.198,340.550 33.771 C 343.358 30.962,343.295 30.197,339.440 20.261 C 338.068 16.723,336.707 12.832,336.417 11.614 C 335.436 7.502,333.559 6.201,330.451 7.482 M362.907 9.524 C 362.061 10.370,362.323 10.980,364.663 13.620 C 367.824 17.186,368.715 20.900,367.646 26.050 C 366.726 30.481,366.925 31.274,368.776 30.563 C 371.307 29.592,372.336 20.966,370.647 14.884 C 369.535 10.881,364.817 7.614,362.907 9.524 M132.382 11.725 C 143.960 15.122,142.778 22.699,130.108 26.306 C 122.770 28.396,123.009 28.594,122.966 20.388 C 122.930 13.343,123.590 11.628,126.558 11.050 C 127.459 10.875,128.219 10.685,128.247 10.629 C 128.275 10.572,130.136 11.066,132.382 11.725 M214.662 15.689 C 208.463 18.587,206.015 23.274,206.015 32.246 C 206.015 37.592,205.275 42.063,203.013 50.376 C 202.107 53.703,196.345 60.325,192.449 62.514 C 186.233 66.008,189.583 66.995,196.503 63.708 C 208.453 58.033,209.982 55.262,210.513 38.312 C 211.127 18.690,217.646 14.081,229.097 25.172 C 237.536 33.346,231.341 40.786,219.774 36.368 C 213.026 33.791,210.008 43.613,212.173 61.103 C 213.575 72.429,216.421 68.785,216.499 55.563 C 216.566 44.137,217.477 42.857,225.546 42.857 C 228.962 42.857,232.758 41.608,235.542 39.567 C 246.200 31.754,227.076 9.884,214.662 15.689 M247.932 19.974 C 242.428 22.840,243.924 25.902,250.593 25.418 C 253.574 25.201,253.773 25.042,253.999 22.695 C 254.448 18.010,252.976 17.349,247.932 19.974 M16.932 20.677 C 16.717 21.711,16.366 23.402,16.151 24.436 C 15.936 25.470,15.387 26.316,14.929 26.316 C 13.080 26.316,5.263 30.351,5.263 31.306 C 5.263 32.684,7.891 35.231,10.229 36.120 C 15.151 37.992,18.797 36.114,18.797 31.708 C 18.797 28.455,20.058 28.702,21.013 32.143 C 22.984 39.240,22.041 40.777,14.883 42.135 C 8.766 43.295,8.387 44.085,11.312 49.574 C 17.070 60.377,22.435 60.419,24.446 49.677 C 24.722 48.201,25.594 45.573,26.384 43.838 C 28.348 39.523,28.254 38.720,24.758 29.902 C 20.344 18.772,17.920 15.915,16.932 20.677 M35.757 19.737 C 35.600 20.254,35.103 21.827,34.653 23.232 C 33.371 27.237,33.645 28.660,36.498 32.801 C 38.580 35.825,39.453 38.203,40.504 43.710 C 41.515 49.013,42.158 50.812,43.106 50.995 C 45.152 51.391,45.400 49.138,44.061 42.321 C 43.367 38.789,42.896 35.833,43.016 35.754 C 43.135 35.674,44.625 35.211,46.325 34.723 C 51.665 33.192,53.953 29.910,53.496 24.436 C 53.200 20.888,47.439 19.168,42.344 21.105 C 40.527 21.796,40.083 21.690,39.196 20.353 C 38.046 18.622,36.197 18.290,35.757 19.737 M327.172 21.617 C 325.405 24.934,325.829 28.853,328.072 29.939 C 330.749 31.235,333.083 29.211,333.083 25.595 C 333.083 21.623,328.729 18.692,327.172 21.617 M65.341 23.340 C 64.347 24.675,61.758 27.635,59.586 29.916 C 54.702 35.048,54.323 37.254,58.459 36.485 C 70.924 34.166,78.828 23.247,69.405 21.362 C 67.482 20.978,66.882 21.270,65.341 23.340 M181.645 23.802 C 180.440 24.455,176.639 27.136,173.199 29.761 C 166.110 35.170,163.709 36.536,158.654 38.037 C 148.349 41.098,149.092 45.926,161.574 57.019 C 167.660 62.428,170.193 63.591,173.309 62.406 C 177.322 60.880,192.772 43.641,196.268 36.788 C 199.984 29.504,189.049 19.793,181.645 23.802 M48.170 24.087 C 51.684 25.968,48.007 32.331,43.406 32.331 C 42.251 32.331,40.602 28.764,40.602 26.266 C 40.602 24.105,45.545 22.682,48.170 24.087 M190.844 32.089 C 193.930 35.546,191.941 39.363,182.707 47.704 C 171.172 58.123,170.843 58.160,162.146 49.999 C 156.138 44.361,156.134 43.950,162.062 41.779 C 164.526 40.877,168.910 38.656,171.805 36.844 C 184.629 28.817,187.324 28.144,190.844 32.089 M397.744 30.827 C 395.719 32.852,395.850 35.563,398.097 38.116 L 399.952 40.226 399.976 34.774 C 400.002 28.785,399.924 28.647,397.744 30.827 M368.432 34.605 C 364.032 35.639,362.022 38.701,360.576 46.566 C 359.348 53.249,357.521 57.401,353.290 63.124 C 349.830 67.803,352.305 68.315,356.830 63.856 C 361.881 58.879,364.278 54.755,365.429 49.061 C 366.974 41.417,370.264 39.077,377.260 40.645 C 391.209 43.771,392.836 54.488,380.944 64.913 C 374.044 70.962,374.412 73.394,381.694 69.869 C 392.123 64.820,397.450 49.432,391.269 42.211 C 386.067 36.133,376.079 32.807,368.432 34.605 M71.781 41.917 C 72.089 44.295,72.559 48.271,72.825 50.752 C 73.734 59.237,77.053 55.015,77.978 44.195 C 78.402 39.230,78.375 39.129,76.374 38.368 C 71.803 36.630,71.161 37.126,71.781 41.917 M291.732 38.400 C 291.721 40.366,294.504 46.163,296.037 47.370 C 301.107 51.358,307.826 44.596,304.091 39.263 C 302.979 37.676,291.740 36.891,291.732 38.400 M21.805 45.513 C 21.805 51.709,18.813 53.828,15.977 49.643 C 13.777 46.395,13.827 46.069,16.729 44.800 C 20.529 43.139,21.805 43.318,21.805 45.513 M254.273 46.353 C 254.565 48.791,256.695 50.373,257.969 49.098 C 259.500 47.568,258.134 44.361,255.951 44.361 C 254.320 44.361,254.071 44.657,254.273 46.353 M112.212 51.344 C 97.549 64.846,96.010 66.970,98.551 70.199 C 102.228 74.875,108.619 69.898,114.835 57.519 C 115.666 55.865,116.928 53.399,117.641 52.039 C 120.582 46.425,117.922 46.085,112.212 51.344 M28.291 55.705 C 27.409 63.441,24.944 67.807,17.243 75.277 C 5.897 86.282,3.352 98.733,10.904 106.285 C 14.633 110.015,16.308 105.971,13.550 99.894 C 10.580 93.349,12.039 88.625,19.555 80.451 C 26.429 72.975,28.801 67.964,29.181 60.116 C 29.578 51.936,29.030 49.225,28.291 55.705 M311.654 51.849 C 300.914 56.321,299.602 77.404,309.746 82.519 C 317.093 86.224,333.942 83.276,338.158 77.547 C 341.024 73.653,339.990 70.180,336.621 72.385 C 328.460 77.727,313.092 80.822,309.748 77.796 C 305.995 74.399,306.077 65.604,309.903 61.246 C 313.283 57.397,315.430 57.705,321.212 62.869 C 328.068 68.992,331.404 69.774,333.264 65.692 C 334.593 62.775,331.593 59.976,329.331 62.023 C 327.252 63.905,321.010 58.582,322.982 56.609 C 324.403 55.188,324.346 54.640,322.557 52.527 C 321.120 50.831,321.007 50.813,319.991 52.121 C 319.004 53.393,318.767 53.407,316.645 52.309 C 314.093 50.990,313.787 50.961,311.654 51.849 M237.720 56.199 C 234.221 58.468,230.827 64.200,230.827 67.841 C 230.827 72.771,227.297 77.639,221.617 80.544 C 216.624 83.097,219.621 86.301,225.015 84.176 C 231.793 81.504,234.059 78.169,234.953 69.552 C 235.489 64.375,235.564 64.230,239.671 60.438 C 245.702 54.870,244.338 51.908,237.720 56.199 M280.451 55.097 C 274.133 58.254,274.179 76.080,280.514 79.356 C 285.192 81.775,292.533 77.536,293.450 71.885 C 295.263 60.715,287.994 51.328,280.451 55.097 M47.421 56.512 C 35.819 58.596,34.108 76.736,45.231 79.731 C 50.608 81.179,57.413 77.450,60.584 71.317 C 64.510 63.725,56.627 54.859,47.421 56.512 M-0.000 61.861 C -0.000 65.707,3.826 69.925,7.314 69.925 C 10.238 69.925,9.292 67.533,4.511 62.844 L -0.000 58.419 -0.000 61.861 M127.148 60.630 C 122.183 64.107,120.462 74.397,123.814 80.556 C 127.973 88.197,132.639 88.949,142.990 83.647 C 152.850 78.595,155.381 74.339,151.910 68.646 C 148.542 63.121,131.477 57.597,127.148 60.630 M255.727 62.409 C 237.271 72.582,235.764 92.364,253.039 97.699 C 266.587 101.884,272.236 97.889,270.664 85.236 C 267.709 61.453,264.992 57.302,255.727 62.409 M287.019 63.217 C 289.582 68.241,287.523 76.237,284.155 74.337 C 281.350 72.755,281.099 72.113,281.569 67.701 C 282.230 61.477,284.978 59.217,287.019 63.217 M53.794 63.500 C 56.612 66.318,56.334 70.070,53.125 72.518 C 48.467 76.071,42.828 73.731,42.881 68.267 C 42.937 62.476,49.780 59.486,53.794 63.500 M140.537 69.140 C 145.959 71.877,146.241 72.280,144.752 75.159 C 140.217 83.928,127.068 81.366,127.068 71.713 C 127.068 65.582,131.725 64.692,140.537 69.140 M261.579 70.865 C 267.685 89.672,264.483 96.145,252.050 90.126 C 244.834 86.633,246.796 78.273,256.568 70.883 C 260.543 67.876,260.609 67.876,261.579 70.865 M201.206 74.884 C 194.202 81.686,193.618 84.674,198.801 87.183 C 205.223 90.292,207.519 88.436,207.519 80.137 C 207.519 71.223,206.149 70.083,201.206 74.884 M366.852 79.093 C 357.703 89.045,357.212 108.406,366.023 111.792 C 378.632 116.637,392.595 109.418,391.813 98.458 C 391.566 95.007,378.110 78.604,373.621 76.283 C 370.717 74.781,370.878 74.714,366.852 79.093 M387.957 78.587 C 387.338 79.333,387.278 80.009,387.774 80.639 C 388.181 81.156,388.737 82.509,389.008 83.645 C 389.312 84.919,390.690 86.498,392.599 87.761 C 394.302 88.888,396.658 91.342,397.833 93.213 L 399.971 96.617 399.986 92.356 C 399.994 90.013,399.746 87.982,399.435 87.845 C 399.124 87.707,397.206 85.630,395.173 83.229 C 390.743 78.000,389.245 77.036,387.957 78.587 M169.592 80.618 C 168.948 81.538,168.421 83.330,168.421 84.603 C 168.421 86.779,169.371 88.519,174.754 96.202 C 180.922 105.006,176.854 115.142,167.866 113.365 C 151.926 110.213,140.153 132.831,146.082 155.213 C 147.944 162.239,148.874 160.350,148.711 149.873 C 148.541 138.953,149.084 137.120,155.272 127.727 C 159.443 121.395,162.313 119.549,167.983 119.549 C 175.435 119.549,178.551 116.635,180.899 107.470 C 184.256 94.366,175.134 72.705,169.592 80.618 M112.030 83.751 C 106.256 86.062,106.221 90.601,111.947 94.678 C 116.308 97.783,119.786 96.448,122.165 90.756 C 125.061 83.824,120.215 80.474,112.030 83.751 M153.101 83.096 C 152.429 83.768,151.880 85.492,151.880 86.928 C 151.880 88.363,151.351 92.099,150.704 95.229 C 148.851 104.198,151.601 106.456,155.369 99.060 C 159.556 90.843,157.790 78.408,153.101 83.096 M377.481 86.961 C 381.454 91.388,381.491 91.506,379.336 92.918 C 377.448 94.155,377.216 94.136,373.569 92.427 C 369.998 90.755,369.712 90.726,368.815 91.953 C 367.840 93.287,365.414 93.004,365.414 91.556 C 365.414 91.136,366.493 88.830,367.811 86.431 L 370.209 82.069 372.886 83.447 C 374.359 84.205,376.427 85.786,377.481 86.961 M117.895 85.865 C 121.407 89.377,116.505 93.472,112.677 90.223 L 110.902 88.716 113.158 86.843 C 115.688 84.742,116.586 84.556,117.895 85.865 M33.272 87.621 C 27.151 91.909,30.969 103.701,38.208 102.865 C 40.173 102.638,40.224 102.503,40.171 97.744 C 40.064 88.115,37.641 84.561,33.272 87.621 M295.489 89.122 C 295.489 92.648,297.829 97.007,298.503 94.737 C 299.123 92.647,298.681 89.595,297.549 88.158 C 296.365 86.655,295.489 87.065,295.489 89.122 M343.718 89.911 C 343.231 90.979,342.508 94.992,342.110 98.830 C 341.395 105.718,341.205 106.655,339.691 110.708 C 337.715 115.997,330.488 117.280,318.797 114.418 C 304.438 110.903,296.535 110.416,292.618 112.805 C 289.265 114.849,289.607 116.980,293.252 116.758 C 304.189 116.089,308.148 116.365,315.065 118.278 C 337.947 124.605,343.220 121.151,346.245 97.849 C 346.855 93.150,347.168 89.005,346.941 88.638 C 346.154 87.365,344.598 87.979,343.718 89.911 M284.237 90.789 C 284.338 95.745,298.337 107.248,300.995 104.558 C 301.676 103.870,301.251 103.110,299.157 101.268 C 297.660 99.950,294.047 96.758,291.130 94.173 C 285.598 89.273,284.192 88.583,284.237 90.789 M333.083 91.382 C 330.808 92.360,325.902 94.197,322.180 95.464 C 309.412 99.812,310.336 101.178,323.802 97.862 C 334.982 95.108,334.650 95.008,331.660 100.235 C 329.321 104.323,328.709 106.767,330.024 106.767 C 331.076 106.767,333.634 102.888,336.847 96.417 C 340.671 88.719,340.332 88.266,333.083 91.382 M86.090 92.388 C 72.103 98.961,68.203 109.986,74.974 123.813 C 78.778 131.582,85.762 137.423,89.027 135.566 C 106.845 125.434,113.244 117.214,109.283 109.549 C 102.786 96.979,92.506 89.373,86.090 92.388 M384.559 96.039 C 388.299 101.542,386.823 104.230,379.077 106.019 C 371.219 107.835,366.165 105.678,366.165 100.509 C 366.165 95.333,368.353 94.122,371.685 97.454 C 374.129 99.898,376.061 99.528,379.699 95.922 C 381.147 94.487,382.403 93.295,382.492 93.273 C 382.580 93.251,383.511 94.496,384.559 96.039 M92.531 97.863 C 96.688 100.199,103.839 110.343,104.316 114.581 C 104.668 117.697,104.522 117.980,100.649 121.708 C 89.165 132.766,80.153 130.186,76.733 114.862 C 74.489 104.806,84.918 93.584,92.531 97.863 M118.045 100.377 C 116.734 105.059,117.429 108.277,121.510 116.419 C 126.299 125.972,126.824 126.025,135.740 117.856 C 147.688 106.907,145.554 101.465,127.996 98.106 C 119.248 96.432,119.143 96.456,118.045 100.377 M215.915 100.592 C 217.621 104.623,222.309 113.521,222.730 113.527 C 223.308 113.534,223.797 111.776,224.351 107.693 C 224.650 105.498,224.318 104.955,221.257 102.618 C 218.115 100.218,215.306 99.153,215.915 100.592 M135.028 106.128 C 136.232 106.647,137.357 107.170,137.527 107.290 C 138.037 107.653,135.192 110.561,131.282 113.676 L 127.601 116.607 125.858 113.685 C 124.900 112.077,123.882 109.302,123.597 107.517 L 123.078 104.272 127.958 104.728 C 130.642 104.979,133.823 105.608,135.028 106.128 M244.987 105.209 C 238.652 107.238,230.992 114.381,228.812 120.291 C 226.996 125.214,226.541 125.618,223.377 125.112 C 209.105 122.830,203.647 136.431,213.013 150.940 C 219.361 160.774,221.955 156.645,216.271 145.754 C 210.005 133.749,214.229 127.014,225.898 130.407 C 231.527 132.043,233.835 130.897,233.835 126.466 C 233.835 116.810,249.076 107.988,256.756 113.199 C 262.958 117.408,266.463 113.290,261.390 107.755 C 258.613 104.724,250.456 103.458,244.987 105.209 M197.201 108.835 C 184.737 116.514,182.283 121.579,188.171 127.466 C 199.507 138.803,215.205 128.793,209.680 113.750 C 206.587 105.330,204.331 104.441,197.201 108.835 M37.099 113.196 C 36.834 113.888,37.626 115.574,39.044 117.339 C 45.336 125.168,45.148 133.422,38.431 144.339 C 35.615 148.915,35.427 150.576,37.761 150.240 C 41.395 149.718,46.967 136.849,46.981 128.947 C 46.998 119.223,39.421 107.145,37.099 113.196 M270.267 115.379 C 268.872 116.774,268.421 118.025,268.421 120.499 C 268.421 122.299,267.924 124.430,267.317 125.232 C 265.076 128.195,267.147 133.447,271.897 136.842 C 276.898 140.418,276.783 139.889,274.175 147.310 C 272.271 152.729,271.991 154.243,272.750 155.003 C 274.474 156.731,277.344 151.303,283.147 135.338 C 287.903 122.254,278.289 107.357,270.267 115.379 M359.601 117.857 C 359.827 120.235,361.058 125.276,362.337 129.060 C 364.269 134.775,364.721 137.457,365.010 144.915 C 365.650 161.431,368.544 162.872,372.954 148.872 C 374.452 144.117,376.202 139.211,376.842 137.970 C 378.670 134.428,379.321 126.058,377.862 124.847 C 376.198 123.467,369.574 124.216,367.594 126.008 C 365.444 127.954,364.370 126.420,362.734 119.067 C 361.131 111.863,358.951 111.021,359.601 117.857 M202.801 119.738 C 203.460 125.584,198.028 128.428,193.555 124.580 C 190.789 122.201,191.592 120.113,196.495 116.933 C 201.093 113.951,202.204 114.445,202.801 119.738 M15.258 115.760 C 12.425 116.970,8.271 125.412,8.271 129.959 C 8.271 132.447,19.686 133.089,24.563 130.874 C 35.504 125.907,26.342 111.025,15.258 115.760 M277.414 120.285 C 280.263 121.810,281.309 128.492,279.304 132.368 C 276.829 137.153,272.180 133.626,272.180 126.964 C 272.180 120.294,273.732 118.314,277.414 120.285 M23.158 121.203 C 24.665 122.711,24.172 125.367,22.079 127.013 C 19.659 128.917,15.789 129.128,15.789 127.356 C 15.789 126.511,15.332 126.260,14.286 126.534 C 12.061 127.116,12.454 125.742,15.338 122.857 C 18.021 120.174,21.412 119.457,23.158 121.203 M309.891 127.013 C 309.045 128.636,307.942 130.622,307.441 131.424 C 305.485 134.556,310.657 137.007,316.508 135.722 C 320.926 134.751,319.528 128.404,314.204 125.259 C 311.525 123.677,311.658 123.623,309.891 127.013 M335.694 130.279 C 330.954 134.694,332.556 137.594,339.735 137.594 C 344.327 137.594,346.016 133.301,343.147 128.921 C 341.419 126.284,339.634 126.609,335.694 130.279 M109.398 131.457 C 96.365 139.411,92.420 158.462,102.471 164.910 C 107.831 168.348,111.782 172.929,112.758 176.837 C 114.195 182.588,116.102 184.344,117.005 180.746 C 117.721 177.892,115.452 173.910,109.001 166.702 C 97.603 153.965,96.892 141.125,107.418 138.152 C 109.903 137.450,111.349 136.467,112.578 134.643 C 115.596 130.164,114.052 128.617,109.398 131.457 M375.020 131.160 C 375.682 131.823,371.081 138.696,369.811 138.940 C 368.263 139.238,367.393 133.524,368.667 131.421 C 369.498 130.048,373.734 129.874,375.020 131.160 M167.094 135.526 C 165.808 137.117,163.659 144.879,164.150 146.159 C 164.789 147.823,173.814 147.896,175.181 146.249 C 176.640 144.491,175.425 140.209,172.626 137.240 C 170.003 134.459,168.366 133.952,167.094 135.526 M391.353 140.532 C 383.104 145.581,381.954 146.869,384.348 148.379 C 387.238 150.201,395.824 144.240,398.914 138.266 C 400.649 134.910,400.433 134.975,391.353 140.532 M242.582 140.441 C 234.086 153.901,231.053 165.077,235.301 167.274 C 242.041 170.759,265.414 166.855,265.413 162.245 C 265.412 159.442,258.064 147.624,253.088 142.423 C 247.410 136.488,245.326 136.095,242.582 140.441 M3.517 139.591 C 1.041 142.067,4.298 146.017,10.484 148.040 C 16.885 150.133,18.978 150.130,18.661 148.030 C 18.301 145.638,4.924 138.184,3.517 139.591 M188.644 142.424 C 182.488 146.608,181.594 151.715,186.679 153.657 C 192.940 156.048,194.608 153.392,194.049 141.917 C 193.959 140.074,191.805 140.276,188.644 142.424 M118.252 143.854 C 109.339 147.099,110.112 161.955,119.396 165.834 C 124.218 167.849,128.589 165.398,131.163 159.235 C 135.096 149.820,127.317 140.554,118.252 143.854 M350.309 145.016 C 346.377 148.200,349.092 154.871,354.743 155.913 C 356.746 156.282,357.589 156.013,359.067 154.535 C 364.582 149.020,356.377 140.102,350.309 145.016 M251.075 148.963 C 255.438 153.537,259.088 159.789,257.845 160.557 C 254.781 162.450,240.314 164.123,238.934 162.743 C 238.034 161.844,245.377 145.113,246.672 145.113 C 247.074 145.113,249.055 146.846,251.075 148.963 M297.744 147.792 C 285.715 151.599,285.040 155.285,296.402 155.122 C 305.842 154.986,306.952 154.719,308.259 152.277 C 310.755 147.613,305.455 145.352,297.744 147.792 M357.465 147.798 C 358.851 149.184,358.926 149.953,357.868 151.929 C 356.361 154.746,351.880 153.303,351.880 150.000 C 351.880 146.834,355.194 145.527,357.465 147.798 M73.995 148.850 C 69.512 150.664,65.023 162.473,65.580 170.993 C 66.342 182.651,73.702 190.184,85.535 191.415 C 91.247 192.009,94.628 193.060,97.368 195.091 C 98.609 196.011,100.542 197.240,101.664 197.824 C 102.786 198.408,107.353 202.291,111.814 206.453 C 122.136 216.084,123.745 217.179,125.301 215.623 C 130.101 210.823,107.921 193.637,91.172 189.179 C 71.704 183.998,64.559 174.019,70.658 160.528 C 74.715 151.554,76.063 150.941,81.405 155.643 C 86.820 160.410,89.676 165.195,89.144 168.609 C 88.647 171.792,89.550 172.271,91.311 169.758 C 92.921 167.458,92.804 166.463,90.311 161.278 C 87.383 155.187,77.922 146.733,75.640 148.168 C 75.598 148.194,74.858 148.501,73.995 148.850 M124.665 149.992 C 128.275 153.029,127.986 158.801,124.121 160.870 C 119.312 163.444,114.239 154.051,118.176 149.860 C 120.272 147.630,121.897 147.663,124.665 149.992 M49.305 152.820 C 47.717 160.533,48.668 168.062,51.043 166.594 C 51.446 166.345,51.988 166.485,52.248 166.905 C 54.520 170.581,56.875 166.517,55.655 161.026 C 53.892 153.087,50.225 148.348,49.305 152.820 M331.073 154.579 C 330.821 155.236,331.720 158.289,333.071 161.363 C 336.055 168.154,336.568 172.053,335.336 178.584 C 333.947 185.947,336.528 187.420,340.109 181.307 C 343.245 175.955,342.495 167.251,338.461 162.175 C 337.329 160.750,335.773 158.190,335.004 156.484 C 333.565 153.292,331.880 152.476,331.073 154.579 M0.564 154.559 C 0.254 154.877,-0.000 156.410,-0.000 157.964 L -0.000 160.790 4.001 159.652 C 8.460 158.383,9.548 158.665,16.658 162.935 C 25.134 168.026,27.608 169.319,30.981 170.422 C 39.059 173.065,41.272 168.919,33.470 165.758 C 30.996 164.755,26.671 162.363,23.860 160.443 C 16.616 155.493,3.002 152.054,0.564 154.559 M381.283 158.076 C 380.940 159.002,380.951 160.776,381.307 162.018 C 381.664 163.260,381.955 164.331,381.955 164.398 C 381.955 164.465,383.139 165.937,384.586 167.669 C 392.936 177.662,378.399 189.398,366.790 182.036 C 362.276 179.173,360.931 175.835,363.590 174.092 C 365.892 172.584,365.927 170.159,363.696 166.841 C 360.441 161.999,355.636 164.582,355.642 171.169 C 355.646 175.825,361.457 183.298,367.451 186.355 C 383.788 194.689,403.920 169.909,390.195 158.360 C 387.066 155.727,382.209 155.572,381.283 158.076 M309.214 160.167 C 297.770 161.340,293.609 165.379,293.609 175.313 C 293.609 184.146,298.930 188.206,310.526 188.220 C 321.348 188.234,327.081 182.459,327.057 171.568 C 327.034 161.187,323.195 158.735,309.214 160.167 M168.261 162.310 C 165.645 163.995,164.144 165.733,162.523 168.951 C 154.972 183.940,159.515 196.603,175.445 204.968 C 188.593 211.872,195.994 220.008,197.581 229.302 C 198.288 233.446,200.000 234.309,200.000 230.522 C 200.000 221.638,189.602 208.630,174.151 198.183 C 165.486 192.325,164.274 190.125,164.940 181.463 C 166.696 158.623,186.785 159.118,187.134 182.009 C 187.190 185.704,187.816 189.024,189.156 192.740 C 190.224 195.699,191.988 200.742,193.077 203.947 C 196.810 214.939,198.153 210.903,195.080 197.926 C 194.028 193.484,192.847 186.297,192.456 181.955 C 191.102 166.938,190.456 165.372,184.489 162.641 C 177.898 159.623,172.599 159.515,168.261 162.310 M212.322 161.685 C 208.039 163.292,212.331 178.920,218.181 183.018 C 223.283 186.592,230.827 182.710,230.827 176.511 C 230.827 170.158,217.723 159.659,212.322 161.685 M390.074 162.620 C 391.673 164.322,391.148 169.925,389.390 169.925 C 388.120 169.925,386.466 166.429,386.466 163.742 C 386.466 160.425,387.662 160.053,390.074 162.620 M145.139 166.116 C 142.011 171.960,145.979 190.605,152.431 200.376 C 157.886 208.640,159.692 210.623,165.996 215.273 C 176.109 222.733,177.444 224.667,177.444 231.860 C 177.444 236.731,179.016 239.524,180.352 237.027 C 183.738 230.700,180.126 219.598,173.133 214.843 C 158.994 205.228,154.269 197.116,151.458 177.629 C 149.648 165.078,147.646 161.431,145.139 166.116 M318.947 166.767 C 322.320 170.140,319.754 179.879,315.126 181.265 C 305.323 184.203,296.896 177.746,301.376 170.730 C 304.297 166.157,315.753 163.573,318.947 166.767 M103.408 175.859 C 97.571 177.876,97.390 179.068,102.222 183.679 L 106.324 187.594 107.627 183.459 C 110.204 175.284,109.378 173.796,103.408 175.859 M16.518 178.383 C 12.923 184.219,9.770 198.614,11.285 202.272 C 14.314 209.586,26.171 208.797,35.714 200.648 C 46.074 191.800,45.557 189.715,31.203 182.452 C 27.481 180.569,23.421 178.336,22.180 177.489 C 19.118 175.399,18.274 175.533,16.518 178.383 M345.759 178.503 C 345.028 180.108,345.394 180.962,348.971 186.004 C 355.127 194.680,357.764 193.594,353.327 184.211 C 349.719 176.579,347.424 174.848,345.759 178.503 M264.287 186.243 C 260.949 193.468,261.121 193.985,266.867 193.985 C 272.438 193.985,273.471 192.766,272.130 187.779 C 269.726 178.843,267.873 178.480,264.287 186.243 M118.045 182.331 C 118.045 182.951,117.698 183.459,117.274 183.459 C 115.694 183.459,118.853 187.858,124.761 193.887 C 128.097 197.291,130.827 200.398,130.827 200.790 C 130.827 201.183,131.165 201.504,131.579 201.504 C 135.329 201.504,131.479 193.324,124.588 186.654 C 118.664 180.919,118.045 180.510,118.045 182.331 M393.592 183.728 C 383.001 188.660,381.717 194.298,387.946 208.523 C 389.961 213.124,396.437 219.244,397.692 217.732 C 398.487 216.775,397.784 215.453,393.321 209.515 C 383.829 196.887,384.315 192.866,395.940 187.836 C 399.408 186.335,399.976 185.800,399.987 184.023 C 400.003 181.422,398.675 181.361,393.592 183.728 M0.138 184.774 C 0.324 186.394,0.770 186.842,2.193 186.842 C 4.445 186.842,4.971 185.530,3.363 183.922 C 1.416 181.974,-0.137 182.385,0.138 184.774 M26.578 187.006 C 29.122 188.544,32.112 190.534,33.222 191.428 L 35.241 193.054 33.684 194.726 C 31.815 196.732,22.112 201.504,19.902 201.504 C 15.327 201.504,15.215 195.713,19.622 187.075 C 21.396 183.597,20.946 183.601,26.578 187.006 M128.008 185.092 C 125.631 186.289,125.878 186.880,129.339 188.264 C 134.849 190.469,139.289 189.342,136.421 186.467 C 134.563 184.604,130.346 183.915,128.008 185.092 M237.660 190.789 C 233.024 194.592,234.348 205.520,240.552 214.662 C 241.394 215.902,242.626 218.778,243.289 221.053 C 245.819 229.721,246.193 230.451,248.092 230.451 C 251.289 230.451,262.875 208.974,261.206 206.142 C 260.300 204.607,250.663 199.715,245.380 198.108 L 241.513 196.932 242.302 194.361 C 243.600 190.130,240.950 188.091,237.660 190.789 M211.290 191.524 C 206.099 194.166,202.577 204.205,204.799 210.024 C 208.281 219.140,218.427 219.086,225.418 209.914 C 232.270 200.925,221.180 186.490,211.290 191.524 M289.239 194.387 C 282.696 198.228,282.078 199.769,286.475 201.273 C 294.504 204.021,298.860 201.538,298.349 194.507 C 298.034 190.162,296.470 190.141,289.239 194.387 M66.273 194.353 C 63.978 196.967,63.121 200.000,64.678 200.000 C 66.969 200.000,71.496 195.922,71.278 194.054 C 70.944 191.189,68.946 191.309,66.273 194.353 M52.467 196.805 C 50.102 199.512,48.175 209.157,49.646 210.928 C 52.583 214.467,54.166 211.808,54.698 202.444 C 55.101 195.327,54.683 194.268,52.467 196.805 M217.498 196.992 C 218.550 197.820,219.668 198.496,219.984 198.496 C 222.686 198.496,224.372 204.424,222.368 206.880 C 216.849 213.647,207.408 212.019,208.736 204.529 C 209.481 200.324,212.810 195.626,215.124 195.512 C 215.379 195.499,216.447 196.165,217.498 196.992 M368.797 196.917 C 365.755 198.258,359.713 206.799,360.449 208.717 C 361.039 210.253,361.985 210.032,364.743 207.711 C 366.895 205.900,367.878 205.633,372.739 205.537 C 379.091 205.411,378.883 205.516,379.409 202.161 C 380.127 197.578,374.078 194.589,368.797 196.917 M254.548 209.833 C 255.124 210.766,251.379 220.660,250.025 221.784 C 249.220 222.451,248.822 222.036,248.091 219.771 C 247.584 218.202,245.523 213.842,243.510 210.083 C 239.965 203.463,239.364 201.389,240.291 198.974 C 240.690 197.933,252.977 207.292,254.548 209.833 M315.038 200.808 C 304.238 205.394,301.529 209.490,305.255 215.602 C 308.095 220.259,310.691 218.469,311.638 211.200 C 312.254 206.475,318.906 200.798,323.872 200.759 C 325.226 200.749,325.031 198.741,323.623 198.201 C 322.157 197.638,323.363 197.272,315.038 200.808 M36.957 202.441 C 35.711 203.687,35.844 204.252,38.210 207.759 C 44.930 217.720,43.600 228.549,35.138 232.783 C 28.341 236.184,26.264 238.964,29.303 240.591 C 33.329 242.745,42.306 236.998,45.592 230.163 C 49.558 221.912,41.941 197.458,36.957 202.441 M338.722 204.453 C 332.396 206.095,324.072 212.182,322.852 216.056 C 322.573 216.943,320.840 219.346,319.001 221.395 C 314.896 225.970,311.967 231.589,311.788 235.231 C 311.620 238.669,312.907 239.471,313.769 236.466 C 317.253 224.334,332.616 209.233,342.911 207.822 C 347.021 207.259,351.867 209.000,351.904 211.052 C 351.917 211.797,352.424 213.063,353.031 213.866 C 353.639 214.668,354.135 216.624,354.135 218.212 C 354.135 221.379,355.626 222.624,357.528 221.045 C 359.764 219.190,358.862 215.658,354.905 210.768 C 350.369 205.161,344.626 202.920,338.722 204.453 M86.747 206.756 C 84.257 207.761,75.153 213.901,71.661 216.929 L 68.510 219.662 68.024 216.786 C 66.836 209.757,64.794 207.494,62.084 210.204 C 59.674 212.614,64.689 222.519,67.454 220.810 C 67.779 220.609,67.925 221.956,67.778 223.804 C 67.002 233.545,76.093 243.702,90.163 248.815 C 98.848 251.970,105.026 255.880,108.870 260.651 C 113.373 266.240,116.428 265.938,115.097 260.036 C 113.689 253.797,108.801 249.394,99.894 246.344 C 74.351 237.596,65.561 221.620,82.416 214.578 C 90.535 211.185,94.637 215.250,92.126 224.201 C 90.492 230.023,91.055 234.063,94.150 238.736 C 101.122 249.261,110.355 246.377,109.650 233.896 C 109.205 226.014,107.941 225.493,106.767 232.708 C 105.943 237.772,104.374 239.850,101.376 239.850 C 96.193 239.850,94.672 231.326,98.506 223.766 C 103.333 214.247,95.665 203.155,86.747 206.756 M137.633 213.868 C 135.016 216.654,137.037 221.292,143.007 226.202 C 148.251 230.515,149.003 220.386,143.889 214.309 C 141.568 211.550,139.920 211.434,137.633 213.868 M13.534 215.808 C 13.534 216.645,14.676 218.990,16.072 221.020 C 23.689 232.093,17.042 240.933,5.587 234.962 C -0.539 231.769,-0.000 231.748,0.000 235.189 C 0.000 237.845,0.246 238.166,3.506 239.750 C 17.406 246.503,27.473 235.999,21.753 220.711 C 19.628 215.032,13.534 211.396,13.534 215.808 M343.873 222.118 C 331.867 227.708,320.739 244.731,324.428 251.864 C 325.533 254.000,326.005 254.265,330.451 255.244 C 338.491 257.015,338.875 262.790,331.616 272.738 C 324.509 282.479,325.483 288.565,334.584 291.292 C 338.151 292.360,339.996 293.474,342.461 296.046 C 346.194 299.942,347.036 299.428,345.484 294.202 C 344.165 289.761,342.465 288.734,335.461 288.151 C 327.076 287.452,327.411 283.636,337.119 269.270 C 346.078 256.014,345.569 252.734,334.188 250.371 C 328.340 249.157,326.710 247.630,327.391 244.002 C 328.494 238.122,339.751 228.894,347.621 227.417 C 351.705 226.651,354.429 221.903,351.442 220.757 C 349.410 219.977,347.879 220.253,343.873 222.118 M130.592 225.318 C 129.604 229.178,125.819 234.213,121.397 237.552 C 116.989 240.880,116.615 243.609,120.566 243.609 C 126.082 243.609,131.786 235.250,131.428 227.693 C 131.233 223.569,131.121 223.251,130.592 225.318 M218.507 225.598 C 212.959 232.193,209.975 251.828,214.180 254.079 C 218.960 256.637,240.602 245.512,240.602 240.497 C 240.602 230.487,223.881 219.212,218.507 225.598 M381.720 224.546 C 380.683 225.583,381.273 232.788,382.641 235.802 C 386.010 243.219,400.000 247.997,400.000 241.729 C 400.000 239.163,399.926 239.098,397.008 239.098 C 389.926 239.098,386.026 235.813,384.565 228.617 C 383.774 224.723,382.856 223.410,381.720 224.546 M279.580 227.801 C 273.535 229.627,268.990 234.881,260.188 250.217 C 255.377 258.599,246.589 263.910,237.528 263.910 C 232.799 263.910,232.171 259.955,236.351 256.487 C 237.650 255.408,238.073 252.632,236.938 252.632 C 235.591 252.632,230.075 259.419,230.078 261.073 C 230.089 267.716,239.249 271.819,247.493 268.874 C 254.500 266.372,258.831 261.710,267.473 247.368 C 275.023 234.839,283.717 229.704,291.004 233.472 C 293.991 235.017,295.123 241.353,292.412 241.353 C 291.133 241.353,290.211 244.978,290.977 246.992 C 292.891 252.025,300.752 245.545,300.752 238.935 C 300.752 230.629,289.612 224.770,279.580 227.801 M227.795 232.524 C 234.668 238.096,234.369 239.485,225.310 244.089 C 218.283 247.660,217.898 247.455,219.577 241.038 C 222.440 230.104,223.480 229.026,227.795 232.524 M185.714 233.318 C 185.714 233.861,186.759 235.299,188.035 236.513 C 191.352 239.668,196.832 247.102,199.008 251.396 C 200.423 254.189,201.080 254.860,201.744 254.196 C 203.826 252.113,190.669 232.331,187.202 232.331 C 186.384 232.331,185.714 232.775,185.714 233.318 M165.128 235.621 C 162.640 245.534,168.717 254.135,178.209 254.135 C 185.290 254.135,189.454 258.328,192.587 268.612 C 195.565 278.391,193.245 281.318,182.441 281.414 C 171.080 281.514,165.967 275.568,170.717 267.777 C 172.252 265.260,172.612 265.168,176.647 266.251 C 178.264 266.685,178.518 264.009,177.017 262.350 C 172.707 257.587,163.573 264.425,163.745 272.286 C 163.969 282.547,170.368 287.002,183.867 286.296 C 195.106 285.708,198.034 282.884,198.091 272.581 C 198.168 258.615,188.090 247.362,176.350 248.304 C 171.023 248.732,170.021 248.194,168.451 244.063 C 167.852 242.489,167.850 241.203,168.445 239.402 C 169.039 237.603,169.037 236.490,168.441 235.375 C 167.332 233.304,165.679 233.427,165.128 235.621 M145.241 243.296 C 139.443 248.543,139.464 249.009,145.598 251.465 C 151.579 253.859,151.599 253.844,152.536 246.271 C 153.637 237.379,152.357 236.857,145.241 243.296 M368.124 241.953 C 367.526 243.109,365.779 248.269,364.242 253.419 C 362.705 258.569,360.503 264.812,359.348 267.293 C 355.086 276.453,363.683 279.360,379.375 274.064 C 390.461 270.322,390.436 266.971,379.197 249.906 C 372.949 240.419,370.009 238.307,368.124 241.953 M57.837 245.807 C 55.681 247.963,55.067 250.566,56.268 252.458 C 56.690 253.122,57.733 252.164,59.706 249.298 C 63.526 243.753,62.258 241.386,57.837 245.807 M33.454 245.871 C 32.686 247.114,33.703 249.220,36.202 251.559 L 38.551 253.759 38.105 250.847 C 37.486 246.811,34.710 243.840,33.454 245.871 M42.447 251.681 C 38.628 259.730,42.742 270.392,50.644 272.924 C 61.505 276.405,69.173 269.852,69.173 257.090 C 69.173 249.656,65.185 248.307,64.300 255.441 C 63.221 264.150,59.855 267.635,53.649 266.471 C 48.464 265.498,47.248 263.602,46.803 255.792 C 46.350 247.850,44.910 246.491,42.447 251.681 M375.700 254.708 C 378.240 257.876,381.584 266.109,380.672 266.951 C 378.002 269.418,364.875 270.878,365.773 268.609 C 367.058 265.361,369.173 255.894,369.173 253.388 C 369.173 248.734,371.247 249.153,375.700 254.708 M7.140 251.710 C -3.864 258.661,6.385 277.511,18.482 272.570 C 24.408 270.150,26.000 263.823,22.465 256.744 C 19.593 250.994,12.146 248.547,7.140 251.710 M300.376 252.303 C 295.259 254.948,295.618 255.540,302.075 255.097 C 309.519 254.587,310.886 255.788,310.031 262.091 C 308.982 269.819,305.086 271.637,294.186 269.486 C 292.023 269.059,291.668 269.237,290.960 271.099 C 289.729 274.337,291.259 275.276,298.381 275.657 C 309.582 276.256,312.961 272.924,314.671 259.598 C 315.590 252.434,307.807 248.462,300.376 252.303 M16.428 257.539 C 20.910 261.310,20.215 266.419,15.104 267.282 C 11.511 267.889,9.446 266.910,7.864 263.850 C 4.772 257.872,11.197 253.137,16.428 257.539 M88.237 258.284 C 87.996 258.912,88.209 260.417,88.711 261.629 C 89.776 264.200,89.390 270.005,87.922 273.486 C 85.174 280.004,90.569 277.735,93.708 271.053 C 95.966 266.245,95.935 264.924,93.478 261.265 C 90.616 257.003,89.066 256.122,88.237 258.284 M129.402 259.211 C 124.150 264.145,121.095 281.955,125.500 281.955 C 129.125 281.955,132.524 275.320,134.644 264.103 C 135.960 257.146,133.773 255.104,129.402 259.211 M79.272 262.635 C 76.962 264.623,78.146 266.917,81.482 266.917 C 84.631 266.917,86.492 262.402,83.773 261.359 C 81.914 260.645,81.424 260.784,79.272 262.635 M214.787 262.907 C 213.861 263.834,214.307 267.268,215.774 270.500 C 218.233 275.918,221.636 275.544,220.143 270.020 C 218.504 263.961,216.455 261.239,214.787 262.907 M279.408 271.075 C 277.392 273.091,278.119 275.088,284.769 285.792 C 292.918 298.912,289.738 309.125,276.356 312.810 C 271.206 314.228,269.656 315.843,271.590 317.777 C 272.774 318.961,273.165 318.957,277.776 317.709 C 294.698 313.128,299.532 298.024,288.858 283.083 C 287.381 281.015,284.923 277.195,283.396 274.593 C 280.843 270.241,280.524 269.960,279.408 271.075 M254.859 272.368 C 243.573 278.059,245.268 296.278,257.264 298.225 C 261.447 298.903,262.890 296.982,263.559 289.844 C 265.092 273.478,262.597 268.466,254.859 272.368 M104.742 274.665 C 100.961 278.970,99.109 282.619,96.937 290.040 C 94.574 298.111,93.558 299.434,86.842 303.184 C 82.196 305.779,80.535 308.748,83.835 308.561 C 96.133 307.865,102.660 301.697,104.828 288.722 C 106.159 280.756,112.230 278.377,113.931 285.155 C 114.942 289.182,117.293 286.095,117.293 280.741 C 117.293 272.883,109.583 269.151,104.742 274.665 M141.910 276.504 C 139.866 278.781,130.887 302.254,130.836 305.451 C 130.772 309.489,142.106 310.300,154.603 307.151 C 166.470 304.161,166.590 303.570,157.893 290.957 C 147.744 276.238,144.655 273.444,141.910 276.504 M259.398 284.118 C 259.398 292.918,258.498 294.538,255.041 291.957 C 250.595 288.638,250.182 282.785,254.116 278.851 C 258.364 274.603,259.398 275.634,259.398 284.118 M69.542 280.989 C 64.714 287.312,65.028 289.003,71.170 289.773 C 77.496 290.566,78.751 287.827,75.340 280.675 C 73.613 277.053,72.502 277.113,69.542 280.989 M212.100 281.015 C 208.973 288.016,202.463 292.902,193.463 295.001 C 183.595 297.303,185.624 302.590,195.703 300.835 C 208.749 298.563,215.045 293.514,215.025 285.338 C 215.009 279.276,213.725 277.377,212.100 281.015 M48.970 282.213 C 48.260 283.068,48.341 283.869,49.349 285.984 C 51.360 290.202,49.907 293.739,43.478 300.270 C 30.388 313.569,32.060 323.036,48.634 329.472 C 54.562 331.774,55.639 331.712,55.639 329.070 C 55.639 326.407,53.605 324.209,49.223 322.136 C 39.174 317.382,38.258 311.404,46.581 304.887 C 54.751 298.489,57.753 291.828,55.573 284.935 C 54.415 281.273,50.939 279.840,48.970 282.213 M14.436 283.609 C 13.023 285.022,13.370 286.424,15.357 287.329 C 17.417 288.268,16.311 289.227,5.075 296.249 C -3.739 301.757,-0.609 307.964,13.453 312.866 C 19.670 315.034,23.266 306.545,21.797 293.166 C 21.398 289.526,21.472 287.279,22.020 286.400 C 23.814 283.528,17.018 281.027,14.436 283.609 M35.088 283.208 C 33.960 284.336,34.706 286.553,36.487 287.364 C 39.143 288.574,40.454 287.263,39.244 284.607 C 38.433 282.826,36.216 282.080,35.088 283.208 M151.134 291.072 C 153.819 295.259,156.116 298.944,156.239 299.261 C 157.026 301.292,141.186 304.043,139.339 302.196 C 137.793 300.650,143.625 283.459,145.696 283.459 C 146.002 283.459,148.449 286.884,151.134 291.072 M225.714 286.617 C 223.678 288.653,226.318 291.757,232.870 295.032 C 239.457 298.325,241.876 296.739,236.988 292.331 C 229.980 286.014,227.549 284.782,225.714 286.617 M359.557 289.013 C 355.874 293.009,352.957 298.556,353.625 300.296 C 354.897 303.612,361.045 299.671,362.093 294.867 C 363.018 290.627,362.839 290.732,368.312 291.241 C 371.127 291.502,374.503 291.931,375.813 292.193 C 379.875 293.005,378.474 291.328,372.972 288.792 C 364.564 284.917,363.313 284.938,359.557 289.013 M390.977 289.448 C 390.977 290.473,395.253 295.218,397.832 297.055 L 400.000 298.599 400.000 295.640 C 400.000 293.024,399.654 292.452,397.009 290.701 C 394.011 288.718,390.977 288.087,390.977 289.448 M274.436 292.707 C 274.436 294.763,275.738 296.241,277.550 296.241 C 279.707 296.241,279.965 294.741,278.143 292.801 C 275.985 290.505,274.436 290.465,274.436 292.707 M18.128 296.805 C 20.925 304.059,16.783 308.297,9.602 305.530 C 2.827 302.920,3.176 301.696,12.030 297.002 C 17.155 294.284,17.156 294.284,18.128 296.805 M310.576 299.436 C 301.912 315.406,301.566 316.764,305.639 318.768 C 308.504 320.177,318.370 320.697,322.197 319.640 C 324.420 319.027,325.262 319.054,325.707 319.755 C 327.425 322.459,325.269 323.869,316.334 325.884 C 310.827 327.125,303.201 338.564,302.817 346.159 C 302.566 351.133,304.156 351.597,304.800 346.739 C 306.150 336.561,312.468 329.323,320.000 329.323 C 329.374 329.323,332.161 323.225,326.873 314.286 C 325.527 312.011,323.993 309.305,323.464 308.271 C 321.255 303.957,314.978 296.241,313.677 296.241 C 312.841 296.241,311.635 297.483,310.576 299.436 M244.361 302.088 C 244.361 304.097,246.040 307.294,247.701 308.447 C 248.138 308.751,250.120 309.005,252.105 309.011 C 256.421 309.025,256.291 308.570,250.539 303.501 C 245.930 299.439,244.361 299.080,244.361 302.088 M367.981 303.283 C 362.813 305.626,361.948 308.546,362.121 323.076 C 362.327 340.394,367.399 342.262,379.789 329.582 C 389.808 319.329,391.525 315.029,387.947 309.160 C 384.957 304.255,373.363 300.843,367.981 303.283 M319.632 310.150 C 321.824 314.901,321.708 315.038,315.458 315.038 C 308.054 315.038,307.797 314.104,313.037 306.239 L 314.641 303.831 316.442 305.487 C 317.433 306.398,318.868 308.496,319.632 310.150 M339.631 306.203 C 346.007 313.176,345.439 318.231,337.455 325.569 C 332.204 330.395,332.128 330.519,331.815 334.787 C 331.351 341.108,332.608 341.090,339.002 334.682 C 348.813 324.852,350.334 309.894,341.963 305.565 C 338.903 303.983,337.861 304.268,339.631 306.203 M230.834 307.737 C 227.972 309.184,228.152 310.962,231.625 315.562 L 234.804 319.772 235.834 317.806 C 239.705 310.417,236.860 304.688,230.834 307.737 M380.176 309.837 C 383.500 311.891,383.977 314.081,381.963 318.030 C 379.155 323.533,370.660 331.112,369.076 329.527 C 366.988 327.439,366.048 312.662,367.857 310.381 C 369.905 307.799,376.413 307.511,380.176 309.837 M118.421 315.344 C 116.108 316.368,110.644 321.783,109.199 324.482 C 108.269 326.220,108.866 338.346,109.882 338.346 C 110.236 338.346,110.526 337.216,110.526 335.834 C 110.526 331.104,114.475 324.719,119.154 321.883 C 126.253 317.581,125.644 312.144,118.421 315.344 M152.420 317.661 C 147.357 321.527,145.783 325.766,150.311 323.343 C 151.119 322.910,152.664 322.556,153.744 322.556 C 156.295 322.556,159.576 319.305,159.261 317.089 C 158.887 314.461,156.332 314.674,152.420 317.661 M191.729 320.529 C 191.729 329.494,203.870 343.267,208.951 340.068 C 212.131 338.065,210.627 335.422,204.556 332.344 C 200.169 330.120,197.034 326.047,194.244 318.944 C 192.507 314.522,191.729 315.012,191.729 320.529 M180.608 320.517 C 176.651 324.549,176.656 324.621,181.171 328.844 C 186.213 333.561,186.466 333.425,186.466 326.001 C 186.466 316.093,185.676 315.353,180.608 320.517 M220.045 321.682 C 216.141 325.679,216.404 327.928,220.885 328.870 C 226.743 330.101,230.102 326.343,227.680 321.267 C 226.123 318.005,223.496 318.148,220.045 321.682 M72.180 320.830 C 66.572 322.871,59.699 337.807,61.936 343.093 C 64.313 348.708,68.066 349.741,75.019 346.694 C 77.800 345.475,81.006 344.283,82.143 344.044 C 83.280 343.805,85.140 343.412,86.277 343.172 C 87.413 342.932,88.094 342.983,87.791 343.287 C 86.716 344.361,91.813 347.377,93.330 346.565 C 97.577 344.292,96.122 340.233,87.656 330.745 C 79.562 321.676,76.047 319.423,72.180 320.830 M246.547 322.040 C 242.646 324.086,238.186 331.881,236.660 339.320 C 235.323 345.834,235.700 346.146,245.567 346.701 C 250.073 346.955,255.171 347.417,256.896 347.728 L 260.032 348.294 260.839 345.387 C 261.283 343.789,261.648 341.418,261.650 340.118 C 261.652 338.818,262.185 335.190,262.833 332.056 C 265.038 321.393,257.092 316.506,246.547 322.040 M282.724 329.135 C 275.109 336.765,273.741 344.469,279.127 349.399 C 287.125 356.720,296.450 346.166,292.810 333.912 C 292.133 331.630,291.843 329.014,292.125 327.729 C 292.656 325.313,291.541 323.308,289.666 323.308 C 289.047 323.308,285.922 325.930,282.724 329.135 M17.750 325.249 C 17.499 325.904,17.293 327.088,17.293 327.881 C 17.293 329.911,15.650 329.679,11.533 327.068 C 7.527 324.527,6.865 324.401,4.942 325.807 C 0.995 328.693,5.781 333.941,10.601 332.013 C 15.301 330.132,17.140 331.302,18.798 337.223 C 20.766 344.249,24.357 341.738,23.592 333.871 C 22.805 325.785,19.446 320.828,17.750 325.249 M80.488 329.828 C 83.880 333.488,87.516 338.310,87.135 338.643 C 86.616 339.097,72.643 341.519,69.925 341.626 C 66.483 341.761,66.384 338.137,69.656 331.741 C 73.186 324.838,75.487 324.432,80.488 329.828 M256.440 326.342 C 258.582 327.489,256.957 340.151,254.699 339.910 C 254.389 339.877,252.059 339.850,249.522 339.850 L 244.908 339.850 245.348 336.644 C 246.626 327.317,250.880 323.366,256.440 326.342 M129.842 331.872 C 126.311 335.682,124.520 343.962,126.745 346.187 C 129.599 349.041,133.274 346.754,132.964 342.317 C 132.884 341.167,133.269 338.493,133.820 336.375 C 135.397 330.310,133.392 328.041,129.842 331.872 M148.849 335.363 C 140.209 344.612,140.310 352.632,149.066 352.632 L 153.586 352.632 151.600 351.070 C 144.785 345.708,150.516 336.523,158.859 339.436 C 168.694 342.871,173.845 346.594,173.980 350.364 C 174.082 353.251,178.468 353.822,179.344 351.062 C 182.669 340.587,156.536 327.134,148.849 335.363 M288.682 335.902 C 289.857 340.132,289.642 342.689,287.970 344.361 C 283.965 348.366,281.319 344.135,283.913 337.874 C 286.228 332.286,287.529 331.749,288.682 335.902 M347.807 340.965 C 342.812 342.745,341.066 345.084,341.679 349.174 C 342.442 354.263,347.368 354.620,347.368 349.586 C 347.368 346.761,349.930 344.361,352.945 344.361 C 353.144 344.361,353.893 346.222,354.610 348.496 C 355.891 352.559,355.964 352.632,358.784 352.632 C 362.144 352.632,362.326 351.914,360.422 346.187 C 358.252 339.658,355.117 338.360,347.807 340.965 M387.511 341.792 C 387.002 343.820,387.572 350.627,388.357 351.898 C 389.151 353.182,392.705 352.796,392.200 351.479 C 391.957 350.846,391.042 347.970,390.167 345.088 C 388.393 339.251,388.207 339.019,387.511 341.792 M0.564 342.521 C 0.254 342.844,-0.000 345.259,-0.000 347.888 L -0.000 352.669 12.190 352.462 L 24.380 352.256 25.536 350.144 C 26.928 347.600,24.677 345.059,19.736 343.597 C 16.230 342.559,1.330 341.723,0.564 342.521 M326.946 348.122 C 326.710 352.312,326.807 352.634,328.302 352.633 C 330.566 352.631,331.163 349.628,329.565 346.277 C 327.785 342.543,327.240 342.927,326.946 348.122 M40.833 345.243 C 39.516 345.892,36.842 350.602,36.842 352.271 C 36.842 352.469,39.924 352.632,43.691 352.632 L 50.539 352.632 50.035 350.564 C 48.999 346.307,44.246 343.559,40.833 345.243 M210.239 344.970 C 209.619 345.973,212.070 347.414,219.301 350.300 C 228.959 354.155,230.613 352.938,221.568 348.631 C 213.266 344.678,210.893 343.911,210.239 344.970 M315.794 348.233 C 312.929 352.189,312.960 352.632,316.104 352.632 C 319.284 352.632,322.685 348.208,321.035 346.219 C 319.535 344.412,318.187 344.931,315.794 348.233 M191.283 349.738 C 190.388 351.186,193.311 352.632,197.136 352.632 C 201.524 352.632,201.606 352.346,197.774 350.391 C 194.431 348.686,192.080 348.449,191.283 349.738 " stroke="none" fill="#000000" fill-rule="evenodd"></path></g></svg>