<?xml version="1.0" encoding="utf-8"?>
<!-- Svg Vector Icons : http://www.onlinewebfonts.com/icon -->
<!DOCTYPE svg PUBLIC "-//W3C//DTD SVG 1.1//EN" "http://www.w3.org/Graphics/SVG/1.1/DTD/svg11.dtd">
<svg version="1.1" xmlns="http://www.w3.org/2000/svg" xmlns:xlink="http://www.w3.org/1999/xlink" x="0px" y="0px" viewBox="0 0 256 256" enable-background="new 0 0 256 256" xml:space="preserve">
<metadata> Svg Vector Icons : http://www.onlinewebfonts.com/icon </metadata>
<g><g><g><path fill="#000000" d="M113.9,10.8c-39.7,4.8-74,29.3-91.7,65.2C-6.4,134.1,17,203.9,74.6,233.2c33.7,17.1,73,17.1,106.7,0.1c46.7-23.7,72.2-75.3,62.7-126.6c-7.7-42-38.2-77.1-78.4-90.4C148.8,10.6,131,8.7,113.9,10.8z M195.6,71.5v6.1H128H60.4v-6.1v-6.1H128h67.6L195.6,71.5L195.6,71.5z M163.3,99.6l-0.2,6l-51.4,0.2l-51.4,0.1v-6.1v-6.1h51.5h51.6L163.3,99.6z M195.6,127.8v6.3H128H60.4v-6c0-5.3,0.1-6.1,1-6.3c0.5-0.1,30.9-0.2,67.6-0.2l66.6-0.1V127.8z M163.3,155.8l0.2,6h-51.6H60.4v-6.1v-6.1l51.4,0.1l51.4,0.2L163.3,155.8z M195.6,184v6.1H128H60.4V184v-6.1H128h67.6L195.6,184L195.6,184z"/></g></g></g>
</svg>