<?xml version="1.0" encoding="UTF-8"?>
<svg version="1.1" xmlns="http://www.w3.org/2000/svg" width="538" height="464">
<path d="M0 0 C2.575193 -0.00221957 5.14997793 -0.02056876 7.72509766 -0.03930664 C9.39566915 -0.04223638 11.06624261 -0.04422398 12.73681641 -0.04516602 C13.4901123 -0.05235153 14.2434082 -0.05953705 15.01953125 -0.06694031 C29.46607484 -0.00565644 37.69939192 6.31408788 48.54931641 15.18530273 C50.21544682 16.4984834 51.88211006 17.81098833 53.54931641 19.12280273 C54.78294922 20.12633789 54.78294922 20.12633789 56.04150391 21.15014648 C57.71090205 22.50490728 59.40406234 23.83090871 61.11962891 25.12670898 C68.44249147 31.02754778 71.79176284 37.66379298 75.57275391 46.04614258 C77.19127404 49.59151093 78.93154445 53.07475882 80.67431641 56.56030273 C81.0060083 57.23013184 81.3377002 57.89996094 81.67944336 58.59008789 C83.57702547 62.38525212 85.60825268 66.02266512 87.86181641 69.62280273 C90.10718688 73.26018186 91.63370214 76.70214353 92.82666016 80.80249023 C93.53092044 83.25371351 93.53092044 83.25371351 94.61572266 85.81811523 C97.01683104 91.958929 97.98624823 97.57922784 98.11181641 104.12280273 C98.15181763 105.20561523 98.15181763 105.20561523 98.19262695 106.31030273 C98.16588147 110.19066405 97.71706658 111.97718947 95.26025391 115.02514648 C93.08198614 116.76085553 90.99474848 118.37761965 88.61181641 119.81030273 C87.92990234 120.22280273 87.24798828 120.63530273 86.54541016 121.06030273 C84.79315808 122.04787338 82.98658067 122.93773105 81.17431641 123.81030273 C78.29095669 125.05319805 78.29095669 125.05319805 76.54931641 128.18530273 C78.21994141 129.23717773 78.21994141 129.23717773 79.92431641 130.31030273 C91.47694849 138.97988858 101.55045197 156.55281035 105.54931641 170.18530273 C105.7154698 171.57683741 105.8407983 172.97387442 105.92431641 174.37280273 C106.43023817 181.3446514 109.86412997 187.81390319 112.54931641 194.18530273 C116.29649517 203.16318497 118.25659297 212.30655882 120.08789062 221.82446289 C120.50018667 223.93393525 120.94271652 226.03378799 121.39697266 228.13452148 C125.74561541 249.74662037 125.93779457 272.21470413 125.54931641 294.18530273 C126.44432861 294.04745361 127.33934082 293.90960449 128.26147461 293.76757812 C137.77995018 292.38845459 147.12813519 291.80876231 156.73681641 291.62280273 C159.45966716 291.56459906 162.18213658 291.49929628 164.90478516 291.43139648 C166.08709717 291.40746826 167.26940918 291.38354004 168.48754883 291.35888672 C171.0535817 291.21340794 173.08932291 290.82097529 175.54931641 290.18530273 C179.54586453 289.93361173 183.54564704 289.95398964 187.54931641 289.93530273 C188.62310547 289.91467773 189.69689453 289.89405273 190.80322266 289.87280273 C198.469451 289.83590151 205.21465948 290.99652627 212.54931641 293.18530273 C213.38084229 293.42901611 214.21236816 293.67272949 215.0690918 293.92382812 C224.26515405 296.7040826 232.08479983 301.21659395 239.54931641 307.18530273 C240.31501953 307.76666992 241.08072266 308.34803711 241.86962891 308.94702148 C246.05310043 312.12949734 249.97003967 315.31581437 253.54931641 319.18530273 C254.27054687 319.88139648 254.27054687 319.88139648 255.00634766 320.59155273 C260.18205901 325.93760396 262.19517706 332.24208164 264.54931641 339.18530273 C265.02143075 340.4412058 265.49542618 341.69640316 265.97119141 342.95092773 C268.61390664 350.21816641 270.00672079 356.92888298 270.04931641 364.68530273 C270.05552002 365.41450928 270.06172363 366.14371582 270.06811523 366.89501953 C269.91951342 373.2312558 268.50013132 378.84432483 264.36181641 383.81030273 C263.43369141 384.59405273 262.50556641 385.37780273 261.54931641 386.18530273 C260.97181641 386.67901367 260.39431641 387.17272461 259.79931641 387.68139648 C249.03765561 396.38185209 238.69869625 396.82637614 225.3449707 396.70678711 C222.48969843 396.6853244 219.63693446 396.7066652 216.78173828 396.73217773 C214.9425401 396.72953462 213.10334346 396.72440997 211.26416016 396.71655273 C210.42328354 396.72464966 209.58240692 396.73274658 208.71604919 396.74108887 C202.56937549 396.64516142 197.97203626 395.03901789 192.54931641 392.18530273 C191.86165863 379.31082113 191.86165863 379.31082113 194.17431641 375.49780273 C198.30983581 371.47111278 202.97097623 370.94495726 208.57666016 370.84155273 C210.25985352 370.79708008 210.25985352 370.79708008 211.97705078 370.75170898 C213.13527344 370.72979492 214.29349609 370.70788086 215.48681641 370.68530273 C226.66342359 371.23376221 226.66342359 371.23376221 236.54931641 367.18530273 C237.87021136 359.18488215 235.94492583 353.61938735 231.58837891 346.91967773 C225.29027452 338.47394388 218.73362446 335.5571449 208.54931641 333.18530273 C207.88641602 333.01087646 207.22351563 332.8364502 206.54052734 332.65673828 C197.98682609 330.62454737 189.29197361 330.76515385 180.54931641 330.62280273 C177.38252873 330.5641941 174.21589948 330.50016249 171.04931641 330.43139648 C170.29222885 330.41538391 169.5351413 330.39937134 168.75511169 330.38287354 C164.0694043 330.26824285 159.46135624 329.941319 154.80371094 329.40136719 C150.53830715 328.99256468 146.26804744 329.04142883 141.98681641 329.06030273 C141.10574219 329.05643555 140.22466797 329.05256836 139.31689453 329.04858398 C136.7250287 329.05240962 134.14000964 329.11036223 131.54931641 329.18530273 C130.72729736 329.18626953 129.90527832 329.18723633 129.05834961 329.18823242 C124.60594346 329.37365373 123.08734472 329.6177825 119.91259766 332.96655273 C119.19199314 334.18499288 118.50994685 335.42681389 117.86181641 336.68530273 C117.49080811 337.35456787 117.1197998 338.02383301 116.73754883 338.71337891 C112.34296865 346.94499656 109.55333892 355.73006291 106.79638672 364.6105957 C106.28461057 366.25586846 105.76763567 367.89953351 105.24536133 369.54150391 C104.75375056 371.092918 104.27640536 372.6489539 103.81616211 374.20996094 C102.30441795 379.00469222 100.55062732 381.91434031 96.54931641 385.18530273 C91.91485016 386.73012482 87.40082962 386.30147352 82.54931641 386.18530273 C81.89495605 386.17805176 81.2405957 386.17080078 80.56640625 386.16333008 C67.84333426 385.98871709 56.38575521 383.97531188 46.54931641 375.18530273 C43.7550366 370.24874174 43.03632216 365.73716838 42.54931641 360.18530273 C39.09703551 358.65697137 36.1812422 357.8829578 32.42041016 357.62280273 C30.89323364 357.51186279 30.89323364 357.51186279 29.33520508 357.39868164 C28.23023682 357.3282666 27.12526855 357.25785156 25.98681641 357.18530273 C24.82964111 357.10844238 23.67246582 357.03158203 22.48022461 356.95239258 C19.91951617 356.78502163 17.35854318 356.62166462 14.79736328 356.46166992 C11.00469411 356.22081248 7.2155788 355.94090481 3.42601013 355.65582275 C0.16743819 355.41495267 -3.09229327 355.1936906 -6.35250854 354.97631836 C-7.95257791 354.8661266 -9.55216479 354.74867571 -11.15115356 354.6237793 C-13.41288336 354.44907138 -15.67488973 354.30242141 -17.93896484 354.16186523 C-19.24389893 354.0698584 -20.54883301 353.97785156 -21.89331055 353.88305664 C-27.85490166 354.38957299 -31.35122224 357.82196648 -35.20068359 362.12280273 C-42.94832316 370.04719453 -54.22101962 374.16460856 -65.21240234 374.58374023 C-67.18766264 374.59158376 -69.16304567 374.58364645 -71.13818359 374.56030273 C-72.13140625 374.5719043 -73.12462891 374.58350586 -74.14794922 374.59545898 C-80.90803511 374.56850848 -85.80522881 373.87103575 -91.36474609 369.77514648 C-94.1233759 365.73643307 -92.69906062 359.84786248 -92.01708984 355.28295898 C-89.52320217 343.49508 -83.14511224 332.45612422 -73.45068359 325.18530273 C-74.27052734 324.99194336 -75.09037109 324.79858398 -75.93505859 324.59936523 C-77.55154297 324.2087793 -77.55154297 324.2087793 -79.20068359 323.81030273 C-80.26802734 323.55506836 -81.33537109 323.29983398 -82.43505859 323.03686523 C-89.56417817 321.02372007 -92.27343557 317.10854656 -96.45068359 311.18530273 C-96.93150391 310.5265918 -97.41232422 309.86788086 -97.90771484 309.18920898 C-105.86748275 296.85277111 -105.02666692 279.32406571 -105.45068359 265.18530273 C-106.51544922 265.12213867 -107.58021484 265.05897461 -108.67724609 264.99389648 C-118.91396323 264.20481621 -128.09742936 262.57604543 -136.45068359 256.18530273 C-138.15329037 253.35529418 -138.04612517 251.37474721 -137.45068359 248.18530273 C-137.33080078 247.41573242 -137.21091797 246.64616211 -137.08740234 245.85327148 C-136.31115253 241.78302245 -135.15974191 237.96964615 -133.45068359 234.18530273 C-132.79068359 234.18530273 -132.13068359 234.18530273 -131.45068359 234.18530273 C-131.24443359 233.58717773 -131.03818359 232.98905273 -130.82568359 232.37280273 C-128.87164134 229.26409915 -126.83037782 228.58058934 -123.45068359 227.18530273 C-120.76275999 226.829628 -118.26550587 226.58902733 -115.57568359 226.49780273 C-114.88732422 226.46364258 -114.19896484 226.42948242 -113.48974609 226.39428711 C-111.81059746 226.31266183 -110.13067192 226.24728704 -108.45068359 226.18530273 C-108.63244141 225.1553418 -108.81419922 224.12538086 -109.00146484 223.06420898 C-109.78838006 216.73685352 -109.12323989 210.45493227 -108.63818359 204.12280273 C-108.55503906 202.88208008 -108.47189453 201.64135742 -108.38623047 200.36303711 C-107.94816848 194.3868484 -107.44612888 188.85169378 -105.45068359 183.18530273 C-106.02512207 183.01925537 -106.59956055 182.85320801 -107.19140625 182.68212891 C-109.82126413 181.91828846 -112.44845191 181.14562541 -115.07568359 180.37280273 C-115.97931641 180.11176758 -116.88294922 179.85073242 -117.81396484 179.58178711 C-125.36322994 177.35007006 -131.0110243 175.10493196 -136.45068359 169.18530273 C-143.75483431 170.98572466 -150.58540233 173.33626357 -157.50537109 176.29467773 C-160.66754236 177.25087806 -162.32766552 177.13027499 -165.45068359 176.18530273 C-166.20068359 173.93530273 -166.20068359 173.93530273 -166.45068359 171.18530273 C-163.21431735 166.76810015 -158.82139315 165.61134986 -153.82568359 163.99780273 C-148.54086947 162.33197086 -148.54086947 162.33197086 -143.45068359 160.18530273 C-144.11068359 158.20530273 -144.77068359 156.22530273 -145.45068359 154.18530273 C-150.0235117 153.50784672 -154.46338728 153.11628342 -159.08740234 153.04467773 C-160.07675781 153.0253418 -161.06611328 153.00600586 -162.08544922 152.98608398 C-164.13212224 152.95203824 -166.17911969 152.93398593 -168.22607422 152.93139648 C-176.56435979 152.72416637 -176.56435979 152.72416637 -179.65771484 149.63842773 C-180.24939453 148.82889648 -180.84107422 148.01936523 -181.45068359 147.18530273 C-180.79068359 145.53530273 -180.13068359 143.88530273 -179.45068359 142.18530273 C-175.76293745 142.32528675 -172.07555697 142.47334477 -168.38818359 142.62280273 C-167.34984375 142.66211914 -166.31150391 142.70143555 -165.24169922 142.74194336 C-159.91037719 142.96196617 -154.71378467 143.29692113 -149.45068359 144.18530273 C-149.62599609 142.91428711 -149.80130859 141.64327148 -149.98193359 140.33374023 C-150.37284385 136.86305436 -150.44532207 133.58426575 -150.23193359 130.09936523 C-149.30437617 118.17132325 -149.30437617 118.17132325 -154.63818359 107.87280273 C-156.2266256 106.29431962 -157.82946373 104.73010146 -159.45068359 103.18530273 C-162.26536464 99.33437096 -164.45714959 95.22925068 -166.51318359 90.93530273 C-168.09423663 87.69790841 -169.76928428 85.63686782 -172.45068359 83.18530273 C-191.04510256 62.96387211 -191.04510256 62.96387211 -190.68896484 49.50561523 C-190.45068359 47.18530273 -190.45068359 47.18530273 -189.45068359 45.18530273 C-188.08457695 45.20528824 -188.08457695 45.20528824 -186.69087219 45.22567749 C-178.0566651 45.34650993 -169.42274693 45.43755723 -160.78788471 45.49617577 C-156.34983708 45.52732695 -151.91249513 45.56949729 -147.47485352 45.63793945 C-143.18241249 45.70371864 -138.89064489 45.73913027 -134.59773827 45.75456619 C-132.97000735 45.76554873 -131.3423082 45.78699195 -129.71486855 45.81968307 C-120.01351357 46.00659115 -112.92466692 45.3572944 -104.24636841 40.65916443 C-99.73227913 38.27937425 -94.93679048 37.12020914 -90.01318359 35.87280273 C-89.0728125 35.62208008 -88.13244141 35.37135742 -87.16357422 35.11303711 C-80.68343263 33.40965951 -74.44002409 32.11721803 -67.72021484 31.90405273 C-66.67027344 31.86666992 -65.62033203 31.82928711 -64.53857422 31.79077148 C-62.34327382 31.72008203 -60.14796113 31.64977352 -57.95263672 31.57983398 C-56.9065625 31.54245117 -55.86048828 31.50506836 -54.78271484 31.46655273 C-53.83114502 31.43625977 -52.8795752 31.4059668 -51.89916992 31.37475586 C-49.31350483 31.27407602 -49.31350483 31.27407602 -46.45068359 30.18530273 C-44.11768534 30.14576039 -41.78360171 30.14128541 -39.45068359 30.18530273 C-39.45592041 29.47398193 -39.46115723 28.76266113 -39.46655273 28.02978516 C-39.48732377 24.81079998 -39.50034417 21.5918289 -39.51318359 18.37280273 C-39.5215625 17.25325195 -39.52994141 16.13370117 -39.53857422 14.98022461 C-39.54179687 13.90708008 -39.54501953 12.83393555 -39.54833984 11.72827148 C-39.55357666 10.73851318 -39.55881348 9.74875488 -39.56420898 8.72900391 C-39.45068359 6.18530273 -39.45068359 6.18530273 -38.45068359 3.18530273 C-34.98954747 0.68965817 -31.068344 0.7491484 -26.95068359 0.57202148 C-26.20802246 0.53469406 -25.46536133 0.49736664 -24.70019531 0.45890808 C-16.47022934 0.08057962 -8.23758456 -0.00079406 0 0 Z M-30.45068359 10.18530273 C-30.53154735 13.12335269 -30.59111189 16.05918348 -30.63818359 18.99780273 C-30.66332031 19.83118164 -30.68845703 20.66456055 -30.71435547 21.52319336 C-30.72402344 22.32563477 -30.73369141 23.12807617 -30.74365234 23.95483398 C-30.75936279 24.6932251 -30.77507324 25.43161621 -30.79125977 26.19238281 C-30.35893273 28.72219329 -29.26083235 29.44214115 -27.45068359 31.18530273 C-27.48462431 32.81445696 -27.52281122 34.44364413 -27.58349609 36.07202148 C-27.29375624 40.68229379 -25.14171043 44.93807255 -23.45068359 49.18530273 C-22.87591069 50.68459244 -22.30313423 52.18464843 -21.73193359 53.68530273 C-21.11792161 55.28968818 -20.50333654 56.89385441 -19.88818359 58.49780273 C-19.59548584 59.26261963 -19.30278809 60.02743652 -19.0012207 60.81542969 C-17.70494616 64.15449566 -16.36823473 67.34812033 -14.74755859 70.54858398 C-13.36376982 73.36200996 -13.17801546 75.09506393 -13.45068359 78.18530273 C-16.91568359 78.68030273 -16.91568359 78.68030273 -20.45068359 79.18530273 C-20.69818359 78.36030273 -20.94568359 77.53530273 -21.20068359 76.68530273 C-22.12979168 74.08380009 -23.06109628 71.93434993 -24.33740234 69.52514648 C-26.51491247 65.2225606 -28.0522777 60.83528349 -29.51318359 56.24780273 C-29.87766602 55.12728516 -29.87766602 55.12728516 -30.24951172 53.98413086 C-30.73693211 52.48566872 -31.22215396 50.98648949 -31.70507812 49.48657227 C-32.92832906 45.71107674 -34.18966326 41.94832104 -35.45068359 38.18530273 C-37.05523919 38.32679263 -38.65932126 38.4736596 -40.26318359 38.62280273 C-41.15650391 38.70401367 -42.04982422 38.78522461 -42.97021484 38.86889648 C-45.57811918 39.12020041 -45.57811918 39.12020041 -48.45068359 40.18530273 C-50.25151655 40.31151192 -52.05614098 40.38678595 -53.86083984 40.43139648 C-54.93398437 40.46426758 -56.00712891 40.49713867 -57.11279297 40.53100586 C-59.35229308 40.59146336 -61.59187899 40.64883364 -63.83154297 40.70288086 C-72.49810159 40.97645299 -80.39925572 41.88215284 -88.45068359 45.18530273 C-90.36880859 45.52561523 -90.36880859 45.52561523 -92.32568359 45.87280273 C-95.42069954 46.47585737 -97.5218094 47.22817717 -100.24365234 48.86889648 C-114.48882722 57.32750092 -133.54208185 55.47804124 -149.54833984 53.65795898 C-155.87848556 52.94587539 -162.21394174 53.07852937 -168.57568359 53.12280273 C-169.81833984 53.12731445 -171.06099609 53.13182617 -172.34130859 53.13647461 C-175.37781861 53.14815349 -178.41422447 53.16453133 -181.45068359 53.18530273 C-180.70658972 57.57315998 -179.39808867 60.04823398 -176.70068359 63.62280273 C-175.6159375 65.06333008 -175.6159375 65.06333008 -174.50927734 66.53295898 C-170.1121446 72.20432686 -170.1121446 72.20432686 -165.10693359 77.33764648 C-161.93035782 80.74312257 -159.88110439 84.31960122 -157.63818359 88.37280273 C-154.19246811 94.43004881 -150.57305089 99.97579694 -146.04443359 105.30249023 C-142.59480563 109.37778602 -142.21066249 111.64141823 -142.21240234 116.90795898 C-142.19696369 118.26539064 -142.18065871 119.62281267 -142.16357422 120.98022461 C-142.14723891 123.10405878 -142.13811418 125.22718345 -142.14526367 127.35107422 C-142.15701248 136.46067273 -141.30870446 143.32729382 -136.45068359 151.18530273 C-135.78846977 152.5734397 -135.13985013 153.96825995 -134.51318359 155.37280273 C-130.92353742 162.42389344 -126.84796381 166.52390382 -119.50146484 169.55639648 C-117.33016433 170.33189771 -117.33016433 170.33189771 -114.45068359 170.18530273 C-114.45068359 167.21530273 -114.45068359 164.24530273 -114.45068359 161.18530273 C-116.43068359 160.19530273 -116.43068359 160.19530273 -118.45068359 159.18530273 C-120.05793994 155.97079004 -119.50816544 152.74917738 -119.45068359 149.18530273 C-116.48068359 148.85530273 -113.51068359 148.52530273 -110.45068359 148.18530273 C-110.45068359 143.56530273 -110.45068359 138.94530273 -110.45068359 134.18530273 C-109.79068359 134.18530273 -109.13068359 134.18530273 -108.45068359 134.18530273 C-108.12068359 133.52530273 -107.79068359 132.86530273 -107.45068359 132.18530273 C-103.7056477 130.93695744 -100.33250361 130.53833273 -96.45068359 131.18530273 C-92.4769023 133.18765556 -89.91501545 135.48880496 -87.45068359 139.18530273 C-87.18505859 141.81420898 -87.18505859 141.81420898 -87.20068359 144.74780273 C-87.19294922 146.20379883 -87.19294922 146.20379883 -87.18505859 147.68920898 C-87.45068359 150.18530273 -87.45068359 150.18530273 -89.45068359 152.18530273 C-92.08302152 153.04160543 -94.74615178 153.574602 -97.45068359 154.18530273 C-97.47130859 154.94842773 -97.49193359 155.71155273 -97.51318359 156.49780273 C-98.45068359 159.18530273 -98.45068359 159.18530273 -102.01318359 160.99780273 C-103.14755859 161.38967773 -104.28193359 161.78155273 -105.45068359 162.18530273 C-104.95568359 167.63030273 -104.95568359 167.63030273 -104.45068359 173.18530273 C-102.82130859 173.80405273 -101.19193359 174.42280273 -99.51318359 175.06030273 C-94.57568359 176.93530273 -94.57568359 176.93530273 -93.45068359 179.18530273 C-92.72212158 179.11529053 -91.99355957 179.04527832 -91.24291992 178.97314453 C-80.2911336 178.04912586 -69.36574945 177.99916612 -58.38110352 178 C-55.12747448 177.99779548 -51.87417565 177.97952557 -48.62060547 177.96069336 C-46.52620557 177.95776161 -44.43180408 177.95577535 -42.33740234 177.95483398 C-41.37783127 177.94764847 -40.41826019 177.94046295 -39.42961121 177.93305969 C-24.8191371 177.98217958 -24.8191371 177.98217958 -20.04443359 182.42358398 C-12.7972021 194.98189934 -10.06188472 210.91006073 -8.45068359 225.18530273 C1.41606616 225.38068392 10.89278525 225.56753069 20.54931641 223.18530273 C20.54931641 225.49530273 20.54931641 227.80530273 20.54931641 230.18530273 C12.41318517 232.76742822 4.71053717 233.60414456 -3.77416992 233.63037109 C-9.01803494 233.74393112 -12.60716541 234.24998077 -16.45068359 238.18530273 C-17.15761476 241.14186766 -17.02086536 243.91749231 -16.82568359 246.93530273 C-16.79861328 247.72807617 -16.77154297 248.52084961 -16.74365234 249.33764648 C-16.67315632 251.28803639 -16.56553859 253.23702175 -16.45068359 255.18530273 C-15.13068359 255.51530273 -13.81068359 255.84530273 -12.45068359 256.18530273 C-12.45068359 256.84530273 -12.45068359 257.50530273 -12.45068359 258.18530273 C-5.5087524 262.21098886 1.67638696 261.52294882 9.48681641 261.37280273 C10.85203606 261.35773265 12.21727176 261.34404835 13.58251953 261.33178711 C16.90519736 261.29656438 20.22704821 261.24730315 23.54931641 261.18530273 C23.54931641 263.16530273 23.54931641 265.14530273 23.54931641 267.18530273 C17.93931641 268.17530273 12.32931641 269.16530273 6.54931641 270.18530273 C6.57251953 272.9194043 6.59572266 275.65350586 6.61962891 278.47045898 C6.63525121 281.13476091 6.64738126 283.79905762 6.65917969 286.46337891 C6.66920283 288.30715235 6.68282493 290.15091004 6.70019531 291.99462891 C6.72460636 294.65327863 6.73583657 297.31171716 6.74462891 299.97045898 C6.75495148 300.78740738 6.76527405 301.60435577 6.77590942 302.44606018 C6.77704219 308.29713995 6.1756021 313.33811047 3.21728516 318.51733398 C-3.67210742 325.40672656 -18.55072147 324.1462009 -27.75015259 324.19833374 C-30.09477763 324.18197697 -32.43841069 324.14903517 -34.78271484 324.10717773 C-35.95062813 324.08842339 -35.95062813 324.08842339 -37.14213562 324.06929016 C-40.3361159 324.01495304 -43.52931619 323.95686778 -46.72241211 323.86303711 C-49.09685909 323.79675806 -51.47006675 323.76182185 -53.84521484 323.73217773 C-54.56699417 323.70323425 -55.2887735 323.67429077 -56.03242493 323.64447021 C-58.29853833 323.57620954 -58.29853833 323.57620954 -61.45068359 324.18530273 C-63.40659027 326.52106462 -63.40659027 326.52106462 -64.45068359 329.18530273 C-66.02880859 330.66967773 -66.02880859 330.66967773 -67.70068359 331.93530273 C-76.05401066 338.8404843 -81.99918319 347.76176219 -83.26318359 358.62280273 C-83.58885346 362.03976409 -83.58885346 362.03976409 -82.45068359 365.18530273 C-80.05616478 365.7058503 -77.88289765 365.99920806 -75.45068359 366.18530273 C-74.27119141 366.28391602 -74.27119141 366.28391602 -73.06787109 366.38452148 C-64.73155348 366.74534717 -57.34658501 364.57218791 -49.45068359 362.18530273 C-49.45068359 361.52530273 -49.45068359 360.86530273 -49.45068359 360.18530273 C-48.72494141 359.93780273 -47.99919922 359.69030273 -47.25146484 359.43530273 C-44.17223096 358.0610282 -42.1360232 356.43874344 -39.63818359 354.18530273 C-38.84798828 353.48405273 -38.05779297 352.78280273 -37.24365234 352.06030273 C-35.22031023 350.37677177 -35.22031023 350.37677177 -35.45068359 348.18530273 C-25.63533358 343.72378 -15.66725595 345.43912372 -5.26293945 346.68481445 C-0.56856494 347.20824746 4.1081672 347.44229229 8.82666016 347.61499023 C10.57473185 347.6886222 12.32277812 347.76285952 14.07080078 347.83764648 C16.78019114 347.95091572 19.48951206 348.06040123 22.19946289 348.15942383 C43.87732705 348.96558476 43.87732705 348.96558476 49.54931641 352.18530273 C51.1003572 355.34942596 51.49809016 357.7111251 51.61962891 361.20874023 C51.84940113 365.20677701 52.37120102 367.57913121 55.29931641 370.43530273 C63.39458929 376.40883071 72.8946612 377.55695308 82.67431641 377.74780273 C83.50415039 377.77471191 84.33398438 377.80162109 85.18896484 377.8293457 C87.42650608 377.81504389 89.381395 377.74070856 91.54931641 377.18530273 C93.6319702 374.95791434 93.6319702 374.95791434 94.54931641 372.18530273 C95.29181641 370.60749023 95.29181641 370.60749023 96.04931641 368.99780273 C97.16294981 366.32735529 98.01491996 363.65645354 98.79931641 360.87280273 C102.15697363 349.43578282 106.24456549 338.18757522 113.06884766 328.34936523 C114.62126984 326.27230447 114.62126984 326.27230447 115.35400391 323.97436523 C116.54931641 322.18530273 116.54931641 322.18530273 119.28759766 321.35717773 C131.26063783 319.94396643 143.92034295 318.91465162 155.89672852 320.67822266 C159.54112863 321.18416604 163.06393234 321.37487072 166.74072266 321.46655273 C167.74147072 321.49416687 167.74147072 321.49416687 168.76243591 321.52233887 C170.87881588 321.58046177 172.99527482 321.63342553 175.11181641 321.68530273 C220.236725 322.81118946 220.236725 322.81118946 235.43603516 336.90795898 C243.36068586 345.44783211 246.06350528 354.66556887 245.86572266 366.15014648 C245.44830211 370.15429171 244.3523096 372.30655296 241.54931641 375.18530273 C237.4418128 378.20506663 234.2144387 378.64011778 229.16650391 378.88061523 C228.47042023 378.91839081 227.77433655 378.95616638 227.05715942 378.99508667 C224.84664454 379.11293408 222.6357997 379.21247508 220.42431641 379.31030273 C218.20599972 379.41854851 215.98795911 379.530646 213.77005005 379.64694214 C211.76308431 379.75062571 209.75556796 379.84348257 207.74804688 379.93579102 C204.53116629 380.0571896 204.53116629 380.0571896 201.54931641 381.18530273 C201.54931641 382.83530273 201.54931641 384.48530273 201.54931641 386.18530273 C206.53184113 388.6765651 214.27181781 387.49850254 219.81347656 387.53540039 C221.62317849 387.55187278 223.43281773 387.5790461 225.2421875 387.61743164 C239.67497644 388.09573052 239.67497644 388.09573052 252.54931641 382.18530273 C253.29181641 381.67660645 254.03431641 381.16791016 254.79931641 380.64379883 C255.37681641 380.16249512 255.95431641 379.68119141 256.54931641 379.18530273 C256.54931641 378.52530273 256.54931641 377.86530273 256.54931641 377.18530273 C257.20931641 377.18530273 257.86931641 377.18530273 258.54931641 377.18530273 C261.06395886 373.36825582 260.89484477 369.40828532 260.86181641 364.99780273 C260.85690186 364.22968262 260.8519873 363.4615625 260.84692383 362.67016602 C260.74964048 357.96763853 260.35667862 353.92770633 258.51806641 349.55249023 C257.463689 346.97606804 256.72570649 344.35332938 255.95776367 341.68041992 C252.1179111 328.82532971 243.8662423 322.2507022 233.54931641 314.18530273 C232.69595703 313.48920898 231.84259766 312.79311523 230.96337891 312.07592773 C218.78090361 302.53496003 204.08956043 298.99823489 188.92431641 299.06030273 C188.00263672 299.05643555 187.08095703 299.05256836 186.13134766 299.04858398 C180.27801298 299.05672492 174.52798263 299.41008809 168.70068359 299.94018555 C161.77812941 300.47863026 154.82334865 300.54865757 147.88330078 300.70288086 C141.42184458 300.89094081 135.29848333 301.39842406 128.97216797 302.75537109 C125.13473384 303.43631844 121.4366563 303.3127565 117.54931641 303.18530273 C117.55801758 302.16766846 117.56671875 301.15003418 117.57568359 300.1015625 C117.63858899 289.42097584 117.36650582 278.78799676 116.79931641 268.12280273 C116.7574118 267.32258698 116.7155072 266.52237122 116.67233276 265.69790649 C115.97552955 252.8295065 114.55971696 240.28668945 112.02539062 227.63647461 C111.57734571 225.32961774 111.192589 223.02322644 110.83447266 220.70092773 C109.32888837 211.19414292 106.37219893 202.94775188 102.54931641 194.18530273 C99.13077746 185.9922044 96.11087119 177.92491607 94.73681641 169.12280273 C93.85365427 164.44423307 91.99117788 161.31826981 89.20556641 157.50170898 C86.82377949 154.17057776 84.86228196 150.61707254 82.84619141 147.05639648 C82.20423828 146.13020508 82.20423828 146.13020508 81.54931641 145.18530273 C80.88931641 145.18530273 80.22931641 145.18530273 79.54931641 145.18530273 C79.30181641 144.60780273 79.05431641 144.03030273 78.79931641 143.43530273 C77.36631652 140.85590294 75.76506964 139.12408682 73.54931641 137.18530273 C72.88931641 137.18530273 72.22931641 137.18530273 71.54931641 137.18530273 C71.54931641 136.52530273 71.54931641 135.86530273 71.54931641 135.18530273 C70.72431641 134.58717773 69.89931641 133.98905273 69.04931641 133.37280273 C66.54931641 131.18530273 66.54931641 131.18530273 66.26025391 128.79077148 C66.77884986 124.11639982 69.12671374 121.30538766 72.54931641 118.18530273 C75.52938325 116.49898771 78.47549012 114.98460589 81.61035156 113.61938477 C85.25216652 112.00905842 87.82912166 110.86339187 89.54931641 107.18530273 C90.29626514 100.43347203 88.5362423 95.09360277 86.17431641 88.81030273 C85.81853516 87.84785645 85.46275391 86.88541016 85.09619141 85.89379883 C81.76973128 77.20628939 77.44695064 69.32755843 72.75878906 61.32006836 C70.76856568 57.80724776 69.00802415 54.18702111 67.23681641 50.56030273 C66.57941066 49.24056982 65.9206306 47.92152029 65.26025391 46.60327148 C64.29477194 44.67451185 63.33610275 42.74219545 62.40087891 40.79858398 C58.90083204 34.31165502 52.82889449 30.00581979 47.16552734 25.48413086 C45.7265611 24.32774107 44.31185514 23.14130887 42.90087891 21.95092773 C40.50255289 19.94844193 38.04282109 18.06761336 35.54931641 16.18530273 C34.7871582 15.56494141 34.025 14.94458008 33.23974609 14.30541992 C23.20633514 7.21787612 12.66681809 8.3640782 0.86181641 8.68530273 C-1.17525417 8.71189931 -3.21236822 8.73535978 -5.24951172 8.75561523 C-13.7213843 8.86839591 -22.03661546 9.14120185 -30.45068359 10.18530273 Z M-97.45068359 188.18530273 C-99.15188675 195.52120405 -99.80511709 202.80644999 -100.20068359 210.31030273 C-100.25732178 211.23987793 -100.31395996 212.16945312 -100.37231445 213.12719727 C-100.63090556 218.81216892 -100.82122235 224.88529401 -98.45068359 230.18530273 C-96.16543876 231.7822249 -94.16057603 232.34769962 -91.45068359 233.18530273 C-88.55850615 238.96965762 -89.34770229 246.76473741 -89.32568359 253.12280273 C-89.32109131 253.88085205 -89.31649902 254.63890137 -89.31176758 255.41992188 C-89.327306 260.93854755 -89.327306 260.93854755 -90.45068359 263.18530273 C-92.4295732 263.91224177 -94.43022917 264.58346525 -96.45068359 265.18530273 C-96.00574438 286.98661202 -96.00574438 286.98661202 -88.45068359 307.18530273 C-87.79068359 307.18530273 -87.13068359 307.18530273 -86.45068359 307.18530273 C-86.18255859 307.78342773 -85.91443359 308.38155273 -85.63818359 308.99780273 C-83.73906011 312.49618811 -82.25031998 313.91875727 -78.45068359 315.18530273 C-66.47315182 316.46353735 -54.35665786 316.29161222 -42.32568359 316.31030273 C-41.56458282 316.31289093 -40.80348206 316.31547913 -40.01931763 316.31814575 C-21.19439656 317.33107522 -21.19439656 317.33107522 -3.45068359 313.18530273 C-0.49551704 308.6859951 -1.19237525 303.05685847 -1.26318359 297.87280273 C-1.26962891 296.9032666 -1.27607422 295.93373047 -1.28271484 294.93481445 C-1.36994153 286.66054549 -1.78898621 278.43288799 -2.45068359 270.18530273 C-3.14033203 270.03834961 -3.82998047 269.89139648 -4.54052734 269.73999023 C-11.18603465 268.15381977 -17.53163061 266.14760014 -22.45068359 261.18530273 C-24.84094801 256.11550623 -24.78442339 251.11541521 -24.76318359 245.62280273 C-24.77929688 244.78555664 -24.79541016 243.94831055 -24.81201172 243.08569336 C-24.81579842 238.30308704 -24.59318557 235.04268668 -21.45068359 231.18530273 C-18.76318359 229.37280273 -18.76318359 229.37280273 -16.45068359 228.18530273 C-17.30678384 214.9157489 -19.7999135 199.86063581 -26.45068359 188.18530273 C-29.76267914 185.9773057 -30.78055312 185.93309791 -34.63378906 185.92651367 C-35.69274384 185.92020935 -36.75169861 185.91390503 -37.84274292 185.90740967 C-38.98953522 185.91145813 -40.13632751 185.91550659 -41.31787109 185.91967773 C-42.50357697 185.91776428 -43.68928284 185.91585083 -44.91091919 185.91387939 C-47.42775687 185.91251647 -49.94460155 185.91622032 -52.46142578 185.92456055 C-56.27571902 185.93516384 -60.08953099 185.92471791 -63.90380859 185.91186523 C-66.35433045 185.91318866 -68.80485202 185.91575482 -71.25537109 185.91967773 C-72.38192108 185.91562927 -73.50847107 185.91158081 -74.66915894 185.90740967 C-82.41949222 185.95221632 -89.82517258 186.81338937 -97.45068359 188.18530273 Z M-125.82568359 239.87280273 C-127.55687151 243.40176271 -128.13868917 246.28537245 -128.45068359 250.18530273 C-118.20299856 256.20942994 -109.08515711 256.35391829 -97.45068359 256.18530273 C-97.45068359 250.90530273 -97.45068359 245.62530273 -97.45068359 240.18530273 C-112.20045742 233.47378897 -112.20045742 233.47378897 -125.82568359 239.87280273 Z " fill="#111111" transform="translate(226.45068359375,16.814697265625)"/>
<path d="M0 0 C0 0.66 0 1.32 0 2 C1.423125 2.185625 1.423125 2.185625 2.875 2.375 C6 3 6 3 8 5 C8.56042446 8.3861436 8.5157033 11.60952508 8 15 C4.49655463 19.52057468 -0.6124917 20.1079507 -6 21 C-6.309375 22.134375 -6.61875 23.26875 -6.9375 24.4375 C-8 28 -8 28 -9 29 C-15.04861472 29.67495272 -19.69989787 28.96805719 -25 26 C-27 24.1875 -27 24.1875 -28 22 C-27.91603056 18.13740574 -27.19981316 16.27852743 -24.9375 13.125 C-22.96531479 9.94405611 -22.79837555 9.40413982 -23 5.9375 C-23 2 -23 2 -21.5 -0.9375 C-14.84212254 -6.4302489 -6.90182068 -3.69167152 0 0 Z " fill="#0D0D0E" transform="translate(228,141)"/>
<path d="M0 0 C4.22107386 2.33600585 7.32570534 4.98855801 10 9 C10.30078125 11.59375 10.30078125 11.59375 10.3125 14.5 C10.32925781 15.4590625 10.34601563 16.418125 10.36328125 17.40625 C10 20 10 20 8.85546875 21.78125 C6.1433213 23.56270264 4.25430186 23.86905768 1 24 C-1.7278417 23.30755334 -4.23944276 22.25463489 -6.8125 21.125 C-7.49248047 20.84269531 -8.17246094 20.56039062 -8.87304688 20.26953125 C-13.80591114 18.19408886 -13.80591114 18.19408886 -15 17 C-15.09879565 15.189715 -15.12971514 13.37547273 -15.125 11.5625 C-15.12757812 10.57378906 -15.13015625 9.58507812 -15.1328125 8.56640625 C-15 6 -15 6 -14 4 C-13.34 4 -12.68 4 -12 4 C-11.67 3.01 -11.34 2.02 -11 1 C-7.22657287 -0.25780904 -3.90089425 -0.74830654 0 0 Z " fill="#0D0D0E" transform="translate(130,147)"/>
<path d="M0 0 C5.53829026 0.87735291 10.64162099 3.22169262 15.76171875 5.4375 C14.77171875 5.9325 14.77171875 5.9325 13.76171875 6.4375 C13.76171875 8.0875 13.76171875 9.7375 13.76171875 11.4375 C8.01171875 14.4375 8.01171875 14.4375 5.76171875 14.4375 C5.86871094 15.19675781 5.97570312 15.95601562 6.0859375 16.73828125 C6.20582031 17.73214844 6.32570313 18.72601563 6.44921875 19.75 C6.57683594 20.73613281 6.70445313 21.72226563 6.8359375 22.73828125 C6.76171875 25.4375 6.76171875 25.4375 5.44921875 27.3125 C3.76171875 28.4375 3.76171875 28.4375 1.07421875 28.125 C0.31109375 27.898125 -0.45203125 27.67125 -1.23828125 27.4375 C-1.23828125 26.4475 -1.23828125 25.4575 -1.23828125 24.4375 C-2.22828125 24.1075 -3.21828125 23.7775 -4.23828125 23.4375 C-4.23828125 20.1375 -4.23828125 16.8375 -4.23828125 13.4375 C-5.55828125 12.7775 -6.87828125 12.1175 -8.23828125 11.4375 C-9.63763138 8.63879973 -9.4909353 6.53251208 -9.23828125 3.4375 C-6.64295991 0.05402892 -4.20641558 -0.11124405 0 0 Z " fill="#D3DCF1" transform="translate(115.23828125,164.5625)"/>
<path d="M0 0 C6.50886077 0.10344155 12.92037462 0.87584653 19.375 1.6875 C20.39875732 1.81342529 21.42251465 1.93935059 22.47729492 2.0690918 C23.44513916 2.19840088 24.4129834 2.32770996 25.41015625 2.4609375 C26.71738647 2.63375244 26.71738647 2.63375244 28.05102539 2.81005859 C30.3125 3.3125 30.3125 3.3125 33.3125 5.3125 C32.9825 7.2925 32.6525 9.2725 32.3125 11.3125 C27.57407564 12.12781365 23.42139152 12.33242486 18.64453125 11.82421875 C17.42185547 11.69466797 16.19917969 11.56511719 14.93945312 11.43164062 C13.05129883 11.21797852 13.05129883 11.21797852 11.125 11 C9.85462891 10.86916016 8.58425781 10.73832031 7.27539062 10.60351562 C-2.99939857 9.47877667 -2.99939857 9.47877667 -6.6875 7.3125 C-6.8125 4.9375 -6.8125 4.9375 -6.6875 2.3125 C-4.18799456 -0.18700544 -3.46405713 0.01517105 0 0 Z " fill="#161616" transform="translate(268.6875,157.6875)"/>
<path d="M0 0 C7.60934891 2.33589316 7.60934891 2.33589316 9.25 5.125 C9.4975 5.74375 9.745 6.3625 10 7 C11.33076989 7.34342449 12.66431979 7.67619874 14 8 C15.875 9.6875 15.875 9.6875 17 12 C15.76923077 17.23076923 15.76923077 17.23076923 14 19 C7.95138528 19.67495272 3.30010213 18.96805719 -2 16 C-4 14.1875 -4 14.1875 -5 12 C-4.89132722 7.00105228 -2.92119326 3.95774571 0 0 Z " fill="#D6DDF3" transform="translate(205,151)"/>
<path d="M0 0 C2 2 2 2 2.125 4.625 C2.08375 5.40875 2.0425 6.1925 2 7 C-5.55446779 11.5288749 -17.40037919 11.44480797 -26 11 C-27 10 -27 10 -27.0625 6.9375 C-27.041875 5.968125 -27.02125 4.99875 -27 4 C-18.15275454 0.81017681 -9.46137399 -0.92573974 0 0 Z " fill="#1A1A1A" transform="translate(285,140)"/>
<path d="M0 0 C0.99 0.66 1.98 1.32 3 2 C2.67 3.65 2.34 5.3 2 7 C0.68 7.33 -0.64 7.66 -2 8 C-2 6.02 -2 4.04 -2 2 C-1.34 2 -0.68 2 0 2 C0 1.34 0 0.68 0 0 Z " fill="#DFE6F8" transform="translate(126,170)"/>
<path d="M0 0 C0.66 0.33 1.32 0.66 2 1 C-0.64 3.64 -3.28 6.28 -6 9 C-6.33 8.34 -6.66 7.68 -7 7 C-2.25 1.125 -2.25 1.125 0 0 Z " fill="#3B3B3B" transform="translate(301,133)"/>
<path d="M0 0 C1.32 0.33 2.64 0.66 4 1 C3.40138258 3.35171131 2.73075648 5.6859378 2 8 C1.01 8.495 1.01 8.495 0 9 C0 6.03 0 3.06 0 0 Z " fill="#E2E7F4" transform="translate(218,161)"/>
</svg>
