<?xml version="1.0" encoding="utf-8"?>
<!-- Svg Vector Icons : http://www.onlinewebfonts.com/icon -->
<!DOCTYPE svg PUBLIC "-//W3C//DTD SVG 1.1//EN" "http://www.w3.org/Graphics/SVG/1.1/DTD/svg11.dtd">
<svg version="1.1" xmlns="http://www.w3.org/2000/svg" xmlns:xlink="http://www.w3.org/1999/xlink" x="0px" y="0px" viewBox="0 0 256 256" enable-background="new 0 0 256 256" xml:space="preserve">
<metadata> Svg Vector Icons : http://www.onlinewebfonts.com/icon </metadata>
<g><g><g><path fill="#000000" d="M120.1,10.3c-20,1.2-40.4,8-57,19.2C29.7,51.8,10.1,88.3,10,128C9.9,181.8,46.5,229,98.5,242.4c10,2.6,18.4,3.6,29.5,3.6c14.4,0,24.3-1.6,37.3-5.9c42.4-14.1,72.8-50.4,79.7-95.1c1.3-8.8,1.3-25.7-0.1-34.1c-4-25-14.6-46.6-31.3-64.2C189.4,21.2,155.7,8.1,120.1,10.3z M140.6,73.6c0.2,1.6,0.5,5.4,0.7,8.4l0.4,5.4l4.4,1.9c3.6,1.6,4.5,1.8,5.3,1.2c0.4-0.3,3.3-2.9,6.4-5.5l5.5-4.9l8.8,8.8c7.6,7.6,8.7,8.8,8,9.6c-8.5,9.7-10.3,11.9-10.1,12.4c0.2,0.3,1,2.3,1.9,4.5l1.6,3.9l6,0.4c3.3,0.2,7.1,0.6,8.4,0.7l2.3,0.3v12.2c0,9.3-0.2,12.3-0.7,12.4c-0.4,0.1-4.2,0.4-8.4,0.7l-7.7,0.4l-1.9,4.4c-1.1,2.4-1.7,4.7-1.6,5c0.3,0.6,5.8,6.8,9.4,10.9l1.3,1.4l-8.8,8.8l-8.8,8.8l-6.3-5.5l-6.2-5.5l-4.5,1.8l-4.5,1.8l-0.4,5.4c-0.2,3-0.6,6.8-0.7,8.3l-0.3,2.9h-12.4h-12.4l-0.5-8.4l-0.5-8.4l-2.8-0.9c-1.5-0.6-3.5-1.4-4.5-1.8l-1.7-0.9l-5.4,4.8c-3.1,2.6-5.9,5-6.3,5.5c-0.8,0.7-2-0.4-9.6-8l-8.8-8.8l5.5-6.3l5.5-6.2l-2-4.7l-1.9-4.6l-7.5-0.4c-4.1-0.2-7.8-0.4-8.2-0.6c-0.6-0.2-0.7-3.2-0.7-12.4v-12.2l2.4-0.3c1.3-0.2,5-0.5,8.4-0.7l6-0.4l0.9-2.8c0.6-1.5,1.3-3.5,1.8-4.4l0.8-1.7l-5.5-6.3l-5.5-6.3l8.8-8.8l8.8-8.8l1.4,1.3c0.8,0.7,3.5,3.2,6.2,5.5l4.8,4.2l4.6-1.9l4.6-1.9l0.6-8.2c0.3-4.5,0.7-8.3,0.7-8.4c0.1-0.1,5.6-0.1,12.3-0.1h12.2L140.6,73.6z"/><path fill="#000000" d="M122.6,111.3c-6.5,1.9-11.7,6.2-14.5,11.9c-1.7,3.4-1.8,4.1-1.8,9.5c0,5.5,0.1,6,1.8,9.5c2.3,4.7,7.1,9.3,11.6,11c2.5,1,4.3,1.3,8.5,1.3c4.8,0,5.6-0.2,9-1.8c7-3.3,11.3-8.9,12.7-16.4c2.4-12.8-7.3-25-20.5-25.7C126.8,110.7,124.1,110.9,122.6,111.3z"/></g></g></g>
</svg>