<?xml version="1.0" encoding="utf-8"?>
<!-- Svg Vector Icons : http://www.onlinewebfonts.com/icon -->
<!DOCTYPE svg PUBLIC "-//W3C//DTD SVG 1.1//EN" "http://www.w3.org/Graphics/SVG/1.1/DTD/svg11.dtd">
<svg version="1.1" xmlns="http://www.w3.org/2000/svg" xmlns:xlink="http://www.w3.org/1999/xlink" x="0px" y="0px" viewBox="0 0 256 256" enable-background="new 0 0 256 256" xml:space="preserve">
<metadata> Svg Vector Icons : http://www.onlinewebfonts.com/icon </metadata>
<g><g><g><path fill="#000000" d="M115.8,10.6c-13,1.3-27.4,5.5-39.7,11.5c-24,11.8-42,29.8-53.9,53.9c-28.7,57.7-5.2,128,52.4,157.2c58.1,29.5,129,6.3,158.5-51.9c23.2-45.5,14.4-100.6-21.8-136.7C186.4,19.6,151.2,7,115.8,10.6z M171.8,62.9c1.1,0.7,2.4,2,3,3c1.1,1.9,1.1,2.6,1.1,63.8c0,61.6,0,61.9-1.2,63.4c-0.6,0.8-1.8,2-2.7,2.7c-1.5,1.2-1.9,1.2-45.7,1.2H82.3l-3.2-1.6c-3.4-1.7-5.8-4.1-7.8-7.8l-1.3-2.3l-0.2-54.5c-0.2-60.3-0.3-57.9,3.4-62.7c2.2-2.8,6.5-5.4,10.3-6c1.4-0.2,21.4-0.4,44.4-0.3C169,61.8,169.9,61.8,171.8,62.9z M188.4,63.1c0.8,0.6,1.9,1.8,2.7,2.8l1.2,1.8v61.6c0,58.5-0.1,61.7-1,63.5c-1.2,2.2-4.9,4.4-7.4,4.4c-1.8,0-1.8-0.3-0.7-2.9c1.3-3,1.3-126.8,0-129.9c-0.4-1.1-0.8-2.2-0.8-2.5C182.3,61.1,186.8,62,188.4,63.1z"/><path fill="#000000" d="M117.1,90.9c-4.4,1.4-8.9,5.5-11.1,9.9c-1.4,2.8-1.6,3.8-1.6,8.4c0.1,11.6,5.8,19.9,14.9,21.7c8.1,1.5,15.9-2,19.3-8.6c2.9-5.7,3.6-15,1.6-20.5C136.8,92.8,126.3,87.9,117.1,90.9z"/><path fill="#000000" d="M116.1,134.2c-4.7,0.8-11.5,4.5-15.1,8.1c-5.2,5-5.8,7-6.4,18.1c-0.6,11.1-0.1,13,3.2,14.4c3,1.3,47.8,1.2,50.5-0.1c3.2-1.5,3.7-4,3.1-15.1c-0.6-10.3-1.5-12.6-6.9-17.7C137,135.1,126.6,132.2,116.1,134.2z"/></g></g></g>
</svg>