<?xml version="1.0" encoding="utf-8"?>
<!-- Svg Vector Icons : http://www.onlinewebfonts.com/icon -->
<!DOCTYPE svg PUBLIC "-//W3C//DTD SVG 1.1//EN" "http://www.w3.org/Graphics/SVG/1.1/DTD/svg11.dtd">
<svg version="1.1" xmlns="http://www.w3.org/2000/svg" xmlns:xlink="http://www.w3.org/1999/xlink" x="0px" y="0px" viewBox="0 0 256 256" enable-background="new 0 0 256 256" xml:space="preserve">
<metadata> Svg Vector Icons : http://www.onlinewebfonts.com/icon </metadata>
<g><g><g><path fill="#000000" d="M113.9,10.8c-39.7,4.8-74,29.3-91.7,65.2C-6.4,134.1,17,203.9,74.6,233.2c33.7,17.1,73,17.1,106.7,0.1c46.7-23.7,72.2-75.3,62.7-126.6c-7.7-42-38.2-77.1-78.4-90.4C148.8,10.6,131,8.7,113.9,10.8z M157.9,72.1c13.1,4,26.6,20,26.6,31.4c0,3.4-1.9,7.1-4.4,8.5c-1.6,0.9-2.7,1.1-6.9,0.8l-5-0.3l-7.3,7.2l-7.3,7.3l2.2,4.2c3,6.1,4.4,11.1,4.4,15.9c0,6.2-1.8,9.6-6.2,11.9c-13.7,7-43.3-12.1-54.5-35.2c-6.3-13-5.5-23.1,2.1-27.1c1.9-1,3.2-1.2,7-1.2c5.4,0.1,10,1.4,16.2,4.6l3.8,1.9l7.5-7.4c5.9-5.9,7.4-7.6,7.2-8.5c-2.1-7.3,0.3-13.3,6-14.7C151.2,70.9,155,71.3,157.9,72.1z M107.2,148.2c1.8,1.9,4.6,4.5,6.2,5.8l2.9,2.5l-22,13.6c-12.1,7.5-22.1,13.6-22.2,13.5c-0.2-0.1,25.4-41.7,26.8-43.4c0.4-0.6,1-0.2,2.8,1.9C102.8,143.7,105.3,146.4,107.2,148.2z"/></g></g></g>
</svg>