<?xml version="1.0" encoding="utf-8"?>
<!-- Svg Vector Icons : http://www.onlinewebfonts.com/icon -->
<!DOCTYPE svg PUBLIC "-//W3C//DTD SVG 1.1//EN" "http://www.w3.org/Graphics/SVG/1.1/DTD/svg11.dtd">
<svg version="1.1" xmlns="http://www.w3.org/2000/svg" xmlns:xlink="http://www.w3.org/1999/xlink" x="0px" y="0px" viewBox="0 0 256 256" enable-background="new 0 0 256 256" xml:space="preserve">
<metadata> Svg Vector Icons : http://www.onlinewebfonts.com/icon </metadata>
<g><g><g><path fill="#000000" d="M113.9,10.8c-45.2,5.5-83.5,36.7-97.8,79.9c-18.5,55.6,6.3,116,58.5,142.5c58.1,29.5,129,6.3,158.5-51.7c27.3-53.8,10-118.9-40.6-152.3c-10.7-7-26.3-13.6-39-16.5C141.5,10.1,126.2,9.3,113.9,10.8z M171.2,62.9c1.1,0.6,2.4,1.8,3,2.7l1.2,1.6v62.3c0,62,0,62.3-1.2,63.8c-0.6,0.8-1.8,2-2.7,2.7c-1.5,1.2-1.9,1.2-45.7,1.2c-43.7,0-44.2,0-46.7-1.2c-3.7-1.7-6.3-4.3-8.1-7.9l-1.6-3.2v-55.4V74l1.3-2.6c2.4-5,7-8.5,12.2-9.4c1.4-0.2,21.4-0.4,44.4-0.3C168.2,61.8,169.3,61.8,171.2,62.9z M188.2,63.2c3.8,2.3,3.5-1.7,3.5,66.3c0,69.5,0.3,64.1-4.4,66.6c-2.1,1.1-5.5,1.7-5.5,1c0-0.1,0.4-1.3,0.8-2.5c0.7-2.1,0.8-10.8,0.8-65.1c0-54.4-0.1-63.1-0.8-65.1c-0.4-1.3-0.8-2.5-0.8-2.6C181.7,61,186.6,62.3,188.2,63.2z"/><path fill="#000000" d="M90.3,92.5v5h33.5h33.5v-5v-5h-33.5H90.3V92.5z"/><path fill="#000000" d="M90.3,109.7v5h33.5h33.5v-5v-5h-33.5H90.3V109.7z"/></g></g></g>
</svg>