<?xml version="1.0" encoding="UTF-8"?>
<svg version="1.1" xmlns="http://www.w3.org/2000/svg" width="456" height="168">
<path d="M0 0 C7.15129936 -1.27134211 13.51255912 2.31246191 20 5 C24.4512295 6.75553164 28.94175871 8.3112194 33.49462891 9.78564453 C39.61030215 11.77357338 45.32076922 13.95755494 51 17 C52.30688004 17.57543642 53.61930697 18.13847393 54.9375 18.6875 C58 20 58 20 59 21 C62.22135141 21.25236393 65.45743977 21.18523329 68.6875 21.1875 C70.03618164 21.20586914 70.03618164 21.20586914 71.41210938 21.22460938 C76.42669868 21.23564662 80.251659 20.73331049 85 19 C87.32723813 18.76296649 89.66289192 18.60073742 92 18.5 C98.23728204 18.15722493 104.31221376 17.47236979 110.48828125 16.5 C119.10429555 15.27324824 127.548086 14.83837413 136.25 14.875 C137.9671521 14.87790039 137.9671521 14.87790039 139.71899414 14.88085938 C146.63989695 14.91542788 153.52775662 15.12376962 160.4375 15.5 C164.29091481 15.68896799 168.14482581 15.8512473 172 16 C172.99078552 16.03891357 172.99078552 16.03891357 174.00158691 16.07861328 C178.57769045 16.25203117 183.15224619 16.37462096 187.73098755 16.4519043 C189.26099069 16.48346603 190.79079801 16.52748777 192.32003784 16.58520508 C202.21658219 16.94692228 208.70616749 16.05475483 217.26342773 10.68457031 C220.4590855 8.71739763 223.57133353 7.67495006 227.140625 6.61328125 C229.67126425 5.77859561 231.76277157 4.42934038 234 3 C240.34698898 -0.00646846 247.0850428 -0.35160799 254 0 C256.50874885 2.50874885 256.25670665 3.33863441 256.265625 6.8046875 C256.26941162 7.775271 256.27319824 8.74585449 256.27709961 9.74584961 C256.26815674 10.77846924 256.25921387 11.81108887 256.25 12.875 C256.24685791 13.92115479 256.24371582 14.96730957 256.24047852 16.04516602 C256.17272757 22.40238086 255.65661114 28.39330938 254.390625 34.6328125 C253.35210781 40.92622668 255.15875197 46.43115386 258 52 C258.66 52.33 259.32 52.66 260 53 C260.66920355 54.66278087 261.26120224 56.35699586 261.8125 58.0625 C263.35905592 62.51819084 265.19440568 66.16069193 267.79296875 70.0703125 C269.43037588 72.68804429 270.57163382 75.431125 271.7734375 78.26953125 C273.04995892 81.11121429 274.45222106 83.86203999 275.87915039 86.63012695 C279.51344834 93.69500096 282.50410473 100.64708744 284.9921875 108.20703125 C285.92945899 111.15349274 285.92945899 111.15349274 288 114 C288 115.32 288 116.64 288 118 C288.99 118.33 289.98 118.66 291 119 C293.44777869 123.16122377 292.97639236 126.38432702 292 131 C291 132 291 132 287.5625 132.1875 C284 132 284 132 282 130 C282 129.01 282 128.02 282 127 C281.38125 126.76023437 280.7625 126.52046875 280.125 126.2734375 C277.45636755 124.67422026 277.04971647 123.52109275 276 120.625 C275.66484375 119.72265625 275.3296875 118.8203125 274.984375 117.890625 C274.34511457 116.01343167 273.72907407 114.12811109 273.140625 112.234375 C270.087685 102.4328308 265.7241267 93.11115731 260.37890625 84.33984375 C258.96765986 81.94512253 257.97495127 79.59987004 257 77 C255.91834415 74.19846991 254.88848435 71.81827079 253.3125 69.25 C251.72351999 66.52603427 251.3615701 64.10950289 251 61 C250.01 60.67 249.02 60.34 248 60 C246.66985518 57.67660293 245.49885114 55.4191372 244.375 53 C242.60096371 48.71145898 242.60096371 48.71145898 240 45 C240.72 38.28 240.72 38.28 242 37 C242.29849 35.15153557 242.53892822 33.29362103 242.75390625 31.43359375 C242.88603516 30.30888672 243.01816406 29.18417969 243.15429688 28.02539062 C243.28900391 26.84138672 243.42371094 25.65738281 243.5625 24.4375 C243.70107422 23.24962891 243.83964844 22.06175781 243.98242188 20.83789062 C244.32547648 17.89235278 244.66448547 14.94640467 245 12 C239.77112537 14.31144205 234.55861633 16.65076784 229.375 19.0625 C225.91796096 20.66798604 222.46586622 22.24580198 218.9375 23.6875 C216.04377887 24.7853636 216.04377887 24.7853636 214.35302734 26.56152344 C210.85510975 28.69990593 207.38952311 28.38879745 203.4140625 28.328125 C202.56906693 28.32661438 201.72407135 28.32510376 200.85346985 28.32354736 C198.11032535 28.31419072 195.36795773 28.28266881 192.625 28.25 C190.73771661 28.2381066 188.85042783 28.22704054 186.96313477 28.21679688 C177.6135206 28.15115036 168.27557379 27.9942156 158.9375 27.5 C133.93501396 26.19294792 108.90984653 27.13865929 84.29296875 32.109375 C78.08181855 33.29250695 71.93276708 33.36777461 65.625 33.375 C64.47644531 33.39949219 63.32789063 33.42398438 62.14453125 33.44921875 C53.75040657 33.47853467 53.75040657 33.47853467 50.078125 31.13671875 C49.39234375 30.43160156 48.7065625 29.72648437 48 29 C45.14074789 27.58177475 45.14074789 27.58177475 42.125 26.4375 C41.0628125 26.0146875 40.000625 25.591875 38.90625 25.15625 C37.9471875 24.7746875 36.988125 24.393125 36 24 C34.88625 23.484375 33.7725 22.96875 32.625 22.4375 C27.91456431 20.56956861 23.0963132 19.28383747 18.20703125 17.96484375 C15.56741657 17.17070876 13.42210767 16.26477987 11 15 C12.07808354 17.98109189 13.16345599 20.95948243 14.25 23.9375 C14.55035156 24.76830078 14.85070312 25.59910156 15.16015625 26.45507812 C17.47119901 32.77356738 19.98940789 38.97881578 23 45 C23.20353342 47.45693908 23.32340647 49.85242653 23.375 52.3125 C23.42398438 53.62863281 23.47296875 54.94476563 23.5234375 56.30078125 C22.86832035 60.93060171 21.35376626 61.86307207 18 65 C16.4591752 67.68729319 15.30352274 70.51348115 14.125 73.375 C13.43385379 74.99806192 12.74112117 76.62044913 12.046875 78.2421875 C11.70462891 79.0475293 11.36238281 79.85287109 11.00976562 80.68261719 C9.82777467 83.39525213 8.54823105 86.04953415 7.24829102 88.70703125 C4.2829794 94.79516334 1.83531916 100.95146663 -0.3125 107.375 C-0.67625732 108.46264648 -0.67625732 108.46264648 -1.04736328 109.57226562 C-2.47297292 113.98510675 -3.60358866 118.40627948 -4.55932617 122.94384766 C-5.22175238 126.03468064 -5.99957749 128.99873247 -7 132 C-10.04300316 133.52150158 -12.654085 133.23899393 -16 133 C-18.2434457 129.63483145 -18.19327956 128.9628678 -17.75 125.125 C-17.66234375 124.28195313 -17.5746875 123.43890625 -17.484375 122.5703125 C-16.97022509 119.84200088 -16.03036057 117.5739719 -15 115 C-14.4836674 112.73732783 -14.00702335 110.46536824 -13.5625 108.1875 C-12.45298486 102.85627977 -11.10913182 98.00281992 -9 93 C-8.70222656 92.21238281 -8.40445313 91.42476563 -8.09765625 90.61328125 C-6.2337998 85.72533642 -4.09730011 81.21813062 -1.4921875 76.6875 C0.48153148 73.13273912 2.30586248 69.51077852 4.125 65.875 C4.46176758 65.20581543 4.79853516 64.53663086 5.14550781 63.84716797 C6.11360695 61.90570308 7.06075027 59.95556482 8 58 C8.30728027 57.37794678 8.61456055 56.75589355 8.93115234 56.11499023 C11.1440876 51.39232457 11.06801602 48.86503726 9.74609375 43.99609375 C8.86535406 41.63976924 7.52349802 39.98717134 6 38 C5.3125 34.25 5.3125 34.25 5 31 C4.34 31 3.68 31 3 31 C-0.0447873 21.58240206 -2.49791668 12.95833366 -2 3 C-1.34 2.01 -0.68 1.02 0 0 Z " fill="#ffffff" transform="translate(95,35)"/>
<path d="M0 0 C0.95503418 -0.02215576 1.91006836 -0.04431152 2.89404297 -0.06713867 C10.29302383 -0.04441054 14.02080825 1.77080825 19.3125 7.0625 C25.02459232 14.49376574 26.13633028 22.03818013 26.21875 31.23828125 C25.57741678 35.10042764 24.45194801 36.7018984 21.6875 39.4375 C14.64931884 43.84446426 6.76527738 44.21510298 -1.3125 44.4375 C-2.60051514 44.50807617 -2.60051514 44.50807617 -3.91455078 44.58007812 C-6.81767555 44.73784037 -9.71920876 44.84202262 -12.625 44.9375 C-13.55602539 44.99260742 -14.48705078 45.04771484 -15.44628906 45.10449219 C-20.73951851 45.2048647 -23.73554337 44.62427606 -27.82421875 41.1328125 C-33.53648891 35.54956998 -35.52383982 30.75129946 -35.8125 22.75 C-35.87653236 16.06662228 -33.25695763 13.47918051 -28.8125 8.8125 C-20.37037267 0.79247903 -11.27446074 0.14354702 0 0 Z M9.6875 14.4375 C9.6875 20.0475 9.6875 25.6575 9.6875 31.4375 C11.3375 31.1075 12.9875 30.7775 14.6875 30.4375 C15.15200943 23.93436791 14.01325612 20.0200192 10.6875 14.4375 C10.3575 14.4375 10.0275 14.4375 9.6875 14.4375 Z M-22.4375 19 C-24.65255385 21.37922913 -24.65255385 21.37922913 -24.375 24.875 C-23.41379503 29.12873336 -23.41379503 29.12873336 -18.3125 33.4375 C-18.6425 28.1575 -18.9725 22.8775 -19.3125 17.4375 C-20.61782791 17.33876826 -20.61782791 17.33876826 -22.4375 19 Z " fill="#ffffff" transform="translate(278.3125,98.5625)"/>
<path d="M0 0 C0.80099121 -0.00725098 1.60198242 -0.01450195 2.42724609 -0.02197266 C8.80806824 0.17788913 12.58309406 2.15067124 17.046875 6.8359375 C21.70158899 12.92122872 24.55410051 17.73707083 24.3125 25.6796875 C23.3646956 31.76933078 18.36585431 37.53737026 14 41.6875 C6.22861222 47.09763139 -4.77224887 47.59888283 -14 46.6875 C-20.64738098 45.18949865 -26.70840117 41.66657848 -30.875 36.25 C-32.18154734 33.27397551 -32.69366893 30.93460932 -33 27.6875 C-33.12246094 26.94371094 -33.24492187 26.19992188 -33.37109375 25.43359375 C-33.78629877 21.35180898 -33.56318752 18.66146604 -31.484375 15.06640625 C-23.13025579 4.90222787 -12.9253746 0.11213454 0 0 Z M6 12.6875 C6.33 18.9575 6.66 25.2275 7 31.6875 C11.82536486 27.45663775 11.82536486 27.45663775 13.0625 24.3125 C12.97112897 20.47491677 11.33055753 17.69149786 9 14.6875 C8.01 14.0275 7.02 13.3675 6 12.6875 Z M-19.625 19.1875 C-21.80623981 21.84292237 -22.35671254 23.50710702 -22.0625 26.9375 C-21.40948842 30.71437022 -21.40948842 30.71437022 -18.9375 32.1875 C-18.298125 32.3525 -17.65875 32.5175 -17 32.6875 C-15.87137825 27.32654667 -15.90311779 22.13443314 -16 16.6875 C-17.48347701 16.57255747 -17.48347701 16.57255747 -19.625 19.1875 Z " fill="#ffffff" transform="translate(170,106.3125)"/>
<path d="M0 0 C1 1 1 1 1.375 3.875 C1.189375 5.421875 1.189375 5.421875 1 7 C-11.6895879 16.15973775 -34.18247476 16.22118633 -49.25 16.375 C-49.9939502 16.38877686 -50.73790039 16.40255371 -51.50439453 16.41674805 C-54.45719029 16.39067556 -56.49548594 16.35245493 -58.95703125 14.6328125 C-60.48089888 12.24713209 -60.4842454 10.76711654 -60 8 C-57.18239239 5.08426675 -54.7523325 4.657731 -50.77197266 4.53369141 C-50.08409668 4.52257324 -49.3962207 4.51145508 -48.6875 4.5 C-41.44647735 4.2231609 -34.31221921 3.5470234 -27.125 2.625 C-26.18744873 2.51091797 -25.24989746 2.39683594 -24.28393555 2.27929688 C-18.46418166 1.51363406 -13.07742603 0.25834032 -7.50341797 -1.59619141 C-4.39078965 -2.0982674 -2.77560693 -1.41348674 0 0 Z " fill="#ffffff" transform="translate(446,138)"/>
<path d="M0 0 C2 3 2 3 2.04296875 5.9609375 C1 9 1 9 -1.82421875 10.9140625 C-3.10267775 11.5049312 -4.39148961 12.07369219 -5.6875 12.625 C-7.1401587 13.29486232 -8.5905564 13.9696423 -10.0390625 14.6484375 C-10.82958008 15.01549805 -11.62009766 15.38255859 -12.43457031 15.76074219 C-17.2374021 18.08080063 -21.89135562 20.67775806 -26.5625 23.25 C-27.48957764 23.75740723 -28.41665527 24.26481445 -29.37182617 24.78759766 C-33.26111661 26.92094588 -37.13047887 29.07082096 -40.94921875 31.328125 C-44.35187102 33.19283072 -46.18556377 33.69353386 -50 33 C-51.9375 31.25 -51.9375 31.25 -53 29 C-52.79565964 25.62838411 -51.45762714 24.17890251 -49 22 C-47.36954343 20.99815319 -45.70453987 20.05163189 -44.01953125 19.14453125 C-42.53090576 18.33967285 -42.53090576 18.33967285 -41.01220703 17.51855469 C-39.95630371 16.95555664 -38.90040039 16.39255859 -37.8125 15.8125 C-36.7385498 15.23532227 -35.66459961 14.65814453 -34.55810547 14.06347656 C-26.11702359 9.5469234 -17.60428776 5.19606362 -9 1 C-5.95699684 -0.52150158 -3.345915 -0.23899393 0 0 Z " fill="#ffffff" transform="translate(432,103)"/>
<path d="M0 0 C5.83886864 0.35648932 11.23416242 2.05319067 16.81445312 3.69335938 C18.83941991 4.28526535 20.87014727 4.85258899 22.90258789 5.41821289 C44.03891542 11.46079042 44.03891542 11.46079042 50.81079102 18.23266602 C50.56079102 21.79516602 50.56079102 21.79516602 49.81079102 25.23266602 C46.99054607 26.64278849 44.94710701 26.45704287 41.81079102 26.23266602 C38.94580078 25.08276367 38.94580078 25.08276367 35.93969727 23.52172852 C30.9909311 21.12714156 26.1953343 19.2865313 20.90063477 17.81860352 C20.23287018 17.63332092 19.56510559 17.44803833 18.87710571 17.25714111 C16.13598288 16.50789017 13.39000752 15.7776394 10.64306641 15.05004883 C8.60073619 14.50479305 6.56327008 13.94360619 4.52563477 13.38110352 C3.33059326 13.06318848 2.13555176 12.74527344 0.90429688 12.41772461 C-2.38607582 11.15725037 -4.04154017 10.00486265 -6.18920898 7.23266602 C-5.96693851 2.56498613 -4.88759663 0.35657043 0 0 Z " fill="#ffffff" transform="translate(10.189208984375,132.767333984375)"/>
<path d="M0 0 C4.81199968 0.42613728 8.3958094 1.88725707 12.73828125 3.91015625 C13.53435791 4.27222168 14.33043457 4.63428711 15.15063477 5.00732422 C20.36054123 7.44134318 25.02595069 10.1922201 29.609375 13.68359375 C33.08823555 16.18274146 36.85940858 18.05841098 40.67578125 19.98828125 C42.92578125 21.34765625 42.92578125 21.34765625 44.92578125 24.34765625 C45.30078125 27.34765625 45.30078125 27.34765625 44.92578125 30.34765625 C43.23828125 32.28515625 43.23828125 32.28515625 40.92578125 33.34765625 C34.61065802 33.34765625 28.90738583 28.14822224 24.17578125 24.41015625 C19.16856592 20.58628673 13.58998971 18.05118642 7.92578125 15.34765625 C5.69414393 14.2484916 3.46488313 13.14448584 1.23828125 12.03515625 C0.24441406 11.54402344 -0.74945313 11.05289063 -1.7734375 10.546875 C-4.07421875 9.34765625 -4.07421875 9.34765625 -5.07421875 8.34765625 C-5.26171875 5.41015625 -5.26171875 5.41015625 -5.07421875 2.34765625 C-3.07421875 0.34765625 -3.07421875 0.34765625 0 0 Z " fill="#ffffff" transform="translate(25.07421875,107.65234375)"/>
<path d="M0 0 C1.29067383 0.04495605 1.29067383 0.04495605 2.60742188 0.09082031 C7.34818554 0.35709258 10.59557389 0.84417605 14.5 3.8125 C14.24438677 6.1556213 13.90729228 8.49093403 13.5 10.8125 C10.31175432 12.40662284 6.87103338 11.91424735 3.375 11.875 C2.62089844 11.87048828 1.86679688 11.86597656 1.08984375 11.86132812 C-0.77347127 11.84953499 -2.63674555 11.83159942 -4.5 11.8125 C-4.5 16.1025 -4.5 20.3925 -4.5 24.8125 C-7.8 24.8125 -11.1 24.8125 -14.5 24.8125 C-14.5 20.5225 -14.5 16.2325 -14.5 11.8125 C-15.49 12.1425 -16.48 12.4725 -17.5 12.8125 C-20.22331488 13.04438622 -22.75039269 12.94343368 -25.5 12.8125 C-27.5 10.8125 -27.5 10.8125 -27.875 7.875 C-27.5 4.8125 -27.5 4.8125 -25.8203125 3.19921875 C-18.41694287 -1.22535401 -8.32956677 -0.34226947 0 0 Z " fill="#ffffff" transform="translate(225.5,143.1875)"/>
</svg>
