<?xml version="1.0" encoding="UTF-8"?>
<svg version="1.1" xmlns="http://www.w3.org/2000/svg" width="195" height="361">
<path d="M0 0 C1.91286564 0.98844731 3.7172944 2.09302768 5.5546875 3.21484375 C7.42012848 4.08968981 9.29594044 4.94264458 11.1796875 5.77734375 C21.4286878 10.41413285 21.4286878 10.41413285 25.3671875 13.21484375 C32.31838225 17.57637771 40.66353366 19.12018437 48.515625 21.25 C51.5546875 22.21484375 51.5546875 22.21484375 54.5546875 24.21484375 C59.87809662 23.86054031 63.48590893 20.76045391 67.73828125 17.80859375 C73.06719204 14.79306587 78.81079375 15.07513024 84.796875 15.1171875 C85.56524689 15.11860245 86.33361877 15.1200174 87.12527466 15.12147522 C89.56011989 15.12703692 91.99487044 15.13958215 94.4296875 15.15234375 C96.08854033 15.15736371 97.74739462 15.16192574 99.40625 15.16601562 C103.4557652 15.17699377 107.50521034 15.19423169 111.5546875 15.21484375 C111.5546875 18.18484375 111.5546875 21.15484375 111.5546875 24.21484375 C108.38655921 25.27088651 105.9666435 25.40133467 102.63671875 25.49609375 C100.87811523 25.55216797 100.87811523 25.55216797 99.08398438 25.609375 C97.85744141 25.64417969 96.63089844 25.67898437 95.3671875 25.71484375 C83.00342579 25.16440755 83.00342579 25.16440755 71.63671875 28.5546875 C71.21777344 29.08191406 70.79882812 29.60914062 70.3671875 30.15234375 C67.28448617 33.58030763 65.03837294 34.97434604 60.3359375 35.4296875 C54.15071824 35.66831479 49.27383845 34.42543756 43.5546875 32.21484375 C42.64203125 31.91191406 41.729375 31.60898438 40.7890625 31.296875 C37.01360977 30.03383103 33.28427425 28.66892828 29.5546875 27.27734375 C28.86890625 27.02533203 28.183125 26.77332031 27.4765625 26.51367188 C22.43002654 24.63085168 17.65916954 22.50182809 13.05078125 19.68359375 C10.31516194 18.07390227 7.56153809 16.89713125 4.6171875 15.71484375 C1.38955485 14.40485103 -1.67526515 13.09335933 -4.7578125 11.46484375 C-7.97473148 9.96860236 -10.94177984 9.65843288 -14.4453125 9.21484375 C-14.0932444 19.61906298 -13.39351743 29.9409144 -12.1328125 40.27734375 C-12.02735107 41.21521729 -11.92188965 42.15309082 -11.81323242 43.11938477 C-10.96708878 49.66525407 -9.12074779 55.20158184 -6.4453125 61.21484375 C-5.76516408 62.81956641 -5.08676073 64.42502989 -4.41015625 66.03125 C-3.39633789 68.40854661 -2.37971431 70.78453745 -1.35742188 73.15820312 C2.10990866 81.30676523 5.08278916 88.56693878 4.8671875 97.52734375 C4.87202148 98.56084961 4.87202148 98.56084961 4.87695312 99.61523438 C4.82277846 104.72242773 4.82277846 104.72242773 3.56616211 107.03051758 C1.50294337 111.48613381 2.00999931 116.73810565 1.86669922 121.57714844 C1.8050927 123.57669242 1.72097841 125.57550121 1.63671875 127.57421875 C1.59417969 128.84523437 1.55164063 130.11625 1.5078125 131.42578125 C1.46817383 132.58384277 1.42853516 133.7419043 1.38769531 134.93505859 C1.65202618 140.12660949 3.44733021 144.22446497 5.9296875 148.71484375 C8.65939385 153.98213635 10.08139054 159.36270614 11.46484375 165.11328125 C12.64571648 168.47390115 13.94336953 169.86988022 16.5546875 172.21484375 C17.1425 173.54515625 17.1425 173.54515625 17.7421875 174.90234375 C20.06366382 179.14504186 23.18343078 181.97194271 26.69140625 185.26171875 C28.5546875 187.21484375 28.5546875 187.21484375 28.5546875 189.21484375 C29.8334375 189.23546875 31.1121875 189.25609375 32.4296875 189.27734375 C38.45203536 189.93693423 43.31871679 192.94525422 47.5546875 197.21484375 C48.3125 199.68359375 48.3125 199.68359375 48.5546875 202.21484375 C48.62429687 202.92125 48.69390625 203.62765625 48.765625 204.35546875 C48.81976563 205.0515625 48.87390625 205.74765625 48.9296875 206.46484375 C49.45431478 211.34791307 50.82434043 215.63679544 52.5546875 220.21484375 C52.83183594 220.99601563 53.10898438 221.7771875 53.39453125 222.58203125 C59.8345936 239.88451636 71.42156256 253.62641063 84.5546875 266.21484375 C85.39128906 267.06304687 86.22789062 267.91125 87.08984375 268.78515625 C93.50405319 275.10787934 100.75243034 280.15707251 108.40234375 284.8671875 C110.5546875 286.21484375 110.5546875 286.21484375 111.5546875 287.21484375 C111.62712803 289.23448574 111.63845938 291.25651499 111.6171875 293.27734375 C111.60816406 294.38207031 111.59914062 295.48679687 111.58984375 296.625 C111.57824219 297.47964844 111.56664062 298.33429688 111.5546875 299.21484375 C107.61472202 298.58331818 104.93495685 296.63464678 101.6796875 294.40234375 C100.67164063 293.71527344 99.66359375 293.02820313 98.625 292.3203125 C97.61179687 291.62550781 96.59859375 290.93070312 95.5546875 290.21484375 C94.58015625 289.58449219 93.605625 288.95414062 92.6015625 288.3046875 C89.11724606 285.91480379 85.90232021 283.31668681 82.6796875 280.58984375 C82.08671875 280.1 81.49375 279.61015625 80.8828125 279.10546875 C79.39983195 277.8548446 77.9718974 276.53953549 76.5546875 275.21484375 C76.5546875 274.55484375 76.5546875 273.89484375 76.5546875 273.21484375 C75.66523438 272.828125 75.66523438 272.828125 74.7578125 272.43359375 C72.3628522 271.1087221 71.06407397 269.79877724 69.3046875 267.71484375 C68.70269531 267.00199219 68.10070312 266.28914063 67.48046875 265.5546875 C66.52720703 264.39646484 66.52720703 264.39646484 65.5546875 263.21484375 C64.88824219 262.41175781 64.22179687 261.60867188 63.53515625 260.78125 C59.19380673 255.46039906 55.22386126 250.01772182 51.5546875 244.21484375 C51.0390625 243.42335938 50.5234375 242.631875 49.9921875 241.81640625 C46.23032945 235.85386123 43.70488912 229.91526458 41.5546875 223.21484375 C41.01134766 221.56162109 41.01134766 221.56162109 40.45703125 219.875 C37.45530001 210.48248613 37.45530001 210.48248613 36.9921875 206.02734375 C36.8478125 205.09921875 36.7034375 204.17109375 36.5546875 203.21484375 C33.68049941 201.29871835 32.44355199 200.88567774 29.1796875 200.33984375 C25.086861 199.49857762 22.52496641 198.28093811 19.5546875 195.21484375 C19.5546875 194.55484375 19.5546875 193.89484375 19.5546875 193.21484375 C18.2346875 192.88484375 16.9146875 192.55484375 15.5546875 192.21484375 C15.5546875 191.55484375 15.5546875 190.89484375 15.5546875 190.21484375 C14.8946875 190.21484375 14.2346875 190.21484375 13.5546875 190.21484375 C11.65506439 187.59467394 9.97377881 184.90168784 8.2890625 182.140625 C7.64710937 181.09455078 7.64710937 181.09455078 6.9921875 180.02734375 C6.59902344 179.37378906 6.20585938 178.72023437 5.80078125 178.046875 C4.62014284 176.1670916 4.62014284 176.1670916 2.96484375 174.7265625 C1.24679514 172.88477631 0.98928476 171.67756154 0.5546875 169.21484375 C-0.17975872 165.52440322 -0.96550881 161.86504702 -1.8828125 158.21484375 C-2.10839844 157.28671875 -2.33398438 156.35859375 -2.56640625 155.40234375 C-2.85644531 154.68046875 -3.14648438 153.95859375 -3.4453125 153.21484375 C-4.4353125 152.88484375 -5.4253125 152.55484375 -6.4453125 152.21484375 C-10.33748207 144.11016143 -9.79574345 134.95789897 -9.4453125 126.21484375 C-9.41920898 125.41288574 -9.39310547 124.61092773 -9.36621094 123.78466797 C-9.28117099 121.23982325 -9.17933781 118.69626757 -9.0703125 116.15234375 C-9.03969727 115.35505859 -9.00908203 114.55777344 -8.97753906 113.73632812 C-8.80121675 110.29440004 -8.54320076 107.49710051 -7.40625 104.21875 C-4.83212683 96.17199913 -6.91070232 89.9285769 -10.3828125 82.52734375 C-14.88881883 72.6826149 -14.88881883 72.6826149 -15.4453125 67.21484375 C-16.1053125 67.21484375 -16.7653125 67.21484375 -17.4453125 67.21484375 C-21.18145263 53.8892773 -21.18145263 53.8892773 -22.4453125 47.21484375 C-22.63222656 46.27769531 -22.81914063 45.34054688 -23.01171875 44.375 C-24.44529335 35.78357737 -24.68044875 27.22425159 -24.74285889 18.53036499 C-24.75280881 17.15599563 -24.76731775 15.78165153 -24.78643799 14.40737915 C-24.81022328 12.45270644 -24.80983561 10.49778577 -24.80859375 8.54296875 C-24.81157471 7.39731445 -24.81455566 6.25166016 -24.81762695 5.07128906 C-24.4453125 2.21484375 -24.4453125 2.21484375 -23.11010742 0.38183594 C-17.46568176 -3.57480795 -6.28104231 -2.0167564 0 0 Z " fill="#ffffff" transform="translate(83.4453125,38.78515625)"/>
<path d="M0 0 C0.94689697 0.02835938 1.89379395 0.05671875 2.86938477 0.0859375 C9.30507077 0.51229957 12.94176346 1.83811399 17.75 6.1875 C19 9.4375 19 9.4375 19.75 12.1875 C20.74 12.5175 21.73 12.8475 22.75 13.1875 C25.26516166 19.14446182 25.88040165 25.82688175 24.75 32.1875 C22.83987349 35.38466363 20.52020839 37.72575165 17.75 40.1875 C15.6882155 42.14895436 14.36125846 43.77061232 12.75 46.1875 C9.72746922 46.49672582 6.95862397 46.61331668 3.9375 46.5625 C3.0825293 46.55162354 2.22755859 46.54074707 1.34667969 46.52954102 C-16.79532727 46.07820494 -16.79532727 46.07820494 -23.375 39.8125 C-25.67678546 37.1195244 -27.56333094 34.30783777 -29.25 31.1875 C-29.806875 30.56875 -30.36375 29.95 -30.9375 29.3125 C-32.89869398 26.13723356 -32.62352458 23.8604917 -32.25 20.1875 C-30.3758164 14.01371872 -27.21641799 10.24756983 -22.25 6.1875 C-21.54746094 5.59066406 -20.84492187 4.99382812 -20.12109375 4.37890625 C-13.65121395 -0.11781599 -7.62080542 -0.27107352 0 0 Z M6.75 13.1875 C5.42424506 18.00931981 5.84937561 22.57582067 6.1875 27.5 C6.23970703 28.33595703 6.29191406 29.17191406 6.34570312 30.03320312 C6.47467371 32.08500789 6.61155021 34.13631306 6.75 36.1875 C7.41 36.1875 8.07 36.1875 8.75 36.1875 C10.08160956 34.84347105 10.08160956 34.84347105 11.3125 33.0625 C11.74691406 32.48242188 12.18132812 31.90234375 12.62890625 31.3046875 C14.11486231 28.49845689 14.60948174 26.36722757 14.75 23.1875 C13.41956811 20.34003584 13.41956811 20.34003584 11.375 17.8125 C10.72789062 16.93851563 10.08078125 16.06453125 9.4140625 15.1640625 C8.86492187 14.51179687 8.31578125 13.85953125 7.75 13.1875 C7.42 13.1875 7.09 13.1875 6.75 13.1875 Z M-18.8125 17.3125 C-20.86853782 19.99428846 -21.18384819 21.81375746 -21.25 25.1875 C-18.80667518 29.89134849 -18.80667518 29.89134849 -14.25 32.1875 C-14.13478735 26.77250559 -14.56798844 21.55834106 -15.25 16.1875 C-17.30038276 15.99273176 -17.30038276 15.99273176 -18.8125 17.3125 Z " fill="#ffffff" transform="translate(141.25,130.8125)"/>
<path d="M0 0 C1.12349854 -0.00918457 2.24699707 -0.01836914 3.40454102 -0.02783203 C4.46084717 -0.02380371 5.51715332 -0.01977539 6.60546875 -0.015625 C7.5596167 -0.01336914 8.51376465 -0.01111328 9.49682617 -0.00878906 C11.8125 0.25 11.8125 0.25 13.8125 2.25 C14.0625 5.25 14.0625 5.25 13.8125 8.25 C11.33956839 10.72293161 10.52606357 10.52919979 7.11328125 10.62890625 C6.15768311 10.66266357 5.20208496 10.6964209 4.2175293 10.73120117 C3.19699463 10.75802979 2.17645996 10.7848584 1.125 10.8125 C-0.96620293 10.88109341 -3.05735005 10.95140953 -5.1484375 11.0234375 C-6.17549805 11.05791992 -7.20255859 11.09240234 -8.26074219 11.12792969 C-13.3605893 11.34063602 -18.4376783 11.79357913 -23.51953125 12.26171875 C-26.1875 12.25 -26.1875 12.25 -28.1875 10.25 C-28.4375 7.25 -28.4375 7.25 -28.1875 4.25 C-22.16716845 -1.77033155 -7.92006584 0.0371649 0 0 Z " fill="#ffffff" transform="translate(47.1875,172.75)"/>
<path d="M0 0 C1 1 1 1 1.375 4.25 C0.90248198 8.97518017 -0.47556521 9.95616995 -4 13 C-5.34294481 14.65893182 -6.67744688 16.32476605 -8 18 C-8.69802734 18.65548828 -8.69802734 18.65548828 -9.41015625 19.32421875 C-12.09657833 22.15585284 -13.95236083 25.60069981 -15.98828125 28.91796875 C-18 31 -18 31 -21.10546875 31.42578125 C-24 31 -24 31 -26 29 C-25.54115994 18.78150785 -17.96607524 9.12439513 -11 2 C-7.27635483 -0.23268866 -4.32486091 -0.24480345 0 0 Z " fill="#ffffff" transform="translate(73,221)"/>
<path d="M0 0 C2 2 2 2 2.125 5.125 C2.08375 6.07375 2.0425 7.0225 2 8 C-4.625 10.875 -4.625 10.875 -8 12 C-8.41507813 12.43828125 -8.83015625 12.8765625 -9.2578125 13.328125 C-11.78616763 15.75443889 -14.77672949 17.18476147 -17.875 18.75 C-18.48730469 19.07871094 -19.09960938 19.40742188 -19.73046875 19.74609375 C-22.63955384 21.22243886 -24.59809475 22.03267522 -27.8828125 21.765625 C-30 21 -30 21 -31 20 C-31.375 17.1875 -31.375 17.1875 -31 14 C-27.80851919 10.60905164 -23.91593523 8.96356421 -19.7734375 7.0078125 C-17.81914763 6.06355294 -17.81914763 6.06355294 -16.5 3.875 C-12.95212141 -0.55984824 -5.2314585 -0.41851668 0 0 Z " fill="#ffffff" transform="translate(61,198)"/>
<path d="M0 0 C0 3.63 0 7.26 0 11 C-1.546875 11.268125 -3.09375 11.53625 -4.6875 11.8125 C-7.917746 12.43946758 -9.91812968 12.94976139 -12.75 14.6875 C-15 16 -15 16 -18.25 15.75 C-21 15 -21 15 -22 14 C-22.5 11.3125 -22.5 11.3125 -22 8 C-18.2582586 2.87019324 -13.50058923 1.21575096 -7.4296875 0.2265625 C-4.96267605 -0.00348037 -2.47771371 0 0 0 Z " fill="#ffffff" transform="translate(195,193)"/>
</svg>
