<?xml version="1.0" encoding="UTF-8"?>
<svg version="1.1" xmlns="http://www.w3.org/2000/svg" width="261" height="384">
<path d="M0 0 C4.84707909 4.20840514 7.4601281 10.9721754 10.21875 16.6484375 C11.6246475 19.37260203 13.27434152 21.51386544 15.28125 23.8203125 C17.33058523 26.22958762 19.18160158 28.77768975 21.06640625 31.31640625 C22.69374591 33.48619247 24.35950632 35.62126088 26.03515625 37.75390625 C31.52813063 44.80422941 36.74663323 51.99637062 41.59765625 59.50390625 C46.04669207 66.23876559 51.03036893 72.61539412 57.4296875 77.59765625 C58.16574219 78.20609375 58.90179688 78.81453125 59.66015625 79.44140625 C59.66015625 80.10140625 59.66015625 80.76140625 59.66015625 81.44140625 C60.65015625 81.77140625 61.64015625 82.10140625 62.66015625 82.44140625 C62.66015625 83.10140625 62.66015625 83.76140625 62.66015625 84.44140625 C63.32015625 84.44140625 63.98015625 84.44140625 64.66015625 84.44140625 C65.96209272 86.20077986 67.25847204 87.96440474 68.53515625 89.7421875 C71.84058734 93.94081412 75.54983724 97.75594622 79.25317383 101.60400391 C80.0830481 102.47677979 80.0830481 102.47677979 80.9296875 103.3671875 C81.43089111 103.88708252 81.93209473 104.40697754 82.44848633 104.94262695 C83.66015625 106.44140625 83.66015625 106.44140625 84.66015625 109.44140625 C85.29953125 109.89515625 85.93890625 110.34890625 86.59765625 110.81640625 C89.09196174 112.78161663 89.58022893 114.51017496 90.66015625 117.44140625 C91.32015625 117.77140625 91.98015625 118.10140625 92.66015625 118.44140625 C92.66015625 123.72140625 92.66015625 129.00140625 92.66015625 134.44140625 C86.66015625 133.44140625 86.66015625 133.44140625 84.97265625 131.875 C84.53953125 131.21628906 84.10640625 130.55757812 83.66015625 129.87890625 C83.16644531 129.15703125 82.67273438 128.43515625 82.1640625 127.69140625 C81.66777344 126.94890625 81.17148438 126.20640625 80.66015625 125.44140625 C79.64760675 124.0810344 78.62691391 122.72668098 77.59765625 121.37890625 C75.70960484 118.87133797 73.88479344 116.33408557 72.09765625 113.75390625 C69.89386143 110.65046102 67.38778811 108.10560481 64.66015625 105.44140625 C62.65929972 103.24596325 60.69229698 101.02333621 58.73046875 98.79296875 C57.36056294 97.23696252 55.98044802 95.68987979 54.58984375 94.15234375 C53.95304688 93.44335938 53.31625 92.734375 52.66015625 92.00390625 C52.08265625 91.36582031 51.50515625 90.72773437 50.91015625 90.0703125 C49.66015625 88.44140625 49.66015625 88.44140625 49.66015625 86.44140625 C48.93828125 86.23515625 48.21640625 86.02890625 47.47265625 85.81640625 C43.84609596 84.04342122 42.01697422 81.60434212 39.66015625 78.44140625 C39.01175781 77.59320313 38.36335937 76.745 37.6953125 75.87109375 C33.13547797 69.86076704 28.70720941 63.76387862 24.34350586 57.61035156 C22.33682413 54.78119462 20.31773167 51.96463975 18.25 49.1796875 C17.15365234 47.70048828 17.15365234 47.70048828 16.03515625 46.19140625 C15.38289062 45.32 14.730625 44.44859375 14.05859375 43.55078125 C12.66015625 41.44140625 12.66015625 41.44140625 12.66015625 39.44140625 C12.06203125 39.20035156 11.46390625 38.95929687 10.84765625 38.7109375 C8.21982018 37.18585407 7.2502127 35.69978557 5.66015625 33.12890625 C4.01317266 30.53189937 2.41809785 28.14402022 0.47265625 25.75390625 C-1.59051639 23.12158254 -2.92018329 20.46590027 -4.33984375 17.44140625 C-4.89671875 16.32765625 -5.45359375 15.21390625 -6.02734375 14.06640625 C-6.46046875 13.20015625 -6.89359375 12.33390625 -7.33984375 11.44140625 C-10.17136348 11.02331424 -10.17136348 11.02331424 -13.33984375 11.44140625 C-17.00951831 15.11108081 -18.45387339 19.03887665 -19.77734375 23.94140625 C-19.98415771 24.67190186 -20.19097168 25.40239746 -20.40405273 26.1550293 C-22.06821437 32.14890102 -23.49044603 38.19663715 -24.90234375 44.25390625 C-28.12807449 58.01809191 -32.80337522 69.93961693 -39.33984375 82.44140625 C-39.99984375 82.44140625 -40.65984375 82.44140625 -41.33984375 82.44140625 C-41.70142578 83.53582031 -41.70142578 83.53582031 -42.0703125 84.65234375 C-43.51126951 87.81801547 -45.1726478 89.64088853 -47.65234375 92.06640625 C-48.41160156 92.82179688 -49.17085938 93.5771875 -49.953125 94.35546875 C-52.29912226 96.4058166 -54.64540924 97.8934447 -57.33984375 99.44140625 C-58.14421875 100.12203125 -58.94859375 100.80265625 -59.77734375 101.50390625 C-62.33984375 103.44140625 -62.33984375 103.44140625 -65.58984375 104.50390625 C-66.49734375 104.81328125 -67.40484375 105.12265625 -68.33984375 105.44140625 C-68.83484375 106.92640625 -68.83484375 106.92640625 -69.33984375 108.44140625 C-71.125 109.65234375 -71.125 109.65234375 -73.40234375 110.81640625 C-76.50607268 112.44684613 -79.4747684 114.13792407 -82.40234375 116.06640625 C-85.66708084 118.14751356 -88.8984012 119.50242034 -92.546875 120.765625 C-94.499601 121.43923196 -94.499601 121.43923196 -96.71484375 122.87890625 C-105.39258519 128.04422854 -114.01304496 129.32023952 -123.96484375 130.19140625 C-125.25519531 130.31644531 -126.54554687 130.44148437 -127.875 130.5703125 C-131.02893986 130.87402523 -134.18349562 131.1640515 -137.33984375 131.44140625 C-129.94831814 137.57879684 -129.94831814 137.57879684 -122.33984375 143.44140625 C-118.949885 145.95562566 -115.63399195 148.55272632 -112.33984375 151.19140625 C-111.39109375 151.949375 -110.44234375 152.70734375 -109.46484375 153.48828125 C-108.76359375 154.1328125 -108.06234375 154.77734375 -107.33984375 155.44140625 C-107.33984375 156.10140625 -107.33984375 156.76140625 -107.33984375 157.44140625 C-106.47359375 157.78171875 -106.47359375 157.78171875 -105.58984375 158.12890625 C-100.80237002 160.92159926 -98.46978227 165.79089992 -96.08984375 170.62890625 C-95.5690625 171.67433594 -95.04828125 172.71976563 -94.51171875 173.796875 C-93.33984375 176.44140625 -93.33984375 176.44140625 -93.33984375 178.44140625 C-92.74171875 178.64765625 -92.14359375 178.85390625 -91.52734375 179.06640625 C-88.52965608 180.95066707 -87.72622599 183.25272709 -86.33984375 186.44140625 C-84.2972194 186.51890632 -84.2972194 186.51890632 -82.19921875 185.9296875 C-73.02789117 184.36354549 -62.26681901 185.45423638 -54.33984375 190.44140625 C-50.09776926 193.44620902 -48.65834389 194.81995097 -47.65234375 199.94140625 C-47.66908019 204.51882148 -49.90247326 206.587309 -53.02734375 209.75390625 C-58.26270225 214.69453345 -61.80867621 217.79927685 -69.2590332 217.71166992 C-70.04882568 217.68435791 -70.83861816 217.6570459 -71.65234375 217.62890625 C-74.18921875 217.56703125 -76.72609375 217.50515625 -79.33984375 217.44140625 C-78.84484375 226.35140625 -78.84484375 226.35140625 -78.33984375 235.44140625 C-75.78018038 236.72123794 -73.55941334 236.84482189 -70.7109375 237.16015625 C-69.59396484 237.28777344 -68.47699219 237.41539062 -67.32617188 237.546875 C-64.95642786 237.8103248 -62.58663596 238.07334425 -60.21679688 238.3359375 C-59.10111328 238.46355469 -57.98542969 238.59117187 -56.8359375 238.72265625 C-55.80654053 238.83673828 -54.77714355 238.95082031 -53.71655273 239.06835938 C-51.33984375 239.44140625 -51.33984375 239.44140625 -50.33984375 240.44140625 C-47.44759311 240.76702261 -44.56783175 241.03650081 -41.66796875 241.2734375 C-39.87102369 241.43346001 -38.07415068 241.59429322 -36.27734375 241.75585938 C-33.43611594 242.00726291 -30.59482736 242.25349938 -27.75195312 242.4855957 C-25.01396704 242.71145571 -22.27870298 242.95943576 -19.54296875 243.2109375 C-18.27395721 243.30650688 -18.27395721 243.30650688 -16.97930908 243.40400696 C-11.95355043 243.88660346 -8.98614229 244.66172249 -5.33984375 248.44140625 C-3.4609375 251.54296875 -3.4609375 251.54296875 -1.77734375 255.06640625 C-1.47707275 255.6910376 -1.17680176 256.31566895 -0.86743164 256.95922852 C1.54434342 262.03654669 3.66534296 267.18990915 5.66015625 272.44140625 C6.67036745 275.07063611 7.69447814 277.69415843 8.72265625 280.31640625 C8.96830322 280.95956787 9.2139502 281.60272949 9.46704102 282.26538086 C10.83503526 285.75117511 12.40866595 288.47823798 14.66015625 291.44140625 C15.34765625 295.19140625 15.34765625 295.19140625 15.66015625 298.44140625 C16.32015625 298.44140625 16.98015625 298.44140625 17.66015625 298.44140625 C18.83641049 300.41538611 20.00290047 302.3937859 21.16015625 304.37890625 C21.52181885 304.99918701 21.88348145 305.61946777 22.25610352 306.25854492 C24.63906475 310.42911434 26.69718926 314.65470008 28.62695312 319.05151367 C32.15645455 327.05946949 35.83015601 332.75970728 42.66015625 338.44140625 C43.36527344 339.08464844 44.07039062 339.72789062 44.796875 340.390625 C47.78237453 343.10316457 50.75596838 345.5854306 54.16015625 347.75390625 C55.39765625 348.58921875 55.39765625 348.58921875 56.66015625 349.44140625 C56.66015625 350.10140625 56.66015625 350.76140625 56.66015625 351.44140625 C57.33949219 351.68890625 58.01882812 351.93640625 58.71875 352.19140625 C62.21675647 353.67794286 65.4490511 355.52514957 68.72265625 357.44140625 C73.27173562 360.11451743 73.27173562 360.11451743 77.953125 362.54296875 C79.66015625 363.44140625 79.66015625 363.44140625 81.91015625 365.81640625 C85.19051144 368.94765439 88.55295212 370.61711459 92.66015625 372.44140625 C92.66015625 375.08140625 92.66015625 377.72140625 92.66015625 380.44140625 C82.43536398 381.45106442 77.5222915 379.78515859 69.66015625 373.44140625 C68.05381171 372.4319264 66.42835865 371.45220907 64.78515625 370.50390625 C60.91240691 368.21574155 57.1131931 365.84010169 53.34765625 363.37890625 C52.38214844 362.74855469 51.41664063 362.11820312 50.421875 361.46875 C47.53668373 359.35076659 45.16578449 356.98921678 42.66015625 354.44140625 C41.73203125 353.88453125 40.80390625 353.32765625 39.84765625 352.75390625 C39.12578125 352.32078125 38.40390625 351.88765625 37.66015625 351.44140625 C37.66015625 350.78140625 37.66015625 350.12140625 37.66015625 349.44140625 C36.54640625 349.13203125 36.54640625 349.13203125 35.41015625 348.81640625 C31.84365686 347.03315655 30.78949017 344.7684905 28.66015625 341.44140625 C27.45709839 340.53382568 27.45709839 340.53382568 26.22973633 339.60791016 C23.31374274 337.14933276 22.16202071 335.08797576 20.546875 331.65234375 C19.75893555 329.99332031 19.75893555 329.99332031 18.95507812 328.30078125 C18.1594043 326.57601562 18.1594043 326.57601562 17.34765625 324.81640625 C16.79787109 323.65882813 16.24808594 322.50125 15.68164062 321.30859375 C11.66015625 312.75607046 11.66015625 312.75607046 11.66015625 310.44140625 C10.67015625 310.11140625 9.68015625 309.78140625 8.66015625 309.44140625 C7.5625 307.76953125 7.5625 307.76953125 6.59765625 305.69140625 C6.11619141 304.67820312 6.11619141 304.67820312 5.625 303.64453125 C4.95141455 302.10646568 4.31338953 300.55255114 3.703125 298.98828125 C2.62990507 296.36753446 1.36642537 293.94032481 0.03515625 291.44140625 C-3.35487073 284.77767674 -5.92362994 277.86006101 -8.44775391 270.828125 C-10.27394193 265.83969461 -12.28306441 261.77524008 -15.33984375 257.44140625 C-15.33984375 256.78140625 -15.33984375 256.12140625 -15.33984375 255.44140625 C-16.49097656 255.46976562 -17.64210937 255.498125 -18.828125 255.52734375 C-25.36782423 255.52478368 -31.85678589 254.88455296 -38.36108398 254.26953125 C-40.53237096 254.06593486 -42.70451631 253.87448039 -44.87695312 253.68359375 C-46.27480788 253.55412069 -47.67259704 253.42393702 -49.0703125 253.29296875 C-50.94819458 253.12015381 -50.94819458 253.12015381 -52.86401367 252.94384766 C-56.23798964 252.45612956 -59.12998411 251.55773371 -62.33984375 250.44140625 C-64.51104726 250.0678277 -64.51104726 250.0678277 -66.58203125 249.94921875 C-67.71705078 249.85060547 -67.71705078 249.85060547 -68.875 249.75 C-70.42653839 249.62825993 -71.97864938 249.51359675 -73.53125 249.40625 C-78.95907707 248.91783772 -83.91056944 247.78433014 -88.33984375 244.44140625 C-90.31151012 241.45485307 -90.57129291 239.10866913 -90.54296875 235.57421875 C-90.62656919 224.76795315 -91.26296333 214.66427472 -94.08984375 204.19140625 C-94.32993164 203.2698877 -94.57001953 202.34836914 -94.81738281 201.39892578 C-96.36856133 196.07388005 -97.76372336 193.75891165 -102.33984375 190.44140625 C-103.78125 187.48828125 -103.78125 187.48828125 -104.90234375 184.19140625 C-108.58979072 173.4419614 -108.58979072 173.4419614 -116.33984375 165.44140625 C-117.45359375 164.29671875 -117.45359375 164.29671875 -118.58984375 163.12890625 C-123.01190888 158.8073426 -127.84596331 154.93773452 -133.15234375 151.75390625 C-135.63582161 150.26381954 -137.29119197 148.49005803 -139.33984375 146.44140625 C-140.57811274 145.48846546 -141.82960168 144.55259244 -143.08984375 143.62890625 C-156.81691476 133.48726424 -156.81691476 133.48726424 -160.33984375 126.44140625 C-160.65234375 123.50390625 -160.65234375 123.50390625 -160.33984375 120.44140625 C-158.17525007 118.26188434 -156.99417648 117.46126619 -153.89453125 117.3671875 C-153.01023438 117.49480469 -152.1259375 117.62242188 -151.21484375 117.75390625 C-141.68163628 118.99034688 -141.68163628 118.99034688 -132.33984375 117.44140625 C-130.28815109 117.34842924 -128.23610064 117.25933535 -126.18310547 117.2019043 C-118.15461316 116.95829569 -111.5499101 116.2553292 -104.33984375 112.44140625 C-103.66050781 112.10753906 -102.98117188 111.77367188 -102.28125 111.4296875 C-100.9568072 110.77650226 -99.63884085 110.10999893 -98.328125 109.4296875 C-96.24123409 108.39239202 -94.1195641 107.51570009 -91.96484375 106.62890625 C-87.5621659 104.70226432 -83.89212285 102.12379195 -80.01953125 99.30078125 C-77.1484146 97.30857786 -74.19610544 95.59434301 -71.15234375 93.87890625 C-63.42477391 89.41650676 -58.61008651 85.23279707 -53.87890625 77.66796875 C-51.92833601 74.8460778 -49.63549928 72.67637548 -47.05078125 70.4375 C-42.29824889 64.89287891 -40.31396916 57.77727719 -38.33984375 50.87890625 C-38.08275635 50.00266602 -37.82566895 49.12642578 -37.56079102 48.22363281 C-36.05841578 43.0648348 -34.64145538 37.88828499 -33.27734375 32.69140625 C-26.29392831 6.30961459 -26.29392831 6.30961459 -20.33984375 0.44140625 C-14.37767369 -2.57877498 -6.11022559 -2.9901104 0 0 Z M-79.33984375 195.44140625 C-81.39910056 198.53029147 -81.57888115 199.15076552 -81.46484375 202.62890625 C-81.42359375 203.88703125 -81.38234375 205.14515625 -81.33984375 206.44140625 C-76.20555421 208.6794299 -71.66560668 209.17787349 -66.33984375 207.44140625 C-63.36941788 205.38230506 -60.83713781 203.04757417 -58.33984375 200.44140625 C-59.65984375 199.45140625 -60.97984375 198.46140625 -62.33984375 197.44140625 C-64.27782638 200.21400924 -64.27782638 200.21400924 -65.33984375 202.44140625 C-68.218457 203.400944 -70.04866652 203.50235032 -73.02734375 202.87890625 C-76.17356379 200.92314785 -76.49969655 198.95474911 -77.33984375 195.44140625 C-77.99984375 195.44140625 -78.65984375 195.44140625 -79.33984375 195.44140625 Z " fill="#ffffff" transform="translate(168.33984375,3.55859375)"/>
<path d="M0 0 C0.7734375 0.07605469 1.546875 0.15210938 2.34375 0.23046875 C4.99527947 0.94618957 5.87235653 1.60287936 7.5 3.8125 C10.28535331 10.37334883 9.72022673 16.81840278 9.5 23.8125 C9.49355469 24.80378906 9.48710937 25.79507813 9.48046875 26.81640625 C9.17652141 34.73029449 6.78758672 40.83657181 0.89453125 46.30126953 C-12.0054807 57.37890994 -12.0054807 57.37890994 -21.21484375 57.2890625 C-24.77400126 56.54681085 -26.21972278 54.60124767 -28.28125 51.7265625 C-28.6834375 51.09492188 -29.085625 50.46328125 -29.5 49.8125 C-30.11875 48.905 -30.7375 47.9975 -31.375 47.0625 C-33.58236493 40.68566797 -33.43443939 34.29759978 -30.8125 28.0625 C-27.38014815 21.34130927 -23.4077893 16.48933309 -17.625 11.6484375 C-14.67045512 9.09579762 -11.97671492 6.31482839 -9.26171875 3.51171875 C-6.09885983 0.46106769 -4.29724659 -0.49418336 0 0 Z M-2.5 10.8125 C-4.81 13.1225 -7.12 15.4325 -9.5 17.8125 C-9.005 18.616875 -8.51 19.42125 -8 20.25 C-6.20743408 24.50734406 -5.7955429 28.23810322 -6.5 32.8125 C-8.5 34.8125 -8.5 34.8125 -11.4375 35 C-14.5 34.8125 -14.5 34.8125 -17.5 33.8125 C-18.6875 31.75 -18.6875 31.75 -19.5 29.8125 C-20.16 30.1425 -20.82 30.4725 -21.5 30.8125 C-22.7351487 34.51794611 -23.076893 37.96155191 -22.5 41.8125 C-20.66343011 44.77981398 -20.66343011 44.77981398 -18.5 46.8125 C-14.68310044 46.21029775 -12.41906981 44.45495119 -9.4375 42.0625 C-8.58027344 41.38703125 -7.72304687 40.7115625 -6.83984375 40.015625 C-2.42293088 35.85679552 -0.80207804 31.77350659 -0.5 25.8125 C-0.42834125 21.14444414 -0.44172938 16.48062411 -0.5 11.8125 C-1.16 11.4825 -1.82 11.1525 -2.5 10.8125 Z " fill="#ffffff" transform="translate(163.5,136.1875)"/>
<path d="M0 0 C1.5912689 4.873261 2.21192221 8.80790596 2 14 C6.49201696 15.16180707 6.49201696 15.16180707 10.8828125 14.140625 C11.47835937 13.76421875 12.07390625 13.3878125 12.6875 13 C16 11 16 11 18.4375 11.25 C18.953125 11.4975 19.46875 11.745 20 12 C20.375 14.25 20.375 14.25 20 17 C15.75901105 20.39279116 12.23185758 22.15134193 6.8125 22.0625 C4.9253125 22.0315625 4.9253125 22.0315625 3 22 C3.103125 22.886875 3.20625 23.77375 3.3125 24.6875 C3 28 3 28 0.75 30.9375 C-2 33 -2 33 -4.3125 32.8125 C-4.869375 32.544375 -5.42625 32.27625 -6 32 C-6.625 30.125 -6.625 30.125 -7 28 C-6.34 27.34 -5.68 26.68 -5 26 C-5 24.68 -5 23.36 -5 22 C-5.91523438 21.80664062 -6.83046875 21.61328125 -7.7734375 21.4140625 C-8.96195313 21.15367187 -10.15046875 20.89328125 -11.375 20.625 C-12.55835938 20.36976563 -13.74171875 20.11453125 -14.9609375 19.8515625 C-18 19 -18 19 -20 17 C-19.90850624 13.61473093 -19.16601784 12.19117206 -16.9375 9.625 C-15.968125 8.75875 -14.99875 7.8925 -14 7 C-13.37351562 6.38253906 -12.74703125 5.76507813 -12.1015625 5.12890625 C-5.67211269 -0.99261972 -5.67211269 -0.99261972 0 0 Z " fill="#ffffff" transform="translate(141,203)"/>
<path d="M0 0 C0.79720459 0.10755615 1.59440918 0.2151123 2.41577148 0.32592773 C6.25650381 0.79626377 10.07981064 1.19014843 13.93920898 1.47436523 C14.93114258 1.55235352 15.92307617 1.6303418 16.94506836 1.71069336 C18.99148385 1.87034279 21.03838771 2.02383415 23.08569336 2.17163086 C24.06860352 2.2509082 25.05151367 2.33018555 26.06420898 2.41186523 C27.39053345 2.51229126 27.39053345 2.51229126 28.74365234 2.61474609 C31.03686523 3.00952148 31.03686523 3.00952148 34.03686523 5.00952148 C34.34936523 7.50952148 34.34936523 7.50952148 34.03686523 10.00952148 C31.33436887 12.71201785 29.94770318 12.3086597 26.16186523 12.32202148 C19.78869916 12.23589762 13.59131482 11.55257364 7.28686523 10.63452148 C6.40530762 10.50859619 5.52375 10.3826709 4.61547852 10.25292969 C3.37773682 10.05896606 3.37773682 10.05896606 2.11499023 9.86108398 C1.00752441 9.68826904 1.00752441 9.68826904 -0.12231445 9.51196289 C-1.96313477 9.00952148 -1.96313477 9.00952148 -3.96313477 7.00952148 C-4.21313477 4.50952148 -4.21313477 4.50952148 -3.96313477 2.00952148 C-1.96313477 0.00952148 -1.96313477 0.00952148 0 0 Z " fill="#ffffff" transform="translate(30.963134765625,220.990478515625)"/>
<path d="M0 0 C2 2 2 2 2 4.3125 C0.85608413 7.3867739 -0.62547794 8.47572363 -3.1875 10.421875 C-7.00950696 13.74965692 -9.90238182 18.0118961 -13 22 C-14.64954657 24.01522918 -16.3224742 26.00793811 -18 28 C-22.875 27.125 -22.875 27.125 -24 26 C-24.48369182 22.59601884 -24.09290205 21.15591201 -22.3125 18.16796875 C-21.549375 17.18441406 -20.78625 16.20085937 -20 15.1875 C-19.59644287 14.66631592 -19.19288574 14.14513184 -18.77709961 13.6081543 C-7.59601184 -0.56970089 -7.59601184 -0.56970089 0 0 Z " fill="#ffffff" transform="translate(86,260)"/>
<path d="M0 0 C2 2 2 2 2.3125 4.5 C2.209375 5.325 2.10625 6.15 2 7 C-1.95860139 9.63906759 -6.02781459 10.63067021 -10.56640625 11.9765625 C-12.68733434 12.60873902 -14.80136642 13.26532455 -16.90234375 13.9609375 C-17.75957031 14.24195313 -18.61679687 14.52296875 -19.5 14.8125 C-20.2528125 15.06644531 -21.005625 15.32039063 -21.78125 15.58203125 C-24.46550724 16.08769239 -26.3843654 15.7300487 -29 15 C-30 14 -30 14 -30.375 11.625 C-30.25125 10.75875 -30.1275 9.8925 -30 9 C-26.40767555 6.39523338 -22.73554767 5.15967322 -18.5 3.9375 C-15.37220872 3.02766352 -12.33544996 2.13858736 -9.32421875 0.89453125 C-6.11706207 -0.33981981 -3.40056078 -0.2566461 0 0 Z " fill="#ffffff" transform="translate(62,248)"/>
</svg>
