<?xml version="1.0" encoding="UTF-8"?>
<svg version="1.1" xmlns="http://www.w3.org/2000/svg" width="370" height="308">
<path d="M0 0 C0.928125 0.00193359 1.85625 0.00386719 2.8125 0.00585938 C9.27627894 0.13087516 12.80882784 1.27375186 17.6875 5.625 C20.13044545 9.87753467 20.20135871 13.76637883 19.375 18.5625 C17.48984777 21.13887471 16.18165143 22.15917428 13.375 23.5625 C14.035 24.5525 14.695 25.5425 15.375 26.5625 C15.66375 27.67625 15.9525 28.79 16.25 29.9375 C17.40855356 33.67061702 18.86517819 35.63437455 21.375 38.5625 C21.375 39.2225 21.375 39.8825 21.375 40.5625 C22.035 40.81 22.695 41.0575 23.375 41.3125 C26.375 42.5625 26.375 42.5625 29.5859375 44.359375 C36.63367611 47.90741351 44.53003223 49.58273243 52.1171875 51.63525391 C54.17709601 52.19569834 56.23305937 52.76917114 58.2890625 53.34375 C60.1136499 53.8397168 60.1136499 53.8397168 61.97509766 54.34570312 C66.08376575 55.81616139 70.26416431 57.53685845 72.4375 61.5 C72.3467065 64.49618564 71.11600234 66.17668198 69.375 68.5625 C66.97921882 69.76039059 65.02240013 69.93256217 62.359375 70.24609375 C60.85310547 70.43075195 60.85310547 70.43075195 59.31640625 70.61914062 C57.20466634 70.87115365 55.09268884 71.12118435 52.98046875 71.36914062 C45.37411915 72.01365432 45.37411915 72.01365432 38.375 74.5625 C37.24722621 77.25942538 36.84651486 79.63910788 36.375 82.5625 C37.54417969 82.50449219 38.71335938 82.44648438 39.91796875 82.38671875 C41.4661058 82.33980551 43.01428617 82.29430702 44.5625 82.25 C45.33142578 82.20810547 46.10035156 82.16621094 46.89257812 82.12304688 C51.11979364 82.0323341 52.81627118 82.11963309 56.23828125 84.83203125 C56.94339844 85.73308594 57.64851563 86.63414062 58.375 87.5625 C58.90613403 88.16917511 59.43726807 88.77585022 59.98449707 89.40090942 C61.71059876 92.08420125 61.75277117 93.70427153 61.75976562 96.87841797 C61.76987671 97.9398703 61.77998779 99.00132263 61.79040527 100.09494019 C61.78738403 101.2366568 61.78436279 102.37837341 61.78125 103.5546875 C61.79208618 104.73338409 61.80292236 105.91208069 61.81408691 107.12649536 C61.84838842 110.89688599 61.86394837 114.66697375 61.875 118.4375 C61.88956722 123.39352067 61.92326318 128.34886488 61.96875 133.3046875 C61.96572876 134.44235565 61.96270752 135.5800238 61.95959473 136.75216675 C62.01390762 142.48774923 62.21373648 146.58260616 65.375 151.5625 C65.705 152.5525 66.035 153.5425 66.375 154.5625 C69.675 154.5625 72.975 154.5625 76.375 154.5625 C76.436875 153.7375 76.49875 152.9125 76.5625 152.0625 C77.45883794 148.20135194 78.93911529 145.83784189 81.11328125 142.5859375 C82.30806364 140.66984686 83.13421104 138.8536407 83.9375 136.75 C85.49136304 133.30447761 86.15415831 132.38735639 89.375 130.5625 C91.90712649 130.18262629 94.23169648 129.96078143 96.7734375 129.8671875 C97.48601715 129.82941193 98.1985968 129.79163635 98.93276978 129.75271606 C101.20475056 129.63460352 103.47706226 129.53529702 105.75 129.4375 C108.01547128 129.32895421 110.28068526 129.21646751 112.54580688 129.1008606 C113.95244979 129.03025782 115.35933626 128.96429928 116.76644897 128.90377808 C119.6250756 128.7700461 122.38767026 128.56023819 125.20684814 128.05697632 C128.42607451 127.55452843 131.45588089 127.42192263 134.71240234 127.40136719 C135.947435 127.39175964 137.18246765 127.3821521 138.45492554 127.37225342 C139.79026096 127.36740497 141.12559855 127.36312626 142.4609375 127.359375 C143.14050129 127.35654762 143.82006508 127.35372025 144.52022171 127.35080719 C148.11504752 127.33586942 151.70983375 127.32660524 155.3046875 127.32226562 C158.99871377 127.31678231 162.69237124 127.29274207 166.38628197 127.26429367 C169.24491407 127.24558498 172.10345863 127.24045739 174.96214676 127.23892975 C176.98053519 127.2344698 178.9988766 127.21586851 181.0171814 127.19696045 C187.83701857 127.21344832 193.23860644 127.46737508 199.375 130.5625 C201.80078125 133.15625 201.80078125 133.15625 203.6875 136.0625 C206.54526489 140.75508476 206.54526489 140.75508476 210.375 144.5625 C213.11743563 144.92520484 213.11743563 144.92520484 216.0625 144.75 C217.55330078 144.70939453 217.55330078 144.70939453 219.07421875 144.66796875 C219.83347656 144.63316406 220.59273437 144.59835937 221.375 144.5625 C222.24582185 141.55536736 222.49924101 138.8793705 222.50097656 135.75317383 C222.50668671 134.32567558 222.50668671 134.32567558 222.51251221 132.86933899 C222.51405304 131.33493416 222.51405304 131.33493416 222.515625 129.76953125 C222.5339571 127.59048437 222.55352778 125.41144763 222.57421875 123.23242188 C222.60313736 119.80703659 222.62499896 116.38230225 222.62548828 112.95678711 C222.62883789 109.64378509 222.66348089 106.33227297 222.703125 103.01953125 C222.6960553 102.00671585 222.6889856 100.99390045 222.68170166 99.95039368 C222.79754961 93.123005 224.19224824 88.0613771 228.375 82.5625 C231.84073736 80.82963132 236.03667387 81.23454175 239.87695312 81.1328125 C243.84310079 80.96519878 243.84310079 80.96519878 247.2734375 79.1484375 C249.35315861 76.15422909 250.375 74.26755978 250.375 70.5625 C249.715 70.2325 249.055 69.9025 248.375 69.5625 C248.375 68.9025 248.375 68.2425 248.375 67.5625 C244.68100488 66.40331588 241.16251229 66.4210076 237.30859375 66.38671875 C235.92251059 66.36353658 234.53644279 66.33941991 233.15039062 66.31445312 C230.97555982 66.27925213 228.80130272 66.24993123 226.6262207 66.23657227 C224.51965217 66.2211195 222.41472845 66.18095794 220.30859375 66.13671875 C219.05103271 66.12213623 217.79347168 66.10755371 216.49780273 66.0925293 C213.375 65.5625 213.375 65.5625 211.43774414 63.72192383 C209.91050809 60.61868402 210.31853697 58.80231995 211.375 55.5625 C215.49143885 52.46207786 221.07389955 53.20608403 226 53.171875 C233.13029294 52.94511657 237.18970936 49.79090009 242.4375 45.125 C243.11167969 44.526875 243.78585937 43.92875 244.48046875 43.3125 C246.1254083 41.79305068 247.69722263 40.2373234 249.25 38.625 C251.375 36.5625 251.375 36.5625 253.375 36.5625 C253.601875 35.9025 253.82875 35.2425 254.0625 34.5625 C255.86635068 30.43941274 258.15626524 25.78123476 261.375 22.5625 C266.61550633 22.1068038 266.61550633 22.1068038 269.25 23.6875 C270.96381666 26.5438611 270.81121706 28.2597137 270.375 31.5625 C267.55063384 38.8076132 262.86066445 45.06717769 257.375 50.5625 C255.09375 51.37890625 255.09375 51.37890625 253.375 51.5625 C253.045 52.8825 252.715 54.2025 252.375 55.5625 C253.54869141 56.39394531 253.54869141 56.39394531 254.74609375 57.2421875 C255.75800781 57.96664062 256.76992188 58.69109375 257.8125 59.4375 C258.82183594 60.15679687 259.83117187 60.87609375 260.87109375 61.6171875 C263.375 63.5625 263.375 63.5625 264.375 65.5625 C265.23255598 74.56683779 262.28031404 81.06394923 257.4375 88.5625 C252.19266258 93.64840296 246.8975629 93.98937867 239.88671875 94.3515625 C237.43717547 94.28517424 237.43717547 94.28517424 236.375 95.5625 C236.26821604 97.01322021 236.22880316 98.46898463 236.21728516 99.92358398 C236.20702301 100.85222763 236.19676086 101.78087128 236.18618774 102.73765564 C236.17888641 103.75106522 236.17158508 104.76447479 236.1640625 105.80859375 C236.1359668 107.94727292 236.1073022 110.08594468 236.078125 112.22460938 C236.03704805 115.60147684 236.00017124 118.97820995 235.97363281 122.35522461 C235.94581756 125.61080829 235.89991517 128.86575857 235.8515625 132.12109375 C235.84830963 133.11628525 235.84505676 134.11147675 235.84170532 135.13682556 C235.71307021 142.5678299 235.2767191 150.58823792 229.875 156.125 C222.8784796 160.14799923 213.08887206 159.62400957 205.4375 157.5625 C199.19875119 155.11570446 195.62060086 149.54063881 192.0625 144.125 C190.627416 141.47994289 190.627416 141.47994289 188.375 140.5625 C186.58367342 140.46655399 184.78876671 140.43454263 182.99487305 140.43310547 C181.86997971 140.42995331 180.74508636 140.42680115 179.58610535 140.42355347 C177.75490898 140.42658981 177.75490898 140.42658981 175.88671875 140.4296875 C174.63623245 140.42873077 173.38574615 140.42777405 172.09736633 140.42678833 C169.44679332 140.42610663 166.79631193 140.42746071 164.14575195 140.43212891 C160.75636182 140.43780866 157.36705117 140.43455757 153.97766399 140.42855644 C150.73901279 140.42406059 147.500371 140.42721534 144.26171875 140.4296875 C143.04699387 140.42766327 141.83226898 140.42563904 140.58073425 140.42355347 C139.44638443 140.42670563 138.31203461 140.42985779 137.14331055 140.43310547 C135.65011543 140.43429886 135.65011543 140.43429886 134.12675476 140.43551636 C131.43613942 140.55967863 129.00290727 140.99552574 126.375 141.5625 C123.72549129 141.78816793 121.09115972 141.97905621 118.4375 142.125 C117.69765869 142.1674585 116.95781738 142.20991699 116.19555664 142.25366211 C109.25140122 142.62297674 102.32867683 142.66168081 95.375 142.5625 C95.12363281 143.39523437 94.87226563 144.22796875 94.61328125 145.0859375 C93.22354045 148.98773345 91.49525635 152.53309817 89.5625 156.1875 C89.0665332 157.16976562 89.0665332 157.16976562 88.56054688 158.171875 C86.04904132 162.9345765 83.30104267 166.09947866 78.375 168.5625 C70.46499779 169.19027795 63.0086638 167.99945311 56.484375 163.16015625 C51.79099119 158.31269671 49.97237099 151.98102706 48.375 145.5625 C48.10357178 144.51582153 48.10357178 144.51582153 47.82666016 143.44799805 C45.65843416 133.71585922 46.15735192 123.78397471 46.25 113.875 C46.26005016 111.99805165 46.26917241 110.12109809 46.27734375 108.24414062 C46.29919531 103.68346327 46.3336129 99.1230402 46.375 94.5625 C45.36179688 94.59730469 44.34859375 94.63210937 43.3046875 94.66796875 C41.9531417 94.69612595 40.60157781 94.72342403 39.25 94.75 C38.58484375 94.77513672 37.9196875 94.80027344 37.234375 94.82617188 C32.50458357 94.89572763 29.39197142 94.03724469 25.375 91.5625 C22.06585034 87.3584817 23.44725488 81.98440332 23.9140625 76.984375 C24.58932182 71.97143293 25.1177153 68.30230441 29.3515625 65.0390625 C31.32095498 63.77948639 33.2979071 62.63311558 35.375 61.5625 C34.57835937 61.23636719 33.78171875 60.91023438 32.9609375 60.57421875 C27.67443258 58.39401782 22.43416511 56.23261492 17.375 53.5625 C17.375 52.9025 17.375 52.2425 17.375 51.5625 C16.26898438 51.23572266 16.26898438 51.23572266 15.140625 50.90234375 C11.66253528 49.21733701 10.32123914 47.28104594 8.125 44.125 C7.43921875 43.15691406 6.7534375 42.18882812 6.046875 41.19140625 C3.54780599 37.26179541 3.25882047 34.43776034 3.3125 29.875 C3.32152344 28.88113281 3.33054687 27.88726562 3.33984375 26.86328125 C3.35144531 26.10402344 3.36304687 25.34476563 3.375 24.5625 C2.27800781 24.33175781 1.18101563 24.10101563 0.05078125 23.86328125 C-1.40386273 23.53481325 -2.85827826 23.20533235 -4.3125 22.875 C-5.03373047 22.72611328 -5.75496094 22.57722656 -6.49804688 22.42382812 C-11.49243657 21.26075107 -14.38738246 19.76703607 -17.625 15.5625 C-18.359375 13.31640625 -18.359375 13.31640625 -18.375 11.125 C-18.41109375 10.40441406 -18.4471875 9.68382812 -18.484375 8.94140625 C-15.42860527 0.48248005 -7.93439098 -0.31670888 0 0 Z " fill="#010101" transform="translate(47.625,131.4375)"/>
<path d="M0 0 C9.3601718 6.32712808 13.88407463 13.2622859 16.12890625 24.30078125 C17.76866946 33.41726293 13.9449836 40.81314401 9.12890625 48.30078125 C-3.76693639 62.89984839 -25.66754515 68.96756528 -44.07421875 72.50390625 C-47.64455548 72.89198001 -47.64455548 72.89198001 -48.87109375 74.30078125 C-55.5328101 75.40844871 -62.12887957 75.49288589 -68.87109375 75.48828125 C-69.97018066 75.48820068 -71.06926758 75.48812012 -72.20166016 75.48803711 C-81.69567997 75.42198087 -91.78318835 75.33008305 -100.87109375 72.30078125 C-102.82009904 72.07415273 -104.76961438 71.85067857 -106.72192383 71.65454102 C-112.97736553 71.02530335 -118.82664565 70.35296293 -124.7265625 68.07421875 C-127.28213822 67.1525357 -129.84603692 66.58498279 -132.49609375 65.98828125 C-143.61896001 63.23944551 -153.33759644 59.36062465 -162.36328125 52.234375 C-164.77826838 50.37235221 -167.23767384 48.89168091 -169.87109375 47.36328125 C-173.69235019 44.78615481 -175.40458237 42.61211499 -176.4921875 38.1171875 C-177.67107891 29.35449979 -178.77532235 21.06144242 -173.62109375 13.36328125 C-170.57922183 9.46994518 -170.57922183 9.46994518 -167.76171875 8.796875 C-167.1378125 8.63316406 -166.51390625 8.46945313 -165.87109375 8.30078125 C-165.57847656 7.68589844 -165.28585938 7.07101563 -164.984375 6.4375 C-163.36418763 3.32787722 -161.17901249 2.61000491 -158.05859375 1.11328125 C-157.02089844 0.60410156 -155.98320312 0.09492187 -154.9140625 -0.4296875 C-148.88576965 -2.94470056 -143.30274912 -2.89294331 -136.87109375 -2.69921875 C-136.15953125 -2.6940625 -135.44796875 -2.68890625 -134.71484375 -2.68359375 C-124.29628744 -2.13934081 -114.46637121 3.59019182 -105.859375 9.1015625 C-102.72493616 10.99207866 -100.16343319 11.42824951 -96.58203125 11.43359375 C-95.7314917 11.43601074 -94.88095215 11.43842773 -94.00463867 11.44091797 C-90.20903752 11.4200907 -86.41394359 11.39177003 -82.61865234 11.33789062 C-80.90553257 11.3147527 -79.19227478 11.2991185 -77.47900391 11.29492188 C-63.3233203 11.23246574 -51.2798193 7.97141267 -39.87109375 -0.69921875 C-28.26369715 -7.55204713 -11.43098377 -6.76527611 0 0 Z M-15.87109375 7.30078125 C-16.19349373 15.37272161 -15.83313715 22.3596842 -13.60546875 30.125 C-12.22551731 36.09255598 -12.11299182 42.19494026 -11.87109375 48.30078125 C-10.53254319 47.5179682 -9.20035731 46.72426248 -7.87109375 45.92578125 C-7.12859375 45.48492187 -6.38609375 45.0440625 -5.62109375 44.58984375 C-5.04359375 44.16445312 -4.46609375 43.7390625 -3.87109375 43.30078125 C-3.87109375 42.64078125 -3.87109375 41.98078125 -3.87109375 41.30078125 C-2.97390625 40.96046875 -2.97390625 40.96046875 -2.05859375 40.61328125 C0.9293436 38.82051884 1.77888099 37.54084188 3.12890625 34.30078125 C4.34746445 26.72452808 2.47676941 21.47398638 -1.87109375 15.30078125 C-5.30250318 10.59847943 -10.56616674 9.20407567 -15.87109375 7.30078125 Z M-29.87109375 8.30078125 C-30.58394531 8.77128906 -31.29679687 9.24179688 -32.03125 9.7265625 C-33.46791016 10.66048828 -33.46791016 10.66048828 -34.93359375 11.61328125 C-36.34318359 12.53560547 -36.34318359 12.53560547 -37.78125 13.4765625 C-41.07985532 15.42403239 -44.34200825 16.82166583 -47.87109375 18.30078125 C-47.75197375 22.85415269 -47.62767693 27.40734405 -47.4987793 31.96044922 C-47.45572226 33.50630956 -47.41402949 35.05220856 -47.3737793 36.59814453 C-47.31536072 38.83247486 -47.25188108 41.06661569 -47.1875 43.30078125 C-47.17078751 43.98132568 -47.15407501 44.66187012 -47.13685608 45.36303711 C-46.99461181 50.07056473 -46.51043119 54.64112616 -45.87109375 59.30078125 C-38.1615691 58.67904539 -30.41822978 57.66553861 -23.87109375 53.30078125 C-23.56001839 50.601745 -23.44669235 48.18577315 -23.49609375 45.48828125 C-23.50261963 44.72290039 -23.50914551 43.95751953 -23.51586914 43.16894531 C-23.6510034 37.35877826 -24.62889389 32.06948215 -26.14453125 26.453125 C-27.18176168 21.95288331 -27.37877861 17.48698189 -27.5625 12.8828125 C-27.62057508 10.13916875 -27.62057508 10.13916875 -29.87109375 8.30078125 Z M-154.87109375 13.30078125 C-159.49809308 18.1650626 -162.52663165 26.30502093 -163.10546875 33.01953125 C-163.09818058 35.49650869 -163.09818058 35.49650869 -160.87109375 37.23828125 C-159.88109375 37.91890625 -158.89109375 38.59953125 -157.87109375 39.30078125 C-156.55757778 40.32030699 -155.24514433 41.3412284 -153.93359375 42.36328125 C-150.62419105 44.92518026 -147.7835391 46.34455858 -143.87109375 48.30078125 C-143.54109375 35.43078125 -143.21109375 22.56078125 -142.87109375 9.30078125 C-146.86303446 9.30078125 -151.32769807 11.6433865 -154.87109375 13.30078125 Z M-130.87109375 12.30078125 C-132.1158307 16.03499209 -132.0141868 19.50965252 -132.00390625 23.3984375 C-132.00486298 24.18850693 -132.0058197 24.97857635 -132.00680542 25.79258728 C-132.00748541 27.4610909 -132.00564372 29.12959718 -132.00146484 30.7980957 C-131.99610692 33.35699372 -132.00141957 35.91571677 -132.0078125 38.47460938 C-132.00715183 40.09505247 -132.00587089 41.71549546 -132.00390625 43.3359375 C-132.00593048 44.10365982 -132.00795471 44.87138214 -132.01004028 45.66236877 C-132.0748349 49.61050733 -132.0748349 49.61050733 -130.87109375 53.30078125 C-128.2476289 54.25992956 -125.67452199 55.09048132 -122.99609375 55.86328125 C-122.28195313 56.08435547 -121.5678125 56.30542969 -120.83203125 56.53320312 C-114.89121475 58.27647463 -109.03844029 58.90728981 -102.87109375 59.30078125 C-103.09043579 58.15246826 -103.09043579 58.15246826 -103.31420898 56.98095703 C-103.98347419 53.46339894 -104.64607457 49.9446159 -105.30859375 46.42578125 C-105.53869141 45.22179687 -105.76878906 44.0178125 -106.00585938 42.77734375 C-107.16703991 36.5843809 -108.16046938 30.57290493 -108.34570312 24.26635742 C-108.71886103 22.11629233 -108.71886103 22.11629233 -110.78588867 20.69458008 C-113.09134598 19.39967675 -115.45253153 18.36723388 -117.87109375 17.30078125 C-119.30229609 16.38562522 -120.72006155 15.44898904 -122.12109375 14.48828125 C-125.14931027 12.55022268 -127.1922137 11.72595624 -130.87109375 12.30078125 Z M-68.84375 22.73828125 C-70.040214 22.80486938 -70.040214 22.80486938 -71.260849 22.87280273 C-73.81844508 23.01520337 -76.37601954 23.15798835 -78.93359375 23.30078125 C-80.66341005 23.39716066 -82.39322774 23.49351515 -84.12304688 23.58984375 C-88.37241202 23.82653344 -92.62175781 24.06356793 -96.87109375 24.30078125 C-96.57002627 26.83511218 -96.26472358 29.36881566 -95.95703125 31.90234375 C-95.87316162 32.61205322 -95.78929199 33.3217627 -95.70288086 34.05297852 C-94.48676955 43.99311837 -91.87096107 53.1234207 -87.87109375 62.30078125 C-81.3040985 63.14921299 -74.92558782 63.42639271 -68.30859375 63.36328125 C-67.39529297 63.35876953 -66.48199219 63.35425781 -65.54101562 63.34960938 C-63.31763637 63.33796865 -61.09440254 63.32161976 -58.87109375 63.30078125 C-57.85910636 59.18243257 -57.81802839 55.43755294 -57.95703125 51.20703125 C-57.98889023 50.20331482 -57.98889023 50.20331482 -58.02139282 49.17932129 C-58.06745429 47.77065771 -58.11636458 46.3620847 -58.16796875 44.95361328 C-58.24583912 42.80779779 -58.31305035 40.66183922 -58.37890625 38.515625 C-58.59343728 30.35055303 -58.59343728 30.35055303 -59.87109375 22.30078125 C-62.85904874 22.30078125 -65.85985489 22.5714156 -68.84375 22.73828125 Z " fill="#010101" transform="translate(271.87109375,111.69921875)"/>
<path d="M0 0 C2.37322987 1.23820689 3.96993055 2.33010416 6 4 C6.78632813 4.59425781 7.57265625 5.18851563 8.3828125 5.80078125 C15.91574278 11.5910187 21.27692102 17.20012367 25.70703125 25.6015625 C27.10566406 28.19600524 28.63432861 30.68287012 30.1875 33.1875 C33.48658548 38.67466788 35.72698244 43.45715802 35 50 C33.9375 51.875 33.9375 51.875 32 53 C28.5 53.5 28.5 53.5 25 53 C22.84331454 50.45819213 21.94958819 47.87571142 20.69921875 44.79296875 C18.97762172 40.78170031 16.82929254 37.098746 14.5625 33.375 C14.18029297 32.73304687 13.79808594 32.09109375 13.40429688 31.4296875 C9.89126806 25.60843771 6.47540653 21.02954912 0.75 17.1875 C-0.58804688 16.28064453 -0.58804688 16.28064453 -1.953125 15.35546875 C-2.62859375 14.90816406 -3.3040625 14.46085937 -4 14 C-6.56638947 15.24248233 -9.1279307 16.49360567 -11.6875 17.75 C-12.40873047 18.09804688 -13.12996094 18.44609375 -13.87304688 18.8046875 C-19.1388766 21.40153504 -23.32544292 24.32544292 -27.5 28.5 C-36.51808189 37.51808189 -45.29890367 41.84535488 -58 43 C-57.69255859 44.14275391 -57.69255859 44.14275391 -57.37890625 45.30859375 C-53.03303787 61.96429026 -53.03303787 61.96429026 -55.1875 66.5 C-57.26358459 68.21813897 -58.3064678 68.84155693 -61 69 C-63.52734375 68.32421875 -63.52734375 68.32421875 -66 67 C-67.07421875 64.71484375 -67.07421875 64.71484375 -67.6875 61.9375 C-68.0278125 60.46216797 -68.0278125 60.46216797 -68.375 58.95703125 C-68.58125 57.98121094 -68.7875 57.00539062 -69 56 C-69.20625 55.15824219 -69.4125 54.31648438 -69.625 53.44921875 C-70.60801127 49.38747081 -71 46.27567089 -71 42 C-74.96 42 -78.92 42 -83 42 C-82.89171875 43.37671875 -82.89171875 43.37671875 -82.78125 44.78125 C-82.49851253 48.51966767 -82.24137463 52.25869319 -82 56 C-81.94328125 56.84820312 -81.8865625 57.69640625 -81.828125 58.5703125 C-81.71536435 61.53591761 -81.89611506 63.75556484 -83.0625 66.5 C-85 68 -85 68 -88.5 68.5 C-92 68 -92 68 -93.70043945 66.29394531 C-95.25032965 63.5581256 -95.34751777 61.92435242 -95.29296875 58.796875 C-95.28330078 57.8171875 -95.27363281 56.8375 -95.26367188 55.828125 C-95.23853516 54.81234375 -95.21339844 53.7965625 -95.1875 52.75 C-95.16719727 51.203125 -95.16719727 51.203125 -95.14648438 49.625 C-95.11117607 47.08280208 -95.06186036 44.54166777 -95 42 C-96.2375 42.020625 -97.475 42.04125 -98.75 42.0625 C-101.6640825 42.06766681 -104.20953327 41.93015558 -107 41 C-109.31179043 46.88852278 -110.37455854 52.19037779 -110.59375 58.51953125 C-111.0794296 61.48497881 -111.88748213 62.87772454 -114 65 C-117.5625 65.375 -117.5625 65.375 -121 65 C-124.74324174 61.25675826 -123.95137895 55.07482175 -124 50 C-123.03257481 45.00163654 -121.00180607 40.65254927 -119 36 C-131.83169638 21.1552904 -131.83169638 21.1552904 -150 15 C-154.95529379 15.10112844 -157.99208025 17.06444051 -161.984375 19.75390625 C-164 21 -164 21 -167.6875 22.3125 C-172.24716428 24.63534784 -173.63059684 27.60179538 -176 32 C-179.77609675 38.47049912 -183.62928078 44.28234626 -188.5625 49.9375 C-191.12215312 52.86519186 -191.12215312 52.86519186 -192.375 56.3125 C-194 59 -194 59 -197.5 60.0625 C-201 60 -201 60 -202.71875 58.7578125 C-204.77403179 55.93806615 -204.13691875 53.75093185 -203.65234375 50.4296875 C-202.59716923 46.4996363 -200.68068739 43.06483574 -198 40 C-197.34 40 -196.68 40 -196 40 C-195.73960937 39.27425781 -195.47921875 38.54851563 -195.2109375 37.80078125 C-193.96487991 34.91877063 -192.48907236 32.70684671 -190.625 30.1875 C-188.39969904 27.11228943 -186.5547936 24.23647968 -185.0625 20.75 C-181.51167788 13.27031004 -172.56643815 9.36721715 -165.5625 5.625 C-164.76779297 5.17511719 -163.97308594 4.72523437 -163.15429688 4.26171875 C-157.81073271 1.40080319 -153.09105011 -0.13217693 -147 1 C-146.01 1.66 -145.02 2.32 -144 3 C-142.15471003 3.43534238 -140.29865465 3.82594584 -138.4375 4.1875 C-130.07688265 6.25011937 -124.47826451 10.27512793 -118.65234375 16.53515625 C-118.05856934 17.16510498 -117.46479492 17.79505371 -116.85302734 18.4440918 C-115.68728887 19.70122645 -114.54644825 20.98206958 -113.43603516 22.28833008 C-110.2538788 25.7533134 -107.91006834 27.38782826 -103.17578125 27.87109375 C-101.11786865 27.9392866 -99.05893284 27.97878482 -97 28 C-95.65122695 28.05574645 -94.30267298 28.1169669 -92.9543457 28.18261719 C-89.1381473 28.36383487 -85.32213267 28.49717624 -81.50341797 28.61254883 C-79.13587781 28.68715721 -76.76930136 28.77810379 -74.40234375 28.86914062 C-56.05593079 29.69175266 -56.05593079 29.69175266 -40 22 C-38.92172115 20.93237081 -37.8596857 19.84814364 -36.8125 18.75 C-28.35861169 9.93105742 -12.65917872 -2.18261702 0 0 Z " fill="#020202" transform="translate(269,21)"/>
<path d="M0 0 C5.94020085 3.31280432 5.94020085 3.31280432 8.25 6.8125 C9.19161981 11.17164581 9.75490994 15.37042716 9.25 19.8125 C7.16239126 22.52125338 5.9824732 23.67920126 2.58032227 24.29833984 C1.08843384 24.28601318 1.08843384 24.28601318 -0.43359375 24.2734375 C-1.52607422 24.26957031 -2.61855469 24.26570313 -3.74414062 24.26171875 C-5.44860352 24.22498047 -5.44860352 24.22498047 -7.1875 24.1875 C-8.31994141 24.18621094 -9.45238281 24.18492187 -10.61914062 24.18359375 C-15.85187718 24.12809036 -19.93412112 24.01929629 -24.75 21.8125 C-24.75 21.1525 -24.75 20.4925 -24.75 19.8125 C-26.07 19.1525 -27.39 18.4925 -28.75 17.8125 C-29.21919848 10.60509 -29.2127247 5.67779532 -24.75 -0.1875 C-17.77374164 -2.51291945 -7.0368865 -2.39986303 0 0 Z " fill="#DC7472" transform="translate(328.75,129.1875)"/>
<path d="M0 0 C0.928125 0.00193359 1.85625 0.00386719 2.8125 0.00585938 C9.27627894 0.13087516 12.80882784 1.27375186 17.6875 5.625 C20.06602438 9.76539429 20.40780747 13.89208386 19.375 18.5625 C17.21755422 21.56212943 15.93512792 22.43834426 12.30859375 23.2421875 C2.61832179 23.78354348 -7.15931375 23.98922195 -15.625 18.5625 C-17.59621981 15.60567029 -18.00615169 14.63711847 -18.1875 11.25 C-18.25066406 10.51136719 -18.31382813 9.77273437 -18.37890625 9.01171875 C-15.73086684 0.40902076 -7.78037247 -0.31056109 0 0 Z " fill="#DD7573" transform="translate(47.625,131.4375)"/>
<path d="M0 0 C1.5 1.875 1.5 1.875 1.9375 4.875 C1.44871772 8.22664995 1.11884509 8.87841224 -1.5 10.875 C-3.82495117 11.42749023 -3.82495117 11.42749023 -6.54296875 11.68359375 C-7.53490234 11.79123047 -8.52683594 11.89886719 -9.54882812 12.00976562 C-11.62155249 12.20968615 -13.69446746 12.4076415 -15.76757812 12.60351562 C-22.06949434 13.29107136 -28.76694042 14.14194042 -33.5 18.875 C-36.55760057 19.14087831 -38.70840805 19.30909881 -41.4375 17.8125 C-42.5 15.875 -42.5 15.875 -42.5625 12.5 C-41.26544189 8.07474291 -39.38327668 6.11408081 -35.5 3.875 C-26.97522793 -0.31483479 -8.94047597 -4.02321419 0 0 Z " fill="#010101" transform="translate(344.5,81.125)"/>
<path d="M0 0 C1.10784348 -0.00430527 1.10784348 -0.00430527 2.23806763 -0.00869751 C3.79983283 -0.01073774 5.36162361 -0.00521065 6.92333984 0.00732422 C9.30494949 0.02333422 11.68485045 0.00749927 14.06640625 -0.01171875 C15.58594123 -0.00973542 17.10547514 -0.00588987 18.625 0 C19.68773636 -0.00910904 19.68773636 -0.00910904 20.77194214 -0.0184021 C25.15125045 0.04334869 27.9782472 0.67752188 31.4453125 3.3984375 C32.6528112 6.34171559 32.72232136 7.68612901 31.5703125 10.6484375 C25.56200355 15.59645663 13.3824946 13.39797422 6.0703125 13.1484375 C4.80058594 13.12136719 3.53085937 13.09429687 2.22265625 13.06640625 C1.00964844 13.02644531 -0.20335937 12.98648438 -1.453125 12.9453125 C-2.55317871 12.91276367 -3.65323242 12.88021484 -4.78662109 12.84667969 C-7.5546875 12.3984375 -7.5546875 12.3984375 -9.41259766 11.05175781 C-11.20199573 8.46137651 -10.9364082 6.45220308 -10.5546875 3.3984375 C-8.04677966 -0.56785427 -4.23532761 -0.03609603 0 0 Z " fill="#010101" transform="translate(27.5546875,111.6015625)"/>
<path d="M0 0 C3.43693536 1.37621521 4.90072635 2.30226139 6.98828125 5.43359375 C7.7306652 10.9194204 7.90330047 15.79286963 5.17578125 20.68359375 C-0.21865969 23.6452476 -5.61351064 23.40065138 -11.46875 21.734375 C-13.60246035 20.82322301 -15.25463933 19.94702482 -17.01171875 18.43359375 C-18.65642085 14.07997053 -18.14924374 9.90244192 -17.01171875 5.43359375 C-12.12435477 -0.33098941 -7.38128717 -2.07822649 0 0 Z " fill="#000000" transform="translate(86.01171875,98.56640625)"/>
<path d="M0 0 C0.74330566 -0.00191345 1.48661133 -0.0038269 2.25244141 -0.00579834 C3.82259459 -0.00715817 5.3927591 -0.00347579 6.96289062 0.00488281 C9.36614233 0.01558555 11.76864654 0.0049811 14.171875 -0.0078125 C15.69791832 -0.00649087 17.22396117 -0.0039284 18.75 0 C19.46881348 -0.00404846 20.18762695 -0.00809692 20.92822266 -0.01226807 C24.62850434 0.02250818 26.21266401 0.15740101 29.375 2.265625 C30.35368153 5.12638638 30.59635111 6.65265269 29.5625 9.515625 C28.375 11.265625 28.375 11.265625 26.375 12.265625 C23.71145448 12.40093931 21.07526178 12.47826292 18.41015625 12.50390625 C17.62104355 12.511978 16.83193085 12.52004974 16.01890564 12.52836609 C14.34864498 12.54220247 12.6783561 12.55292663 11.00805664 12.56079102 C8.45079327 12.57803536 5.89481246 12.62192652 3.33789062 12.66601562 C1.71615535 12.67613989 0.09440908 12.68465683 -1.52734375 12.69140625 C-2.67589088 12.71766838 -2.67589088 12.71766838 -3.84764099 12.74446106 C-9.11434131 12.72288307 -9.11434131 12.72288307 -11.67016602 10.43432617 C-12.625 8.265625 -12.625 8.265625 -12 5.140625 C-9.34219783 -0.41659772 -5.47838341 -0.03085505 0 0 Z " fill="#000000" transform="translate(323.625,109.734375)"/>
<path d="M0 0 C23.75795512 5.48486124 23.75795512 5.48486124 28.48046875 12.7578125 C29.35026455 15.26779467 29.50225593 17.09256002 29.1640625 19.73046875 C28.1015625 21.54296875 28.1015625 21.54296875 26.1640625 22.73046875 C19.67264254 24.11162193 15.77863539 20.92035293 10.37890625 17.54296875 C6.2603785 15.22097984 2.10087497 13.91498875 -2.4375 12.65234375 C-4.8359375 11.73046875 -4.8359375 11.73046875 -6.8359375 8.73046875 C-6.6484375 5.16796875 -6.6484375 5.16796875 -5.8359375 1.73046875 C-2.8359375 -0.26953125 -2.8359375 -0.26953125 0 0 Z " fill="#010101" transform="translate(25.8359375,80.26953125)"/>
<path d="M0 0 C2.5625 1.5 2.5625 1.5 4 4 C4.69343218 8.81800284 4.60703813 13.77908112 2 18 C-0.685034 20.16294405 -2.52729749 20.9295975 -5.9375 21.4375 C-9.83742199 20.88036829 -11.96517035 19.47021018 -15 17 C-16.24300105 13.27099684 -16.6711674 9.86650786 -16 6 C-11.90823956 -1.11477748 -7.47691488 -1.66006103 0 0 Z " fill="#010101" transform="translate(295,94)"/>
<path d="M0 0 C4.31669125 0.38370589 6.66409415 1.30811936 10 4 C9.86722656 4.59425781 9.73445312 5.18851563 9.59765625 5.80078125 C8.40329512 11.40643238 7.70024418 16.82685462 7.44140625 22.5546875 C6.9137178 25.47798811 6.0844654 26.89623399 4 29 C0.4375 29.375 0.4375 29.375 -3 29 C-6.74316444 25.25683556 -5.9514382 19.07470846 -6 14 C-5.39526446 9.26290494 -3.41418687 3.41418687 0 0 Z " fill="#C6C6C6" transform="translate(151,57)"/>
<path d="M0 0 C0.88429687 -0.03738281 1.76859375 -0.07476562 2.6796875 -0.11328125 C5.125 0.3125 5.125 0.3125 6.8359375 1.87109375 C8.53206184 5.08345046 9.17804441 8.12449234 9.875 11.6875 C10.13796875 12.97398438 10.4009375 14.26046875 10.671875 15.5859375 C11.11138838 19.20055619 11.07021067 21.81057196 10.125 25.3125 C7.2878797 27.90643856 5.83957298 28.34108292 2 28.1875 C-2.03318124 25.55716441 -2.27312877 22.83862574 -3.28515625 18.26953125 C-3.47980469 17.29371094 -3.67445313 16.31789063 -3.875 15.3125 C-4.27068274 13.68746333 -4.66650141 12.06245974 -5.0625 10.4375 C-5.7272762 7.34629067 -6.17275016 4.48850166 -5.875 1.3125 C-4.21607528 -0.34642472 -2.27452582 0.06263187 0 0 Z " fill="#C7C7C7" transform="translate(203.875,61.6875)"/>
<path d="M0 0 C0.9075 0.00257812 1.815 0.00515625 2.75 0.0078125 C4.11125 0.00394531 4.11125 0.00394531 5.5 0 C7.75 0.1328125 7.75 0.1328125 8.75 1.1328125 C9.26143208 5.78621307 9.49120932 10.45935734 9.75 15.1328125 C9.80542969 15.97972656 9.86085937 16.82664062 9.91796875 17.69921875 C10.03623213 20.66706651 9.85476698 22.88630196 8.6875 25.6328125 C6.75 27.1328125 6.75 27.1328125 3.25 27.6328125 C-0.25 27.1328125 -0.25 27.1328125 -1.94824219 25.42456055 C-3.49229691 22.70624816 -3.61062158 21.07471086 -3.578125 17.96484375 C-3.57296875 16.98966797 -3.5678125 16.01449219 -3.5625 15.00976562 C-3.541875 13.99849609 -3.52125 12.98722656 -3.5 11.9453125 C-3.49484375 10.92244141 -3.4896875 9.89957031 -3.484375 8.84570312 C-3.39258526 0.20025677 -3.39258526 0.20025677 0 0 Z " fill="#C7C7C7" transform="translate(177.25,61.8671875)"/>
<path d="M0 0 C5.02913152 1.28652202 8.02810761 2.66952823 11 7 C11.88791261 11.34151134 12.37344707 15.57698621 12 20 C10.5 21.8984375 10.5 21.8984375 9 23 C9.309375 21.2675 9.309375 21.2675 9.625 19.5 C10.2120376 14.86157615 9.47480525 11.42441575 8 7 C7.34 6.67 6.68 6.34 6 6 C6 5.34 6 4.68 6 4 C4.02 3.34 2.04 2.68 0 2 C0 1.34 0 0.68 0 0 Z " fill="#D18181" transform="translate(326,129)"/>
<path d="M0 0 C1.47533203 0.02707031 1.47533203 0.02707031 2.98046875 0.0546875 C5.40463783 0.10175874 7.82682059 0.16749258 10.25 0.25 C10.25 0.58 10.25 0.91 10.25 1.25 C8.29707031 1.44916016 8.29707031 1.44916016 6.3046875 1.65234375 C4.57811487 1.83063114 2.85155293 2.00902202 1.125 2.1875 C0.2690625 2.27451172 -0.586875 2.36152344 -1.46875 2.45117188 C-5.92719181 2.91416391 -10.33673994 3.44693137 -14.75 4.25 C-11.0671236 -1.25265062 -5.94711347 -0.20589208 0 0 Z " fill="#D57C7A" transform="translate(47.75,131.75)"/>
<path d="M0 0 C5.53846154 -0.36923077 5.53846154 -0.36923077 7.875 1.5 C8.24625 1.995 8.6175 2.49 9 3 C5.06329512 4.31223496 2.87511856 3.24296256 -1 2 C-0.67 1.34 -0.34 0.68 0 0 Z " fill="#261618" transform="translate(309,154)"/>
<path d="M0 0 C0.99 0.33 1.98 0.66 3 1 C3 2.32 3 3.64 3 5 C5.475 5.99 5.475 5.99 8 7 C7.01 7.33 6.02 7.66 5 8 C2.5 5.6875 2.5 5.6875 0 3 C0 2.01 0 1.02 0 0 Z " fill="#D57F7C" transform="translate(30,144)"/>
</svg>
